<svg xmlns="http://www.w3.org/2000/svg" xmlns:xlink="http://www.w3.org/1999/xlink" viewBox="0 0 217.46398 190">
  <defs>
    <style>
      .cls-1, .cls-4 {
        fill: none;
      }

      .cls-2 {
        clip-path: url(#clip-path);
      }

      .cls-3 {
        fill: #ffecce;
      }

      .cls-4 {
        stroke: #ffc28a;
        stroke-miterlimit: 10;
        stroke-width: 8px;
      }

      .cls-5 {
        fill: #fff;
      }
    </style>
    <clipPath id="clip-path" transform="translate(-0.00009 0)">
      <rect class="cls-1" width="217.464" height="190"/>
    </clipPath>
  </defs>
  <g id="Layer_2" data-name="Layer 2">
    <g id="Layer_1-2" data-name="Layer 1">
      <g id="Mushroom">
        <g class="cls-2">
          <g class="cls-2">
            <path class="cls-3" d="M128.29939,186h-33.322a17.83863,17.83863,0,0,1-17.839-17.839V134.839A17.83863,17.83863,0,0,1,94.97739,117h33.322a17.83862,17.83862,0,0,1,17.839,17.839v33.322A17.83862,17.83862,0,0,1,128.29939,186" transform="translate(-0.00009 0)"/>
            <path class="cls-4" d="M94.9773,117h33.322a17.839,17.839,0,0,1,17.839,17.839v33.322A17.839,17.839,0,0,1,128.29929,186h-33.322a17.839,17.839,0,0,1-17.839-17.839V134.839A17.839,17.839,0,0,1,94.9773,117Z"/>
            <path class="cls-5" d="M112.1382,153c0,8.836-6.044,16-13.5,16s-13.5-7.164-13.5-16,6.044-16,13.5-16,13.5,7.164,13.5,16" transform="translate(-0.00009 0)"/>
            <path d="M107.8912,153.8989c0,6.751-3.871,12.225-8.646,12.225s-8.646-5.474-8.646-12.225,3.871-12.225,8.646-12.225,8.646,5.474,8.646,12.225" transform="translate(-0.00009 0)"/>
            <path class="cls-5" d="M98.1382,145.5728a2.59434,2.59434,0,1,1-2.589-2.428,2.51211,2.51211,0,0,1,2.589,2.428" transform="translate(-0.00009 0)"/>
            <path class="cls-5" d="M103.9371,147.8872a2.59434,2.59434,0,1,1-2.589-2.428,2.5121,2.5121,0,0,1,2.589,2.428" transform="translate(-0.00009 0)"/>
            <path class="cls-5" d="M98.9371,151.8872a2.59434,2.59434,0,1,1-2.589-2.428,2.5121,2.5121,0,0,1,2.589,2.428" transform="translate(-0.00009 0)"/>
            <path class="cls-5" d="M140.1382,151.645c0,8.837-5.972,16-13.339,16-7.366,0-13.339-7.163-13.339-16,0-8.836,5.973-16,13.339-16,7.367,0,13.339,7.164,13.339,16" transform="translate(-0.00009 0)"/>
            <path d="M135.942,152.5439c0,6.751-3.825,12.225-8.543,12.225s-8.543-5.474-8.543-12.225,3.825-12.225,8.543-12.225,8.543,5.474,8.543,12.225" transform="translate(-0.00009 0)"/>
            <path class="cls-5" d="M130.9371,146.8872a2.59434,2.59434,0,1,1-2.589-2.428,2.51211,2.51211,0,0,1,2.589,2.428" transform="translate(-0.00009 0)"/>
            <path class="cls-5" d="M137.9371,147.8872a2.59434,2.59434,0,1,1-2.589-2.428,2.51211,2.51211,0,0,1,2.589,2.428" transform="translate(-0.00009 0)"/>
            <path class="cls-5" d="M133.9371,151.8872a2.59434,2.59434,0,1,1-2.589-2.428,2.51211,2.51211,0,0,1,2.589,2.428" transform="translate(-0.00009 0)"/>
            <path class="cls-3" d="M210.1382,73.5c4.813,17.303,6.765,47.999-11,64.5-14.993,13.927-30.701,5.361-90,5-61.354-.374-78.37,8.59-93-6-20.511-20.455-9.059-60.008-8-63.5,12.357-40.74,56.629-69.487,101-69.5,43.861-.013,89.47,28.052,101,69.5" transform="translate(-0.00009 0)"/>
            <path class="cls-4" d="M210.1382,73.5c4.813,17.303,6.765,47.999-11,64.5-14.993,13.927-30.701,5.361-90,5-61.354-.374-78.37,8.59-93-6-20.511-20.455-9.059-60.008-8-63.5,12.357-40.74,56.629-69.487,101-69.5C152.99919,3.987,198.60818,32.052,210.1382,73.5Z" transform="translate(-0.00009 0)"/>
          </g>
        </g>
      </g>
    </g>
  </g>
</svg>
