<svg xmlns="http://www.w3.org/2000/svg" xmlns:xlink="http://www.w3.org/1999/xlink" viewBox="0 0 350.44441 513.0224">
  <defs>
    <style>
      .cls-1 {
        fill: none;
      }

      .cls-2 {
        clip-path: url(#clip-path);
      }

      .cls-3 {
        fill: #fff;
      }

      .cls-4 {
        fill: #e6e6e6;
      }

      .cls-5 {
        fill: #ff1f1f;
      }

      .cls-6 {
        fill: #c1272d;
      }

      .cls-7 {
        fill: #ffae71;
      }

      .cls-8 {
        fill: #ffc28a;
      }
    </style>
    <clipPath id="clip-path" transform="translate(-0.78705 -2.89688)">
      <rect class="cls-1" width="353" height="516.70624"/>
    </clipPath>
  </defs>
  <g id="Layer_2" data-name="Layer 2">
    <g id="Layer_1-2" data-name="Layer 1">
      <g id="Pablo">
        <g class="cls-2">
          <g class="cls-2">
            <path class="cls-3" d="M53.818,486.50565c-18.891-8.27469-34.44624-20.56589-42.8319-38.865C.23447,424.17514,2.325,393.15039,12.01408,370.37355c9.704-22.81225,27.0712-37.44978,44.17468-51.86377A223.18851,223.18851,0,0,1,87.13953,296.624c-.2015-.20939-.39906-.41954-.59661-.63048l-1.51122-.00156a223.46074,223.46074,0,0,0-31.84726,22.41c-17.1027,14.414-34.47065,29.05232-44.1739,51.86378-9.6883,22.77683-11.78039,53.80159-1.02716,77.26713,8.52971,18.61706,24.48325,31.01374,43.81735,39.28921.10468-.2259.20936-.44628.3109-.65486Z" transform="translate(-0.78705 -2.89688)"/>
            <path class="cls-3" d="M225.24013,296.135c-.64856.27393-1.29872.54624-1.95434.80993q-.35422.33058-.7202.65407,1.98347-.70248,3.904-1.46241Z" transform="translate(-0.78705 -2.89688)"/>
            <path class="cls-3" d="M135.05675,502.73633c3.40338.17394,6.76189.31326,10.05587.42266q-4.88549-.18654-9.92363-.46989c-.04487.01653-.08738.0307-.13224.04723" transform="translate(-0.78705 -2.89688)"/>
            <path class="cls-3" d="M338.77906,359.68178c-3.64894-8.03776-13.43562-28.92085-35.95586-45.51352a106.78468,106.78468,0,0,0-37.68277-17.66468,5.151,5.151,0,0,1-5.45455-.33294l-1.4199-.00156c-7.98268,8.54623-19.78589,15.62611-33.92283,20.66584-.03858.01338-.07713.02755-.1157.04093q-4.961,1.76151-10.28176,3.18221c-.15664.04171-.31327.08343-.4707.12357q-1.5655.412-3.157.79338c-.12752.02992-.255.06219-.38252.0921q-3.52894.8347-7.17985,1.50964c-.24164.04487-.48485.08737-.72807.13065q-1.43091.25856-2.87759.49116c-.30461.04957-.60842.09838-.9146.14639q-1.53248.2373-3.08225.44707c-.1889.026-.37623.05431-.56671.07949q-1.83.24086-3.682.44157c-.2566.02833-.51476.05115-.77136.07792q-1.44627.14994-2.90435.27626c-.392.03385-.78474.06533-1.17749.09682q-1.33057.10506-2.67061.18811c-.37465.02282-.74695.04959-1.1216.07-1.24124.07006-2.48642.12988-3.73789.17238a170.31984,170.31984,0,0,1-17.80872-.32665q-3.51-.2491-6.96418-.64068-3.45217-.38962-6.8351-.91853A148.23328,148.23328,0,0,1,124.381,318.014q-1.51593-.48877-3.00038-1.00747A102.68775,102.68775,0,0,1,97.66718,305.3867q-1.12869-.76626-2.21172-1.55686c-.85793-.62734-1.68516-1.26879-2.49586-1.91895a223.86929,223.86929,0,0,0-22.38881,16.59817c-17.10348,14.41478-34.47064,29.05231-44.17468,51.86456-9.6883,22.77684-11.7796,53.8016-1.02716,77.26713C36.21428,471.30936,59.0533,484.92918,85.594,492.79852l39.031,7.72922c20.96338,2.53051,41.81735,2.99646,59.16719,3.15152q3.48051.01181,7.1342.00236c-.04251-.01732-.08423-.03305-.12673-.04959l86.25963-8.02439c30.1141-7.29711,56.4423-21.08144,67.88346-47.01608,16.51788-37.44112-4.54073-85.33323-6.16373-88.90978M163.06262,405.00956a9.24557,9.24557,0,1,1,9.24517,9.24595,9.24547,9.24547,0,0,1-9.24517-9.24595m13.35457,43.14674a9.24556,9.24556,0,1,1,9.24517-9.24517,9.24547,9.24547,0,0,1-9.24517,9.24517m1.02716-71.91177a9.24556,9.24556,0,1,1,9.246-9.24516,9.246,9.246,0,0,1-9.246,9.24516" transform="translate(-0.78705 -2.89688)"/>
            <path class="cls-3" d="M240.50693,78.37828a58.7451,58.7451,0,0,0,15.42934-18.75716c4.73748-12.54858,4.133-23.34586,5.02162-24.1306a27.56351,27.56351,0,0,0-5.04209-13.6143C250.08266,14.01237,238.599,9.18673,227.15156,10.576c-17.3467,2.10545-25.13416,17.36793-25.68355,18.49187l1.01454,1.28061a128.365,128.365,0,0,1,13.57731,17.15069Z" transform="translate(-0.78705 -2.89688)"/>
            <path class="cls-3" d="M101.11991,114.8064q.44863-2.17356.89649-4.34706c1.77175-2.07087,10.48484-11.81977,24.1511-11.8914,13.6206-.07085,22.38329,9.51908,24.18258,11.57654q.098.33292.19755.66507,18.77921-.69776,37.55683-.14321.05078-.248.10233-.49587c1.77174-2.07164,10.484-11.81976,24.1511-11.89139,13.6198-.07163,22.38328,9.51907,24.18178,11.57654q.66468,2.23142,1.331,4.46358c5.78195.547,11.9685,1.34277,18.49584,2.473,6.13853,1.06258,11.89058,2.303,17.22941,3.63242v14.95472q8.65761-25.18651,17.316-50.37381-14.67764-24.53244-29.35612-49.06486-29.53716-2.797-59.07274-5.59227c-.33215-.35578-.6588-.71-1.00038-1.06889q-36.477.92092-72.95309,1.84258l-.00866.02834.00866-.02834c-17.66862-7.40021-37.0767-3.94881-48.28409,8.218-1.16253,1.2625-13.379,15.02794-9.24595,32.87444-1.84415-.3038-8.68948-1.209-14.38172,3.08226a20.22973,20.22973,0,0,0-6.1645,9.246c-3.28767,9.96061,3.7804,25.60721,17.734,40.55324v-5.22471q16.46632-2.53245,32.93266-5.06493m25.04759-75.778c.0307-.10309.06375-.21483.1-.33527-.03542.118-.06848.22983-.1.33527m-.2865.96105c-.0244.0795-.026.085,0,0m.13459-.45494c.0244-.07792.05038-.16608.07949-.26446-.02833.09685-.05431.18418-.07949.26446m2.30224-7.70484c.026-.085.05194-.17236.07714-.25893-.02283.07715-.04959.16449-.07714.25893m-1.95592,6.54942c.11413-.38571.25108-.84378.41244-1.38452-.148.49664-.28808.96734-.41244,1.38452m.53364-1.78671c.23535-.78786.51476-1.72532.84771-2.839-.26526.88942-.56593,1.89451-.84771,2.839m1.10588-3.70327.03147-.10545c-.01023.03463-.02046.06927-.03147.10545m.19519-.6533c.01338-.04247.0244-.08263.03778-.12592-.01259.04093-.0244.08345-.03778.12592" transform="translate(-0.78705 -2.89688)"/>
            <path class="cls-3" d="M286.37339,90.43137l-9.819,36.44388c16.98462-13.948,24.3266-30.15263,19.427-39.25063-.98937-1.837-2.94213-4.2479-7.19086-6.1637l-.0488.17948c.01969.01259.0433.01806.063.03223,1.05234.80756-.34318,4.01578-2.43132,8.75874" transform="translate(-0.78705 -2.89688)"/>
            <path class="cls-3" d="M271.32571,89.67887a35.34138,35.34138,0,0,0,8.6273-2.81539c3.061-2.21725,6.0173-4.77765,7.75126-5.27117a28.674,28.674,0,0,0,2.11334-2.1865c8.53679-9.88591,10.85005-26.07873,3.08224-36.98308a27.38351,27.38351,0,0,0-31.84725-9.24592l.50293,2.76423c2.07949,3.4026,7.49312,24.27074,7.75914,42.67609Z" transform="translate(-0.78705 -2.89688)"/>
            <path class="cls-3" d="M199.85338,27.524c-1.78119-4.45568-6.08894-15.13574-17.39865-21.0578-10.24713-5.364-24.72409-4.68478-36.19043,2.05511a40.32539,40.32539,0,0,0-17.73473,22.60052l69.16246,38.011c2-4.29277,9.84255-22.39509,2.16135-41.60878" transform="translate(-0.78705 -2.89688)"/>
            <path class="cls-3" d="M126.16736,103.705c-9.3656.41559-16.26052,5.67576-20.70286,10.57929q20.24793-2.36829,40.495-3.29082c-4.5793-3.87718-11.28531-7.66626-19.79218-7.28847" transform="translate(-0.78705 -2.89688)"/>
            <path class="cls-3" d="M212.35765,103.416a28.34944,28.34944,0,0,0-17.57182,7.48524q20.42856.84182,40.85474,3.15545c-4.26525-4.62889-12.26445-11.13022-23.28292-10.64069" transform="translate(-0.78705 -2.89688)"/>
            <path class="cls-4" d="M183.79255,503.67942c-17.34984-.15506-38.20382-.621-59.168-3.15151l10.6879,2.11727c-.04093.015-.08186.02912-.12357.04408,3.353.18969,6.66666.34553,9.92364.46989,11.71742.44707,22.72174.51791,32.29906.5793,4.32428.02755,8.9508.05588,13.79927.05431-.05116-.02047-.1-.03857-.15112-.059q-3.51474-.02244-7.2672-.05431" transform="translate(-0.78705 -2.89688)"/>
            <path class="cls-4" d="M87.60683,297.11727c-.16057-.16213-.30933-.32977-.46753-.49349a223.25706,223.25706,0,0,0-30.95077,21.88583c-17.1027,14.414-34.47064,29.05153-44.17469,51.86378C2.32476,393.15023.23424,424.175,10.9859,447.64053c8.38645,18.29906,23.94094,30.59027,42.83191,38.865l31.77564,6.2928C59.05354,484.929,36.21452,471.30991,25.3692,447.64053c-10.75245-23.46555-8.66115-54.4903,1.02637-77.26714,9.70482-22.81225,27.072-37.44978,44.17468-51.86378a223.7671,223.7671,0,0,1,22.38958-16.59893,62.32159,62.32159,0,0,1-5.353-4.79341" transform="translate(-0.78705 -2.89688)"/>
            <path d="M190.92636,503.6817c.04565.01732.08815.03385.1338.052.05037.02046.1.03857.15033.059a161.8313,161.8313,0,0,0,45.81813,11.1397c8.97754.80991,42.22507,3.80952,46.22977-7.19165,1.43645-3.94569-1.26406-8.66666-4.10941-12.32742l-2.08972.19441-86.25963,8.02439c.04329.01653.08422.03227.12673.04959" transform="translate(-0.78705 -2.89688)"/>
            <path d="M177.44435,357.75325a9.24557,9.24557,0,1,0,9.246,9.246,9.24615,9.24615,0,0,0-9.246-9.246" transform="translate(-0.78705 -2.89688)"/>
            <path d="M181.55352,405.00947a9.24557,9.24557,0,1,0-9.246,9.246,9.24615,9.24615,0,0,0,9.246-9.246" transform="translate(-0.78705 -2.89688)"/>
            <path d="M135.31271,502.64487l-10.68791-2.11649-39.031-7.73-31.77564-6.29279-1.70642-.33845c-.10153.20858-.20622.429-.3109.65486-1.75993,3.78905-3.85831,10.01809-1.3105,15.31521,1.11216,2.31405,5.03423,8.44627,27.305,9.7127,12.37463.70445,32.31951.01181,57.26163-9.11372.04408-.01574.08737-.0307.13223-.04644.04172-.01574.08186-.02912.12358-.04486" transform="translate(-0.78705 -2.89688)"/>
            <path d="M176.41743,429.66525a9.24557,9.24557,0,1,0,9.24516,9.246,9.24565,9.24565,0,0,0-9.24516-9.246" transform="translate(-0.78705 -2.89688)"/>
            <path class="cls-5" d="M255.07961,278.35012q.47106-.46986.928-.94764-.4557.477-.928.94764" transform="translate(-0.78705 -2.89688)"/>
            <path class="cls-5" d="M249.30715,283.43849q-.49826.38845-1.00671.77136.50767-.38253,1.00671-.77136" transform="translate(-0.78705 -2.89688)"/>
            <path class="cls-5" d="M254.58389,278.84434q-.57262.55965-1.16964,1.10824.59623-.55019,1.16964-1.10824" transform="translate(-0.78705 -2.89688)"/>
            <path class="cls-5" d="M237.33937,291.14647q-.92681.49354-1.87566.97287.94926-.47935,1.87566-.97287" transform="translate(-0.78705 -2.89688)"/>
            <path class="cls-5" d="M251.03506,282.04038q-.516.431-1.04449.85795.53011-.42624,1.04449-.85795" transform="translate(-0.78705 -2.89688)"/>
            <path class="cls-5" d="M253.10653,280.24173q-.7379.67179-1.50887,1.32863.76979-.65763,1.50887-1.32863" transform="translate(-0.78705 -2.89688)"/>
            <path class="cls-5" d="M239.35391,290.03888c-.35814.2023-.72178.40143-1.08542.60055.36364-.19912.72728-.39825,1.08542-.60055" transform="translate(-0.78705 -2.89688)"/>
            <path class="cls-5" d="M243.3255,287.65376c-.36288.23064-.72572.46126-1.09487.6887.36915-.22744.732-.45806,1.09487-.6887" transform="translate(-0.78705 -2.89688)"/>
            <path class="cls-5" d="M245.81672,286.00733q-.84534.58324-1.71667,1.15231.8725-.56906,1.71667-1.15231" transform="translate(-0.78705 -2.89688)"/>
            <path class="cls-5" d="M247.583,284.746c-.366.26919-.7383.53444-1.11294.7989.37464-.26446.74693-.5305,1.11294-.7989" transform="translate(-0.78705 -2.89688)"/>
            <path class="cls-5" d="M241.33166,288.88666q-.51477.30818-1.035.61079.52064-.30222,1.035-.61079" transform="translate(-0.78705 -2.89688)"/>
            <path class="cls-5" d="M258.28488,294.56852c-2.29832-3.70089-2.66037-10.90356-1.63322-16.292a80.92336,80.92336,0,0,1-21.2192,13.8591c-2.84532,1.43563-5.84255,2.76976-8.96339,4.00076q-1.92205.758-3.904,1.46321a33.9837,33.9837,0,0,1-21.49229,8.78788,38.54888,38.54888,0,0,1-9.38684-1.13971q-3.87958.53127-7.84021.84925-5.5797.44394-11.301.45338a139.37948,139.37948,0,0,1-34.42027-4.27233c-.46675.00944-.77686.00314-.88,0a33.36221,33.36221,0,0,1-18.35574-6.30146c-11.64186-4.54465-21.62768-10.54857-28.96495-17.71031q-.51829-.42624-1.02873-.85716V293.883c17.50727,19.37344,54.21167,31.17586,92.61147,29.87086,20.66743-.70286,40.0464-5.146,55.56389-12.32583a112.94,112.94,0,0,1-12.72727,5.40652c14.13694-5.03894,25.94015-12.11882,33.92283-20.66585.22432-.24005.45335-.47855.67138-.721a6.8913,6.8913,0,0,1-.65248-.87919" transform="translate(-0.78705 -2.89688)"/>
            <path class="cls-5" d="M224.22706,316.876q-4.95869,1.76269-10.28178,3.18222,5.31287-1.41678,10.28178-3.18222" transform="translate(-0.78705 -2.89688)"/>
            <path class="cls-5" d="M186.05087,324.76384q-1.33059.10507-2.6706.18812,1.33884-.08382,2.6706-.18812" transform="translate(-0.78705 -2.89688)"/>
            <path class="cls-5" d="M213.47525,320.18194q-1.56553.41323-3.15782.7934,1.59267-.38018,3.15782-.7934" transform="translate(-0.78705 -2.89688)"/>
            <path class="cls-5" d="M198.23536,323.345q-1.53248.2373-3.08225.44707,1.549-.209,3.08225-.44707" transform="translate(-0.78705 -2.89688)"/>
            <path class="cls-5" d="M182.25914,325.02208c-1.24125.07-2.48642.12987-3.7379.17238,1.25148-.04251,2.49665-.10233,3.7379-.17238" transform="translate(-0.78705 -2.89688)"/>
            <path class="cls-5" d="M202.02787,322.70772q-1.42977.25857-2.87761.49115,1.44745-.23259,2.87761-.49115" transform="translate(-0.78705 -2.89688)"/>
            <path class="cls-5" d="M190.13313,324.39107q-1.44628.15-2.90437.27628,1.45809-.12516,2.90437-.27628" transform="translate(-0.78705 -2.89688)"/>
            <path class="cls-5" d="M194.58664,323.87143q-1.83.24086-3.6828.44235,1.85241-.20189,3.6828-.44235" transform="translate(-0.78705 -2.89688)"/>
            <path class="cls-5" d="M209.9357,321.06742q-3.52775.83353-7.17985,1.50965,3.64935-.67533,7.17985-1.50965" transform="translate(-0.78705 -2.89688)"/>
            <path class="cls-6" d="M256.10037,277.304c-.0307.03228-.06139.06533-.09288.09839q-.45575.477-.928.94766c-.16449.16528-.32741.33059-.49584.49429q-.57264.55965-1.16964,1.10824c-.10389.096-.20306.19362-.30774.28886q-.73791.67294-1.50885,1.3294c-.18419.1574-.37467.31247-.56277.46988-.344.2873-.69029.57379-1.04446.85715-.22591.18181-.45418.36047-.68321.54072q-.49823.38844-1.00668.77136c-.2385.17945-.47541.35811-.71705.536-.366.2684-.73907.53442-1.11295.79888-.2188.15349-.43289.30933-.65327.46282q-.84534.58322-1.71665,1.15153c-.255.16684-.51633.32977-.7745.49428-.36285.23062-.7257.46123-1.09484.68871-.29753.18339-.59819.36364-.89965.54465q-.51357.30818-1.035.61078c-.31327.18184-.62575.36208-.94214.54154-.35814.20227-.72178.40063-1.08542.59976-.30931.16922-.61549.34-.92956.50766q-.92676.4935-1.87563.97286l-.03226.0173.00079-.00077a80.92447,80.92447,0,0,0,21.21917-13.85989c.11965-.62575.25582-1.22707.41245-1.79536-.31879.27707-.64148.54939-.9634.82329" transform="translate(-0.78705 -2.89688)"/>
            <path class="cls-6" d="M87.60683,297.11727a62.32159,62.32159,0,0,0,5.353,4.79341c.8107.65012,1.63794,1.29161,2.49587,1.91891q1.08146.78985,2.21094,1.55687a102.70984,102.70984,0,0,0,23.71426,11.6206q1.48406.51829,3.00038,1.0067a148.23447,148.23447,0,0,0,22.532,5.29475q3.38017.52775,6.83431.91854,3.45219.39078,6.965.64069a170.10538,170.10538,0,0,0,17.80872.32665c1.25147-.04251,2.49665-.10233,3.73789-.17238.37387-.02047.74695-.04644,1.1216-.07006q1.33768-.08382,2.66981-.18811c.39277-.03148.78552-.063,1.17749-.09682q1.45928-.12513,2.90515-.27626c.2566-.02676.51476-.04958.77057-.07713q1.85241-.2019,3.6828-.44234c.18968-.0252.377-.05353.5667-.07872q1.549-.21013,3.08225-.44785c.30539-.04723.61-.09682.9146-.14561q1.44627-.23376,2.87759-.49115c.24322-.04408.48563-.08658.72807-.13066q3.64817-.67767,7.17985-1.50964c.1275-.02991.25423-.06218.38173-.09208q1.59267-.38253,3.1578-.7934.23494-.06138.4707-.12435,5.31167-1.418,10.281-3.18143c.03937-.01416.07792-.02833.1165-.04171a112.93973,112.93973,0,0,0,12.72725-5.40653c-15.5175,7.17984-34.89646,11.623-55.56388,12.32585-38.3998,1.305-75.1042-10.49744-92.61147-29.87088v-16.4738q-1.52064-1.28335-2.98543-2.61159v20.52655c.20464.22589.42424.4455.63282.669.19756.211.39512.4211.59662.63046.1582.16372.307.33136.46753.49349" transform="translate(-0.78705 -2.89688)"/>
            <path class="cls-5" d="M262.47471,296.74143a4.01766,4.01766,0,0,1-2.54467-.88,5.08481,5.08481,0,0,1-.695-.67139,6.50227,6.50227,0,0,1-.61549-.828c-2.30226-3.708-2.53287-11.01771-1.58127-16.0118.111-.58559.23691-1.13971.37308-1.65131q.82646-.71664,1.63322-1.44983a64.79818,64.79818,0,0,1,11.70089,4.77529l.185.10153c.07.14011.13775.28335.20307.42819a36.499,36.499,0,0,0-6.57378,3.62691c-.30854-.0307-.48091-.052-.48328-.052l-3.25384-.4022,3.06653,1.16018a72.977,72.977,0,0,0,8.00076,2.36518,12.08887,12.08887,0,0,1-6.26288,8.56593c-.15111.085-.377.20307-.64934.32742a6.06947,6.06947,0,0,1-2.50294.59582" transform="translate(-0.78705 -2.89688)"/>
            <path class="cls-6" d="M259.14105,275.69211a64.0247,64.0247,0,0,1,11.41911,4.67926,36.99245,36.99245,0,0,0-6.10466,3.40417c-.21094-.02281-.32665-.037-.33059-.037l-6.49114-.79811,6.11648,2.31484a70.80519,70.80519,0,0,0,7.6836,2.292,11.73784,11.73784,0,0,1-6.00157,7.92915c-.133.07319-.34791.18811-.61866.3109a5.74322,5.74322,0,0,1-2.33846.56041,3.63544,3.63544,0,0,1-2.30143-.79574,4.70861,4.70861,0,0,1-.64072-.61866,6.08652,6.08652,0,0,1-.57929-.78c-2.2503-3.62219-2.46674-10.80754-1.52931-15.72923.10153-.53207.21488-1.03818.33765-1.50727.45653-.39907.91855-.80993,1.379-1.22473m-.19518-.88548q-.92919.84652-1.88275,1.67415c-.15584.56829-.29278,1.16961-.41163,1.79536-1.02715,5.3892-.66509,12.5911,1.6332,16.292a6.90566,6.90566,0,0,0,.6525.87995,5.56952,5.56952,0,0,0,.74852.72255,4.40423,4.40423,0,0,0,2.78945.96419,6.56453,6.56453,0,0,0,2.66511-.63125c.28492-.12987.52025-.25343.67609-.34a12.59054,12.59054,0,0,0,6.51949-9.20974,72.47987,72.47987,0,0,1-8.30776-2.43446s.22985.02832.63833.06769a35.89678,35.89678,0,0,1,6.98543-3.82213c-.12985-.31877-.27231-.62731-.425-.92482-.09918-.05431-.196-.10941-.296-.16372a65.32681,65.32681,0,0,0-11.985-4.86974" transform="translate(-0.78705 -2.89688)"/>
            <path class="cls-5" d="M270.83755,284.46543c-1.60253,0-2.98388-.05114-4.07163-.11412a48.90441,48.90441,0,0,1,5.15229-1.25777,10.79182,10.79182,0,0,1,.15505,1.36168q-.63752.01059-1.23571.01021" transform="translate(-0.78705 -2.89688)"/>
            <path class="cls-6" d="M271.59284,283.5553c.0244.17.04328.34159.059.5124-.27549.00315-.54624.00473-.81071.00473-.52892,0-1.03346-.00631-1.512-.01575q1.14993-.28453,2.26368-.50138m.63677-.91776a50.588,50.588,0,0,0-7.50885,1.95435c1.046.1,3.23022.26763,6.12041.26763.5234,0,1.07044-.00631,1.63794-.01811a11.13855,11.13855,0,0,0-.2495-2.20387" transform="translate(-0.78705 -2.89688)"/>
            <path class="cls-5" d="M308.82933,286.06879a11.36494,11.36494,0,0,1-5.57341,0,13.12872,13.12872,0,0,1-3.28453-1.10663c-.3707.19363-.74064.4014-1.11136.62652a19.82251,19.82251,0,0,1-5.9,2.3109c3.71272,3.41756,6.33607,7.15151,10.87131,7.18691,3.92916.03149,7.17433-2.73041,9.33174-5.12238q.25265-3.17.50375-6.34157c-.24873-.06534-.499-.12832-.75483-.18577a8.24126,8.24126,0,0,1-4.08263,2.632" transform="translate(-0.78705 -2.89688)"/>
            <path class="cls-5" d="M285.59173,283.28784a46.99588,46.99588,0,0,0,7.40179-2.31876,33.13,33.13,0,0,0-8.9319-2.20543,22.52,22.52,0,0,0-3.37268-.08656c1.16252,1.40258,2.24477,2.77843,3.24437,4.10782.58246.14875,1.13185.31877,1.65842.50293" transform="translate(-0.78705 -2.89688)"/>
            <path class="cls-5" d="M264.66613,284.58687l.05429.00553a50.54912,50.54912,0,0,1,7.50885-1.95514q1.60331-.281,3.06336-.41322c-.93032-.58953-1.89531-1.17276-2.90278-1.7434-.24952.09365-.49823.18733-.73829.28492a35.92782,35.92782,0,0,0-6.98543,3.82131" transform="translate(-0.78705 -2.89688)"/>
            <path class="cls-5" d="M284.48642,283.53c1.3286,1.80009,2.50374,3.50492,3.51277,5.06022a30.13276,30.13276,0,0,0,4.961-.69029,19.82349,19.82349,0,0,0,5.9-2.31167c.36993-.22511.74063-.43291,1.11136-.62654a18.51734,18.51734,0,0,1,12.94057-1.52458c.255.05746.5061.11965.75481.185a28.57893,28.57893,0,0,1,10.0661,5.0374V278.46583s-10.11174-10.51946-24.32266-.8965a35.40411,35.40411,0,0,1-6.41637,3.39944,46.83987,46.83987,0,0,1-7.40259,2.31878c-.36837.085-.73751.16608-1.10507.24241" transform="translate(-0.78705 -2.89688)"/>
            <path class="cls-5" d="M272.47942,284.84134a68.23376,68.23376,0,0,1-7.75838-.2487l-.05507-.00553c-.40772-.03934-.63757-.06769-.63757-.06769a72.427,72.427,0,0,0,8.307,2.43449,63.30157,63.30157,0,0,0,11.50885,1.66469c-1.54113-1.34436-3.29635-2.75876-5.25935-4.17-2.19046.23614-4.25658.35261-6.10545.39275" transform="translate(-0.78705 -2.89688)"/>
            <path class="cls-7" d="M88.58148,250.01942a84.41832,84.41832,0,0,1-11.06334-41.57727A85.38805,85.38805,0,0,1,92.454,160.5697c.1889-.76348.38095-1.49782.57143-2.18967q-12.16056,1.71073-24.32269,3.948a85.09767,85.09767,0,0,0-13.78589,46.11408c0,18.90985,6.42188,36.56744,17.53481,51.54737.36521-.28731.72806-.57538,1.09878-.85872a84.65469,84.65469,0,0,1,15.03107-9.11138" transform="translate(-0.78705 -2.89688)"/>
            <path class="cls-7" d="M89.92355,278.26629a119.48486,119.48486,0,0,0,28.24239,17.18615,37.73937,37.73937,0,0,1-9.68672-10.63911c-1.05864-1.77648-5.16726-8.68161-4.08658-13.96221q-2.27628-2.29869-4.38724-4.71073a127.2092,127.2092,0,0,0-16.181,3.26328c-.95.25893-1.84731.514-2.70288.76427q2.30815,2.37661,4.78787,4.62966,1.46519,1.32822,2.98544,2.61156.51123.43092,1.02873.85713" transform="translate(-0.78705 -2.89688)"/>
            <path class="cls-7" d="M183.8456,306.09736a136.45262,136.45262,0,0,1-32.26206-6.50371,40.90449,40.90449,0,0,1-13.45926,2.684,139.34357,139.34357,0,0,0,34.42105,4.27233q5.71782,0,11.30027-.45258" transform="translate(-0.78705 -2.89688)"/>
            <path class="cls-8" d="M109.507,265.29472c.13773-.06061.27076-.10939.40535-.16214-3.09405.2078-6.42109.52972-9.90711,1.00748q2.10744,2.41321,4.38724,4.71154a6.88222,6.88222,0,0,1,1.00511-2.47462,9.02549,9.02549,0,0,1,4.10941-3.08226" transform="translate(-0.78705 -2.89688)"/>
            <path class="cls-8" d="M123.88912,265.29472c3.97245.17868,7.19165-.00471,7.19165,0a116.67771,116.67771,0,0,0-13.02479-.48406c1.59937.17869,3.48368.37782,5.83314.48406" transform="translate(-0.78705 -2.89688)"/>
            <path class="cls-8" d="M121.82765,221.04236a65.71344,65.71344,0,0,1,3.12631-19.16879c-11.96928-.15585-23.678-4.53445-29.67332-13.07516-6.29908-8.9752-4.76977-20.366-2.82644-28.22823a85.38359,85.38359,0,0,0-14.93583,47.87166,84.41845,84.41845,0,0,0,11.06335,41.57727,102.21256,102.21256,0,0,1,35.86457-9.17275c-2.66745-6.59739-2.64541-13.453-2.61864-19.804" transform="translate(-0.78705 -2.89688)"/>
            <path class="cls-8" d="M256.10037,277.304c.32192-.2739.64461-.54622.9634-.82329q.95274-.82761,1.88193-1.67413c-1.35853-.42189-2.82959-.85086-4.45259-1.29319a133.95566,133.95566,0,0,0-26.0889-4.27155c.13537.05273.2684.10154.40613.16214a9.03317,9.03317,0,0,1,4.10941,3.08226c3.54664,5.31048-1.8473,14.36361-3.08224,16.43681a37.11324,37.11324,0,0,1-6.55175,8.022c.65565-.26367,1.30578-.5368,1.95435-.80991A119.408,119.408,0,0,0,256.10037,277.304" transform="translate(-0.78705 -2.89688)"/>
            <path class="cls-8" d="M207.23622,269.40388c0-.0047,3.22.17869,7.19165,0,2.35024-.10544,4.23376-.30536,5.8339-.48405a116.67513,116.67513,0,0,0-13.02555.48405" transform="translate(-0.78705 -2.89688)"/>
            <path class="cls-8" d="M180.76871,152.94207q-10.3896-.17238-20.77841.04016c.366,1.23415.684,2.42581.94136,3.54505.1157.50058.24557,1.07358.38174,1.70168a30.71012,30.71012,0,0,1,15.98975-2.93506c.95474.09762,1.8221.24008,2.59661.39513q.10271-.34712.19834-.67218c.06927-.23535.2928-.97048.67061-2.07478" transform="translate(-0.78705 -2.89688)"/>
            <path class="cls-8" d="M247.52543,158.03589c1.42384,6.62337,3.42777,19.69382-4.12672,29.94647-11.21763,15.22468-38.66505,17.59225-54.42418,7.55211l5.793,34.754a18.32842,18.32842,0,0,1,11.30025-3.08223c4.63833.33923,11.44274,2.73041,13.35537,8.21879,1.2373,3.55372.21723,7.08775-1.28138,9.93625,14.86734,1.69853,31.67094,6.50294,46.62411,17.87877,1.0484.79732,2.0669,1.61588,3.06177,2.44628,13.8473-16.09208,22.00393-35.82052,22.00393-57.13966a85.39191,85.39191,0,0,0-14.96969-47.9173V162.42q-13.66822-2.52893-27.33645-4.3841" transform="translate(-0.78705 -2.89688)"/>
            <path class="cls-8" d="M183.8456,306.09736q3.95983-.31522,7.84021-.84926c-6.57851-1.58756-15.09876-5.35615-20.40533-14.27075a29.564,29.564,0,0,1-2.91145-6.62415c-.39512.83747-.83353,1.67728-1.33254,2.51474a30.23919,30.23919,0,0,1-15.45295,12.72571,136.45262,136.45262,0,0,0,32.26206,6.50371" transform="translate(-0.78705 -2.89688)"/>
            <path d="M100.00509,266.1402c3.4868-.47776,6.81305-.80047,9.90711-1.00748-.1346.05275-.26762.10156-.40536.16216a9.01992,9.01992,0,0,0-4.10861,3.08224,6.88572,6.88572,0,0,0-1.0059,2.47383c-1.08068,5.28058,3.02872,12.18574,4.08735,13.963a37.73316,37.73316,0,0,0,9.68594,10.63834c.23693.17708.48013.35182.72335.52419a33.35162,33.35162,0,0,0,18.35574,6.30146c.10233.00315.41322.00944.88,0a40.91991,40.91991,0,0,0,13.45847-2.684,30.23612,30.23612,0,0,0,15.453-12.72569c.4998-.83746.93742-1.6773,1.33254-2.51476a33.44981,33.44981,0,0,1-.17-18.03146,31.17372,31.17372,0,0,1,1.5002-4.16686c-14.77448-.23612-33.62846-2.44234-42.73432-16.45728a28.39483,28.39483,0,0,1-2.5179-4.85163,102.21455,102.21455,0,0,0-35.86536,9.17354A84.603,84.603,0,0,0,73.551,259.13116c-.3715.28257-.73435.57064-1.09957.85872C54.95122,273.76634,45.2094,292.52506,45.8131,293.032c.46752.39275,7.43958-9.92758,21.57415-17.464A68.49225,68.49225,0,0,1,81.122,270.16775c.85557-.25029,1.75206-.50452,2.70208-.76425a127.347,127.347,0,0,1,16.181-3.2633" transform="translate(-0.78705 -2.89688)"/>
            <path class="cls-3" d="M235.64067,114.0564q-20.42737-2.31992-40.85474-3.15543c-.2259.19913-.44549.39984-.66273.60055q21.05075.83352,42.1007,3.20188c-.185-.21015-.38016-.42659-.58323-.647" transform="translate(-0.78705 -2.89688)"/>
            <path class="cls-3" d="M187.97555,111.29082l.12907-.62491q-18.778-.55255-37.55682.144c.05981.20229.12043.403.18024.60449q18.62336-.66469,37.24751-.12361" transform="translate(-0.78705 -2.89688)"/>
            <path class="cls-3" d="M105.46474,114.28473c-.17867.19677-.3542.392-.5242.58717q20.84176-2.40136,41.68589-3.29789c-.218-.1936-.43919-.38725-.66744-.58085q-20.24673.91848-40.49425,3.29157" transform="translate(-0.78705 -2.89688)"/>
            <path class="cls-3" d="M237.87051,114.3193c.059.19915.11805.39748.17786.59663q17.67294,2.0472,35.34667,5.16961v8.84375c-14.40769-2.91931-30.66032-5.564-48.50683-7.44273,12.19362,6.93506,19.74576,23.94723,22.23453,34.75164.12043.52654.259,1.13024.403,1.79771q13.66821,1.86068,27.33644,4.38408V119.87145q-18.49583-3.38489-36.99168-5.55215" transform="translate(-0.78705 -2.89688)"/>
            <path class="cls-3" d="M93.9082,155.30569c.466-1.58047,7.80557-25.4978,22.85-33.80633-15.39392,1.623-29.52535,3.80558-42.203,6.21331v32.13611q-1.32231.23376-2.66981.45809-1.47462.24439-2.92641.46911l.25581-40.69022q15.89844-2.817,31.7961-4.75563l.10862-.52339Q84.6532,116.861,68.18686,119.87087v42.54934c.17237-.03226.34474-.06061.51633-.09207q12.16056-2.24087,24.32189-3.94807c.31247-1.13732.61708-2.17079.88312-3.07438" transform="translate(-0.78705 -2.89688)"/>
            <path class="cls-3" d="M180.76871,152.94207c2.31483-6.75953,10.4683-27.43248,25.094-33.1019q-8.817-.59856-18.06767-.90908a35.19344,35.19344,0,0,0-2.13223,3.56631l.74459-3.60881c-3.38213-.10153-6.79181-.1826-10.2558-.218-14.5777-.14875-28.44624.33059-41.53871,1.25385,13.23179,4.6029,21.83233,21.09953,25.37739,33.05782q10.38842-.21489,20.77841-.04016" transform="translate(-0.78705 -2.89688)"/>
            <path class="cls-4" d="M127.42025,118.67748a21.96007,21.96007,0,0,1,7.19321,1.24676c13.09168-.92326,26.961-1.4026,41.53794-1.25382,3.464.0354,6.87366.11726,10.25579.2188q.78394-3.79927,1.56867-7.59855-18.62454-.53958-37.24828.12356,1.08264,3.63282,2.16528,7.26325A37.92116,37.92116,0,0,0,146.626,111.574q-20.84295.89139-41.6859,3.29789a41.12782,41.12782,0,0,0-5.46792,7.915q.771-3.72844,1.53876-7.4569-15.89844,1.9398-31.7961,4.7556l-.25581,40.69025q1.44984-.22432,2.92562-.46911,1.34829-.22432,2.6706-.4573V127.7125c12.67689-2.4077,26.8091-4.59031,42.203-6.21328a21.6591,21.6591,0,0,1,10.66194-2.82174" transform="translate(-0.78705 -2.89688)"/>
            <path class="cls-4" d="M236.22405,114.70362q-21.04958-2.37183-42.1007-3.20186a42.493,42.493,0,0,0-6.32822,7.42933q9.2491.30464,18.06767.90908a21.10933,21.10933,0,0,1,7.74812-1.45139,22.7066,22.7066,0,0,1,11.27744,3.098c17.84571,1.87878,34.09913,4.52262,48.50682,7.44272v-8.84374q-17.67412-3.13107-35.34745-5.16961l1.03581,3.47263a34.05,34.05,0,0,0-2.85949-3.68516" transform="translate(-0.78705 -2.89688)"/>
            <path class="cls-3" d="M95.281,188.79853c5.99447,8.54074,17.70324,12.91931,29.67253,13.07439.58481-1.8654,1.28138-3.81031,2.10547-5.81109-9.36481-.0197-18.79967-3.35066-24.38723-10.11412-8.11333-9.81817-5.1027-23.2058-4.14009-27.48522,2.74616-12.21171,12.83666-30.58478,27.94093-30.53912,15.72844.04879,25.28766,20.037,27.94094,31.55682.15348.669.33452,1.45533.51712,2.33531a46.33574,46.33574,0,0,1,6.38331-3.58678c-.13617-.6281-.266-1.20031-.38253-1.70168-.25738-1.11924-.57458-2.3109-.94136-3.54505-3.54506-11.9575-12.1456-28.45412-25.3766-33.05782a21.96007,21.96007,0,0,0-7.19321-1.24676,21.65918,21.65918,0,0,0-10.66194,2.82171c-15.04445,8.30933-22.38407,32.22588-22.85,33.80636-.266.90435-.57064,1.937-.88312,3.07515-.18969.69108-.38253,1.42542-.57143,2.18969-1.94332,7.86224-3.47264,19.253,2.82724,28.22821" transform="translate(-0.78705 -2.89688)"/>
            <path d="M126.47282,127.92376c-15.10427-.04643-25.19478,18.32741-27.94094,30.53913-.96261,4.27861-3.97323,17.667,4.13931,27.48441,5.58835,6.76348,15.02242,10.09524,24.388,10.11412a70.85208,70.85208,0,0,1,5.04211-9.948c.77921-1.27664,9.74811-15.58674,22.82956-24.29825-.18339-.88-.36363-1.66628-.51712-2.33452-2.65328-11.51987-12.21249-31.50883-27.94093-31.55684m26.42028,33.90156c-1.69619,1.1358-8.59268-4.17707-30.81933-31.37657a20.9643,20.9643,0,0,1,14.2188,1.96223c5.27193,2.78157,7.81737,6.97046,10.66508,11.77251,3.6395,6.1393,7.87955,16.3392,5.93545,17.64183" transform="translate(-0.78705 -2.89688)"/>
            <path class="cls-3" d="M146.95765,144.1834c-2.84771-4.802-5.39315-8.99092-10.66508-11.7725a20.96428,20.96428,0,0,0-14.2188-1.96222c22.22665,27.1995,29.12314,32.51236,30.81932,31.37657,1.94411-1.30263-2.29594-11.50253-5.93544-17.64185" transform="translate(-0.78705 -2.89688)"/>
            <path d="M104.94054,114.872c.17-.19519.34553-.39038.52419-.58715,4.44235-4.90438,11.33648-10.16373,20.70286-10.58009,8.50609-.37779,15.21289,3.41129,19.7914,7.28847.22825.19365.44943.38648.66744.5809a37.98684,37.98684,0,0,1,6.26683,7.10347q-1.08265-3.63048-2.1653-7.26325-.08972-.30106-.18023-.60449c-.06612-.22118-.13223-.44394-.19835-.66512-1.7985-2.05746-10.562-11.64816-24.18179-11.57654-13.66705.07163-22.37936,9.82053-24.1511,11.8914q-.44864,2.17233-.89649,4.34708l-.10862.5234q-.76979,3.72847-1.53877,7.4569a41.08818,41.08818,0,0,1,5.46793-7.915" transform="translate(-0.78705 -2.89688)"/>
            <path class="cls-7" d="M185.66269,245.77574a135.34638,135.34638,0,0,1,32.47929-.414c1.49861-2.84929,2.5187-6.38332,1.28137-9.93625-1.91262-5.48917-8.71781-7.88035-13.35534-8.21959a18.34008,18.34008,0,0,0-11.30106,3.08226l-5.79219-34.754a26.36605,26.36605,0,0,1-7.50334-7.02478c-7.67807-10.9382-3.72766-25.46869-1.571-32.82011-.77527-.155-1.64265-.29751-2.59739-.39513a30.71739,30.71739,0,0,0-15.98975,2.93429,46.4543,46.4543,0,0,0-6.38251,3.58676c-13.08146,8.71154-22.05035,23.02164-22.82958,24.29828a70.93948,70.93948,0,0,0-5.04211,9.948c-.82408,2.00078-1.52065,3.94648-2.10545,5.81188a65.71339,65.71339,0,0,0-3.12633,19.16881c-.02677,6.35183-.04881,13.20659,2.61943,19.804a28.28372,28.28372,0,0,0,2.51791,4.85161c9.10585,14.01494,27.95982,16.22116,42.7343,16.4573a34.04224,34.04224,0,0,1,15.96379-16.37938" transform="translate(-0.78705 -2.89688)"/>
            <path class="cls-3" d="M205.86235,119.84058c-14.62573,5.66942-22.77842,26.34237-25.094,33.10189-.3778,1.1043-.60054,1.83865-.66981,2.074q-.09562.32584-.19835.673c-2.15584,7.35142-6.107,21.8819,1.571,32.82011a26.36589,26.36589,0,0,0,7.50334,7.02477c15.75911,10.04091,43.20655,7.67258,54.42418-7.55213,7.55449-10.25265,5.55056-23.32307,4.1267-29.94645-.144-.66665-.28178-1.27114-.403-1.79771-2.48878-10.80439-10.04091-27.81658-22.23453-34.75085a22.71077,22.71077,0,0,0-11.27744-3.09878,21.09605,21.09605,0,0,0-7.74811,1.45218m34.7414,39.3506c1.19323,5.18064,4.00391,17.38686-3.10428,26.46752-10.44313,13.33961-37.36557,13.64265-48.63828,0-8.11255-9.819-5.10193-23.2058-4.13931-27.48522,2.74616-12.21171,12.83745-30.58555,27.94092-30.53912,15.72843.04881,25.28767,20.037,27.94095,31.55682" transform="translate(-0.78705 -2.89688)"/>
            <path d="M212.66311,127.63475c-15.10426-.04723-25.19477,18.32741-27.94093,30.53911-.96261,4.27863-3.97323,17.66626,4.13853,27.48443,11.2735,13.64265,38.19592,13.34041,48.63828,0,7.109-9.08066,4.29751-21.28609,3.10505-26.46749-2.65328-11.51908-12.21249-31.508-27.94093-31.556m26.42029,33.90077c-1.6962,1.13656-8.59269-4.1763-30.81933-31.37657a20.97407,20.97407,0,0,1,14.2188,1.96222c5.27193,2.78158,7.81736,6.97126,10.66427,11.77329,3.6403,6.13853,7.88035,16.33922,5.93626,17.64106" transform="translate(-0.78705 -2.89688)"/>
            <path class="cls-3" d="M222.483,132.12108a20.974,20.974,0,0,0-14.21879-1.9622c22.22664,27.20027,29.12312,32.51313,30.8193,31.37657,1.94412-1.30184-2.29593-11.50253-5.93623-17.64106-2.84691-4.802-5.39234-8.99171-10.66428-11.77331" transform="translate(-0.78705 -2.89688)"/>
            <path d="M187.97555,111.29082q-.78394,3.79931-1.56789,7.5978l-.74459,3.6088a35.02731,35.02731,0,0,1,2.13223-3.56631,42.46027,42.46027,0,0,1,6.3282-7.42935c.21724-.20071.436-.40137.66195-.60055A28.35132,28.35132,0,0,1,212.358,103.416c11.01848-.48958,19.0177,6.0118,23.28293,10.64064.2023.22039.39748.43606.58323.647a34.04524,34.04524,0,0,1,2.85952,3.68514l-1.03582-3.47343q-.08856-.29749-.1771-.59582-.66586-2.23257-1.331-4.46361c-1.79849-2.05742-10.562-11.64811-24.18179-11.57649-13.667.07163-22.37934,9.81894-24.15109,11.89058q-.05193.24789-.10232.49587Z" transform="translate(-0.78705 -2.89688)"/>
            <path d="M218.14176,245.36149a135.34734,135.34734,0,0,0-32.4793.414,34.04567,34.04567,0,0,0-15.96379,16.37938,31.25524,31.25524,0,0,0-1.50019,4.16763,33.44107,33.44107,0,0,0,.1708,18.03067,29.56416,29.56416,0,0,0,2.91145,6.62417c5.30657,8.91458,13.826,12.68317,20.40533,14.27073a38.481,38.481,0,0,0,9.38605,1.13894,33.98415,33.98415,0,0,0,21.4931-8.78788c.24478-.21565.484-.43448.72017-.65407a37.08871,37.08871,0,0,0,6.55174-8.022c1.23574-2.0732,6.62888-11.12631,3.08226-16.43681a9.02775,9.02775,0,0,0-4.10861-3.08224c-.13776-.0606-.27075-.10941-.40616-.16214a133.96753,133.96753,0,0,1,26.08894,4.27152c1.62217.44236,3.09326.87133,4.45256,1.2932a65.23072,65.23072,0,0,1,11.98425,4.87053c.09995.05352.19677.10862.296.16293.39276.21094.78236.425,1.16332.64069q1.51122.856,2.90278,1.7434,1.73554,1.10271,3.29241,2.22431c1.963,1.41125,3.719,2.82565,5.26012,4.17,5.534,4.8296,8.366,8.769,8.65958,8.52262.25265-.21173-1.31445-3.63556-4.5053-8.55094-1.00906-1.5553-2.1842-3.26015-3.5128-5.06022-.18181-.24635-.3652-.49428-.55333-.74457-.99959-1.33019-2.08184-2.706-3.2436-4.10862a100.92543,100.92543,0,0,0-12.86185-12.99094c-.99487-.8296-2.01337-1.64816-3.06177-2.44548C249.8127,251.86445,233.0091,247.06,218.14176,245.36149" transform="translate(-0.78705 -2.89688)"/>
          </g>
        </g>
      </g>
    </g>
  </g>
</svg>
