<svg id="Layer_1" data-name="Layer 1" xmlns="http://www.w3.org/2000/svg" viewBox="0 0 138 138">
  <defs>
    <style>
      .cls-1 {
        fill: #eca442;
        stroke: #a67c52;
        stroke-miterlimit: 10;
        stroke-width: 10px;
      }

      .cls-2 {
        fill: #597718;
      }
    </style>
  </defs>
  <g>
    <circle class="cls-1" cx="69" cy="69" r="64"/>
    <g>
      <g>
        <path class="cls-2" d="M55.21424,58.21312a2.97838,2.97838,0,0,1-2.12012-.87793L33.03455,37.27562a2.85,2.85,0,0,1-.53223-.7334.8774.8774,0,0,1-.06933-.126,3.01076,3.01076,0,0,1,.60156-3.375,2.971,2.971,0,0,1,3.96973-.23144,2.18819,2.18819,0,0,1,.27441.23144L57.33338,53.0969a2.99659,2.99659,0,0,1-2.11914,5.11622Z"/>
        <path class="cls-2" d="M35.15149,33.15855a1.93962,1.93962,0,0,1,1.25.45,1.15,1.15,0,0,1,.17.14l2.59,2.59,17.465,17.465a1.99758,1.99758,0,1,1-2.825,2.825L33.74152,36.56858a1.81057,1.81057,0,0,1-.39-.57h-.01a2.003,2.003,0,0,1,1.81-2.84m0-2a3.9706,3.9706,0,0,0-2.82428,1.1759,4.01615,4.01615,0,0,0-.8031,4.499,2.00805,2.00805,0,0,0,.10535.19909,3.83412,3.83412,0,0,0,.69788.95026L52.38727,58.04271a3.99755,3.99755,0,1,0,5.65338-5.65339l-17.465-17.465-2.59-2.59a3.19578,3.19578,0,0,0-.37781-.32239,3.96067,3.96067,0,0,0-2.45636-.85339Z"/>
      </g>
      <g>
        <path class="cls-2" d="M102.84119,105.845a2.9734,2.9734,0,0,1-2.08789-.85058l-20.084-20.084a2.99795,2.99795,0,0,1,4.23925-4.24023l20.04981,20.05175a2.18628,2.18628,0,0,1,.23535.27832,2.99457,2.99457,0,0,1-2.35254,4.84473Z"/>
        <path class="cls-2" d="M82.789,80.7935a1.991,1.991,0,0,1,1.41253.58508l20.05,20.05a1.14886,1.14886,0,0,1,.13995.17,1.99244,1.99244,0,0,1-2.95,2.67005.0098.0098,0,0,1-.01-.01l-20.055-20.055A1.99758,1.99758,0,0,1,82.789,80.7935m.00006-2H82.789a3.99754,3.99754,0,0,0-2.8266,6.82428l20.055,20.055.01916.01911v.00006a3.99274,3.99274,0,0,0,5.95594-5.29371,3.18428,3.18428,0,0,0-.32672-.38385l-20.05-20.05a3.97122,3.97122,0,0,0-2.82666-1.1709Z"/>
      </g>
      <g>
        <path class="cls-2" d="M34.54236,49.72874a3.00328,3.00328,0,0,1-3-3v-12.374a3,3,0,0,1,6,0v12.374A3.00328,3.00328,0,0,1,34.54236,49.72874Z"/>
        <path class="cls-2" d="M34.54212,32.35508a2,2,0,0,1,2,2v12.374a2,2,0,1,1-4,0v-12.374a2,2,0,0,1,2-2m0-2a4.00451,4.00451,0,0,0-4,4v12.374a4,4,0,0,0,8,0v-12.374a4.00451,4.00451,0,0,0-4-4Z"/>
      </g>
      <g>
        <path class="cls-2" d="M34.474,37.343a3,3,0,1,1,0-6H46.848a3,3,0,0,1,0,6Z"/>
        <path class="cls-2" d="M46.84852,32.34275a2,2,0,0,1,0,4h-12.374a2,2,0,0,1-2-1.99993v-.00007a2,2,0,0,1,2-2h12.374m0-2h-12.374a4,4,0,0,0,0,8h12.374a4,4,0,0,0,0-8Z"/>
      </g>
      <g>
        <path class="cls-2" d="M103.11951,106.18089a3.00328,3.00328,0,0,1-3-3v-12.374a3,3,0,0,1,6,0v12.374A3.00328,3.00328,0,0,1,103.11951,106.18089Z"/>
        <path class="cls-2" d="M103.11939,88.80687a2,2,0,0,1,2,2v12.374a2,2,0,0,1-4,0v-12.374a2,2,0,0,1,2-2m0-2a4.0045,4.0045,0,0,0-4,4v12.374a4,4,0,0,0,8,0v-12.374a4.0045,4.0045,0,0,0-4-4Z"/>
      </g>
      <g>
        <path class="cls-2" d="M90.81287,106.19358a3,3,0,0,1,0-6h12.374a3,3,0,0,1,0,6Z"/>
        <path class="cls-2" d="M103.187,101.19316a2,2,0,0,1,0,4H90.813a2,2,0,1,1,0-4h12.374m0-2H90.813a4,4,0,1,0,0,8h12.374a4,4,0,0,0,0-8Z"/>
      </g>
    </g>
    <g>
      <g>
        <path class="cls-2" d="M34.99061,106.07542a2.99691,2.99691,0,0,1-2.36133-4.84961,2.06577,2.06577,0,0,1,.23535-.27441L53.11951,80.69651a3.00106,3.00106,0,1,1,4.24414,4.24414L37.099,105.2053A2.98012,2.98012,0,0,1,34.99061,106.07542Z"/>
        <path class="cls-2" d="M55.24152,80.81749a2.0011,2.0011,0,0,1,1.415,3.41607l-20.265,20.265a1.98793,1.98793,0,0,1-1.4013.57629,2.01367,2.01367,0,0,1-1.4187-.5863,1.99006,1.99006,0,0,1-.16-2.64,1.4613,1.4613,0,0,1,.16-.19l3.14-3.13995L53.82654,81.40355a1.99521,1.99521,0,0,1,1.415-.58606m.00012-2h-.00018a3.97482,3.97482,0,0,0-2.8291,1.17187l-17.115,17.115-3.14,3.13989a3.4503,3.4503,0,0,0-.34277.39966,3.99822,3.99822,0,0,0,5.98206,5.27783l20.2741-20.274a4.00106,4.00106,0,0,0-2.829-6.83026Z"/>
      </g>
      <g>
        <path class="cls-2" d="M82.82166,58.23948a3.001,3.001,0,0,1-2.12207-5.123l19.85449-19.84473a2.15524,2.15524,0,0,1,.33594-.27734,2.83773,2.83773,0,0,1,1.78125-.59571,2.99468,2.99468,0,0,1,2.71484,4.2666.90091.90091,0,0,1-.06738.12012,2.80533,2.80533,0,0,1-.53027.73047L84.94373,57.36058A2.98141,2.98141,0,0,1,82.82166,58.23948Z"/>
        <path class="cls-2" d="M102.67151,33.39854a1.99431,1.99431,0,0,1,1.81,2.84h-.01a1.8099,1.8099,0,0,1-.39.57L84.23627,56.65379a2.00084,2.00084,0,1,1-2.82922-2.83L98.6615,36.57859l2.6-2.6a1.18828,1.18828,0,0,1,.18-.15,1.94126,1.94126,0,0,1,1.23-.43005m0-2a3.91767,3.91767,0,0,0-2.422.82312,3.24116,3.24116,0,0,0-.40216.34271l-2.6,2.6-17.254,17.24475A4.00082,4.00082,0,1,0,85.65046,58.068l19.84521-19.84521a3.82782,3.82782,0,0,0,.69916-.95282,1.989,1.989,0,0,0,.09473-.17627,3.99439,3.99439,0,0,0-3.618-5.69513Z"/>
      </g>
      <g>
        <path class="cls-2" d="M103.28846,49.96116a3.00328,3.00328,0,0,1-3-3v-12.374a3,3,0,1,1,6,0v12.374A3.00328,3.00328,0,0,1,103.28846,49.96116Z"/>
        <path class="cls-2" d="M103.28864,32.58714a2,2,0,0,1,2,2v12.374a2,2,0,0,1-4,0V34.58708a2,2,0,0,1,2-1.99994m0-2a4.00449,4.00449,0,0,0-4,3.99994V46.96116a4,4,0,0,0,8.00006,0v-12.374a4.00455,4.00455,0,0,0-4.00006-4Z"/>
      </g>
      <g>
        <path class="cls-2" d="M90.98182,37.57444a3,3,0,1,1,0-6h12.374a3,3,0,0,1,0,6Z"/>
        <path class="cls-2" d="M103.35627,32.57481a2,2,0,0,1,0,4h-12.374a2,2,0,0,1,0-4h12.374m0-2h-12.374a4,4,0,0,0,0,8h12.374a4,4,0,0,0,0-8Z"/>
      </g>
      <g>
        <path class="cls-2" d="M34.71131,106.41331a3.00328,3.00328,0,0,1-3-3v-12.374a3,3,0,0,1,6,0v12.374A3.00328,3.00328,0,0,1,34.71131,106.41331Z"/>
        <path class="cls-2" d="M34.71137,89.03886a2,2,0,0,1,2,2v12.374a2,2,0,0,1-4,0v-12.374a2,2,0,0,1,2-2m0-2a4.0045,4.0045,0,0,0-4,4v12.374a4,4,0,0,0,8,0v-12.374a4.0045,4.0045,0,0,0-4-4Z"/>
      </g>
      <g>
        <path class="cls-2" d="M34.64393,106.425a3,3,0,1,1,0-6H47.018a3,3,0,0,1,0,6Z"/>
        <path class="cls-2" d="M47.01777,101.42521a2,2,0,0,1,0,4h-12.374a2,2,0,1,1,0-4h12.374m0-2h-12.374a4,4,0,1,0,0,8h12.374a4,4,0,0,0,0-8Z"/>
      </g>
    </g>
  </g>
</svg>
