<svg xmlns="http://www.w3.org/2000/svg" xmlns:xlink="http://www.w3.org/1999/xlink" viewBox="0 0 138 138">
  <defs>
    <style>
      .cls-1, .cls-4 {
        fill: none;
      }

      .cls-2 {
        clip-path: url(#clip-path);
      }

      .cls-3 {
        fill: #eca442;
      }

      .cls-4 {
        stroke: #a67c52;
        stroke-miterlimit: 10;
        stroke-width: 10px;
      }

      .cls-5 {
        fill: #597718;
      }
    </style>
    <clipPath id="clip-path" transform="translate(-0.0005 -0.0005)">
      <rect class="cls-1" width="138" height="138"/>
    </clipPath>
  </defs>
  <g id="Layer_2" data-name="Layer 2">
    <g id="Layer_1-2" data-name="Layer 1">
      <g id="Replay">
        <g class="cls-2">
          <g class="cls-2">
            <path class="cls-3" d="M133.0005,69.0005a64,64,0,1,1-64-64,64.00029,64.00029,0,0,1,64,64" transform="translate(-0.0005 -0.0005)"/>
            <circle class="cls-4" cx="69" cy="69" r="64"/>
            <path class="cls-5" d="M59.0776,110.5688a1.42272,1.42272,0,0,1-.318-.036l-26.087-6.02a1.5,1.5,0,0,1-.659-2.583l7.763-6.9a38.54527,38.54527,0,0,1,21.06-66.698,42.13556,42.13556,0,0,1,9.116-.949,41.22346,41.22346,0,0,1,25.169,8.257c2.289,1.747,13.799,11.264,15.63,27.107,2.036,17.618-8.777,35.564-26.903,44.655a1.519,1.519,0,0,1-.673.159,1.50062,1.50062,0,0,1-1.411-.987l-4.013-11.036a1.499,1.499,0,0,1,.789-1.878c.571-.26,14.015-6.526,16.194-20.933.206-1.364,1.774-13.575-6.591-21.781a26.62784,26.62784,0,0,0-18.352-7.116,24.67906,24.67906,0,0,0-18.612,8.053,25.18854,25.18854,0,0,0-6.378,18.845,25.75307,25.75307,0,0,0,8.274,17.287l7.038-6.159a1.50057,1.50057,0,0,1,2.484,1.244l-2.003,26.057a1.52815,1.52815,0,0,1-1.517,1.412" transform="translate(-0.0005 -0.0005)"/>
            <path class="cls-5" d="M69.9526,28.8833a39.587,39.587,0,0,1,24.259,7.949c1.472,1.124,13.237,10.401,15.05,26.086,1.949,16.868-8.405,34.276-26.086,43.143q-2.007-5.5185-4.014-11.037c1.065-.484,14.775-6.997,17.057-22.073.209-1.377,1.95-14.272-7.024-23.076a28.01854,28.01854,0,0,0-19.402-7.546,26.20355,26.20355,0,0,0-19.727,8.549c-10.117,11.212-8.897,29.197,3.01,39.13q4.014-3.513,8.026-7.023-1.002,13.0425-2.005,26.086-13.044-3.0105-26.087-6.02,4.515-4.014,9.03-8.027a37.05271,37.05271,0,0,1,19.062-65.215,40.50157,40.50157,0,0,1,8.851-.926m0-3v0a43.83968,43.83968,0,0,0-9.382.971,40.03768,40.03768,0,0,0-23.004,68.132l-2.383,2.118-4.167,3.705a2.99955,2.99955,0,0,0,1.319,5.165l13.043,3.01,13.043,3.009a2.96288,2.96288,0,0,0,.675.078,3.00324,3.00324,0,0,0,2.991-2.77l.805-10.475,1.201-15.612a3.00038,3.00038,0,0,0-4.967-2.487l-3.462,3.029-2.536,2.219a24.28945,24.28945,0,0,1-6.831-15.352,23.70285,23.70285,0,0,1,5.996-17.735,23.19716,23.19716,0,0,1,17.499-7.559,25.09132,25.09132,0,0,1,17.302,6.688c7.836,7.687,6.352,19.198,6.158,20.485-2.062,13.617-14.79,19.545-15.331,19.791a2.99841,2.99841,0,0,0-1.579,3.756l1.918,5.273,2.095,5.764a2.99822,2.99822,0,0,0,4.164,1.656c18.69-9.372,29.83-27.925,27.722-46.169-1.899-16.438-13.836-26.313-16.209-28.126a42.71483,42.71483,0,0,0-26.08-8.564" transform="translate(-0.0005 -0.0005)"/>
          </g>
        </g>
      </g>
    </g>
  </g>
</svg>
