<svg xmlns="http://www.w3.org/2000/svg" xmlns:xlink="http://www.w3.org/1999/xlink" viewBox="0 0 138 138">
  <defs>
    <style>
      .cls-1, .cls-4, .cls-6, .cls-7 {
        fill: none;
      }

      .cls-2 {
        clip-path: url(#clip-path);
      }

      .cls-3 {
        fill: #eca442;
      }

      .cls-4 {
        stroke: #a67c52;
      }

      .cls-4, .cls-6, .cls-7 {
        stroke-miterlimit: 10;
      }

      .cls-4, .cls-7 {
        stroke-width: 10px;
      }

      .cls-5 {
        fill: #597718;
      }

      .cls-6 {
        stroke: #597718;
        stroke-width: 0.5px;
      }

      .cls-7 {
        stroke: #eca442;
      }
    </style>
    <clipPath id="clip-path">
      <rect class="cls-1" width="138" height="138"/>
    </clipPath>
  </defs>
  <g id="Layer_2" data-name="Layer 2">
    <g id="Layer_1-2" data-name="Layer 1">
      <g id="Settings">
        <g class="cls-2">
          <g class="cls-2">
            <path class="cls-3" d="M133,69A64,64,0,1,1,69,5a63.99965,63.99965,0,0,1,64,64"/>
            <circle class="cls-4" cx="69" cy="69" r="64"/>
            <path class="cls-5" d="M104.75,69A35.75087,35.75087,0,1,1,69,33a35.87593,35.87593,0,0,1,35.75,36"/>
            <ellipse class="cls-6" cx="69" cy="69" rx="35.75" ry="36"/>
            <path class="cls-5" d="M69,119.5a9.51117,9.51117,0,0,1-9.5-9.5V27a9.5,9.5,0,0,1,19,0v83a9.51117,9.51117,0,0,1-9.5,9.5"/>
            <path class="cls-5" d="M69,18.5A8.50952,8.50952,0,0,1,77.5,27v83a8.5,8.5,0,0,1-17,0V27A8.50952,8.50952,0,0,1,69,18.5m0-2A10.5,10.5,0,0,0,58.5,27v83a10.5,10.5,0,0,0,21,0V27A10.5,10.5,0,0,0,69,16.5"/>
            <path class="cls-5" d="M27.5,78.5a9.5,9.5,0,0,1,0-19h83a9.5,9.5,0,0,1,0,19Z"/>
            <path class="cls-5" d="M110.5,60.5a8.5,8.5,0,0,1,0,17h-83a8.5,8.5,0,0,1,0-17h83m0-2h-83a10.5,10.5,0,0,0,0,21h83a10.5,10.5,0,0,0,0-21"/>
            <path class="cls-5" d="M39.3647,107.5703a9.4995,9.4995,0,0,1-6.718-16.217l58.69-58.69a9.5,9.5,0,0,1,13.435,13.435l-58.689,58.69a9.44016,9.44016,0,0,1-6.718,2.782"/>
            <path class="cls-5" d="M98.0547,30.8809a8.5,8.5,0,0,1,6.01,14.511l-58.69,58.689a8.49942,8.49942,0,1,1-12.02-12.02l58.69-58.691a8.44294,8.44294,0,0,1,6.01-2.489m0-2a10.46684,10.46684,0,0,0-7.425,3.075l-58.69,58.691a10.49983,10.49983,0,0,0,14.85,14.848l58.689-58.689a10.5,10.5,0,0,0-7.424-17.925"/>
            <path class="cls-5" d="M98.0547,107.5703a9.44016,9.44016,0,0,1-6.718-2.782l-58.69-58.69a9.50033,9.50033,0,0,1,13.436-13.435l58.69,58.69a9.4995,9.4995,0,0,1-6.718,16.217"/>
            <path class="cls-5" d="M39.3647,30.8809a8.44294,8.44294,0,0,1,6.01,2.489l58.69,58.691a8.49942,8.49942,0,0,1-12.02,12.02l-58.69-58.689a8.5,8.5,0,0,1,6.01-14.511m0-2a10.5,10.5,0,0,0-7.425,17.925l58.69,58.689a10.49983,10.49983,0,0,0,14.85-14.848l-58.691-58.691a10.46457,10.46457,0,0,0-7.424-3.075"/>
            <path class="cls-3" d="M83.5,69.5A14.5,14.5,0,1,1,69,55,14.50017,14.50017,0,0,1,83.5,69.5"/>
            <circle class="cls-7" cx="69" cy="69.5" r="14.5"/>
          </g>
        </g>
      </g>
    </g>
  </g>
</svg>
