<svg xmlns="http://www.w3.org/2000/svg" xmlns:xlink="http://www.w3.org/1999/xlink" viewBox="0 0 138 138">
  <defs>
    <style>
      .cls-1, .cls-4, .cls-6 {
        fill: none;
      }

      .cls-2 {
        clip-path: url(#clip-path);
      }

      .cls-3 {
        fill: #eca442;
      }

      .cls-4 {
        stroke: #a67c52;
        stroke-miterlimit: 10;
        stroke-width: 10px;
      }

      .cls-5 {
        fill: #597718;
      }

      .cls-6 {
        stroke: #597718;
        stroke-linejoin: round;
        stroke-width: 3px;
      }
    </style>
    <clipPath id="clip-path">
      <rect class="cls-1" width="138" height="138"/>
    </clipPath>
  </defs>
  <g id="Layer_2" data-name="Layer 2">
    <g id="Layer_1-2" data-name="Layer 1">
      <g id="Sound_on" data-name="Sound on">
        <g class="cls-2">
          <g class="cls-2">
            <path class="cls-3" d="M133,69A64,64,0,1,1,69,5a63.99965,63.99965,0,0,1,64,64"/>
            <circle class="cls-4" cx="69" cy="69" r="64"/>
            <polygon class="cls-5" points="74 28.384 74 108.968 47.25 89.272 47.25 47.425 74 28.384"/>
            <polygon class="cls-6" points="74 28.384 74 108.968 47.25 89.272 47.25 47.425 74 28.384"/>
            <rect class="cls-5" x="22.5" y="47.287" width="27.106" height="42.087"/>
            <rect class="cls-6" x="22.5" y="47.287" width="27.106" height="42.087"/>
            <path class="cls-5" d="M85.5,68.5c-.269-6.417-5.678-9.677-3.742-13.101A3.61424,3.61424,0,0,1,84.5,53.5c3.547-.149,7.699,7.742,8,15,.312,7.526-3.453,15.945-7,16a3.84376,3.84376,0,0,1-3-2c-2.229-3.695,3.278-7.352,3-14"/>
            <path class="cls-6" d="M85.5,68.5c-.269-6.417-5.678-9.677-3.742-13.101A3.61424,3.61424,0,0,1,84.5,53.5c3.547-.149,7.699,7.742,8,15,.312,7.526-3.453,15.945-7,16a3.84376,3.84376,0,0,1-3-2C80.271,78.805,85.778,75.148,85.5,68.5Z"/>
            <path class="cls-5" d="M104.8379,67.4893c-.312-11.435-6.604-17.243-4.352-23.345.601-1.629,1.818-3.295,3.189-3.384,4.125-.266,8.954,13.796,9.304,26.729.363,13.412-4.016,28.413-8.141,28.511-1.498.035-2.833-1.898-3.489-3.565-2.593-6.585,3.812-13.1,3.489-24.946"/>
            <path class="cls-6" d="M104.8379,67.4893c-.312-11.435-6.604-17.243-4.352-23.345.601-1.629,1.818-3.295,3.189-3.384,4.125-.266,8.954,13.796,9.304,26.729.363,13.412-4.016,28.413-8.141,28.511-1.498.035-2.833-1.898-3.489-3.565C98.7559,85.8503,105.1609,79.3353,104.8379,67.4893Z"/>
          </g>
        </g>
      </g>
    </g>
  </g>
</svg>
