<svg id="Layer_1" data-name="Layer 1" xmlns="http://www.w3.org/2000/svg" viewBox="0 0 1920.00001 1080.05237">
  <defs>
    <style>
      .cls-1 {
        fill: #ffecce;
      }

      .cls-2, .cls-3 {
        fill: #c69c6d;
      }

      .cls-2 {
        stroke: #c69c6d;
        stroke-width: 7px;
      }

      .cls-17, .cls-2, .cls-23 {
        stroke-miterlimit: 10;
      }

      .cls-4 {
        fill: #7f2700;
      }

      .cls-5 {
        opacity: 0.51;
      }

      .cls-6 {
        fill: #ffc28a;
      }

      .cls-7, .cls-8 {
        fill: #af3500;
      }

      .cls-8 {
        stroke: #af3500;
        stroke-linejoin: round;
        stroke-width: 4px;
      }

      .cls-9 {
        fill: #a67c52;
      }

      .cls-10 {
        fill: #ff1f1f;
      }

      .cls-11 {
        opacity: 0.35;
      }

      .cls-12 {
        fill: #333;
      }

      .cls-13, .cls-17 {
        fill: #eca442;
      }

      .cls-14 {
        fill: #999;
      }

      .cls-15 {
        fill: #b3b3b3;
      }

      .cls-16 {
        opacity: 0.65;
      }

      .cls-17 {
        stroke: #a67c52;
        stroke-width: 10px;
      }

      .cls-18, .cls-23 {
        fill: none;
      }

      .cls-19 {
        fill: #fff;
      }

      .cls-20 {
        fill: #e6e6e6;
      }

      .cls-21 {
        fill: #c1272d;
      }

      .cls-22 {
        fill: #ffae71;
      }

      .cls-23 {
        stroke: #ffae71;
        stroke-width: 6px;
      }
    </style>
  </defs>
  <g>
    <rect class="cls-1" x="0.00001" width="1920" height="1080"/>
    <g>
      <g id="Brick">
        <rect class="cls-2" x="406.25659" y="314.79999" width="109" height="38" rx="7.33871"/>
      </g>
      <g id="Brick-2" data-name="Brick">
        <rect class="cls-2" x="460.75659" y="366.90763" width="109" height="38" rx="7.33871"/>
      </g>
      <g id="Brick-3" data-name="Brick">
        <rect class="cls-2" x="677.08065" y="827.06208" width="109" height="38" rx="7.33871"/>
      </g>
      <g id="Brick-4" data-name="Brick">
        <rect class="cls-2" x="804.69591" y="827.06208" width="109" height="38" rx="7.33871"/>
      </g>
      <g id="Brick-5" data-name="Brick">
        <rect class="cls-2" x="731.58065" y="880.595" width="109" height="38" rx="7.33871"/>
      </g>
      <g id="Brick-6" data-name="Brick">
        <rect class="cls-2" x="1172.31299" y="654.39394" width="109" height="38" rx="7.33871"/>
      </g>
      <g id="Brick-7" data-name="Brick">
        <rect class="cls-2" x="1117.81299" y="602.71618" width="109" height="38" rx="7.33871"/>
      </g>
      <g id="Brick-8" data-name="Brick">
        <rect class="cls-2" x="875.29939" y="356.82001" width="109" height="38" rx="7.33871"/>
      </g>
      <g id="Brick-9" data-name="Brick">
        <rect class="cls-2" x="1437.40791" y="289.69355" width="109" height="38" rx="7.33871"/>
      </g>
      <g id="Brick-10" data-name="Brick">
        <rect class="cls-2" x="1275.61291" y="941.35012" width="109" height="38" rx="7.33871"/>
      </g>
      <g id="Brick-11" data-name="Brick">
        <rect class="cls-2" x="940.6381" y="305.06452" width="109" height="38" rx="7.33871"/>
      </g>
      <g id="Brick-12" data-name="Brick">
        <rect class="cls-2" x="28.82079" y="258.16998" width="109" height="38" rx="7.33871"/>
      </g>
    </g>
  </g>
  <g>
    <rect class="cls-3" x="0.00001" width="1920" height="23.94459"/>
    <rect class="cls-3" x="0.00001" y="163.79296" width="1920" height="23.94459"/>
    <g>
      <polygon class="cls-3" points="334.205 1.536 52.451 165.237 57.582 187.738 339.336 24.036 334.205 1.536"/>
      <polygon class="cls-3" points="57.582 0.97 339.383 164.698 334.252 187.199 52.451 23.47 57.582 0.97"/>
      <rect class="cls-3" x="263.6916" y="86.58439" width="146.68239" height="15" transform="translate(242.94841 431.11718) rotate(-90)"/>
      <rect class="cls-3" x="-20.88996" y="86.58439" width="146.68239" height="15" transform="translate(-41.63314 146.53563) rotate(-90)"/>
    </g>
    <polygon class="cls-3" points="618.787 1.819 337.033 165.52 342.163 188.02 623.917 24.319 618.787 1.819"/>
    <polygon class="cls-3" points="342.163 1.253 623.964 164.981 618.834 187.482 337.033 23.753 342.163 1.253"/>
    <rect class="cls-3" x="548.27315" y="86.86732" width="146.68239" height="15" transform="translate(527.24704 715.98166) rotate(-90)"/>
    <rect class="cls-3" x="263.6916" y="86.86732" width="146.68239" height="15" transform="translate(242.66548 431.40011) rotate(-90)"/>
    <polygon class="cls-3" points="903.368 1.266 621.614 164.968 626.745 187.468 908.499 23.767 903.368 1.266"/>
    <polygon class="cls-3" points="626.745 0.7 908.546 164.429 903.416 186.93 621.614 23.201 626.745 0.7"/>
    <rect class="cls-3" x="832.85471" y="86.31514" width="146.68239" height="15" transform="translate(812.38077 1000.01104) rotate(-90)"/>
    <rect class="cls-3" x="548.27315" y="86.31514" width="146.68239" height="15" transform="translate(527.79922 715.42948) rotate(-90)"/>
    <polygon class="cls-3" points="1187.95 0.997 906.196 164.698 911.326 187.199 1193.08 23.498 1187.95 0.997"/>
    <polygon class="cls-3" points="911.326 0.431 1193.127 164.16 1187.997 186.661 906.196 22.932 911.326 0.431"/>
    <rect class="cls-3" x="1117.43626" y="86.04588" width="146.68239" height="15" transform="translate(1097.23158 1284.32334) rotate(-90)"/>
    <rect class="cls-3" x="832.85471" y="86.04588" width="146.68239" height="15" transform="translate(812.65003 999.74179) rotate(-90)"/>
    <polygon class="cls-3" points="1472.532 0.728 1190.777 164.429 1195.908 186.93 1477.662 23.228 1472.532 0.728"/>
    <polygon class="cls-3" points="1195.908 0.162 1477.709 163.891 1472.579 186.391 1190.777 22.663 1195.908 0.162"/>
    <rect class="cls-3" x="1402.01782" y="85.77663" width="146.68239" height="15" transform="translate(1382.08239 1568.63564) rotate(-90)"/>
    <rect class="cls-3" x="1117.43626" y="85.77663" width="146.68239" height="15" transform="translate(1097.50083 1284.05409) rotate(-90)"/>
    <polygon class="cls-3" points="1757.113 1.549 1475.359 165.251 1480.489 187.751 1762.243 24.05 1757.113 1.549"/>
    <polygon class="cls-3" points="1480.489 0.983 1762.29 164.712 1757.16 187.213 1475.359 23.484 1480.489 0.983"/>
    <rect class="cls-3" x="1686.59937" y="86.59806" width="146.68239" height="15" transform="translate(1665.84251 1854.03863) rotate(-90)"/>
    <rect class="cls-3" x="1402.01782" y="86.59806" width="146.68239" height="15" transform="translate(1381.26096 1569.45708) rotate(-90)"/>
    <polygon class="cls-3" points="1920 71.69 1920 97.183 1903.87 106.553 1805.35 163.797 1765.07 187.199 1761.12 169.847 1760.57 167.437 1760.44 166.894 1759.94 164.691 1761.1 164.02 1761.48 163.797 1767.44 160.333 1881.93 93.815 1903.86 81.076 1920 71.69"/>
    <polygon class="cls-3" points="1920 90.447 1920 115.924 1903.87 106.553 1881.93 93.815 1767.44 27.297 1763.35 24.918 1762.05 24.168 1759.94 22.939 1760.44 20.752 1760.56 20.209 1760.96 18.453 1764.95 0.974 1765.07 0.431 1766 0.974 1807.21 24.918 1903.86 81.076 1920 90.447"/>
    <rect class="cls-3" x="1686.59937" y="86.04588" width="146.68239" height="15" transform="translate(1666.39469 1853.48645) rotate(-90)"/>
    <polygon class="cls-3" points="54.75 24.599 54.58 24.695 54.57 24.695 54.2 24.918 44.95 30.298 0 56.413 0 30.936 10.36 24.918 49.62 2.107 53.47 18.996 53.87 20.736 54 21.311 54.75 24.599"/>
    <polygon class="cls-3" points="54.8 165.266 54.31 167.421 54.18 167.995 53.63 170.406 49.67 187.742 49.67 187.758 49.64 187.742 8.43 163.797 0 158.896 0 133.419 44.95 159.535 52.27 163.797 53.6 164.563 54.8 165.266"/>
    <rect class="cls-3" x="-20.88996" y="87.15024" width="146.68239" height="15" transform="translate(-42.199 147.10148) rotate(-90)"/>
  </g>
  <g>
    <g>
      <g>
        <rect class="cls-4" x="1529.6836" y="672.44922" width="360.26758" height="361.37305" rx="2.5"/>
        <path class="cls-4" d="M1887.45166,674.94952v356.37311H1532.18359V674.94952h355.26807m0-5H1532.18359a4.99994,4.99994,0,0,0-5,5v356.37311a4.99993,4.99993,0,0,0,5,5h355.26807a4.99993,4.99993,0,0,0,5-5V674.94952a4.99994,4.99994,0,0,0-5-5Z" transform="translate(0.00001)"/>
      </g>
      <g>
        <rect class="cls-4" x="1643.40333" y="587.06055" width="162.93555" height="90.38867" rx="2.5"/>
        <path class="cls-4" d="M1803.83875,589.56042v85.3891H1645.9032v-85.3891h157.93555m0-5H1645.9032a4.99993,4.99993,0,0,0-5,5v85.3891a4.99993,4.99993,0,0,0,5,5h157.93555a4.99993,4.99993,0,0,0,5-5v-85.3891a4.99994,4.99994,0,0,0-5-5Z" transform="translate(0.00001)"/>
      </g>
      <rect class="cls-4" x="1688.29033" width="73.16129" height="589.56042"/>
    </g>
    <g>
      <g class="cls-5">
        <path d="M1563.07031,928.82031a2.49981,2.49981,0,0,1-2.5-2.5v-153.29a2.49981,2.49981,0,0,1,2.5-2.5h259.5293a2.49981,2.49981,0,0,1,2.5,2.5v65.13965a2.49981,2.49981,0,0,1-2.5,2.5h-10.44922v18.00977h10.44922a2.49981,2.49981,0,0,1,2.5,2.5v65.14062a2.49981,2.49981,0,0,1-2.5,2.5Z" transform="translate(0.00001)"/>
        <path d="M1822.6,773.03v65.14h-12.95v23.01h12.95v65.14H1563.07007V773.03H1822.6m0-5H1563.07007a5,5,0,0,0-5,5V926.32a5,5,0,0,0,5,5H1822.6a5.00006,5.00006,0,0,0,5-5V861.18a5.00006,5.00006,0,0,0-5-5h-7.95V843.17h7.95a5,5,0,0,0,5-5V773.03a5,5,0,0,0-5-5Z" transform="translate(0.00001)"/>
      </g>
      <g>
        <rect class="cls-6" x="1545.38673" y="917.54492" width="285.80664" height="17.54883" rx="2"/>
        <path class="cls-6" d="M1829.1936,919.54523v13.5484H1547.38708v-13.5484H1829.1936m0-4H1547.38708a4,4,0,0,0-4,4v13.5484a4,4,0,0,0,4,4H1829.1936a4,4,0,0,0,4-4v-13.5484a4,4,0,0,0-4-4Z" transform="translate(0.00001)"/>
      </g>
      <g>
        <rect class="cls-7" x="1526.58009" y="717.19043" width="42.73047" height="27.01953" rx="2"/>
        <path class="cls-7" d="M1567.31006,719.19v23.02h-38.73V719.19h38.73m0-4h-38.73a4,4,0,0,0-4,4v23.02a4,4,0,0,0,4,4h38.73a4,4,0,0,0,4-4V719.19a4,4,0,0,0-4-4Z" transform="translate(0.00001)"/>
      </g>
      <polyline class="cls-8" points="1891.33 824.07 1847.32 824.07 1847.32 801.06 1891.33 801.06"/>
      <g>
        <rect class="cls-7" x="1809.37794" y="832.55664" width="59.13965" height="27.01074" rx="2"/>
        <path class="cls-7" d="M1866.51794,834.55707v23.01h-55.14v-23.01h55.14m0-4h-55.14a4,4,0,0,0-4,4v23.01a4,4,0,0,0,4,4h55.14a4,4,0,0,0,4-4v-23.01a4,4,0,0,0-4-4Z" transform="translate(0.00001)"/>
      </g>
      <g>
        <rect class="cls-7" x="1579.53419" y="958.35059" width="72.08789" height="27.01563" rx="2"/>
        <path class="cls-7" d="M1649.62207,960.3501v23.0166h-68.08813V960.3501h68.08813m0-4h-68.08813a4,4,0,0,0-4,4v23.0166a4,4,0,0,0,4,4h68.08813a4,4,0,0,0,4-4V960.3501a4,4,0,0,0-4-4Z" transform="translate(0.00001)"/>
      </g>
      <g>
        <rect class="cls-7" x="1662.88673" y="958.35059" width="72.08789" height="27.01563" rx="2"/>
        <path class="cls-7" d="M1732.975,960.3501v23.0166h-68.08814V960.3501H1732.975m0-4h-68.08814a4,4,0,0,0-4,4v23.0166a4,4,0,0,0,4,4H1732.975a4,4,0,0,0,4-4V960.3501a4,4,0,0,0-4-4Z" transform="translate(0.00001)"/>
      </g>
      <g>
        <rect class="cls-7" x="1604.84669" y="995.51855" width="72.08789" height="27.0166" rx="2"/>
        <path class="cls-7" d="M1674.93457,997.51825v23.0166h-68.08813v-23.0166h68.08813m0-4h-68.08813a4,4,0,0,0-4,4v23.0166a4,4,0,0,0,4,4.00006h68.08813a4,4,0,0,0,4-4.00006v-23.0166a4,4,0,0,0-4-4Z" transform="translate(0.00001)"/>
      </g>
      <g>
        <rect class="cls-7" x="1753.54786" y="1033.57129" width="72.08789" height="27.0166" rx="2"/>
        <path class="cls-7" d="M1823.63574,1035.57141v23.01648h-68.08813v-23.01648h68.08813m0-4h-68.08813a4,4,0,0,0-4,4v23.01648a4,4,0,0,0,4,4h68.08813a4,4,0,0,0,4-4v-23.01648a4,4,0,0,0-4-4Z" transform="translate(0.00001)"/>
      </g>
      <g>
        <rect class="cls-7" x="1796.4297" y="995.51855" width="72.08789" height="27.0166" rx="2"/>
        <path class="cls-7" d="M1866.51794,997.51825v23.0166h-68.08813v-23.0166h68.08813m0-4h-68.08813a4,4,0,0,0-4,4v23.0166a4,4,0,0,0,4,4.00006h68.08813a4,4,0,0,0,4-4.00006v-23.0166a4,4,0,0,0-4-4Z" transform="translate(0.00001)"/>
      </g>
      <g>
        <rect class="cls-7" x="1638.88966" y="669.84961" width="53.25" height="27.02051" rx="2"/>
        <path class="cls-7" d="M1690.14,671.85v23.02h-49.25V671.85h49.25m0-4h-49.25a4,4,0,0,0-4,4v23.02a4,4,0,0,0,4,4h49.25a4,4,0,0,0,4-4V671.85a4,4,0,0,0-4-4Z" transform="translate(0.00001)"/>
      </g>
      <g>
        <rect class="cls-7" x="1711.7422" y="631.80176" width="72.08789" height="27.0166" rx="2"/>
        <path class="cls-7" d="M1781.83044,633.80145V656.818h-68.08813V633.80145h68.08813m0-4h-68.08813a4,4,0,0,0-4,4V656.818a4,4,0,0,0,4,4h68.08813a4,4,0,0,0,4-4V633.80145a4,4,0,0,0-4-4Z" transform="translate(0.00001)"/>
      </g>
      <g>
        <rect class="cls-7" x="1686.29005" y="538" width="45.00977" height="27.01953" rx="2"/>
        <path class="cls-7" d="M1729.30005,540v23.02h-41.01V540h41.01m0-4h-41.01a4,4,0,0,0-4,4v23.02a4,4,0,0,0,4,4h41.01a4,4,0,0,0,4-4V540a4,4,0,0,0-4-4Z" transform="translate(0.00001)"/>
      </g>
      <g>
        <rect class="cls-7" x="1712.11036" y="501.70996" width="51.33984" height="27.02002" rx="2"/>
        <path class="cls-7" d="M1761.45,503.71v23.02h-47.34V503.71h47.34m0-4h-47.34a4,4,0,0,0-4,4v23.02a4,4,0,0,0,4,4h47.34a4,4,0,0,0,4-4V503.71a4,4,0,0,0-4-4Z" transform="translate(0.00001)"/>
      </g>
      <g>
        <rect class="cls-7" x="1686.29005" y="422.9502" width="56.72949" height="27.01953" rx="2"/>
        <path class="cls-7" d="M1741.02,424.95v23.02h-52.73V424.95h52.73m0-4h-52.73a4,4,0,0,0-4,4v23.02a4,4,0,0,0,4,4h52.73a4,4,0,0,0,4-4V424.95a4,4,0,0,0-4-4Z" transform="translate(0.00001)"/>
      </g>
      <g>
        <rect class="cls-7" x="1750.2002" y="331.7998" width="13.25" height="27.02002" rx="2"/>
        <path class="cls-7" d="M1761.45,333.8v23.02h-9.25V333.8h9.25m0-4h-9.25a4,4,0,0,0-4,4v23.02a4,4,0,0,0,4,4h9.25a4,4,0,0,0,4-4V333.8a4,4,0,0,0-4-4Z" transform="translate(0.00001)"/>
      </g>
      <g>
        <rect class="cls-7" x="1686.29005" y="331.7998" width="53.22949" height="27.02002" rx="2"/>
        <path class="cls-7" d="M1737.52,333.8v23.02h-49.23V333.8h49.23m0-4h-49.23a4,4,0,0,0-4,4v23.02a4,4,0,0,0,4,4h49.23a4,4,0,0,0,4-4V333.8a4,4,0,0,0-4-4Z" transform="translate(0.00001)"/>
      </g>
      <g>
        <rect class="cls-7" x="1716.91993" y="252.16016" width="46.53027" height="27.00977" rx="2"/>
        <path class="cls-7" d="M1761.45,254.16v23.01h-42.53V254.16h42.53m0-4h-42.53a4,4,0,0,0-4,4v23.01a4,4,0,0,0,4,4h42.53a4,4,0,0,0,4-4V254.16a4,4,0,0,0-4-4Z" transform="translate(0.00001)"/>
      </g>
      <g>
        <rect class="cls-7" x="1686.29005" y="186.02002" width="19.79004" height="27.02002" rx="2"/>
        <path class="cls-7" d="M1704.08008,188.02v23.02h-15.79V188.02h15.79m0-4h-15.79a4,4,0,0,0-4,4v23.02a4,4,0,0,0,4,4h15.79a4,4,0,0,0,4-4V188.02a4,4,0,0,0-4-4Z" transform="translate(0.00001)"/>
      </g>
      <g>
        <rect class="cls-7" x="1706.31056" y="102.27002" width="57.13965" height="27.02002" rx="2"/>
        <path class="cls-7" d="M1761.45,104.27v23.02h-53.13989V104.27H1761.45m0-4h-53.13989a4,4,0,0,0-4,4v23.02a4,4,0,0,0,4,4H1761.45a4,4,0,0,0,4-4V104.27a4,4,0,0,0-4-4Z" transform="translate(0.00001)"/>
      </g>
      <g>
        <rect class="cls-7" x="1686.29005" y="22.8501" width="48.67969" height="27.02002" rx="2"/>
        <path class="cls-7" d="M1732.97,24.85V47.87H1688.29V24.85H1732.97m0-4H1688.29a4,4,0,0,0-4,4V47.87a4,4,0,0,0,4,4H1732.97a4,4,0,0,0,4-4V24.85a4,4,0,0,0-4-4Z" transform="translate(0.00001)"/>
      </g>
    </g>
    <g>
      <rect class="cls-4" x="1530.2422" y="907.9043" width="360.26758" height="169.64844" rx="2.5"/>
      <path class="cls-4" d="M1888.00989,910.40411v164.64826H1532.74182V910.40411h355.26807m0-5H1532.74182a4.99994,4.99994,0,0,0-5,5v164.64826a4.99994,4.99994,0,0,0,5,5h355.26807a4.99994,4.99994,0,0,0,5-5V910.40411a4.99994,4.99994,0,0,0-5-5Z" transform="translate(0.00001)"/>
    </g>
  </g>
  <g>
    <g>
      <rect class="cls-9" x="2.50001" y="721.69043" width="434.41992" height="355.80957"/>
      <path class="cls-9" d="M434.42,724.18994V1075H5V724.18994H434.42m5-5H0V1080H439.42V719.18994Z" transform="translate(0.00001)"/>
    </g>
    <g>
      <g>
        <rect class="cls-10" x="41.94939" y="630.90832" width="33.12939" height="77.77441" rx="2.5"/>
        <path class="cls-10" d="M72.579,633.40838v72.77423H44.44929V633.40838H72.579m0-5H44.44929a5,5,0,0,0-5,5v72.77423a5,5,0,0,0,5,5H72.579a5,5,0,0,0,5-5V633.40838a5,5,0,0,0-5-5Z" transform="translate(0.00001)"/>
      </g>
      <g>
        <rect class="cls-10" x="47.91716" y="620.84387" width="21.19385" height="15.06445" rx="2.5"/>
        <path class="cls-10" d="M66.61105,623.34387v10.06451H50.4172V623.34387H66.61105m0-5H50.4172a5,5,0,0,0-5,5v10.06451a5,5,0,0,0,5,5H66.61105a5,5,0,0,0,5-5V623.34387a5,5,0,0,0-5-5Z" transform="translate(0.00001)"/>
      </g>
      <g>
        <path class="cls-10" d="M55.52165,620.22375a2.49987,2.49987,0,0,1-2.147-3.78027l2.99267-5.01758a2.49905,2.49905,0,0,1,2.147-1.21973h0a2.49788,2.49788,0,0,1,2.147,1.21973l2.99218,5.01758a2.49987,2.49987,0,0,1-2.147,3.78027Z" transform="translate(0.00001)"/>
        <path class="cls-10" d="M58.51413,612.70605l1.49625,2.50879,1.49625,2.50885h-5.985l1.49625-2.50885,1.49626-2.50879m0-5a4.99993,4.99993,0,0,0-4.29427,2.43891l-1.49625,2.50879-1.49628,2.50891a5,5,0,0,0,4.29429,7.561h5.985a5,5,0,0,0,4.2943-7.561l-1.49626-2.50891L62.80839,610.145a4.99991,4.99991,0,0,0-4.29426-2.43891Z" transform="translate(0.00001)"/>
      </g>
      <g class="cls-11">
        <rect class="cls-12" x="41.08562" y="664.15051" width="34.90332" height="20.58008" rx="1"/>
        <path class="cls-10" d="M74.98878,665.15033V683.731H42.08556V665.15033H74.98878m0-2H42.08556a2,2,0,0,0-2,2V683.731a2,2,0,0,0,2,2H74.98878a2,2,0,0,0,2-2V665.15033a2,2,0,0,0-2-2Z" transform="translate(0.00001)"/>
      </g>
    </g>
    <g>
      <g>
        <rect class="cls-13" x="96.94011" y="630.90832" width="33.12988" height="77.77441" rx="2.5"/>
        <path class="cls-13" d="M127.56976,633.40838v72.77423H99.44009V633.40838h28.12967m0-5H99.44009a5,5,0,0,0-5,5v72.77423a5,5,0,0,0,5,5h28.12967a5,5,0,0,0,5-5V633.40838a5,5,0,0,0-5-5Z" transform="translate(0.00001)"/>
      </g>
      <g>
        <rect class="cls-13" x="102.90789" y="620.84387" width="21.19385" height="15.06445" rx="2.5"/>
        <path class="cls-13" d="M121.60186,623.34387v10.06451H105.408V623.34387h16.19387m0-5H105.408a5,5,0,0,0-5,5v10.06451a5,5,0,0,0,5,5h16.19387a5,5,0,0,0,5-5V623.34387a5,5,0,0,0-5-5Z" transform="translate(0.00001)"/>
      </g>
      <g>
        <path class="cls-13" d="M110.51237,620.22375a2.49987,2.49987,0,0,1-2.147-3.78027l2.99267-5.01758a2.49908,2.49908,0,0,1,2.147-1.21973h0a2.49785,2.49785,0,0,1,2.147,1.21973l2.99219,5.01758a2.49988,2.49988,0,0,1-2.147,3.78027Z" transform="translate(0.00001)"/>
        <path class="cls-13" d="M113.50491,612.70605l1.49625,2.50879,1.49627,2.50885h-5.985l1.49625-2.50885,1.49624-2.50879m0-5a5,5,0,0,0-4.29426,2.43891l-1.49624,2.50879-1.49627,2.50891a5,5,0,0,0,4.29429,7.561h5.985a5,5,0,0,0,4.29428-7.56109l-1.49627-2.50885-1.49627-2.50879a4.99993,4.99993,0,0,0-4.29427-2.43891Z" transform="translate(0.00001)"/>
      </g>
      <g class="cls-11">
        <rect class="cls-12" x="97.07637" y="665.15034" width="32.90323" height="18.58065"/>
      </g>
    </g>
    <g>
      <rect class="cls-9" x="163.99558" y="445.46975" width="214.24854" height="27.55762" rx="2.5"/>
      <path class="cls-9" d="M375.74435,447.97v22.55734H166.49557V447.97H375.74435m0-5H166.49557a5,5,0,0,0-5,5v22.55734a5,5,0,0,0,5,5H375.74435a5,5,0,0,0,5-5V447.97a5,5,0,0,0-5-5Z" transform="translate(0.00001)"/>
    </g>
    <g>
      <rect class="cls-14" x="216.06452" y="511.76615" width="3.67742" height="26.90322"/>
      <g>
        <rect class="cls-4" x="213.22559" y="479.7417" width="9.35498" height="39.93555" rx="1"/>
        <path class="cls-4" d="M221.58064,480.74194v37.93549H214.2258V480.74194h7.35484m0-2H214.2258a2,2,0,0,0-2,2v37.93549a2,2,0,0,0,2,2h7.35484a2,2,0,0,0,2-2V480.74194a2,2,0,0,0-2-2Z" transform="translate(0.00001)"/>
      </g>
      <g>
        <path class="cls-15" d="M217.90332,564.22622a.99968.99968,0,0,1-.94775-.68067l-10.70019-31.74219a1.00144,1.00144,0,0,1,.03808-.73486,11.67822,11.67822,0,0,1,10.689-6.85107c.38964,0,.709.01953.94043.03857.147-.00635.32519-.01172.53076-.01172a12.21483,12.21483,0,0,1,11.04394,6.793.99924.99924,0,0,1,.05323.76611l-10.69971,31.74219A.99968.99968,0,0,1,217.90332,564.22622Z" transform="translate(0.00001)"/>
        <path class="cls-15" d="M216.98256,525.21773c.392,0,.70629.02143.92067.04035.14588-.00714.33155-.01355.55091-.01355a11.44228,11.44228,0,0,1,6.41684,1.949,11.32431,11.32431,0,0,1,3.73211,4.29029q-2.675,7.93551-5.34993,15.871l-5.34993,15.871-5.34993-15.871-5.34994-15.871a10.67661,10.67661,0,0,1,9.7792-6.26612m0-2a12.67643,12.67643,0,0,0-11.59874,7.43592,1.99994,1.99994,0,0,0-.07568,1.46905l5.34995,15.871,5.34993,15.871a2,2,0,0,0,3.79043,0l5.34993-15.871,2.675-7.93548,2.675-7.93549a2.00011,2.00011,0,0,0-.10606-1.53271,13.21428,13.21428,0,0,0-11.93795-7.34546c-.19424,0-.366.00427-.51225.00995-.31891-.02466-.63414-.03675-.95949-.03675Z" transform="translate(0.00001)"/>
      </g>
    </g>
    <g>
      <g>
        <path class="cls-15" d="M255.50628,564.22579a16.87085,16.87085,0,1,1,16.87109-16.8711A16.89023,16.89023,0,0,1,255.50628,564.22579Z" transform="translate(0.00001)"/>
        <path class="cls-15" d="M255.50632,531.48385a15.871,15.871,0,1,1-15.871,15.871,15.87094,15.87094,0,0,1,15.871-15.871m0-2a17.871,17.871,0,1,0,17.871,17.871,17.89122,17.89122,0,0,0-17.871-17.871Z" transform="translate(0.00001)"/>
      </g>
      <rect class="cls-14" x="253.66762" y="511.76615" width="3.67742" height="38.16933" rx="1.83871"/>
      <g>
        <rect class="cls-4" x="250.82878" y="479.7417" width="9.35498" height="39.93555" rx="1"/>
        <path class="cls-4" d="M259.18374,480.74194v37.93549h-7.35483V480.74194h7.35483m0-2h-7.35483a2,2,0,0,0-2,2v37.93549a2,2,0,0,0,2,2h7.35483a2,2,0,0,0,2-2V480.74194a2,2,0,0,0-2-2Z" transform="translate(0.00001)"/>
      </g>
    </g>
    <g>
      <rect class="cls-6" x="88.16114" y="713.96973" width="361.80859" height="22.90039" rx="2"/>
      <path class="cls-6" d="M447.97,715.97v18.9H90.16131v-18.9H447.97m0-4H90.16131a4,4,0,0,0-4,4v18.9a4,4,0,0,0,4,4H447.97a4,4,0,0,0,4-4v-18.9a4,4,0,0,0-4-4Z" transform="translate(0.00001)"/>
    </g>
    <g>
      <rect class="cls-6" x="2.64516" y="713.96973" width="361.80859" height="22.90039"/>
      <path class="cls-6" d="M362.45384,715.97v18.9H4.64516v-18.9H362.45384m4-4H.64516v26.9H366.45384v-26.9Z" transform="translate(0.00001)"/>
    </g>
  </g>
  <rect class="cls-16" x="0.00001" width="1920" height="1080"/>
  <rect class="cls-17" x="505.7201" y="175.64353" width="908.55983" height="728.71294" rx="105.09677"/>
  <g>
    <path class="cls-10" d="M1480.29968,187.86848c-1.52746,6.34926-.25024,7.88706.44226,8.35732,3.33326,2.2635,12.896-6.77667,14.70972-8.51613Z" transform="translate(0.00001)"/>
    <path class="cls-10" d="M1503.2,304.42a41.90271,41.90271,0,0,0-12.6499-.85,46.21265,46.21265,0,0,0-4.13013-14.83c-3.28992-6.94-10.47-17.21-9.67993-32.13.73-13.77,7.49-17,6.97-30.58-.51-13.29-7.21-16-9.27-29.7-.01-.03-.01-.07-.02-.1-.18994-1.3-.34985-2.71-.42993-4.24,0,0-.14-2.56,0-5.15.18994-3.38,3.04-13.64,9.54-26.34q7.18506-4.17,14.37-8.35c-9.59,17.53-13.01,32-12.91,35.67005a59.77387,59.77387,0,0,0,.75,7.53c.14.85.30005,1.66.48,2.44,2.47,10.92,6.74,12.89,7.55,23.98,1.22,16.5-7.49,22.05005-7.3501,37.17.13013,13.96,7.70008,22.74,11.61011,29.8A46.05738,46.05738,0,0,1,1503.2,304.42Z" transform="translate(0.00001)"/>
    <path class="cls-10" d="M1511.58069,157.51613Z" transform="translate(0.00001)"/>
    <path class="cls-10" d="M1475.585,195.68511c.13119-.13751.2538-.27962.36954-.42521.0045-.066.01037-.13032.0146-.1966a40.88673,40.88673,0,0,0-.2617-7.59565q-.636-.33591-1.26816-.68806c-.32106.032-.65473.08133-.99629.14525-2.94275.55109-6.48314,2.241-7.82467,4.27032a3.79536,3.79536,0,0,0-.29427.541,3.13648,3.13648,0,0,0-.19409.56106,3.30159,3.30159,0,0,0,1.066,3.067c.12993.13.24554.23368.32411.301a6.9755,6.9755,0,0,0,6.10724,1.67717Q1474.10613,196.51379,1475.585,195.68511Z" transform="translate(0.00001)"/>
    <g>
      <path class="cls-18" d="M1363.37034,373.31363c.00533-.14035.0111-.28831.017-.445Z" transform="translate(0.00001)"/>
      <path class="cls-18" d="M1363.77167,362.83708l-.00146.03743Z" transform="translate(0.00001)"/>
      <path class="cls-18" d="M1609.11,647.4l-1.75.45c.20007-.37.41-.74.6-1.1A7.92557,7.92557,0,0,0,1609.11,647.4Z" transform="translate(0.00001)"/>
      <path class="cls-18" d="M1363.74882,363.43131l-.01312.34365C1363.74057,363.64942,1363.74492,363.53416,1363.74882,363.43131Z" transform="translate(0.00001)"/>
      <path class="cls-18" d="M1363.35808,373.63273l-.01334.35159Z" transform="translate(0.00001)"/>
      <path class="cls-18" d="M1363.32168,374.586c-.00446.11289-.00408.106,0,0Z" transform="translate(0.00001)"/>
      <path class="cls-18" d="M1577.83008,375.91c-.31006-.32-.63013-.63-.94007-.95l.01-.72c.02991.01.05994.01.08.02C1577.46,374.47,1577.73,375.03,1577.83008,375.91Z" transform="translate(0.00001)"/>
      <path class="cls-18" d="M1577.77,378.89c.02-.96.04-1.91.07007-2.87A15.128,15.128,0,0,1,1577.77,378.89Z" transform="translate(0.00001)"/>
      <path class="cls-18" d="M1363.47362,370.61821c-.02752.71707-.05066,1.32385-.07026,1.83424C1363.4245,371.90007,1363.44828,371.27667,1363.47362,370.61821Z" transform="translate(0.00001)"/>
      <path class="cls-18" d="M1636.9,623.34c-.43.22-.86.44-1.28.65-.30994-.25-.61-.49-.92-.74C1635.46,623.25,1636.18994,623.28,1636.9,623.34Z" transform="translate(0.00001)"/>
      <path class="cls-18" d="M1541.96,912.27c-2.97.2-6.05.4-9.22.61,2.93994-.21,5.96-.43,9.04-.66C1541.84009,912.24,1541.9,912.25,1541.96,912.27Z" transform="translate(0.00001)"/>
      <path class="cls-18" d="M1628.65,626.99c-2.62.98-5.13,1.78-7.39,2.42a14.04454,14.04454,0,0,0-1.01-2.64c1.26-.56995,2.47-1.06,3.64-1.48C1625.55005,625.83,1627.13,626.4,1628.65,626.99Z" transform="translate(0.00001)"/>
      <path class="cls-18" d="M1619.77,624.07c-.28.19-.56006.38995-.82007.57995-.26-.35-.54-.68-.81995-1C1618.67993,623.78,1619.23,623.92,1619.77,624.07Z" transform="translate(0.00001)"/>
      <path class="cls-18" d="M1598.72,625.32a1.07823,1.07823,0,0,0-.08.15c-.28.49-.55993.98-.85,1.46-.15.26-.29.51-.45.77-.3501.58-.72009,1.16-1.09009,1.74-.1.14-.18994.29-.28.44-.47.71-.95,1.41-1.43994,2.12q-.27007.375-.54.75c-.33008.46-.66992.93-1.02,1.39-.22.29-.43994.59-.66992.88-.32007.42-.65.85-.99,1.27-.24.29-.47.59-.71008.89-.37.44-.74.89-1.12,1.33-.22.26-.42993.52-.65991.77-.57007.66-1.15015,1.32-1.75,1.97-.26.28-.53.57-.79.85-.37012.4-.75.8-1.13,1.19q-.4649.48-.93.96c-.36.36-.72.72-1.09,1.08-.31994.32-.65.64-.98.96-.38.37-.76.73-1.15,1.09-.33008.3-.65.61-.98.91-.66.61-1.32007,1.2-2,1.8l-.03.03q-4.57508,3.99-9.76,7.76l-1.52.39A151.55584,151.55584,0,0,0,1598.72,625.32Z" transform="translate(0.00001)"/>
      <path class="cls-18" d="M1363.72154,364.14636l-.00636.16626Z" transform="translate(0.00001)"/>
      <path class="cls-18" d="M1363.68728,365.03849l-.00538.13966Z" transform="translate(0.00001)"/>
      <path class="cls-18" d="M1435.81006,691.76c-15.76-1.9-29.95007-6.13-41.25-12.61005a152.24505,152.24505,0,0,0,40.19995,12.2C1435.1,691.49,1435.46,691.63,1435.81006,691.76Z" transform="translate(0.00001)"/>
      <path class="cls-18" d="M1363.62,366.86c-.02991.64-.04993,1.3-.08,1.97C1363.56006,368.23,1363.59009,367.57,1363.62,366.86Z" transform="translate(0.00001)"/>
      <path class="cls-19" d="M1568.23,657.88c-1.41992,1.03-2.86,2.04-4.34,3.03.23-.34.45008-.68.68006-1.03.72-.53,1.42993-1.07,2.13989-1.61Z" transform="translate(0.00001)"/>
      <path class="cls-19" d="M1483.67993,915.81c-4.17993.17-8.44995.3-12.77991.4.05994-.03.11-.05.16-.07,2.13989-.04,4.26-.08,6.35986-.14C1479.52,915.95,1481.61,915.88,1483.67993,915.81Z" transform="translate(0.00001)"/>
      <path class="cls-19" d="M1388.53,676.15l.06006.22a1.28486,1.28486,0,0,1,.13989-.12C1388.65991,676.22,1388.6,676.18,1388.53,676.15Zm-7.36011-6.68c-4.93994-2.96-23.32983,13.49-29.09985,18.85a.00976.00976,0,0,0-.01.01c-.61011,1.41-1.19006,2.78-1.72,4.11l-.01.01-.01.01v.01c-.77,2-1.48,3.88-2.1001,5.65-2.68994,7.74-3.6499,12.98-3.25,13.17.69995.33,6.01-14.57,21.01-28.32a86.93882,86.93882,0,0,1,15.18994-11c.67017-.4,1.37012-.81,2.1001-1.24-.52-.3-.94995-.56-1.29-.77C1381.51,669.68,1381.21,669.5,1381.16992,669.47Zm226.79-22.72c-.18994.36-.3999.73-.6,1.1l1.75-.45A7.92557,7.92557,0,0,1,1607.96,646.75Z" transform="translate(0.00001)"/>
      <path class="cls-19" d="M1715.75,716.02c-5.37-9.84-19.71-35.39-49.78-54.33a135.72633,135.72633,0,0,0-49.21-18.85l-.11.11c-.17.15-.42.38-.7301.63-1.32983,1.07-3.88989,2.61-6.80993,1.32l-1.75.45c-4.86,8.89-12.11,17.51-21.25,25.48-.49.43-.99.86-1.49,1.29a1.06725,1.06725,0,0,0-.12.1c-.55005.46-1.1.92-1.65991,1.37-2.59009,2.12-5.32007,4.2-8.18018,6.21-.33984.24-.67993.48-1.0199.71-.49.34-.9801.68-1.47009,1.01-.04992.03-.08984.06-.12988.08q-5.54993,3.75-11.65,7.18c-.17.1-.35.2-.53.3-1.20008.67-2.41,1.33-3.64,1.98-.1499.07-.29.15-.43994.23q-4.06494,2.145-8.3501,4.13c-.28992.13-.56994.26-.85986.39-1.12012.52-2.24,1.02-3.38013,1.52-.35986.16-.72.31-1.08.47q-1.815.78-3.66,1.53-.33.135-.65991.27c-1.45.59-2.92,1.16-4.4,1.71-.29992.12-.61.23-.92.34q-1.72485.645-3.48,1.26c-.48.17-.94995.33-1.42993.5-1.07007.36-2.14014.72-3.22,1.07-.45008.15-.90015.3-1.36011.44-1.5.48-3.02.95-4.54,1.4-38.04993,11.19-77.47,11.38-105.76,1.24q-3.25488-1.17-6.31994-2.52-3.05988-1.35-5.9-2.89c-.3-.17-.6-.32995-.8999-.5-.17-.09-.34009-.19-.5-.28-.13013-.07-.25-.15-.38013-.22-.58984-.32995-1.15991-.67-1.73-1.03-.48-.29-.96-.59-1.42993-.9-.17-.1-.33008-.2-.49-.31l-5.76-22.38c-.17993-.09-.36011-.18-.54-.28a1.28486,1.28486,0,0,0-.13989.12l-.06006-.22c-2.51-1.32-4.97-2.72-7.36011-4.18a86.93882,86.93882,0,0,0-15.18994,11c-15,13.75-20.31006,28.65-21.01,28.32-.3999-.19.56006-5.43,3.25-13.17.62012-1.77,1.33008-3.65,2.1001-5.65v-.01l.01-.01.01-.01c.52991-1.33,1.10986-2.7,1.72-4.11-1.1001,1.02-1.74,1.64-1.74,1.64-.12012.12-.20007.19-.28.27-38.84009,37.59-51.15,69.82-51.15,69.82-10.17,29.76-9.93005,69.26,5.87,98,12.54,22.8,33.8999,37.02,59.16992,45.71.11011-.29.22009-.58.33008-.85l2.19995.27,40.84009,5.02,50.17993,6.17,13.74,1.69c-.05005.02-.1.04-.15991.07,2.13989-.04,4.26-.08,6.35986-.14q3.15015-.09,6.26-.19c14.89014-.52,28.84009-1.45,40.98-2.27,5.4801-.36,11.3501-.76,17.49011-1.21-.05993-.02-.13-.04-.19006-.06-2.97.2-6.05.4-9.22.61,2.93994-.21,5.96-.43,9.04-.66a.99216.99216,0,0,0-.16-.05l108.54992-18.18c37.4801-12.05,69.56006-31.96,81.65015-65.88C1749.27,779.13,1718.14,720.4,1715.75,716.02Zm-204.6,12.54a11.74615,11.74615,0,1,1-10.86,12.58A11.74632,11.74632,0,0,1,1511.15,728.56Zm-13.84,61.22a11.74649,11.74649,0,1,1,12.58,10.85A11.76135,11.76135,0,0,1,1497.31006,789.78ZM1518.24,843.21a11.74652,11.74652,0,1,1,10.86-12.58A11.74646,11.74646,0,0,1,1518.24,843.21Zm89.12-195.36c.20007-.37.41-.74.6-1.1a7.92557,7.92557,0,0,0,1.15.65Z" transform="translate(0.00001)"/>
      <path class="cls-19" d="M1607.96,646.75c-.18994.36-.3999.73-.6,1.1l1.75-.45A7.92557,7.92557,0,0,1,1607.96,646.75ZM1434.76,691.35a152.24505,152.24505,0,0,1-40.19995-12.2c11.29993,6.48,25.49,10.71,41.25,12.61005C1435.46,691.63,1435.1,691.49,1434.76,691.35Z" transform="translate(0.00001)"/>
      <path class="cls-6" d="M1528.32007,680.11q-4.6051,1.875-9.38013,3.53c-4.48,1.54-9.06994,2.93-13.76,4.13-.99.25-1.98.5-2.96.74-.85.2-1.7.4-2.54.59h-.02c-.82983.19-1.65991.37-2.48.54-1.60986.34-3.22.65-4.81994.94-.6.11-1.20008.21-1.79993.32a.01877.01877,0,0,1-.03,0c-1.23.21-2.44995.41-3.67.59q-1.83.285-3.66.51c-.60986.08-1.22.16-1.83.22l-1.83.21c-1.05005.11-2.11011.21-3.16.31l-.72009.06c-.98.08-1.97.16-2.95.23-.28.02-.56995.04-.85.05q-1.42512.09007-2.85.15c-.30005.02-.6001.04-.91.04-.85.04-1.7.07-2.53992.08a7.11956,7.11956,0,0,1-.80005.02c-1.1001.03-2.19995.05-3.29.05.56006-.15,1.3-.37,2.18-.67.13-.04.25989-.09.39-.13,1.05994-.37,2.30994-.84,3.67993-1.44.21-.09.43-.18.64-.28l.33-.15c.11011-.01.21008-.01.32007-.02q1.42492-.06,2.85-.15c.28-.01.56994-.03.85-.05.98-.07,1.97-.15,2.95-.23l.72009-.06c1.04993-.1,2.11-.2,3.16-.31l1.83-.21c.61-.06,1.22009-.14,1.83-.22q1.83-.225,3.66-.51c1.22009-.18,2.44006-.38,3.67-.59a.01877.01877,0,0,0,.03,0c.59985-.11,1.19995-.21,1.79993-.32,1.6-.29,3.21008-.6,4.81994-.94.82007-.17,1.65015-.35,2.48-.54h.02c.84009-.19,1.69007-.39,2.54-.59.98-.24,1.97-.49,2.96-.74,4.69007-1.19995,9.28-2.59,13.76-4.13,1.19006-.41,2.37012-.83,3.54-1.27h.01A51.3997,51.3997,0,0,0,1528.32007,680.11Z" transform="translate(0.00001)"/>
      <path class="cls-19" d="M1577.83008,375.91c0,.03.01.07.01.11v-.1Z" transform="translate(0.00001)"/>
      <path class="cls-19" d="M1577.84009,375.92v.1c0-.04-.01-.08-.01-.11Z" transform="translate(0.00001)"/>
      <path class="cls-20" d="M1388.73,676.25a1.28486,1.28486,0,0,0-.13989.12l-.06006-.22C1388.6,676.18,1388.65991,676.22,1388.73,676.25Z" transform="translate(0.00001)"/>
      <path d="M1659.15,908.79c-4.05,14.31-46.46008,13.59-57.91,13.4a205.79507,205.79507,0,0,1-59.09-9.86c-.05993-.02-.13-.04-.19006-.06s-.11987-.03-.17993-.05a.99216.99216,0,0,0-.16-.05l108.54992-18.18,2.63013-.44C1656.75,897.92,1660.61,903.65,1659.15,908.79Z" transform="translate(0.00001)"/>
      <path d="M1512.86,751.99a11.74615,11.74615,0,1,1,10.86-12.57A11.73162,11.73162,0,0,1,1512.86,751.99Z" transform="translate(0.00001)"/>
      <path d="M1509.89,800.63a11.74652,11.74652,0,1,1,10.85-12.57A11.7466,11.7466,0,0,1,1509.89,800.63Z" transform="translate(0.00001)"/>
      <path d="M1471.22,916.07c-.05005.02-.1.04-.15991.07-.05005.02-.1001.04-.16.07-30.75,13.88-55.96008,16.61005-71.71008,16.86005-28.34.47-33.86987-6.94-35.5-9.77-3.72-6.47-1.63989-14.56.24-19.53.11011-.29.22009-.58.33008-.85l2.19995.27,40.84009,5.02,50.17993,6.17Z" transform="translate(0.00001)"/>
      <path d="M1518.24,843.21a11.74652,11.74652,0,1,1,10.86-12.58A11.74646,11.74646,0,0,1,1518.24,843.21Z" transform="translate(0.00001)"/>
      <path class="cls-10" d="M1587.41992,641.54c-2.40991,2.44-5,4.84-7.76,7.16C1580.89,647.6,1583,645.68,1587.41992,641.54Z" transform="translate(0.00001)"/>
      <path class="cls-21" d="M1587.41992,641.54c-2.40991,2.44-5,4.84-7.76,7.16C1580.89,647.6,1583,645.68,1587.41992,641.54Z" transform="translate(0.00001)"/>
      <path class="cls-21" d="M1388.73,676.25a1.28486,1.28486,0,0,0-.13989.12l-.06006-.22C1388.6,676.18,1388.65991,676.22,1388.73,676.25Z" transform="translate(0.00001)"/>
      <path class="cls-10" d="M1621.75,629.55a2.63195,2.63195,0,0,0-.1-.25q-.49492-1.35-1.02-2.7c-.30993-.83-.62-1.65-.93005-2.48a.133.133,0,0,1-.03-.08l-.72-1.89c-.26-.35-.54-.68-.81995-1-.14-.04-.27-.07-.41-.11a83.20081,83.20081,0,0,0-16.29-2.19c-.53992.82-1.08,1.62-1.63989,2.43.55994.02,1.11.04,1.63989.07-.58984.89-1.17993,1.77-1.78992,2.65-.29992.44-.61.88-.92,1.32A151.55584,151.55584,0,0,1,1566.71,658.27c-.71.54-1.41992,1.08-2.13989,1.61.69995-1.09,1.33984-2.18,1.91992-3.26-.86.61-1.72,1.2-2.6,1.79a43.17971,43.17971,0,0,1-23.66,17.63,49.34339,49.34339,0,0,1-11.90991,1.57c-1.92.78-3.86011,1.54-5.83008,2.26h-.01c-1.16992.44-2.35.86-3.54,1.27-4.48,1.54-9.06994,2.93-13.76,4.13-.99.25-1.98.5-2.96.74-.85.2-1.7.4-2.54.59h-.02c-.82983.19-1.65991.37-2.48.54-1.60986.34-3.22.65-4.81994.94-.6.11-1.20008.21-1.79993.32a.01877.01877,0,0,1-.03,0c-1.23.21-2.44995.41-3.67.59q-1.83.285-3.66.51c-.60986.08-1.22.16-1.83.22l-1.83.21c-1.05005.11-2.11011.21-3.16.31l-.72009.06c-.98.08-1.97.16-2.95.23-.28.02-.56995.04-.85.05q-1.42512.09007-2.85.15c-.11.01-.21.01-.32007.02-.18994.01-.38989.02-.59.02-.85.04-1.7.07-2.53992.08a7.11956,7.11956,0,0,1-.80005.02c-1.1001.03-2.19995.05-3.29.05-.57.16-.95.25-1.08.28a42.3457,42.3457,0,0,1-24.58-1.94q-3.765-.45007-7.41-1.09a47.75368,47.75368,0,0,0,6.36,3.18,152.24505,152.24505,0,0,1-40.19995-12.2c-.51-.24-1.02-.49-1.53-.73-1.27-.61-2.52-1.24-3.76-1.89l5.76,22.38c.15991.11.32.21.49.31.47.31.95.61,1.42993.9.57007.35,1.15.7,1.73,1.03.13013.07.25.15.38013.22.15991.09.33.19.5.28.29993.17005.59985.33.8999.5q2.835,1.545,5.9,2.89,3.06,1.35,6.31994,2.52c28.29,10.14,67.71008,9.95,105.76-1.24,1.52-.45,3.04-.92005,4.54-1.4.46-.14.91-.29,1.36011-.44,1.07983-.35,2.1499-.71,3.22-1.07.48-.17.94995-.33,1.42993-.5q1.75488-.615,3.48-1.26c.31006-.11.62012-.22.92-.34,1.48-.55,2.95008-1.12,4.4-1.71q.33-.135.65991-.27,1.845-.75,3.66-1.53c.36-.16.72009-.31,1.08-.47,1.14014-.5,2.26-1,3.38013-1.52.28992-.13.56994-.26.85986-.39q4.27515-1.98,8.3501-4.13c.1499-.08.29-.16.43994-.23,1.23-.65,2.43994-1.31,3.64-1.98.18005-.1.36-.2.53-.3q6.08991-3.435,11.65-7.18c.04-.02.08-.05.12988-.08.49-.33.9801-.67,1.47009-1.01.34-.23.68006-.47,1.0199-.71,2.86011-2.01,5.59009-4.09,8.18018-6.21.55993-.45,1.10986-.91,1.65991-1.37a1.06725,1.06725,0,0,1,.12-.1c.5-.43,1-.86,1.49-1.29,9.14-7.97,16.39-16.59,21.25-25.48.20007-.37.41-.74.6-1.1a7.92557,7.92557,0,0,0,1.15.65c2.92,1.29,5.4801-.25,6.80993-1.32.31006-.25.56006-.48.7301-.63l.11-.11A15.97376,15.97376,0,0,0,1621.75,629.55Z" transform="translate(0.00001)"/>
      <path class="cls-6" d="M1424.80005,622.43a139.32724,139.32724,0,0,0-26.12012,11.97A137.34849,137.34849,0,0,1,1424.73,622.33C1424.75,622.36,1424.78,622.4,1424.80005,622.43Z" transform="translate(0.00001)"/>
      <path class="cls-6" d="M1574.6,597.44a161.24687,161.24687,0,0,1-10.11,26.3c-.13.26-.25.52-.38.78q-1.83,3.64508-3.81995,7.1c-9.52,16.52-21.96,29.69-36.97,37.12,0,0-4.97009,2.47-19.81006,4.31-4.28.53-9.38,1-15.41992,1.36-16.94007.98-41.27.97-75.57007-1.67q-13.14-1.02-28.27-2.57c-1.30005-.13-2.57007-.39-2.57007-.39a24.89191,24.89191,0,0,1-2.51-.63h-.0199a34.96,34.96,0,0,1-12.14-6.6c-.04-.03-.08008-.07-.12-.1-7.36-5.79-29.35-24.6-37.91-57.86a108.10083,108.10083,0,0,1,2.36011-61.11c.22-.13.45-.26.66992-.39q24.43506-39.105,48.86-78.22a206.0015,206.0015,0,0,1,17.85-13.02c1.99-1.3,4.11011-2.66,6.37012-4.05,19.45-11.95,48.2699-25.94,78.10986-27.17a86.77547,86.77547,0,0,1,39.89014,7.32c.47.2.92993.41,1.38989.63a86.52413,86.52413,0,0,1,31.1001,25.45,105.446,105.446,0,0,1,12.46,20.17c.8,1.65,1.55,3.33,2.27,5.03q-9.99006.9-19.92,2.06c3.85,7.7,10.45008,23.15,4.41,38.16-8.98,22.28-42.01,33.89-64.57007,26.53l18.13,40.92a23.36136,23.36136,0,0,1,12.93005-7.37c5.80994-1.05,14.93994-.27,19.03,5.88,2.6499,3.98,2.52,8.65,1.58,12.63A131.2289,131.2289,0,0,1,1574.6,597.44Z" transform="translate(0.00001)"/>
      <path class="cls-6" d="M1466.64,496.17c-.12,1.48-.16,2.46-.17,2.77-.01.28-.02.58-.03.89-1,.05-2.11987.15-3.31994.33a39.11851,39.11851,0,0,0-18.75,8.68c-.36-.73-.70008-1.39-1-1.97-.35-.67-.72-1.35-1.11-2.05-.38-.66-.77-1.34-1.17993-2.02.44995-.12.88989-.25,1.33984-.37Q1454.48,499.085,1466.64,496.17Z" transform="translate(0.00001)"/>
      <path class="cls-6" d="M1595.54,621.17a170.00547,170.00547,0,0,0-33.45,3c.17993.03.35986.04.54992.08a11.33719,11.33719,0,0,1,6.02991,2.49c6.05005,5.41,2.28,18.25,1.42017,21.2a46.53134,46.53134,0,0,1-3.6001,8.68c-.58008,1.08-1.22,2.17-1.91992,3.26.72-.53,1.42993-1.07,2.13989-1.61A151.55584,151.55584,0,0,0,1598.72,625.32c.31006-.44.62012-.88.92-1.32.61-.88,1.20008-1.76,1.78992-2.65-.52991-.03-1.08-.05-1.63989-.07C1598.46,621.23,1597.05005,621.19,1595.54,621.17Zm-15.88013,25.03c1.2301-1.1,3.34009-3.02,7.76-7.16C1585.01,641.48,1582.41992,643.88,1579.65991,646.2Z" transform="translate(0.00001)"/>
      <path class="cls-6" d="M1498.68994,669.01a38.6394,38.6394,0,0,0,23.79,10.86c-1.16992.44-2.35.86-3.54,1.27-4.48,1.54-9.06994,2.93-13.76,4.13-.99.25-1.98.5-2.96.74-.85.2-1.7.4-2.54.59h-.02c-.82983.19-1.65991.37-2.48.54-1.60986.34-3.22.65-4.81994.94-.6.11-1.20008.21-1.79993.32a.01877.01877,0,0,1-.03,0c-1.23.21-2.44995.41-3.67.59q-1.83.285-3.66.51c-.60986.08-1.22.16-1.83.22l-1.83.21c-1.05005.11-2.11011.21-3.16.31l-.72009.06c-.98.08-1.97.16-2.95.23-.28.02-.56995.04-.85.05q-1.42512.09007-2.85.15c-.11.01-.21.01-.32007.02.33008-.15.66-.31,1-.47h.01c.29-.14.58008-.29.88013-.44s.59985-.31.8999-.47c.96-.51,1.94995-1.07,2.94995-1.69.26-.16.51-.32.77-.49.25-.16.5-.32.75-.49.41-.27.82007-.56,1.23-.85a38.44423,38.44423,0,0,0,14.99-20.55q.51013-1.785.84009-3.51A37.46277,37.46277,0,0,0,1498.68994,669.01Z" transform="translate(0.00001)"/>
      <path class="cls-6" d="M1428.4,688.17a47.75368,47.75368,0,0,0,6.36,3.18,152.24505,152.24505,0,0,1-40.19995-12.2c-.51-.24-1.02-.49-1.53-.73-1.27-.61-2.52-1.24-3.76-1.89-.17993-.09-.36011-.18-.54-.28-.07007-.03-.13-.07-.2-.1-2.51-1.32-4.97-2.72-7.36011-4.18.67017-.4,1.37012-.81,2.1001-1.24.32007-.18.6499-.37.98-.56.85-.49,1.71-.96,2.56006-1.42,1.04993-.58,2.10986-1.14,3.15991-1.67.65-.34,1.3-.66,1.93994-.98.8501-.42,1.69007-.83,2.53-1.23,2.95007-1.41,5.8501-2.68,8.69006-3.84,4.13-1.69,8.13-3.14,11.87-4.37-.15.1-.30005.2-.44995.32a11.47318,11.47318,0,0,0-4.08008,5.1,8.73652,8.73652,0,0,0-.45,3.36c.01.24.03.47.06006.71.01.11005.02991.21.03992.32.03.17.05993.35.09.52.04.19.08008.38.13013.57.02991.15.06982.3.10986.45q.225.81.54,1.62c.1001.25.19995.5.31006.74a22.95454,22.95454,0,0,0,1.22,2.36c.13989.26.30005.51.46.76a37.46339,37.46339,0,0,0,2.99,4.06c.18994.22.37012.44.55.65s.36.4.53.59c.54993.62,1.05994,1.16,1.49,1.6.11.11.22.21.30994.31.25.25.45007.46.62.62A46.56083,46.56083,0,0,0,1428.4,688.17Z" transform="translate(0.00001)"/>
      <path class="cls-6" d="M1609.47,607.31q-2.235-1.065-4.54-2.04a109.44958,109.44958,0,0,0-30.33-7.83,131.2289,131.2289,0,0,0-32.7.6c.94007-3.98,1.07-8.65-1.58-12.63-4.09009-6.15-13.22009-6.93-19.03-5.88A23.36136,23.36136,0,0,0,1508.36,586.9l-18.13-40.92c22.56006,7.36,55.59009-4.25,64.57007-26.53,6.04-15.01-.56006-30.46-4.41-38.16q9.93-1.17,19.92-2.06,7.53-.675,15.09985-1.2l-.56982-2.21a106.52159,106.52159,0,0,1,20.81982,24.48c.09009.15.31006.51.59009.98a114.80093,114.80093,0,0,1,12.18994,28.76C1625.18994,556.27,1621.40991,583.13,1609.47,607.31Z" transform="translate(0.00001)"/>
      <path class="cls-6" d="M1609.47,607.31a49.36221,49.36221,0,0,1-7.1,11.59c-.72.87-1.45008,1.67005-2.16,2.4h-.01a35.94558,35.94558,0,0,1-6.67993,5.38c-2.92,1.82-14.22,5.59-21.82007,5.89a61.14317,61.14317,0,0,1-11.40991-.95c-12.68005-2-31.76-7.26-54-16.81q-1.20007-3.34506-2.4-6.69-11.31-31.5-22.63-62.99,4.34985-4.68,8.69995-9.36c1.77-1.91,3.54-3.81,5.31006-5.72q22.53-24.255,45.07007-48.52,3.19482-3.45,6.3999-6.89c.71-.76,1.41992-1.53,2.13-2.29q9.585.93,19.17,1.85,8.4.81,16.8,1.62l.56982,2.21q-7.57488.525-15.09985,1.2-9.99006.9-19.92,2.06c3.85,7.7,10.45008,23.15,4.41,38.16-8.98,22.28-42.01,33.89-64.57007,26.53l18.13,40.92a23.36136,23.36136,0,0,1,12.93005-7.37c5.80994-1.05,14.93994-.27,19.03,5.88,2.6499,3.98,2.52,8.65,1.58,12.63a131.2289,131.2289,0,0,1,32.7-.6,109.44958,109.44958,0,0,1,30.33,7.83Q1607.24,606.245,1609.47,607.31Z" transform="translate(0.00001)"/>
      <path class="cls-6" d="M1587.41992,639.04c-2.40991,2.44-5,4.84-7.76,7.16C1580.89,645.1,1583,643.18,1587.41992,639.04Z" transform="translate(0.00001)"/>
      <path d="M1641.54,629.1c-1.73-1.59-3.72-3.32-5.92-5.11-.30994-.25-.61-.49-.92-.74-1.6499-1.32-3.41992-2.67-5.29-4.03A128.78975,128.78975,0,0,0,1609.47,607.31q-2.235-1.065-4.54-2.04a109.44958,109.44958,0,0,0-30.33-7.83,131.2289,131.2289,0,0,0-32.7.6,167.82492,167.82492,0,0,0-32.89,8.18c-1.84009.65-3.55005,1.29-5.12,1.9-.63.25-1.24.49-1.81994.72A43.26826,43.26826,0,0,0,1487.61,634.05c-17.06995,4.11-39.06995,7.22-54.64-4.13a37.79877,37.79877,0,0,1-3.1499-2.58,35.86354,35.86354,0,0,1-4.63013-5.17c-.1499.05-.29993.1-.46.16.02.03.05.07.07007.1-1,.34-2.02.7-3.03,1.07-.06006.02-.11011.04-.16.06-.9.33-1.80994.67-2.72,1.03-.17.07-.34.13-.51.2-.78991.32-1.59.64-2.39.97q-2.56494,1.06494-5.15991,2.26c-.21008.09-.42017.19-.63013.29-.73.34-1.46.69-2.19995,1.05l-1.80005.9c-.62988.32-1.26.65-1.88989.98-.62012.33-1.25.67-1.88013,1.02-.61987.34-1.25.69-1.86987,1.05-.63013.36-1.25.72-1.88013,1.09q-1.86,1.125-3.72,2.32-.65991.42-1.29.84c-.48.32-.96.65-1.44995.99q-4.20008,2.895-8.26,6.27a107.48472,107.48472,0,0,0-15.6,15.97c-.37.46-.73.93-1.08,1.4q-.13513.18-.27.36a128.58708,128.58708,0,0,0-14.93994,25.77.00976.00976,0,0,0-.01.01c-.61011,1.41-1.19006,2.78-1.72,4.11l-.01.01-.01.01v.01c-.77,2-1.48,3.88-2.1001,5.65-2.68994,7.74-3.6499,12.98-3.25,13.17.69995.33,6.01-14.57,21.01-28.32a86.93882,86.93882,0,0,1,15.18994-11c.67017-.4,1.37012-.81,2.1001-1.24.32007-.18.6499-.37.98-.56.85-.49,1.71-.96,2.56006-1.42,1.04993-.58,2.10986-1.14,3.15991-1.67.65-.34,1.3-.66,1.93994-.98.8501-.42,1.69007-.83,2.53-1.23,2.95007-1.41,5.8501-2.68,8.69006-3.84,4.13-1.69,8.13-3.14,11.87-4.37-.15.1-.30005.2-.44995.32-.14014.12-.30005.24-.47.38-.08008.06-.16016.13-.25.21-.18006.15-.36011.3-.55005.47-.18.17-.38.35-.57007.56-.08.08-.15991.16-.24.25-.03.04-.07.07-.1.11a2.85336,2.85336,0,0,0-.23.26c-.06994.08-.14.17-.21008.26-.08984.11-.16992.22-.25.33-.08984.12-.17993.24-.26.37-.07983.11-.13989.22-.21.33s-.12988.23-.19995.35a6.47256,6.47256,0,0,0-.29.59c-.04.11-.09.21-.12988.31a1.753,1.753,0,0,0-.12012.32,8.73652,8.73652,0,0,0-.45,3.36c.01.24.03.47.06006.71.01.11005.02991.21.03992.32.03.17.05993.35.09.52.04.19.08008.38.13013.57.02991.15.06982.3.10986.45q.225.81.54,1.62c.1001.25.19995.5.31006.74a22.95454,22.95454,0,0,0,1.22,2.36v.01c.1499.26.30005.5.46.75a37.46339,37.46339,0,0,0,2.99,4.06c.18994.22.37012.44.55.65s.36.4.53.59c.54993.62,1.05994,1.16,1.49,1.6.11.11.22.21.30994.31.25.25.45007.46.62.62a46.56083,46.56083,0,0,0,8.93,6.85,47.75368,47.75368,0,0,0,6.36,3.18c.34.14.69995.28,1.05005.41a42.3457,42.3457,0,0,0,24.58,1.94c.13-.03.51-.12,1.08-.28.56006-.15,1.3-.37,2.18-.67.13-.04.25989-.09.39-.13,1.05994-.37,2.30994-.84,3.67993-1.44.21-.09.43-.18.64-.28l.33-.15c.33008-.15.66-.31,1-.47h.01c.29-.14.58008-.29.88013-.44s.59985-.31.8999-.47c.96-.51,1.94995-1.07,2.94995-1.69.26-.16.51-.32.77-.49.25-.16.5-.32.75-.49.41-.27.82007-.56,1.23-.85a40.50944,40.50944,0,0,0,10.91016-11.44,36.28512,36.28512,0,0,0,4.07983-9.11q.51013-1.785.84009-3.51a37.51885,37.51885,0,0,0,10.5,11.26,39.84811,39.84811,0,0,0,18.97,6.82h.01a51.3997,51.3997,0,0,0,5.83008.24,49.34339,49.34339,0,0,0,11.90991-1.57,43.17971,43.17971,0,0,0,23.66-17.63c.23-.34.45008-.68.68006-1.03.69995-1.09,1.33984-2.18,1.91992-3.26a46.53134,46.53134,0,0,0,3.6001-8.68c.02991-.11.06982-.23.09985-.36.12012-.39.26-.89.41-1.47.05993-.19.11-.4.16-.61v-.01c.11-.42.22-.88.33008-1.37.10986-.49.22-1.02.31982-1.56.1001-.54.20008-1.1.28-1.68.08008-.57.16-1.16.21008-1.76,0-.04.00989-.07.00989-.11s.01-.09.01-.13v-.05c.03-.3.05005-.6.07007-.91a.40965.40965,0,0,0,.01-.11v-.05c0-.01.01-.03,0-.05.01-.15.02-.29.02-.44.01-.3.02-.59.02-.89,0-.35,0-.7-.02-1.05-.02-.3-.03-.59-.06006-.89-.03-.32-.05994-.63-.11-.94-.03992-.32-.09-.62-.15-.93-.04993-.27-.10986-.53-.16992-.78-.07007-.26-.13-.51-.21-.76a1.26591,1.26591,0,0,1-.06006-.18c-.01-.03-.02-.05-.03-.08-.06006-.19-.13-.38-.2-.56-.01-.01-.01-.03-.02-.04-.01-.03-.03-.06-.04-.09-.09-.22-.18994-.43-.29-.64-.06994-.14-.13989-.28-.22-.42s-.15991-.28-.24-.41a.07552.07552,0,0,0-.02-.04l-.05994-.09c-.01-.01-.01-.02-.02-.03a.0098.0098,0,0,0-.01-.01,3.0001,3.0001,0,0,0-.25-.37,2.32356,2.32356,0,0,0-.19007-.25,2.12234,2.12234,0,0,0-.27991-.33.3068.3068,0,0,0-.04992-.07.86644.86644,0,0,0-.13013-.14,6.84957,6.84957,0,0,0-.54-.54,10.13279,10.13279,0,0,0-4.55993-2.22c-.55994-.12-1.05994-.21-1.47-.27-.19006-.04-.37-.05-.54992-.08.78991-.15,1.58984-.29,2.3999-.43a167.54529,167.54529,0,0,1,31.05005-2.57c1.51.02,2.91992.06,4.25.11.13989.01.27.01.40991.02h.01c.42.01.82007.03,1.22.05a83.20081,83.20081,0,0,1,16.29,2.19c.14.04.27.07.41.11.52.12,1.02991.25,1.53992.39.03.01.07007.02.1001.03,1.41992.38,2.79.79,4.12,1.22,1.66.54,3.24,1.11,4.76,1.7,2.86,1.11,5.47,2.3,7.78992,3.46,8.34009,4.19,13.07007,8.14,13.3501,7.75C1650.04,637.85,1647.02,634.14,1641.54,629.1Zm-105.42,1.97a.03676.03676,0,0,0,.03-.01v.01Z" transform="translate(0.00001)"/>
      <path d="M1424.80005,622.43a139.32724,139.32724,0,0,0-26.12012,11.97A137.34849,137.34849,0,0,1,1424.73,622.33C1424.75,622.36,1424.78,622.4,1424.80005,622.43Z" transform="translate(0.00001)"/>
      <path class="cls-19" d="M1576.98,374.26c-.02-.01-.05005-.01-.08-.02l-.01.72c.30994.32.63.63.94007.95C1577.73,375.03,1577.46,374.47,1576.98,374.26Zm.8501,1.65c0,.03.01.07.01.11v-.1Zm.01.11c-.03.96-.05,1.91-.07007,2.87A15.128,15.128,0,0,0,1577.84009,376.02Z" transform="translate(0.00001)"/>
      <path class="cls-19" d="M1591.52,401.55c1.30005-6.58,1.99-15.64-3.82007-22.24a20.40205,20.40205,0,0,0-11.28-6.18c8.20008-18.69,4.93006-38.54-6.82983-48.46-9.16016-7.72-21.5-7.77-22.22009-7.76a35.33966,35.33966,0,0,0-19.89,6.47,34.94549,34.94549,0,0,0-24.28-18.96,41.90271,41.90271,0,0,0-12.6499-.85,49.04935,49.04935,0,0,0-11.94006,2.75c-9.24,3.57-19.71,14.35-26.25,30.1-2.06995-3.17-11.70008-17.15-30.04993-21-24.26-5.09-42.01,12.12-43.88013,13.99-2.1499,2.15-13.91992,14.27-14.65991,33.43-24.08008-3.51-46.87,6.88-56.8,25.4-1.03,1.93-11.7,22.73-.96,43.38-2.37.21-11.08008,1.27-16.72,8.35a25.69454,25.69454,0,0,0-4.66,13.33c-.89,13.29,12.77,30.31,34.67,44.28L1331.12,543.5c.20007-.1.41-.19.61-.28.09009-.04.18994-.09.28-.13q14.11487-6.525,28.39-12.43c.02991-1.38.05994-2.64.1-3.76,0-.1.01-.19995.01-.3.08008-2.1,1.53-33.85,17.40991-48.84a27.60319,27.60319,0,0,1,12.22009-6.85,28.04817,28.04817,0,0,1,9.25-.74c14.91,1.24,28.44007,13.84,37.22,25.89,1.28,1.76,2.46008,3.51,3.52,5.2.31995.51.63,1.03.95008,1.54.44995-.12.88989-.25,1.33984-.37q12.06006-3.345,24.22009-6.26c.02991-.38.05994-.79.1-1.24q.045-.435.09009-.93c.17993-1.77.42993-3.93.80993-6.36.22-1.43.49-2.96.79993-4.55.15015-.78.32007-1.57.5-2.38.37012-1.7.80005-3.45,1.29-5.23.17-.59.34009-1.19.52-1.78.04-.15.08008-.29.13-.43.13-.44.27-.89.42-1.33a.06018.06018,0,0,1,.01-.04c.1499-.45.29993-.91.44995-1.36.26-.75.53-1.5.81006-2.24.06994-.18.13989-.37.21-.55.15991-.42.32-.83.49-1.24.18994-.45.37-.89.57007-1.34a55.02322,55.02322,0,0,1,3.8999-7.46c.29-.47.6001-.94.91-1.4l.53992-.78q.375-.525.75-1.02c.32007-.42.65015-.83.98-1.24.30005-.35.6001-.7.90015-1.04.31994-.36.6499-.71.98-1.06.27-.28.54993-.56.83-.83.31995-.31.65-.61.98-.9a28.13313,28.13313,0,0,1,2.42-1.94,26.6508,26.6508,0,0,1,9.07-4.24,28.828,28.828,0,0,1,14.85.23c1.01.27,2,.59,2.99.96.34009.12.67.25,1,.38a46.97669,46.97669,0,0,1,8.54,4.57c.41.28.83008.57,1.24.86005.48.35.97.7,1.44995,1.06.37012.28.7301.56,1.09009.85.26.19.51.4.76.61.08.06.15991.13.24.2.46.38.90991.76,1.36,1.15a.64628.64628,0,0,1,.09.08c1.08008.93,2.12012,1.9,3.14,2.9.51.49,1.02,1,1.51,1.51.55993.58,1.1,1.16,1.64,1.74s1.06006,1.18,1.58008,1.77q1.64978,1.89,3.12988,3.8c.22.28.43005.55.63013.82,1.25989,1.65,2.42993,3.3,3.50989,4.92q.8399,1.275,1.62,2.52.13513.225.27.45c.12.19.24.39.3501.58.21.35.40991.69.59985,1.03.20007.34.39014.67.57007,1.01.18994.34.37.66.55005.99s.34985.64.51.96c.31994.61005.67993,1.31,1.06994,2.08q9.93-1.17,19.92-2.06,7.53-.675,15.09985-1.2l-.56982-2.21-.15015-.59v-.01L1576.25,442.44c.07007-3,.14-6.01.22-9.01C1584.61,422.21,1589.64,411.08,1591.52,401.55Zm-14.62-27.31c.02991.01.05994.01.08.02.48.21.75.77.8501,1.65l.01.01v.1a15.128,15.128,0,0,1-.07007,2.87c.02-.96.04-1.91.07007-2.87,0-.04-.01-.08-.01-.11-.31006-.32-.63013-.63-.94007-.95Zm-165.38,81.85c-.33008-.17-.66-.34-1-.5a41.49626,41.49626,0,0,0-11.8-3.74,33.14777,33.14777,0,0,0-14.86,1.04c-11.39,3.48-18.21,12.13-22.12,19.58-.15991.29-.31006.59-.46.88a52.43719,52.43719,0,0,0-4.22,11.47c-.16-3.22-.31006-6.44-.47-9.66-.01-.22-.02-.45-.03-.68-.09009-1.87-.18006-3.75-.28-5.63,1.53-3.11,9.15991-17.86,25.95-22.28a38.5539,38.5539,0,0,1,22.86011,1.23,46.68389,46.68389,0,0,1,10.55993,5.35c.15.25.29993.51.46.76.13.23.27.46.41.68q2.47485,4.125,4.96,8.26A47.61406,47.61406,0,0,0,1411.52,456.09Zm111.23-24.53c-.29-.2-.6-.41-.91992-.61-6.71008-4.35-18.61011-9.81-32.02-5.72-8.99,2.75-15.13013,8.72-19.24,14.78-.22009.31-.43006.63-.63013.94A53.79947,53.79947,0,0,0,1464.51,452.1a48.00049,48.00049,0,0,0-1.5,5.06c-.07007-1.55-.15-3.11-.22-4.67-.16-3.28-.32007-6.57-.48-9.85-.01-.27-.03-.54-.04-.81-.01-.21-.02-.43-.03-.64,1.36-2.78,7.62-14.89,20.96-20.56a34.04306,34.04306,0,0,1,4.99-1.72c16.73-4.4,30.55005,4.62,33.42,6.58.49.82.9801,1.64,1.4801,2.46.5199.87,1.03991,1.74,1.56982,2.61.13013.23.27.45.41016.68.78992,1.32,1.58,2.63,2.36987,3.95A43.06522,43.06522,0,0,0,1522.75,431.56Z" transform="translate(0.00001)"/>
      <path d="M1421.48,462.85a47.61406,47.61406,0,0,0-9.96-6.76c-.33008-.17-.66-.34-1-.5-6.86011-3.32-16.31006-5.86-26.66-2.7-11.39,3.48-18.21,12.13-22.12,19.58-.15991.29-.31006.59-.46.88a52.43719,52.43719,0,0,0-4.22,11.47c-.16-3.22-.31006-6.44-.47-9.66-.01-.22-.02-.45-.03-.68-.09009-1.87-.18006-3.75-.28-5.63,1.53-3.11,9.15991-17.86,25.95-22.28,16.74-4.4,30.56006,4.62,33.42,6.57995.15.25.29993.51.46.76.13.23.27.46.41.68Q1418.99487,458.715,1421.48,462.85Z" transform="translate(0.00001)"/>
      <path class="cls-22" d="M1550.39,481.29c-.39-.77-.75-1.47-1.06994-2.08-.16016-.32-.33008-.63-.51-.96s-.36011-.65-.55005-.99c-.17993-.34-.37-.67-.57007-1.01-.18994-.34-.38989-.68-.59985-1.03-.11011-.19-.2301-.39-.3501-.58q-.135-.225-.27-.45-.78-1.245-1.62-2.52c-1.08-1.62-2.25-3.27-3.50989-4.92-.20008-.27-.41016-.54-.63013-.82q-1.485-1.905-3.12988-3.8c-.52-.59-1.04-1.19-1.58008-1.77s-1.08008-1.16-1.64-1.74c-.49-.51-1-1.02-1.51-1.51-1.0199-1-2.05994-1.97-3.14-2.9a.64628.64628,0,0,0-.09-.08c-.45008-.39-.9-.77-1.36-1.15-.08008-.07-.16-.14-.24-.2-.25-.21-.5-.42-.76-.61-.36-.29-.72-.57-1.09009-.85-.48-.36005-.97-.71-1.44995-1.06-.40991-.29-.83-.58-1.24-.86005a46.97669,46.97669,0,0,0-8.54-4.57c-.33-.13-.65991-.26-1-.38-.99-.37-1.98-.69-2.99-.96a28.828,28.828,0,0,0-14.85-.23,26.6508,26.6508,0,0,0-9.07,4.24,28.13313,28.13313,0,0,0-2.42,1.94c-.33.29-.66.59-.98.9-.28.27-.55993.55-.83.83-.33008.35-.66.7-.98,1.06-.30005.34-.6001.69-.90015,1.04-.32983.41-.65991.82-.98,1.24q-.375.49494-.75,1.02l-.53992.78c-.30993.46-.62.93-.91,1.4a55.02322,55.02322,0,0,0-3.8999,7.46c-.20008.45-.38013.89-.57007,1.34-.17.41-.33008.82-.49,1.24-.07007.18-.14.37-.21.55-.28.74-.55005,1.49-.81006,2.24-.15.45-.30005.91-.44995,1.36a.06018.06018,0,0,0-.01.04c-.15.44-.29.89-.42,1.33-.04992.14-.09.28-.13.43-.17993.59-.35,1.19-.52,1.78-.49,1.78-.91992,3.53-1.29,5.23-.17993.81-.34985,1.6-.5,2.38-.30994,1.59-.58,3.12-.79993,4.55-.38,2.43-.63,4.59-.80993,6.36q-.045.49494-.09009.93c-.04.45-.07007.86-.1,1.24-.12,1.48-.16,2.46-.17,2.77-.01.28-.02.58-.03.89-1,.05-2.11987.15-3.31994.33a39.11851,39.11851,0,0,0-18.75,8.68c-.36-.73-.70008-1.39-1-1.97-.35-.67-.72-1.35-1.11-2.05-.38-.66-.77-1.34-1.17993-2.02-.32007-.51-.63013-1.03-.95008-1.54-1.05993-1.69-2.24-3.44-3.52-5.2-8.77991-12.05-22.30994-24.65-37.22-25.89a28.04817,28.04817,0,0,0-9.25.74,27.60319,27.60319,0,0,0-12.22009,6.85C1362.04,492.75,1360.59009,524.5,1360.51,526.6c0,.1-.01.2-.01.3-.04,1.12-.07007,2.38-.1,3.76-.01.91-.02,1.87-.01,2.88.1,10.28,1.83,24.78,12.42,33.83,10.08,8.61,25.87988,10.29,40.6499,6.69a83.76373,83.76373,0,0,0,2.23,24.57c1.98,7.83,4.12012,16.27,9.5,23.54a35.86354,35.86354,0,0,0,4.63013,5.17,37.79877,37.79877,0,0,0,3.1499,2.58c15.57007,11.35,37.57007,8.24,54.64,4.13a43.26826,43.26826,0,0,1,14.46008-25.21c.58-.23,1.18994-.47,1.81994-.72,1.56995-.61,3.27991-1.25,5.12-1.9a167.82492,167.82492,0,0,1,32.89-8.18c.94007-3.98,1.07-8.65-1.58-12.63-4.09009-6.15-13.22009-6.93-19.03-5.88A23.36136,23.36136,0,0,0,1508.36,586.9l-18.13-40.92c22.56006,7.36,55.59009-4.25,64.57007-26.53C1560.84009,504.44,1554.24,488.99,1550.39,481.29Zm-119.51,42.77a107.88391,107.88391,0,0,0-7.51,13.2v.01c-.74,1.53-1.41,2.99-2.01,4.36q-.77985,1.785-1.41,3.36c-.24.6-.47,1.18-.67993,1.72-1.17993,3.07-1.8501,5.17-2,5.69a89.83756,89.83756,0,0,0-3.06006,13.84c-11.53,2.94-24.18994,1.83-33.21-4.72a28.21065,28.21065,0,0,1-6.52-6.63c-.47-.65-.8999-1.31-1.30005-1.98-.1499-.23-.28992-.45-.40991-.68a35.9255,35.9255,0,0,1-2.68994-5.89c-.1001-.28-.20008-.56-.29-.84-.09009-.25-.17-.5-.24-.74q-.39-1.245-.69006-2.46c-.05994-.22-.11-.43-.16-.65-.31995-1.36-.56995-2.67-.76-3.92q-.10491-.63-.17993-1.23c-.07007-.49-.12-.97-.17993-1.43-.04-.36005-.07007-.7-.1001-1.04-.03-.32-.06006-.64-.08-.94-.03-.34-.05-.66-.05993-.97-.02-.27-.04-.53-.05-.78v-.07c-.02-.29-.03-.56995-.04-.83-.01-.14-.01-.27-.02-.39,0-.13-.01-.25-.01-.37-.01-.24-.01-.46-.02-.66-.04-1.36-.03-2.8.03-4.29.69995-15.88,7.67993-37.81,24.67993-42.14,13.31006-3.38,26.02,5.74,34.92017,16.12v.01c1.53992,1.8,2.97,3.63,4.26,5.45a69.67738,69.67738,0,0,1,5.18994,8.4c.3999.77.87,1.68,1.37988,2.71A79.84132,79.84132,0,0,0,1430.88,524.06Zm117.89-12.73a26.07631,26.07631,0,0,1-1.97,7.12c-8.16,18.69-38.23,27.66-56.84009,17.31995a28.36157,28.36157,0,0,1-6.67993-5.11c-.26-.26-.51-.53-.75-.8-.24-.25-.46-.51-.67-.77a.2663.2663,0,0,1-.04993-.06c-.44006-.53-.8501-1.06-1.25-1.6a2.07929,2.07929,0,0,0-.17-.24c-.61-.87-1.17-1.76-1.68005-2.66-.13989-.24-.28-.49-.40991-.74-.13013-.24-.26-.49-.39014-.74-.12988-.25-.25-.5-.36987-.75-.21-.44-.41-.88-.6001-1.33-.13989-.32-.27-.63-.38989-.94-.30005-.76-.58008-1.51-.83008-2.27-.03-.11005-.07-.22-.1-.33-.06995-.21-.14-.42-.20008-.63-.07983-.26-.15991-.52-.23-.78-.1499-.52-.28992-1.03-.40991-1.54-.38-1.52-.67-3-.88-4.4-.08-.47-.15-.92-.20007-1.37-.31995-2.45-.43994-4.59-.5-6.18-.01-.21-.02-.42-.02-.61-.01-.2-.01-.39-.02-.56-.02991-.93-.02991-1.89-.00989-2.88.00989-.35.0199-.72.02991-1.08a.75578.75578,0,0,1,.01-.15q.015-.63006.06006-1.26a.91379.91379,0,0,1,.01-.17c.02-.37.05005-.74.08008-1.11005.03991-.44.07983-.88.11987-1.33.02-.18.04-.35.05005-.52.12-1.14.28-2.3.47-3.47.18994-1.21.41-2.43.67-3.65.09-.42.18006-.84.27991-1.27.1001-.44.21008-.88.32007-1.31.1-.41.21-.81.32007-1.22.22-.8.46-1.61.71-2.4.12-.39.25-.79.38989-1.19.13013-.39.27-.79.41016-1.18.3999-1.12.83984-2.23,1.31994-3.32l.36-.81c.12-.27.25-.54.38-.81.25-.53.51-1.06.78992-1.58.27-.52.55005-1.03.84009-1.54a36.81341,36.81341,0,0,1,4.63-6.43c.21-.23.42-.46.64-.68.22-.23.43994-.46.66992-.67.17-.17.33008-.33.5-.48.25-.24.5-.47.76-.69a24.48209,24.48209,0,0,1,6.34009-4.01c.17993-.07995.35986-.16.53992-.23a19.55819,19.55819,0,0,1,1.91-.67c.1499-.05.31006-.1.47-.15.21-.06.42-.12.63-.17a23.18521,23.18521,0,0,1,6.41-.71c.23,0,.45.02.67993.03s.45007.03.68005.05c.22.02.45008.04.68006.07.22.02.43994.05.65991.08.44995.07.9.14,1.3501.23.23.04.44995.09.66992.14.05005.01.1001.02.14.03.26.06.52.12.77991.19.15015.04.3.08.44007.12.43.12.85.24,1.27.38.46008.15.91.3,1.36.47.42.16.84009.33,1.25.51a37.104,37.104,0,0,1,3.93994,1.97c.36011.21.71008.42,1.07007.64.19995.12.4.25.6001.38.21.13.40991.25.60986.38995.31006.21.63013.42005.94006.64.19007.13.38.27.56995.4.28.21.57007.42.8501.63.37988.29.77.59,1.1499.88995.46.36005.91.73,1.3501,1.1.13989.12.27.24.40991.36a70.882,70.882,0,0,1,10.26,11.13c.25.33.49.66.72.98q1.20007,1.65,2.25,3.27c.49.75.96,1.5,1.39014,2.23.00989.02.0199.03.02991.05.13.2.25.41.36.6.55.94,1.06006,1.85,1.51,2.73,1.76,3.4,4.88,9.42,6.16992,16.44.08008.42.16016.84.22009,1.27A31.26875,31.26875,0,0,1,1548.77,511.33Z" transform="translate(0.00001)"/>
      <path d="M1527.43994,435.19a43.06522,43.06522,0,0,0-4.68994-3.63c-.29-.2-.6-.41-.91992-.61-6.71008-4.35-18.61011-9.81-32.02-5.72-8.99,2.75-15.13013,8.72-19.24,14.78-.22009.31-.43006.63-.63013.94A53.79947,53.79947,0,0,0,1464.51,452.1a48.00049,48.00049,0,0,0-1.5,5.06c-.07007-1.55-.15-3.11-.22-4.67-.16-3.28-.32007-6.57-.48-9.85-.01-.27-.03-.54-.04-.81-.01-.21-.02-.43-.03-.64,1.52-3.11,9.15-17.86,25.94995-22.28,16.73-4.4,30.55005,4.62,33.42,6.58q1.515,2.535,3.04992,5.07c.13013.23.27.45.41016.68C1525.86,432.56,1526.65,433.87,1527.43994,435.19Z" transform="translate(0.00001)"/>
      <path class="cls-23" d="M1477.22437,530.50923a120.51986,120.51986,0,0,0,76.608-22.65189" transform="translate(0.00001)"/>
      <path class="cls-23" d="M1369.53752,554.75057a120.51986,120.51986,0,0,0,76.608-22.65189" transform="translate(0.00001)"/>
    </g>
  </g>
  <g>
    <polygon class="cls-6" points="1629.12 976.17 1621.12 1018.39 1609.45 1080 1573.2 1080 1585.59 1014.59 1594.13 969.54 1629.12 976.17"/>
    <polygon class="cls-6" points="1809.79 1080 1773.54 1080 1761.47 1016.32 1753.87 976.17 1788.86 969.54 1796.71 1010.98 1809.79 1080"/>
    <rect class="cls-6" x="1670.63001" y="961.54999" width="30.29993" height="118.45001"/>
    <path class="cls-22" d="M1846.81143,975.09011v11.76c0,18.64-74.52991,33.73993-166.44995,33.73993-91.92993,0-166.46-15.1-166.46-33.73993v-11.76c0-18.64,74.53-33.74,166.46-33.74C1772.28152,941.35012,1846.81143,956.4501,1846.81143,975.09011Z" transform="translate(0.00001)"/>
  </g>
</svg>
