<svg id="Layer_1" data-name="Layer 1" xmlns="http://www.w3.org/2000/svg" viewBox="0 0 1920.00001 1080.12903">
  <defs>
    <style>
      .cls-1 {
        fill: #ffecce;
      }

      .cls-15, .cls-2 {
        fill: #c69c6d;
      }

      .cls-3 {
        fill: #7f2700;
      }

      .cls-4 {
        opacity: 0.51;
      }

      .cls-5 {
        fill: #ffc28a;
      }

      .cls-6, .cls-7 {
        fill: #af3500;
      }

      .cls-7 {
        stroke: #af3500;
        stroke-linejoin: round;
        stroke-width: 4px;
      }

      .cls-8 {
        fill: #a67c52;
      }

      .cls-9 {
        fill: #ff1f1f;
      }

      .cls-10 {
        opacity: 0.35;
      }

      .cls-11 {
        fill: #333;
      }

      .cls-12 {
        fill: #eca442;
      }

      .cls-13 {
        fill: #999;
      }

      .cls-14 {
        fill: #b3b3b3;
      }

      .cls-15 {
        stroke: #c69c6d;
        stroke-miterlimit: 10;
        stroke-width: 7px;
      }
    </style>
  </defs>
  <rect class="cls-1" x="0.00001" width="1920" height="1080"/>
  <g>
    <rect class="cls-2" x="0.00001" width="1920" height="23.94459"/>
    <rect class="cls-2" x="0.00001" y="163.79296" width="1920" height="23.94459"/>
    <g>
      <polygon class="cls-2" points="334.205 1.536 52.451 165.237 57.582 187.738 339.336 24.036 334.205 1.536"/>
      <polygon class="cls-2" points="57.582 0.97 339.383 164.698 334.252 187.199 52.451 23.47 57.582 0.97"/>
      <rect class="cls-2" x="263.6916" y="86.58439" width="146.68239" height="15" transform="translate(242.94842 431.11718) rotate(-90)"/>
      <rect class="cls-2" x="-20.88996" y="86.58439" width="146.68239" height="15" transform="translate(-41.63314 146.53563) rotate(-90)"/>
    </g>
    <polygon class="cls-2" points="618.787 1.819 337.033 165.52 342.163 188.02 623.917 24.319 618.787 1.819"/>
    <polygon class="cls-2" points="342.163 1.253 623.964 164.981 618.834 187.482 337.033 23.753 342.163 1.253"/>
    <rect class="cls-2" x="548.27315" y="86.86732" width="146.68239" height="15" transform="translate(527.24704 715.98166) rotate(-90)"/>
    <rect class="cls-2" x="263.6916" y="86.86732" width="146.68239" height="15" transform="translate(242.66549 431.40011) rotate(-90)"/>
    <polygon class="cls-2" points="903.368 1.266 621.614 164.968 626.745 187.468 908.499 23.767 903.368 1.266"/>
    <polygon class="cls-2" points="626.745 0.7 908.546 164.429 903.416 186.93 621.614 23.201 626.745 0.7"/>
    <rect class="cls-2" x="832.85471" y="86.31514" width="146.68239" height="15" transform="translate(812.38078 1000.01104) rotate(-90)"/>
    <rect class="cls-2" x="548.27315" y="86.31514" width="146.68239" height="15" transform="translate(527.79922 715.42948) rotate(-90)"/>
    <polygon class="cls-2" points="1187.95 0.997 906.196 164.698 911.326 187.199 1193.08 23.498 1187.95 0.997"/>
    <polygon class="cls-2" points="911.326 0.431 1193.127 164.16 1187.997 186.661 906.196 22.932 911.326 0.431"/>
    <rect class="cls-2" x="1117.43626" y="86.04588" width="146.68239" height="15" transform="translate(1097.23159 1284.32334) rotate(-90)"/>
    <rect class="cls-2" x="832.85471" y="86.04588" width="146.68239" height="15" transform="translate(812.65003 999.74179) rotate(-90)"/>
    <polygon class="cls-2" points="1472.532 0.728 1190.777 164.429 1195.908 186.93 1477.662 23.228 1472.532 0.728"/>
    <polygon class="cls-2" points="1195.908 0.162 1477.709 163.891 1472.579 186.391 1190.777 22.663 1195.908 0.162"/>
    <rect class="cls-2" x="1402.01782" y="85.77663" width="146.68239" height="15" transform="translate(1382.08239 1568.63564) rotate(-90)"/>
    <rect class="cls-2" x="1117.43626" y="85.77663" width="146.68239" height="15" transform="translate(1097.50084 1284.05409) rotate(-90)"/>
    <polygon class="cls-2" points="1757.113 1.549 1475.359 165.251 1480.489 187.751 1762.243 24.05 1757.113 1.549"/>
    <polygon class="cls-2" points="1480.489 0.983 1762.29 164.712 1757.16 187.213 1475.359 23.484 1480.489 0.983"/>
    <rect class="cls-2" x="1686.59937" y="86.59806" width="146.68239" height="15" transform="translate(1665.84252 1854.03863) rotate(-90)"/>
    <rect class="cls-2" x="1402.01782" y="86.59806" width="146.68239" height="15" transform="translate(1381.26096 1569.45708) rotate(-90)"/>
    <polygon class="cls-2" points="1920 71.69 1920 97.183 1903.87 106.553 1805.35 163.797 1765.07 187.199 1761.12 169.847 1760.57 167.437 1760.44 166.894 1759.94 164.691 1761.1 164.02 1761.48 163.797 1767.44 160.333 1881.93 93.815 1903.86 81.076 1920 71.69"/>
    <polygon class="cls-2" points="1920 90.447 1920 115.924 1903.87 106.553 1881.93 93.815 1767.44 27.297 1763.35 24.918 1762.05 24.168 1759.94 22.939 1760.44 20.752 1760.56 20.209 1760.96 18.453 1764.95 0.974 1765.07 0.431 1766 0.974 1807.21 24.918 1903.86 81.076 1920 90.447"/>
    <rect class="cls-2" x="1686.59937" y="86.04588" width="146.68239" height="15" transform="translate(1666.3947 1853.48645) rotate(-90)"/>
    <polygon class="cls-2" points="54.75 24.599 54.58 24.695 54.57 24.695 54.2 24.918 44.95 30.298 0 56.413 0 30.936 10.36 24.918 49.62 2.107 53.47 18.996 53.87 20.736 54 21.311 54.75 24.599"/>
    <polygon class="cls-2" points="54.8 165.266 54.31 167.421 54.18 167.995 53.63 170.406 49.67 187.742 49.67 187.758 49.64 187.742 8.43 163.797 0 158.896 0 133.419 44.95 159.535 52.27 163.797 53.6 164.563 54.8 165.266"/>
    <rect class="cls-2" x="-20.88996" y="87.15024" width="146.68239" height="15" transform="translate(-42.19899 147.10148) rotate(-90)"/>
  </g>
  <g>
    <g>
      <g>
        <rect class="cls-3" x="1529.68361" y="704.30664" width="360.26758" height="340.6123" rx="2.5"/>
        <path class="cls-3" d="M1887.45166,706.80646v335.61285H1532.18359V706.80646h355.26807m0-5H1532.18359a5,5,0,0,0-5,5v335.61285a4.99993,4.99993,0,0,0,5,5h355.26807a4.99993,4.99993,0,0,0,5-5V706.80646a5,5,0,0,0-5-5Z" transform="translate(0.00001)"/>
      </g>
      <g>
        <rect class="cls-3" x="1643.40333" y="614.88672" width="162.93555" height="94.41992" rx="2.5"/>
        <path class="cls-3" d="M1803.83875,617.38708v89.41938H1645.9032V617.38708h157.93555m0-5H1645.9032a5,5,0,0,0-5,5v89.41938a5,5,0,0,0,5,5h157.93555a5,5,0,0,0,5-5V617.38708a5,5,0,0,0-5-5Z" transform="translate(0.00001)"/>
      </g>
      <rect class="cls-3" x="1688.29034" width="73.16129" height="617.3871"/>
      <g>
        <rect class="cls-3" x="1529.68361" y="790.25293" width="360.26758" height="287.37598" rx="2.5"/>
        <path class="cls-3" d="M1887.45166,792.75336V1075.129H1532.18359V792.75336h355.26807m0-5H1532.18359a5,5,0,0,0-5,5V1075.129a4.99994,4.99994,0,0,0,5,5h355.26807a4.99994,4.99994,0,0,0,5-5V792.75336a5,5,0,0,0-5-5Z" transform="translate(0.00001)"/>
      </g>
    </g>
    <g>
      <g class="cls-4">
        <path d="M1563.07031,928.82031a2.49981,2.49981,0,0,1-2.5-2.5v-153.29a2.49981,2.49981,0,0,1,2.5-2.5h259.5293a2.49981,2.49981,0,0,1,2.5,2.5v65.13965a2.49981,2.49981,0,0,1-2.5,2.5h-10.44922v18.00977h10.44922a2.49981,2.49981,0,0,1,2.5,2.5v65.14062a2.49981,2.49981,0,0,1-2.5,2.5Z" transform="translate(0.00001)"/>
        <path d="M1822.6,773.03v65.14h-12.95v23.01h12.95v65.14H1563.07007V773.03H1822.6m0-5H1563.07007a5,5,0,0,0-5,5V926.32a5,5,0,0,0,5,5H1822.6a5.00006,5.00006,0,0,0,5-5V861.18a5.00006,5.00006,0,0,0-5-5h-7.95V843.17h7.95a5,5,0,0,0,5-5V773.03a5,5,0,0,0-5-5Z" transform="translate(0.00001)"/>
      </g>
      <g>
        <rect class="cls-5" x="1545.38673" y="917.54492" width="285.80664" height="17.54883" rx="2"/>
        <path class="cls-5" d="M1829.1936,919.54523v13.5484H1547.38708v-13.5484H1829.1936m0-4H1547.38708a4,4,0,0,0-4,4v13.5484a4,4,0,0,0,4,4H1829.1936a4,4,0,0,0,4-4v-13.5484a4,4,0,0,0-4-4Z" transform="translate(0.00001)"/>
      </g>
      <g>
        <rect class="cls-6" x="1526.58009" y="717.19043" width="42.73047" height="27.01953" rx="2"/>
        <path class="cls-6" d="M1567.31006,719.19v23.02h-38.73V719.19h38.73m0-4h-38.73a4,4,0,0,0-4,4v23.02a4,4,0,0,0,4,4h38.73a4,4,0,0,0,4-4V719.19a4,4,0,0,0-4-4Z" transform="translate(0.00001)"/>
      </g>
      <polyline class="cls-7" points="1891.33 824.07 1847.32 824.07 1847.32 801.06 1891.33 801.06"/>
      <g>
        <rect class="cls-6" x="1809.37758" y="832.55702" width="59.14063" height="27.00977" rx="2"/>
        <path class="cls-6" d="M1866.51794,834.55708v23.01h-55.14v-23.01h55.14m0-4h-55.14a4,4,0,0,0-4,4v23.01a4,4,0,0,0,4,4h55.14a4,4,0,0,0,4-4v-23.01a4,4,0,0,0-4-4Z" transform="translate(0.00001)"/>
      </g>
      <g>
        <rect class="cls-6" x="1579.53419" y="958.35059" width="72.08789" height="27.01563" rx="2"/>
        <path class="cls-6" d="M1649.62207,960.3501v23.0166h-68.08813V960.3501h68.08813m0-4h-68.08813a4,4,0,0,0-4,4v23.0166a4,4,0,0,0,4,4h68.08813a4,4,0,0,0,4-4V960.3501a4,4,0,0,0-4-4Z" transform="translate(0.00001)"/>
      </g>
      <g>
        <rect class="cls-6" x="1662.88673" y="958.35059" width="72.08789" height="27.01563" rx="2"/>
        <path class="cls-6" d="M1732.975,960.3501v23.0166h-68.08814V960.3501H1732.975m0-4h-68.08814a4,4,0,0,0-4,4v23.0166a4,4,0,0,0,4,4H1732.975a4,4,0,0,0,4-4V960.3501a4,4,0,0,0-4-4Z" transform="translate(0.00001)"/>
      </g>
      <g>
        <rect class="cls-6" x="1604.84669" y="995.51855" width="72.08789" height="27.0166" rx="2"/>
        <path class="cls-6" d="M1674.93457,997.51825v23.0166h-68.08813v-23.0166h68.08813m0-4h-68.08813a4,4,0,0,0-4,4v23.0166a4,4,0,0,0,4,4.00006h68.08813a4,4,0,0,0,4-4.00006v-23.0166a4,4,0,0,0-4-4Z" transform="translate(0.00001)"/>
      </g>
      <g>
        <rect class="cls-6" x="1753.54787" y="1033.57129" width="72.08789" height="27.0166" rx="2"/>
        <path class="cls-6" d="M1823.63574,1035.57141v23.01648h-68.08813v-23.01648h68.08813m0-4h-68.08813a4,4,0,0,0-4,4v23.01648a4,4,0,0,0,4,4h68.08813a4,4,0,0,0,4-4v-23.01648a4,4,0,0,0-4-4Z" transform="translate(0.00001)"/>
      </g>
      <g>
        <rect class="cls-6" x="1796.4297" y="995.51855" width="72.08789" height="27.0166" rx="2"/>
        <path class="cls-6" d="M1866.51794,997.51825v23.0166h-68.08813v-23.0166h68.08813m0-4h-68.08813a4,4,0,0,0-4,4v23.0166a4,4,0,0,0,4,4.00006h68.08813a4,4,0,0,0,4-4.00006v-23.0166a4,4,0,0,0-4-4Z" transform="translate(0.00001)"/>
      </g>
      <g>
        <rect class="cls-6" x="1638.88966" y="669.84961" width="53.25" height="27.02051" rx="2"/>
        <path class="cls-6" d="M1690.14,671.85v23.02h-49.25V671.85h49.25m0-4h-49.25a4,4,0,0,0-4,4v23.02a4,4,0,0,0,4,4h49.25a4,4,0,0,0,4-4V671.85a4,4,0,0,0-4-4Z" transform="translate(0.00001)"/>
      </g>
      <g>
        <rect class="cls-6" x="1711.7422" y="631.80176" width="72.08789" height="27.0166" rx="2"/>
        <path class="cls-6" d="M1781.83044,633.80145V656.818h-68.08813V633.80145h68.08813m0-4h-68.08813a4,4,0,0,0-4,4V656.818a4,4,0,0,0,4,4h68.08813a4,4,0,0,0,4-4V633.80145a4,4,0,0,0-4-4Z" transform="translate(0.00001)"/>
      </g>
      <g>
        <rect class="cls-6" x="1686.29005" y="538" width="45.00977" height="27.01953" rx="2"/>
        <path class="cls-6" d="M1729.30005,540v23.02h-41.01V540h41.01m0-4h-41.01a4,4,0,0,0-4,4v23.02a4,4,0,0,0,4,4h41.01a4,4,0,0,0,4-4V540a4,4,0,0,0-4-4Z" transform="translate(0.00001)"/>
      </g>
      <g>
        <rect class="cls-6" x="1712.11037" y="501.70996" width="51.33984" height="27.02002" rx="2"/>
        <path class="cls-6" d="M1761.45,503.71v23.02h-47.34V503.71h47.34m0-4h-47.34a4,4,0,0,0-4,4v23.02a4,4,0,0,0,4,4h47.34a4,4,0,0,0,4-4V503.71a4,4,0,0,0-4-4Z" transform="translate(0.00001)"/>
      </g>
      <g>
        <rect class="cls-6" x="1686.29005" y="422.9502" width="56.72949" height="27.01953" rx="2"/>
        <path class="cls-6" d="M1741.02,424.95v23.02h-52.73V424.95h52.73m0-4h-52.73a4,4,0,0,0-4,4v23.02a4,4,0,0,0,4,4h52.73a4,4,0,0,0,4-4V424.95a4,4,0,0,0-4-4Z" transform="translate(0.00001)"/>
      </g>
      <g>
        <rect class="cls-6" x="1750.20021" y="331.7998" width="13.25" height="27.02002" rx="2"/>
        <path class="cls-6" d="M1761.45,333.8v23.02h-9.25V333.8h9.25m0-4h-9.25a4,4,0,0,0-4,4v23.02a4,4,0,0,0,4,4h9.25a4,4,0,0,0,4-4V333.8a4,4,0,0,0-4-4Z" transform="translate(0.00001)"/>
      </g>
      <g>
        <rect class="cls-6" x="1686.29005" y="331.7998" width="53.22949" height="27.02002" rx="2"/>
        <path class="cls-6" d="M1737.52,333.8v23.02h-49.23V333.8h49.23m0-4h-49.23a4,4,0,0,0-4,4v23.02a4,4,0,0,0,4,4h49.23a4,4,0,0,0,4-4V333.8a4,4,0,0,0-4-4Z" transform="translate(0.00001)"/>
      </g>
      <g>
        <rect class="cls-6" x="1716.91994" y="252.16016" width="46.53027" height="27.00977" rx="2"/>
        <path class="cls-6" d="M1761.45,254.16v23.01h-42.53V254.16h42.53m0-4h-42.53a4,4,0,0,0-4,4v23.01a4,4,0,0,0,4,4h42.53a4,4,0,0,0,4-4V254.16a4,4,0,0,0-4-4Z" transform="translate(0.00001)"/>
      </g>
      <g>
        <rect class="cls-6" x="1686.29005" y="186.02002" width="19.79004" height="27.02002" rx="2"/>
        <path class="cls-6" d="M1704.08008,188.02v23.02h-15.79V188.02h15.79m0-4h-15.79a4,4,0,0,0-4,4v23.02a4,4,0,0,0,4,4h15.79a4,4,0,0,0,4-4V188.02a4,4,0,0,0-4-4Z" transform="translate(0.00001)"/>
      </g>
      <g>
        <rect class="cls-6" x="1706.31056" y="102.27002" width="57.13965" height="27.02002" rx="2"/>
        <path class="cls-6" d="M1761.45,104.27v23.02h-53.13989V104.27H1761.45m0-4h-53.13989a4,4,0,0,0-4,4v23.02a4,4,0,0,0,4,4H1761.45a4,4,0,0,0,4-4V104.27a4,4,0,0,0-4-4Z" transform="translate(0.00001)"/>
      </g>
      <g>
        <rect class="cls-6" x="1686.29005" y="22.8501" width="48.67969" height="27.02002" rx="2"/>
        <path class="cls-6" d="M1732.97,24.85V47.87H1688.29V24.85H1732.97m0-4H1688.29a4,4,0,0,0-4,4V47.87a4,4,0,0,0,4,4H1732.97a4,4,0,0,0,4-4V24.85a4,4,0,0,0-4-4Z" transform="translate(0.00001)"/>
      </g>
    </g>
  </g>
  <g>
    <g>
      <rect class="cls-8" x="2.50001" y="721.69043" width="434.41992" height="355.80957"/>
      <path class="cls-8" d="M434.42,724.18994V1075H5V724.18994H434.42m5-5H0V1080H439.42V719.18994Z" transform="translate(0.00001)"/>
    </g>
    <g>
      <g>
        <rect class="cls-9" x="41.9494" y="630.90832" width="33.12939" height="77.77441" rx="2.5"/>
        <path class="cls-9" d="M72.579,633.40838v72.77423H44.44929V633.40838H72.579m0-5H44.44929a5,5,0,0,0-5,5v72.77423a5,5,0,0,0,5,5H72.579a5,5,0,0,0,5-5V633.40838a5,5,0,0,0-5-5Z" transform="translate(0.00001)"/>
      </g>
      <g>
        <rect class="cls-9" x="47.91717" y="620.84387" width="21.19385" height="15.06445" rx="2.5"/>
        <path class="cls-9" d="M66.61105,623.34387v10.06451H50.4172V623.34387H66.61105m0-5H50.4172a5,5,0,0,0-5,5v10.06451a5,5,0,0,0,5,5H66.61105a5,5,0,0,0,5-5V623.34387a5,5,0,0,0-5-5Z" transform="translate(0.00001)"/>
      </g>
      <g>
        <path class="cls-9" d="M55.52165,620.22375a2.49987,2.49987,0,0,1-2.147-3.78027l2.99267-5.01758a2.49905,2.49905,0,0,1,2.147-1.21973h0a2.49788,2.49788,0,0,1,2.147,1.21973l2.99218,5.01758a2.49987,2.49987,0,0,1-2.147,3.78027Z" transform="translate(0.00001)"/>
        <path class="cls-9" d="M58.51413,612.70605l1.49625,2.50879,1.49625,2.50885h-5.985l1.49625-2.50885,1.49626-2.50879m0-5a4.99993,4.99993,0,0,0-4.29427,2.43891l-1.49625,2.50879-1.49628,2.50891a5,5,0,0,0,4.29429,7.561h5.985a5,5,0,0,0,4.2943-7.561l-1.49626-2.50891L62.80839,610.145a4.99991,4.99991,0,0,0-4.29426-2.43891Z" transform="translate(0.00001)"/>
      </g>
      <g class="cls-10">
        <rect class="cls-11" x="41.08563" y="664.15051" width="34.90332" height="20.58008" rx="1"/>
        <path class="cls-9" d="M74.98878,665.15033V683.731H42.08556V665.15033H74.98878m0-2H42.08556a2,2,0,0,0-2,2V683.731a2,2,0,0,0,2,2H74.98878a2,2,0,0,0,2-2V665.15033a2,2,0,0,0-2-2Z" transform="translate(0.00001)"/>
      </g>
    </g>
    <g>
      <g>
        <rect class="cls-12" x="96.94012" y="630.90832" width="33.12988" height="77.77441" rx="2.5"/>
        <path class="cls-12" d="M127.56976,633.40838v72.77423H99.44009V633.40838h28.12967m0-5H99.44009a5,5,0,0,0-5,5v72.77423a5,5,0,0,0,5,5h28.12967a5,5,0,0,0,5-5V633.40838a5,5,0,0,0-5-5Z" transform="translate(0.00001)"/>
      </g>
      <g>
        <rect class="cls-12" x="102.90789" y="620.84387" width="21.19385" height="15.06445" rx="2.5"/>
        <path class="cls-12" d="M121.60186,623.34387v10.06451H105.408V623.34387h16.19387m0-5H105.408a5,5,0,0,0-5,5v10.06451a5,5,0,0,0,5,5h16.19387a5,5,0,0,0,5-5V623.34387a5,5,0,0,0-5-5Z" transform="translate(0.00001)"/>
      </g>
      <g>
        <path class="cls-12" d="M110.51237,620.22375a2.49987,2.49987,0,0,1-2.147-3.78027l2.99267-5.01758a2.49908,2.49908,0,0,1,2.147-1.21973h0a2.49785,2.49785,0,0,1,2.147,1.21973l2.99219,5.01758a2.49988,2.49988,0,0,1-2.147,3.78027Z" transform="translate(0.00001)"/>
        <path class="cls-12" d="M113.50491,612.70605l1.49625,2.50879,1.49627,2.50885h-5.985l1.49625-2.50885,1.49624-2.50879m0-5a5,5,0,0,0-4.29426,2.43891l-1.49624,2.50879-1.49627,2.50891a5,5,0,0,0,4.29429,7.561h5.985a5,5,0,0,0,4.29428-7.56109l-1.49627-2.50885-1.49627-2.50879a4.99993,4.99993,0,0,0-4.29427-2.43891Z" transform="translate(0.00001)"/>
      </g>
      <g class="cls-10">
        <rect class="cls-11" x="97.07637" y="665.15034" width="32.90323" height="18.58065"/>
      </g>
    </g>
    <g>
      <rect class="cls-8" x="163.99558" y="445.46975" width="214.24854" height="27.55762" rx="2.5"/>
      <path class="cls-8" d="M375.74435,447.97v22.55734H166.49557V447.97H375.74435m0-5H166.49557a5,5,0,0,0-5,5v22.55734a5,5,0,0,0,5,5H375.74435a5,5,0,0,0,5-5V447.97a5,5,0,0,0-5-5Z" transform="translate(0.00001)"/>
    </g>
    <g>
      <rect class="cls-13" x="216.06453" y="511.76615" width="3.67742" height="26.90322"/>
      <g>
        <rect class="cls-3" x="213.2256" y="479.7417" width="9.35498" height="39.93555" rx="1"/>
        <path class="cls-3" d="M221.58064,480.74194v37.93549H214.2258V480.74194h7.35484m0-2H214.2258a2,2,0,0,0-2,2v37.93549a2,2,0,0,0,2,2h7.35484a2,2,0,0,0,2-2V480.74194a2,2,0,0,0-2-2Z" transform="translate(0.00001)"/>
      </g>
      <g>
        <path class="cls-14" d="M217.90332,564.22622a.99968.99968,0,0,1-.94775-.68067l-10.70019-31.74219a1.00144,1.00144,0,0,1,.03808-.73486,11.67822,11.67822,0,0,1,10.689-6.85107c.38964,0,.709.01953.94043.03857.147-.00635.32519-.01172.53076-.01172a12.21483,12.21483,0,0,1,11.04394,6.793.99924.99924,0,0,1,.05323.76611l-10.69971,31.74219A.99968.99968,0,0,1,217.90332,564.22622Z" transform="translate(0.00001)"/>
        <path class="cls-14" d="M216.98256,525.21773c.392,0,.70629.02143.92067.04035.14588-.00714.33155-.01355.55091-.01355a11.44228,11.44228,0,0,1,6.41684,1.949,11.32431,11.32431,0,0,1,3.73211,4.29029q-2.675,7.93551-5.34993,15.871l-5.34993,15.871-5.34993-15.871-5.34994-15.871a10.67661,10.67661,0,0,1,9.7792-6.26612m0-2a12.67643,12.67643,0,0,0-11.59874,7.43592,1.99994,1.99994,0,0,0-.07568,1.46905l5.34995,15.871,5.34993,15.871a2,2,0,0,0,3.79043,0l5.34993-15.871,2.675-7.93548,2.675-7.93549a2.00011,2.00011,0,0,0-.10606-1.53271,13.21428,13.21428,0,0,0-11.93795-7.34546c-.19424,0-.366.00427-.51225.00995-.31891-.02466-.63414-.03675-.95949-.03675Z" transform="translate(0.00001)"/>
      </g>
    </g>
    <g>
      <g>
        <path class="cls-14" d="M255.50628,564.22579a16.87085,16.87085,0,1,1,16.87109-16.8711A16.89023,16.89023,0,0,1,255.50628,564.22579Z" transform="translate(0.00001)"/>
        <path class="cls-14" d="M255.50632,531.48385a15.871,15.871,0,1,1-15.871,15.871,15.87094,15.87094,0,0,1,15.871-15.871m0-2a17.871,17.871,0,1,0,17.871,17.871,17.89122,17.89122,0,0,0-17.871-17.871Z" transform="translate(0.00001)"/>
      </g>
      <rect class="cls-13" x="253.66763" y="511.76615" width="3.67742" height="38.16933" rx="1.83871"/>
      <g>
        <rect class="cls-3" x="250.82879" y="479.7417" width="9.35498" height="39.93555" rx="1"/>
        <path class="cls-3" d="M259.18374,480.74194v37.93549h-7.35483V480.74194h7.35483m0-2h-7.35483a2,2,0,0,0-2,2v37.93549a2,2,0,0,0,2,2h7.35483a2,2,0,0,0,2-2V480.74194a2,2,0,0,0-2-2Z" transform="translate(0.00001)"/>
      </g>
    </g>
    <g>
      <rect class="cls-5" x="87.77443" y="713.96973" width="362.19531" height="22.90039" rx="2"/>
      <path class="cls-5" d="M447.97,715.97v18.9H89.77419v-18.9H447.97m0-4H89.77419a4,4,0,0,0-4,4v18.9a4,4,0,0,0,4,4H447.97a4,4,0,0,0,4-4v-18.9a4,4,0,0,0-4-4Z" transform="translate(0.00001)"/>
    </g>
    <g>
      <rect class="cls-5" x="2.00001" y="713.96973" width="316.91846" height="22.90039"/>
      <path class="cls-5" d="M316.91867,715.97v18.9H4v-18.9H316.91867m4-4H0v26.9H320.91867v-26.9Z" transform="translate(0.00001)"/>
    </g>
  </g>
  <g>
    <g id="Brick">
      <rect class="cls-15" x="406.2566" y="314.79999" width="109" height="38" rx="7.33871"/>
    </g>
    <g id="Brick-2" data-name="Brick">
      <rect class="cls-15" x="460.7566" y="366.90763" width="109" height="38" rx="7.33871"/>
    </g>
    <g id="Brick-3" data-name="Brick">
      <rect class="cls-15" x="677.08066" y="827.06208" width="109" height="38" rx="7.33871"/>
    </g>
    <g id="Brick-4" data-name="Brick">
      <rect class="cls-15" x="804.69592" y="827.06208" width="109" height="38" rx="7.33871"/>
    </g>
    <g id="Brick-5" data-name="Brick">
      <rect class="cls-15" x="731.58066" y="880.595" width="109" height="38" rx="7.33871"/>
    </g>
    <g id="Brick-6" data-name="Brick">
      <rect class="cls-15" x="1172.31299" y="654.39394" width="109" height="38" rx="7.33871"/>
    </g>
    <g id="Brick-7" data-name="Brick">
      <rect class="cls-15" x="1117.81299" y="602.71618" width="109" height="38" rx="7.33871"/>
    </g>
    <g id="Brick-8" data-name="Brick">
      <rect class="cls-15" x="875.2994" y="356.82001" width="109" height="38" rx="7.33871"/>
    </g>
    <g id="Brick-9" data-name="Brick">
      <rect class="cls-15" x="1437.40791" y="289.69355" width="109" height="38" rx="7.33871"/>
    </g>
    <g id="Brick-10" data-name="Brick">
      <rect class="cls-15" x="1275.61292" y="941.35012" width="109" height="38" rx="7.33871"/>
    </g>
    <g id="Brick-11" data-name="Brick">
      <rect class="cls-15" x="940.63811" y="305.06452" width="109" height="38" rx="7.33871"/>
    </g>
    <g id="Brick-12" data-name="Brick">
      <rect class="cls-15" x="28.8208" y="258.16998" width="109" height="38" rx="7.33871"/>
    </g>
  </g>
</svg>
