<svg id="Layer_1" data-name="Layer 1" xmlns="http://www.w3.org/2000/svg" viewBox="0 0 1920 1080">
  <defs>
    <style>
      .cls-1 {
        fill: #afe1f4;
      }

      .cls-2 {
        fill: #ffecce;
      }

      .cls-3, .cls-4 {
        fill: #c69c6d;
      }

      .cls-4, .cls-9 {
        stroke: #c69c6d;
      }

      .cls-4, .cls-7, .cls-8, .cls-9 {
        stroke-miterlimit: 10;
      }

      .cls-4, .cls-7, .cls-9 {
        stroke-width: 7px;
      }

      .cls-5 {
        fill: #ccc;
      }

      .cls-14, .cls-6 {
        fill: #597718;
      }

      .cls-17, .cls-7, .cls-8, .cls-9 {
        fill: none;
      }

      .cls-7 {
        stroke: #b3b3b3;
      }

      .cls-8 {
        stroke: #a67c52;
        stroke-width: 4px;
      }

      .cls-10, .cls-15 {
        fill: #ff1f1f;
      }

      .cls-11 {
        fill: #fff;
      }

      .cls-12 {
        fill: red;
      }

      .cls-13 {
        fill: #eca442;
      }

      .cls-14 {
        stroke: #597718;
        stroke-width: 5px;
      }

      .cls-14, .cls-15 {
        stroke-linecap: round;
        stroke-linejoin: round;
      }

      .cls-15 {
        font-size: 150px;
        stroke: #ff1f1f;
        stroke-width: 3px;
        font-family: MonotypeCorsiva, Monotype Corsiva;
      }

      .cls-16 {
        fill: #ffc28a;
      }

      .cls-18 {
        fill: #ffae71;
      }
    </style>
  </defs>
  <rect class="cls-1" width="1920" height="1080"/>
  <path class="cls-1" d="M316,209"/>
  <g>
    <g>
      <path class="cls-2" d="M429.29053,298.5H1490.70947a6.79053,6.79053,0,0,1,6.79053,6.79053V1067.21a6.79,6.79,0,0,1-6.79,6.79H429.29a6.79,6.79,0,0,1-6.79-6.79V305.29053A6.79053,6.79053,0,0,1,429.29053,298.5Z"/>
      <path class="cls-3" d="M1490.70972,304.5a.79115.79115,0,0,1,.79028.79034v761.91938a.79114.79114,0,0,1-.79028.79028H429.29034a.79115.79115,0,0,1-.79034-.79028V305.29034a.79116.79116,0,0,1,.79034-.79034H1490.70972m0-12H429.29034A12.7902,12.7902,0,0,0,416.5,305.29034v761.91938A12.79026,12.79026,0,0,0,429.29034,1080H1490.70972A12.79033,12.79033,0,0,0,1503.5,1067.20972V305.29034A12.79026,12.79026,0,0,0,1490.70972,292.5Z"/>
    </g>
    <rect class="cls-4" x="1131.5" y="986.5" width="109" height="38" rx="7.33871"/>
    <g>
      <path class="cls-5" d="M747,1076.5V802.57031c0-57.8584,22.16309-112.251,62.40625-153.1582C849.63477,608.52051,903.1167,586,960,586c56.88672,0,110.36914,22.52148,150.59473,63.41406C1150.83789,690.31543,1173,744.707,1173,802.57031V1076.5Z"/>
      <path class="cls-6" d="M960,589.5a205.17376,205.17376,0,0,1,81.50513,16.72461,208.63217,208.63217,0,0,1,66.59521,45.64477,212.54526,212.54526,0,0,1,44.92432,67.73206A214.85816,214.85816,0,0,1,1169.5,802.57V1073h-419V802.57a214.844,214.844,0,0,1,16.47644-82.97138,212.60427,212.60427,0,0,1,44.92487-67.732,208.65173,208.65173,0,0,1,66.59185-45.64142A205.17115,205.17115,0,0,1,960,589.5m0-7c-119.57,0-216.5,98.53-216.5,220.07V1080h433V802.57a221.20918,221.20918,0,0,0-63.40991-155.61011C1073.90991,607.13,1019.78,582.5,960,582.5Z"/>
    </g>
    <rect class="cls-5" x="750.70968" y="1062.54839" width="418.58065" height="16.5589"/>
    <line class="cls-7" x1="960" y1="1080" x2="960" y2="586.5"/>
    <path class="cls-8" d="M958.5,580.5,897,803q-.64517,102.6774-1.29034,205.35486"/>
    <path class="cls-9" d="M962.5,581.5l68,220,.6936,209.9516"/>
    <g>
      <path class="cls-10" d="M1201.39,706.92a48.27507,48.27507,0,0,1-96.54992-.15q0-1.185-.06006-2.34h.11a507.4015,507.4015,0,0,0-14.9-101.09c-14.07007-55.48-24.17993-95.34-59.1-119.3a106.1326,106.1326,0,0,0-36.98-15.86c116.97,16.45,207.03,116.73,207.47,238.14C1201.38,706.52,1201.39,706.72,1201.39,706.92Z"/>
      <path class="cls-11" d="M718.62,706.32c0,.19995-.01.4-.01.6,0-.05-.01-.1-.01-.15C718.6,706.62,718.61,706.47,718.62,706.32Z"/>
      <path class="cls-10" d="M939.14,466.71c-15.09,1.78-33.13,6.52-49.94,18.06-34.92,23.97-45.03,63.83-59.1,119.31a506.26669,506.26669,0,0,0-14.77,98.67.1266.1266,0,0,0-.01.06c-.07.89-.12,1.8-.14,2.71-.01.42-.02.83-.02,1.25a48.2751,48.2751,0,0,1-96.55.15c0-.2.01-.4.01-.6C719.07,580.43,815.88,477.26,939.14,466.71Z"/>
      <path class="cls-11" d="M911.5,635.3c-.87,27.51-.5,50.72.08,67.76a.4479.4479,0,0,0,.01.11c.04,1.23.09,2.43.12994,3.6a48.28,48.28,0,1,1-96.56,0c0-.42.01-.83.02-1.25.02-.91.07-1.81995.14-2.71a.1266.1266,0,0,1,.01-.06,506.26669,506.26669,0,0,1,14.77-98.67c14.07-55.48,24.18005-95.34,59.1-119.31,16.81-11.54,34.85-16.28,49.94-18.06h.02Q949.46506,465.825,960,465.82c-23.82,31.46-34.4,60.07995-39.58,79.16C913.54,570.34,912.86,591.99,911.5,635.3Z"/>
      <path class="cls-11" d="M911.72,706.77c-.04-1.17-.09-2.37-.12994-3.6.01.1.01.21.02.31.03.38.05.75.06,1.13.02.29.03.57.03.86C911.71,705.9,911.72,706.34,911.72,706.77Z"/>
      <path class="cls-10" d="M1008.53,701.83a.91484.91484,0,0,0-.01.16,47.20876,47.20876,0,0,0-.24,4.78,48.28,48.28,0,1,1-96.56006,0c0-.43-.01-.87-.02-1.3,0-.29-.01-.57-.03-.86-.01-.38-.03-.75-.06-1.13-.01-.1-.01-.21-.02-.31a.4479.4479,0,0,1-.01-.11c-.58-17.04-.95-40.25-.08-67.76,1.36-43.31,2.04-64.96,8.92-90.32,5.18-19.08,15.76-47.7,39.58-79.16h.64c23.44,31.17,33.9,59.49,39.03,78.43,6.88,25.35,7.56,47,8.92,90.31C1009.45,661.81,1009.1,684.84,1008.53,701.83Z"/>
      <path class="cls-11" d="M1104.78,704.43q.06006,1.155.06006,2.34a48.28,48.28,0,1,1-96.56006,0,47.20876,47.20876,0,0,1,.24-4.78.91484.91484,0,0,1,.01-.16c.56995-16.99.92-40.02.06-67.27-1.36005-43.31-2.04-64.96-8.92-90.31-5.13-18.94-15.59-47.26-39.03-78.43a243.38541,243.38541,0,0,1,33.27,2.36,106.1326,106.1326,0,0,1,36.98,15.86c34.92,23.96,45.02991,63.82,59.1,119.3a507.4015,507.4015,0,0,1,14.9,101.09Z"/>
      <path class="cls-11" d="M1201.4,706.77c0,.05005-.01.1-.01.15,0-.2-.01-.4-.01-.6C1201.39,706.47,1201.4,706.62,1201.4,706.77Z"/>
      <path class="cls-11" d="M960,465.82q-10.53,0-20.84.88995A143.90429,143.90429,0,0,1,960,465.82Z"/>
      <path class="cls-11" d="M993.91,468.18a243.38541,243.38541,0,0,0-33.27-2.36c-.18-.25-.36-.49-.55-.74A137.45655,137.45655,0,0,1,993.91,468.18Z"/>
    </g>
    <g>
      <circle class="cls-6" cx="1356.46633" cy="801.63322" r="77"/>
      <rect class="cls-6" x="1279.46633" y="801.63322" width="154" height="95.5"/>
      <path class="cls-5" d="M1356.46619,801.63322l-68.49973-.19249a68.82521,68.82521,0,0,1,68.49973-68.30751c37.578,0,68.5,30.922,68.5,68.5Z"/>
      <rect class="cls-5" x="1287.96633" y="801.13322" width="137" height="88"/>
      <rect class="cls-6" x="1274.96633" y="807.38322" width="163" height="8" transform="translate(545.08311 2167.84954) rotate(-90)"/>
      <rect class="cls-6" x="1282.36635" y="804.88322" width="148" height="8" transform="translate(2712.7327 1617.76643) rotate(180)"/>
    </g>
    <g>
      <path class="cls-10" d="M1405.9,773.45c-.01.27-.02.54-.02.81,0-.27-.01-.54-.02-.81Z"/>
      <path class="cls-12" d="M1439.13,774.1v.21a16.625,16.625,0,0,1-33.25-.05c0-.27.01-.54.02-.81V773.4a175.26755,175.26755,0,0,0-5.13-34.76c-4.8501-19.11-8.33008-32.84-20.36011-41.09a36.37034,36.37034,0,0,0-12.65991-5.44A83.147,83.147,0,0,1,1439.13,774.1Z"/>
      <path class="cls-12" d="M1348.49,691.62a37.91276,37.91276,0,0,0-16.87,6.18c-12.02991,8.26-15.51,21.98-20.35,41.09a173.76994,173.76994,0,0,0-5.11011,34.29c-.00989.17-.0199.35-.02991.52-.01.19-.01.37-.01.56a16.625,16.625,0,0,1-33.25.05v-.21A83.13183,83.13183,0,0,1,1348.49,691.62Z"/>
      <path class="cls-11" d="M1339.30005,749.64c-.30005,9.6-.17,17.68.03,23.57.01.12.01.25.0199.37,0,.23.01.46.02.68a16.625,16.625,0,0,1-33.25,0c0-.19,0-.37.01-.56.01-.17.02-.35.02991-.52a173.76994,173.76994,0,0,1,5.11011-34.29c4.84-19.11,8.32007-32.83,20.35-41.09a37.91276,37.91276,0,0,1,16.87-6.18h.06006c2.44995-.23,4.93994-.34,7.44995-.34a79.27252,79.27252,0,0,0-13.63,27.26C1340,727.27,1339.77,734.73,1339.30005,749.64Z"/>
      <path class="cls-12" d="M1372.7,772.75c-.04993.5-.06995,1-.06995,1.51a16.63,16.63,0,0,1-33.26,0c-.01-.22-.02-.45-.02-.68-.00989-.12-.00989-.25-.0199-.37-.20008-5.88995-.33008-13.97-.03-23.57.47-14.91.69995-22.37,3.06995-31.1A79.27252,79.27252,0,0,1,1356,691.28h.23a79.11033,79.11033,0,0,1,13.42993,27.01c2.37012,8.73,2.61011,16.18,3.07007,31.1C1373.03,758.88,1372.9,766.88,1372.7,772.75Z"/>
      <path class="cls-11" d="M1405.9,773.45h-.04c.01.27.02.54.02.81a16.625,16.625,0,0,1-33.25,0c0-.51.02-1.01.06995-1.51.20007-5.87.33008-13.87.03-23.36-.46-14.92-.7-22.37-3.07007-31.1A79.11033,79.11033,0,0,0,1356.23,691.28a82.53691,82.53691,0,0,1,11.52.83,36.37034,36.37034,0,0,1,12.65991,5.44c12.03,8.25,15.51,21.98,20.36011,41.09a175.26755,175.26755,0,0,1,5.13,34.76Z"/>
      <path class="cls-11" d="M1356,691.28c-2.51,0-5,.11-7.44995.34A48.287,48.287,0,0,1,1356,691.28Z"/>
      <path class="cls-11" d="M1367.75,692.11a82.53691,82.53691,0,0,0-11.52-.83c-.07007-.09-.13-.17-.2-.26A47.23377,47.23377,0,0,1,1367.75,692.11Z"/>
    </g>
    <g>
      <circle class="cls-6" cx="564.46633" cy="801.63322" r="77"/>
      <rect class="cls-6" x="487.46633" y="801.63322" width="154" height="95.5"/>
      <path class="cls-5" d="M564.46619,801.63322l-68.49973-.19249a68.82521,68.82521,0,0,1,68.49973-68.30751c37.578,0,68.5,30.922,68.5,68.5Z"/>
      <rect class="cls-5" x="495.96633" y="801.13322" width="137" height="88"/>
      <rect class="cls-6" x="482.96633" y="807.38322" width="163" height="8" transform="translate(-246.91689 1375.84954) rotate(-90)"/>
      <rect class="cls-6" x="490.36635" y="804.88322" width="148" height="8" transform="translate(1128.7327 1617.76643) rotate(180)"/>
    </g>
    <g>
      <path class="cls-10" d="M613.9,773.45c-.01.27-.02.54-.02.81,0-.27-.01-.54-.02-.81Z"/>
      <path class="cls-10" d="M647.13,774.1v.21a16.625,16.625,0,0,1-33.25-.05c0-.27.01-.54.02-.81V773.4a175.26755,175.26755,0,0,0-5.13-34.76c-4.85-19.11-8.33-32.84-20.36-41.09a36.37154,36.37154,0,0,0-12.66-5.44A83.147,83.147,0,0,1,647.13,774.1Z"/>
      <path class="cls-10" d="M556.49,691.62a37.9125,37.9125,0,0,0-16.87,6.18c-12.03,8.26-15.51,21.98-20.35,41.09A173.76617,173.76617,0,0,0,514.16,773.18c-.01.17-.02.35-.03.52-.01.19-.01.37-.01.56a16.625,16.625,0,0,1-33.25.05v-.21A83.13188,83.13188,0,0,1,556.49,691.62Z"/>
      <path class="cls-10" d="M580.7,772.75c-.05.5-.07,1-.07,1.51a16.63,16.63,0,0,1-33.26,0c-.01-.22-.02-.45-.02-.68-.01-.12-.01-.25-.02-.37-.2-5.88995-.33-13.97-.03-23.57.47-14.91.7-22.37,3.07-31.1A79.27141,79.27141,0,0,1,564,691.28h.23a79.113,79.113,0,0,1,13.43,27.01c2.37006,8.73,2.61005,16.18,3.07,31.1C581.03,758.88,580.9,766.88,580.7,772.75Z"/>
      <path class="cls-11" d="M613.9,773.45h-.04c.01.27.02.54.02.81a16.625,16.625,0,0,1-33.25,0c0-.51.02-1.01.07-1.51.2-5.87.33-13.87.03-23.36-.46-14.92-.69995-22.37-3.07-31.1a79.113,79.113,0,0,0-13.43-27.01,82.53691,82.53691,0,0,1,11.52.83,36.37154,36.37154,0,0,1,12.66,5.44c12.03,8.25,15.51,21.98,20.36005,41.09a175.26755,175.26755,0,0,1,5.13,34.76Z"/>
      <path class="cls-11" d="M547.3,749.64c-.3,9.6-.17,17.68.03,23.57.01.12.01.25.02.37,0,.23.01.46.02.68a16.625,16.625,0,0,1-33.25,0c0-.19,0-.37.01-.56.01-.17.02-.35.03-.52A173.76617,173.76617,0,0,1,519.27,738.89c4.84-19.11,8.32-32.83,20.35-41.09a37.9125,37.9125,0,0,1,16.87-6.18h.06c2.45-.23,4.94-.34,7.45-.34a79.27141,79.27141,0,0,0-13.63,27.26C548,727.27,547.77,734.73,547.3,749.64Z"/>
      <path class="cls-11" d="M564,691.28c-2.51,0-5,.11-7.45.34A48.28828,48.28828,0,0,1,564,691.28Z"/>
      <path class="cls-11" d="M575.75,692.11a82.53691,82.53691,0,0,0-11.52-.83c-.07-.09-.13-.17-.19995-.26A47.23354,47.23354,0,0,1,575.75,692.11Z"/>
    </g>
    <rect class="cls-4" x="509.5" y="502.5" width="109" height="38" rx="7.33871"/>
    <rect class="cls-4" x="630.5" y="502.5" width="109" height="38" rx="7.33871"/>
    <rect class="cls-4" x="559.5" y="550.5" width="109" height="38" rx="7.33871"/>
    <rect class="cls-4" x="1284.5" y="402.5" width="109" height="38" rx="7.33871"/>
    <rect class="cls-4" x="1206.5" y="451.5" width="109" height="38" rx="7.33871"/>
    <rect class="cls-4" x="625.5" y="938.5" width="109" height="38" rx="7.33871"/>
    <rect class="cls-4" x="560.5" y="987.5" width="109" height="38" rx="7.33871"/>
    <rect class="cls-4" x="1206.5" y="938.5" width="109" height="38" rx="7.33871"/>
    <rect class="cls-4" x="1251.5" y="986.5" width="109" height="38" rx="7.33871"/>
    <rect class="cls-4" x="1334.5" y="604.5" width="109" height="38" rx="7.33871"/>
  </g>
  <g>
    <g>
      <rect class="cls-13" x="644.5" y="172.5" width="631" height="244" rx="2.5"/>
      <path class="cls-3" d="M1273,175V414H647V175h626m0-5H647a5,5,0,0,0-5,5V414a5,5,0,0,0,5,5h626a5,5,0,0,0,5-5V175a5,5,0,0,0-5-5Z"/>
    </g>
    <g>
      <path class="cls-14" d="M719.63184,242.48438c14.91064,0,26.88086,2.73,35.49121,9.03027,8.19043,6.09033,13.86035,15.96045,13.86035,29.8208,0,30.66113-26.25049,43.05176-46.20117,43.05176a36.84724,36.84724,0,0,1-5.67041-.42041L702.62158,320.187v32.76074c0,17.64063,1.46973,18.06055,20.79053,20.16065v5.88037H665.4502V373.1084c18.06054-1.88965,18.90087-3.1499,18.90087-20.58057V269.15527c0-18.69043-2.31005-19.11084-18.90087-20.79052v-5.88037Zm-17.01026,70.35205c2.52,1.26025,8.18994,2.73046,15.33057,2.73046,14.07031,0,31.501-7.14013,31.501-33.60107,0-23.10107-15.12061-32.34131-32.76124-32.34131-6.09033,0-10.50048,1.05029-11.76025,2.52-1.68018,1.47022-2.31006,3.99024-2.31006,9.66065Z"/>
      <path class="cls-14" d="M786.40771,378.98877V373.1084c17.22071-1.88965,18.90088-2.73,18.90088-20.58057V269.15527c0-18.06054-1.68017-18.90039-18.90088-20.79052v-5.88037h56.28174v5.88037c-17.43017,1.89013-19.11035,2.73-19.11035,20.79052v83.37256c0,18.06055,1.68018,18.69092,19.11035,20.58057v5.88037Z"/>
      <path class="cls-14" d="M978.97754,343.07764c-1.46973,7.14013-6.51074,26.88086-8.61035,35.91113H861.16357l-1.89013-3.35986c29.19092-40.32129,58.38183-82.1128,87.99316-124.74414H905.895c-18.69043,0-21.84033,1.25976-26.25049,7.77-2.1001,2.73-5.25049,9.66064-7.98047,17.64062l-6.30029-.21c1.05029-10.92041,3.57031-29.19092,3.99023-38.43115h5.46c2.31006,5.04,4.83057,4.83008,11.13038,4.83008h84.84277l1.67969,3.36035c-29.19043,40.95117-57.54151,81.69238-86.52246,124.11377,6.51025.41992,20.16064.62988,34.4414.62988,27.51074,0,33.811-1.04981,39.69092-7.56006,4.40967-4.41016,9.03076-12.60059,12.81006-21.4209Z"/>
      <path class="cls-14" d="M1112.11426,343.07764c-1.46973,7.14013-6.50977,26.88086-8.60938,35.91113H994.30078l-1.88965-3.35986c29.19043-40.32129,58.38184-82.1128,87.99219-124.74414h-41.37109c-18.69043,0-21.84082,1.25976-26.251,7.77-2.09961,2.73-5.25,9.66064-7.98047,17.64062l-6.2998-.21c1.0498-10.92041,3.57031-29.19092,3.99023-38.43115h5.46c2.31055,5.04,4.83008,4.83008,11.13086,4.83008h84.84277l1.67969,3.36035c-29.1914,40.95117-57.542,81.69238-86.52246,124.11377,6.50977.41992,20.16016.62988,34.44043.62988,27.51074,0,33.81152-1.04981,39.69141-7.56006,4.41015-4.41016,9.03027-12.60059,12.81054-21.4209Z"/>
      <path class="cls-14" d="M1209.34082,378.98877V373.1084c13.65039-1.67969,15.33008-3.77979,12.39063-11.76026-2.73047-8.19043-6.93067-18.69043-11.34082-31.92089H1165.0293c-3.36035,9.45019-6.50977,17.64062-9.4502,26.251-4.62012,13.65039-1.67969,15.33008,15.54,17.43018v5.88037H1122.6084V373.1084c13.22949-1.67969,16.58984-3.1499,23.94043-22.05029l43.47168-110.25391,6.71972-1.25977c13.23047,35.91114,27.72071,75.602,40.95118,111.9336,6.7207,18.27051,8.61035,19.95068,23.5205,21.63037v5.88037Zm-21.001-111.93359c-6.71972,18.06054-13.86035,37.17138-20.16015,53.76171h39.27051Z"/>
    </g>
    <text class="cls-15" transform="translate(755.5 207.19824)">Pablo’s</text>
  </g>
  <g>
    <path class="cls-16" d="M1569.05634,647.98926a58.007,58.007,0,0,0-1.65015,16.07q-3.9298.465-8.19995.93-9.405,1.05-20.47,2.08c-3.47.31-7.06006.64-10.77.96a74.97068,74.97068,0,0,1-10.36-3.98c-7.96-3.78-13.02-8.3-12.64-12.02.47-4.63,9.45-9.09,23.19995-10.33a89.67233,89.67233,0,0,1,9.46-.31q3.42-.075,6.84009-.1c6.52-.08,13.04-.05,19.56006.05q3.46491.42,6.66992.83A58.902,58.902,0,0,0,1569.05634,647.98926Z"/>
    <path class="cls-16" d="M1426.41626,777.3493c-14.12-19.04-22.28-41.47-22.28-65.49a108.12892,108.12892,0,0,1,17.51-58.59q15.66-4.62,31.32-9.24,46-2.5,92-5-14.00005,63-28,126Q1471.69123,771.18933,1426.41626,777.3493Z"/>
    <path class="cls-17" d="M1497.65839,486.57031l-.01074.03589Z"/>
    <path class="cls-16" d="M1633.77631,656.9093c.98-.59,1.97-1.18,2.94995-1.78.05005,1.06-.13,1.81-.61,2.13C1635.6662,657.55926,1634.92621,657.50927,1633.77631,656.9093Z"/>
    <path class="cls-16" d="M1702.59626,711.98926c0,27.08-10.37,52.15-27.96009,72.6q-33.33-11.775-66.66992-23.56-2.055-1.47006-4.11-2.94-11.94014-8.535-23.89-17.06-5.50488-22.5-11-45c1.12-.68,2.25-1.36,3.37-2.03q4.275-2.595,8.55993-5.17c16.36011,11.02,43.68006,8.8,55.21009-5.92,7.72-9.86005,6.23-22.62,4.69006-30.23q4.0199-2.43,8.04993-4.86,17.35491,2.355,34.73,5.57v-2.28C1695.68622,669.10925,1702.59626,689.87927,1702.59626,711.98926Z"/>
    <path class="cls-17" d="M1685.88617,607.62927l-.15991.59c0-.06.01-.11005.01-.17Q1685.81134,607.83933,1685.88617,607.62927Z"/>
    <path class="cls-17" d="M1494.6576,496.6159l.12744-.42669Z"/>
    <path class="cls-17" d="M1665.95624,492.61926c-.09-.01-.18994-.01-.28-.02a.96827.96827,0,0,1,.23-.48C1665.92621,492.2893,1665.94623,492.44928,1665.95624,492.61926Z"/>
    <path class="cls-17" d="M1688.30634,808.41931c-2.79.3-5.41016.45-7.76.5a13.95489,13.95489,0,0,0-.32007-2.8c1.36-.24,2.65991-.41,3.8999-.52C1685.59626,806.52929,1686.98627,807.47931,1688.30634,808.41931Z"/>
    <path class="cls-17" d="M1680.43622,803.37927c-.31994.12-.63989.24-.93994.36q-.25506-.6-.54-1.17C1679.45624,802.83929,1679.94623,803.10925,1680.43622,803.37927Z"/>
    <path class="cls-17" d="M1664.29633,823.30926h-1.81006c.29-.3.58-.61.86-.91A6.70672,6.70672,0,0,0,1664.29633,823.30926Z"/>
    <path class="cls-17" d="M1697.20624,806.94928c-.47.11-.93994.21-1.3999.31-.24011-.32-.47009-.63-.71008-.95C1695.83625,806.49927,1696.53632,806.70929,1697.20624,806.94928Z"/>
    <path class="cls-17" d="M1731.9162,807.13928a10.42023,10.42023,0,0,1-5.18994,3.34,14.3783,14.3783,0,0,1-7.08008,0,16.66121,16.66121,0,0,1-4.16992-1.4A23.50354,23.50354,0,0,1,1731.9162,807.13928Z"/>
    <path class="cls-17" d="M1496.65986,489.913c-.42286,1.41565-.77863,2.60681-1.07752,3.60724C1495.94062,492.32086,1496.32227,491.04309,1496.65986,489.913Z"/>
    <path class="cls-17" d="M1497.02784,488.68115l-.04.13391Z"/>
    <path class="cls-17" d="M1497.28339,487.82574l-.04761.15943Z"/>
    <path class="cls-17" d="M1495.42963,494.03137c-.20538.68756-.37915,1.26941-.52533,1.75879C1495.0625,495.2605,1495.241,494.66272,1495.42963,494.03137Z"/>
    <path class="cls-17" d="M1494.56623,496.92187l-.10071.33716Z"/>
    <path class="cls-17" d="M1494.29316,497.836c-.03235.10821-.03034.10168,0,0Z"/>
    <path class="cls-17" d="M1497.48816,487.14007l-.09838.32953Z"/>
    <path class="cls-11" d="M1764.77892,904.01c-4.63-10.22-17.07006-36.75-45.67993-57.83a135.63334,135.63334,0,0,0-47.87011-22.44c-1.55994.71-4.41993,1.55-6.92994-.43h-1.81c-6.91993,7.41-16.09,13.95-26.92994,19.39l-.12011.06c-1.03992.52-2.09986,1.03-3.16992,1.53-.51.24-1.02.48-1.54.71q-.54.255-1.08.48c-.64.29-1.28.57-1.93005.84-1.3899.59-2.79993,1.17-4.23,1.72-.65992.26-1.31006.51-1.97.75-.71.27-1.41993.52-2.13.78-.04993.02-.09.03-.14.05-4.2,1.49-8.57007,2.84-13.07007,4.04-.2.06-.3899.11005-.58985.16-1.33007.35-2.67.69-4.02,1.01q-.24.06-.48.12-4.485,1.05-9.12011,1.91c-.30994.06-.61988.12-.92994.17-1.21.22-2.42993.43-3.65.62-.39.06995-.77991.13-1.17.19-1.29.2-2.6.38995-3.90992.56994-.24.03-.48.07-.72.1-1.55005.2-3.1101.39-4.68.56-.33.04-.65.07-.9801.1-1.23.13-2.46.24-3.68994.35q-.75.06-1.5.12c-1.12.09-2.26.17-3.3899.24-.47009.03-.95007.06-1.42016.09-1.57984.09-3.15991.17-4.75.22a218.09384,218.09384,0,0,1-22.62989-.41q-4.455-.33-8.85009-.82c-2.91993-.33-5.82-.72-8.67993-1.17a188.62111,188.62111,0,0,1-28.63-6.72c-1.27991-.42-2.54993-.84-3.80994-1.28a130.45036,130.45036,0,0,1-30.13012-14.77c-.96-.64-1.8899-1.30005-2.80994-1.97-1.09-.8-2.14-1.62-3.17-2.44a78.81672,78.81672,0,0,1-6.79993-6.09c-.20007-.21-.39-.42-.59-.63-.26-.26-.51-.53-.76-.8h-1.92a283.44521,283.44521,0,0,0-40.46008,28.47c-21.73,18.31-43.79993,36.91-56.12989,65.89-12.31005,28.94-14.96,68.36-1.3,98.17,10.84008,23.65,31.10009,39.4,55.66992,49.91992.13012-.28992.26-.56995.39013-.82984l2.16993.42993,40.37011,7.99,34.68994,6.87h173.11l35.46-3.29993c38.26-9.27,71.71008-26.78,86.25-59.7301C1793.599,969.4,1766.849,908.55,1764.77892,904.01Zm-223.24,57.59a11.745,11.745,0,1,1,11.74,11.74A11.747,11.747,0,0,1,1541.53893,961.6Zm16.96,54.81a11.745,11.745,0,1,1,11.75-11.74A11.74487,11.74487,0,0,1,1558.4989,1016.41Zm1.31005-91.36a11.745,11.745,0,1,1,11.75-11.75A11.74918,11.74918,0,0,1,1559.809,925.05Z"/>
    <path class="cls-11" d="M1701.27892,550.53h-.01c12.75-16.45,14.40991-36.89,5.23-49.6-6.91993-9.57-18.56006-12.78-19.58-13.05a36.62616,36.62616,0,0,0-21.95007,1.15,32.81442,32.81442,0,0,0-5.46-14.21c-8.57007-12.28-24.56006-15.8-36.55005-14.35-22.03992,2.67-31.92994,22.06006-32.62989,23.49-1.06005-3.36-6.76-20.13-24.16-28.71-22.2301-10.97-43.67,1.25-45.9801,2.61-2.61988,1.54-17.03992,10.34-22.52991,28.71-22.45007-9.4-47.1-5.02-61.34,10.44-1.48,1.61-17,19.09-11.75,41.77-2.34008-.39-11.04-1.54-18.27,3.91a25.66067,25.66067,0,0,0-7.83007,11.75c-4.17994,12.66,4.80005,32.54,22.53,51.52v47.43c.22-.05.42993-.08.65-.12q15.44989-2.85,30.9-5.02-.36,1.32-.72,2.79c-2.47,9.98-4.41,24.46,3.59,35.86,7.62,10.85,22.49,16.41,37.69995,16.61.74011-2.37,1.63-4.84,2.67-7.38-11.89-.03-23.88-4.26-30.98-12.85-10.31005-12.48-6.48-29.49-5.26-34.92.09-.39.17994-.79.28-1.19.09-.35.17994-.69.27-1.04.22-.83.47-1.67.74-2.53.23-.71.47-1.43.73-2.16.09-.26.17994-.53.29-.8q.13477-.405.29993-.81c.35-.91.72-1.83,1.12-2.76q.45007-1.035.92994-2.07a1.99794,1.99794,0,0,0,.10009-.21q.33-.705.68995-1.41a.57316.57316,0,0,0,.04-.07c.13-.27.27-.55.41993-.82.22-.44.45007-.87.69006-1.3.05994-.1.12-.21.18-.32.1399-.27.28992-.54.44995-.8.30005-.53.62-1.06.93995-1.59.14013-.23.28-.47.43005-.69995.36-.57.73-1.13,1.11-1.69.16-.24.32006-.48.49-.71q.52513-.765,1.08007-1.5c.17994-.25.36988-.49.55994-.73.55994-.73,1.14-1.44,1.75-2.13.09-.11005.18005-.21.28-.32.19995-.23.41-.46.62-.69.28-.31.56006-.61.85-.9l.1-.1c.21-.22.42-.43.64-.64.52-.51,1.04993-1.01,1.6-1.49.57006-.5,1.16-.99,1.75-1.44.04-.03.07006-.06.1101-.09.41993-.31995.84986-.63,1.27991-.93.4801-.34.9801-.67,1.49011-.98.24-.15.48-.29.73-.44.75-.43,1.52-.83,2.30994-1.19.26-.12.52-.23.77991-.34s.53-.22.8-.31995c.27-.11.54-.2.81005-.29.32007-.11.6399-.22.97-.31.22-.07.43994-.13.66992-.19.4801-.13.97009-.25,1.47009-.34a5.40259,5.40259,0,0,1,.58-.11005c.47-.09.94006-.16,1.43005-.21.26-.03.5199-.05.78992-.07.58007-.05,1.18-.07,1.78-.07h.07006c.31006,0,.62.01.92994.02.31005.02.6101.03.92.06.21008.02.43.04.64.06.14991.02.30005.04.46.06a21.54675,21.54675,0,0,1,2.13.38c.2301.05.46008.11.69006.17s.46.12.68995.19a20.8291,20.8291,0,0,1,2.67993.96c.22009.09.43.18.65014.28.42994.2.85987.41,1.27991.63.14.07.28.14.42.22.28.15.55005.3.83.47.20007.12.41.24.61.37.81005.51,1.60009,1.05,2.37011,1.64.3899.28.7699.59,1.14991.9q.555.46509,1.1101.96c.17993.16.35987.33.53992.5q.27007.24006.53992.51c.6101.58,1.20007,1.19,1.77,1.82.57006.62,1.12011,1.25,1.66,1.91.37.45.7301.91,1.09,1.38.28.36.55005.72.82006,1.09a.42052.42052,0,0,1,.05005.07c.34986.49.69995.98,1.03992,1.48.36.53.70007,1.06,1.04,1.59.29993.46.58.92.86,1.38995.07006.11005.13.22.19995.33.62011,1.06,1.22,2.13,1.78,3.21.3.56.58007,1.11.84008,1.67.27991.56.54993,1.11.79993,1.67.26.56.51,1.11.75,1.67a.99369.99369,0,0,0,.04993.11005c.39013.88995.75,1.77,1.09008,2.65.23.58.43995,1.15.64,1.72.07.19.14.37.19995.56.18.49.34.98.5,1.47.18.52.35,1.04.5,1.55005.27.86.51,1.69995.72009,2.51.16993.64.32,1.26.46,1.86.19.85.41993,1.85.65992,2.97a59.16882,59.16882,0,0,1,8.10009-4.56c-.17-.8-.33007-1.53-.48-2.16-.33007-1.42-.73-2.94-1.20007-4.51q3.42-.075,6.84-.1c6.52-.08,13.04-.05,19.56005.05-.48,1.41-.76,2.34-.85009,2.63995-.07984.27-.15991.56-.25.85-.48,1.62-1.0199,3.52-1.53992,5.62-.17.66-.33,1.35-.49,2.05-.11.46-.21008.93-.30994,1.41-.08007.38-.16015.77-.23,1.17-.07007.35-.14013.71-.20007,1.07-.12.64-.22009,1.29-.30994,1.95-.06006.36-.1101.72-.16015,1.09-.05994.46-.11988.94-.16992,1.42q-.10511.81-.15,1.62c-.08.89-.13,1.80005-.16,2.71a.04458.04458,0,0,0,0,.05,42.28124,42.28124,0,0,0,.65014,9.21c.07984.43.15992.85.25989,1.28.09.43.20007.86005.32,1.29q.16515.63.3601,1.26c.12.41.26.83.40992,1.24.15014.42.30005.84.47,1.25a29.80127,29.80127,0,0,0,3.25,6.01c.31006.43994.63012.87994.97009,1.3q.405.525.84,1.02c.13.16.26.31.4.46.28.31.55994.62.85.91a.233.233,0,0,0,.07006.07c.36988.39.75.76,1.1399,1.12.46008.43006.92.84,1.40014,1.23q.4499.39.92993.75c.23.18.46.35.7.53a136.7186,136.7186,0,0,1,.22.16c.26.2.53.38995.80005.58.4.27.8.54,1.21.8,20.02,12.75,54.89013,9.74,69.14013-9.6,9.59986-13.02,7.05994-29.63,5.25-38.04q17.35493,2.355,34.73,5.57V614.35q1.08-3.15,2.15992-6.3.07506-.21.15-.42l-.16.59c21.58007-17.72,30.91-38.3,24.68005-49.86C1709.14892,556.02,1706.66894,552.96,1701.27892,550.53Zm-180.63,38.25c-.27-.24-.54993-.49-.84-.73-5.82006-4.93-14.34008-9.74-25.15-9.26-11.9.53-20.66,7.21-26.29993,13.44-.2301.25-.45007.5-.67016.74A52.03014,52.03014,0,0,0,1460.7489,603.03c.65-3.16,1.3-6.31006,1.94995-9.47.05005-.22.09008-.45.14013-.67q.56983-2.76,1.1399-5.52c2.25-2.63,13.32006-15.02,30.68005-15.11,17.30994-.09,28.44006,12.1,30.72,14.71.09.28.17.56006.26.84.07.26.15.52.23.77q1.365,4.61993,2.75,9.23A48.58609,48.58609,0,0,0,1520.64892,588.78Zm50.54993,9.3q.99022-4.83,1.99-9.65c.05005-.27.1101-.53.16015-.8.04993-.21.08985-.42.12989-.63,2.25-2.63,13.32006-15.01,30.69006-15.11,17.29993-.09,28.43,12.1,30.72,14.71.55994,1.89,1.13,3.78,1.69006,5.67.08.26.14991.51.23.76.42994,1.47.86988,2.93994,1.30994,4.41a44.77849,44.77849,0,0,0-3.63-4.68c-.24-.27-.49-.54-.74-.82-5.41993-5.88-15.58-14.14-29.58-13.52-9.4.42-16.83,4.67-22.33,9.51-.29.25-.56006.51-.84008.76a54.305,54.305,0,0,0-8.04,9.44,47.17551,47.17551,0,0,0-2.71,4.53C1570.569,601.14,1570.8789,599.61,1571.19885,598.08Zm64.91015,84.83c-11.53,14.72-38.85009,16.94-55.21008,5.92a30.76159,30.76159,0,0,1-6.59-5.92,31.81127,31.81127,0,0,1-6.9-18.85,58.00864,58.00864,0,0,1,1.65-16.07,58.91042,58.91042,0,0,1,1.6399-5.82c4.98-14.92,16.95007-33.03,33.85009-32.98,19.99.06,32.12989,25.46,35.5,40.09.22.96.49,2.1.75,3.4C1642.339,660.29,1643.829,673.05,1636.109,682.91Z"/>
    <path d="M1691.51892,1080h-40.61l35.46-3.29993,2.65-.25A40.13969,40.13969,0,0,1,1691.51892,1080Z"/>
    <path d="M1571.55634,913.29925a11.75,11.75,0,1,1-11.75-11.74A11.74914,11.74914,0,0,1,1571.55634,913.29925Z"/>
    <path d="M1565.02631,961.5993a11.745,11.745,0,1,1-11.75-11.75A11.747,11.747,0,0,1,1565.02631,961.5993Z"/>
    <path d="M1477.79894,1080h-80.68c-.58-5.36,1.36-10.80994,3.05994-14.46008.13012-.28992.26-.56995.39013-.82984l2.16993.42993,40.37011,7.99Z"/>
    <path d="M1570.24628,1004.66931a11.745,11.745,0,1,1-11.75-11.75A11.747,11.747,0,0,1,1570.24628,1004.66931Z"/>
    <path class="cls-10" d="M1694.98627,813.7193a80.76986,80.76986,0,0,1-14.62-2.11005,16.015,16.015,0,0,1-8.28,11.7c-.20008.11005-.5.26-.86.43-1.56006.71-4.41992,1.55-6.92993-.43a6.70672,6.70672,0,0,1-.95007-.91c-.28.3-.57.61-.86.91-6.92,7.41-16.09009,13.95-26.92993,19.39l-.12012.06c-1.04.52-2.1,1.03-3.16992,1.53-.51.24-1.02.48-1.54.71q-.54.25506-1.08008.48c-.63989.29-1.2799.56994-1.92993.84-1.39.59-2.80005,1.17-4.23,1.72-.66.26-1.31006.51-1.97.75-.71.27-1.42.52-2.13013.78-.04992.02-.08984.03-.13989.05-4.2,1.49-8.57007,2.84-13.07007,4.04-.2.06-.38989.11-.59.16-1.33.35-2.67005.69-4.02,1.01l-.48.12q-4.485,1.05-9.12,1.91c-.31006.06006-.62.12006-.92993.17-1.21008.22-2.43.43-3.65015.62-.38989.07-.7799.13-1.16992.19-1.29.2-2.6.39-3.90991.57-.24011.03-.4801.07-.72009.1-1.54993.2-3.11.39-4.68006.56-.32995.04-.6499.07-.98.1-1.23.12994-2.46.24-3.68994.35q-.75.06-1.5.12-1.68.135-3.39.24c-.4701.03-.95008.06-1.42.09-1.58.09-3.15991.17-4.75.22a218.09362,218.09362,0,0,1-22.62988-.41q-4.45513-.33-8.8501-.82c-2.91992-.33-5.82007-.72-8.68-1.17a188.62029,188.62029,0,0,1-28.63-6.72c-1.28-.42-2.55-.84-3.81-1.28a130.452,130.452,0,0,1-30.13-14.77c-.96-.64-1.88995-1.3-2.81-1.97-1.09-.8-2.14-1.62-3.17-2.44a78.79691,78.79691,0,0,1-6.8-6.09c-.2-.21-.39-.42-.59-.63-.26-.26-.51-.53-.76-.8-.27-.28-.55-.56-.81-.85v-26.08c1.24005,1.13,2.51,2.23,3.80005,3.32.43.36.87.73,1.3,1.09a151.73622,151.73622,0,0,0,35.89,21.83c.3.23.6.45.91.67a42.36064,42.36064,0,0,0,23.32,8c.14.01.53.02,1.12.01a177.39449,177.39449,0,0,0,43.73,5.42c4.85,0,9.64-.2,14.36-.57q5.04016-.40494,9.96-1.08a49.42285,49.42285,0,0,0,11.93006,1.45,43.242,43.242,0,0,0,27.30993-11.17c.31006-.27.61011-.55.91016-.83.82983-.34,1.65991-.68,2.48-1.03a151.73881,151.73881,0,0,0,39.21-23.92q.61486-.525,1.23-1.05c.80005-.7,1.6-1.41,2.39-2.12994a83.38425,83.38425,0,0,1,15.22,6.18994c.13.07.25.14.38.21q.28491.57.54,1.17c.3-.12.62-.24.93994-.36,1.28.73,2.5,1.47,3.68994,2.22-1.24.11-2.53991.28-3.8999.52a13.95489,13.95489,0,0,1,.32007,2.8c2.34985-.05,4.97-.2,7.76-.5C1690.79633,810.2193,1693.02631,812.00927,1694.98627,813.7193Z"/>
    <path class="cls-10" d="M1714.76892,799.68A44.9268,44.9268,0,0,1,1706.609,804a41.951,41.951,0,0,0-11.34008-2.8,28.1428,28.1428,0,0,0-4.29-.11c1.48,1.78,2.85009,3.53,4.12011,5.22.74.19,1.43994.4,2.10987.64-.47.11-.93994.21-1.39991.31,1.67994,2.28,3.17994,4.45,4.46,6.42a37.33148,37.33148,0,0,0,6.3-.87c4.72,4.34,8.04993,9.08,13.80994,9.13,5,.04,9.12-3.47,11.86-6.51.21-2.69.43-5.37.64-8.06a36.43855,36.43855,0,0,1,12.79,6.4V800.82S1732.819,787.46,1714.76892,799.68Zm11.96,10.8a14.37612,14.37612,0,0,1-7.08,0,16.66032,16.66032,0,0,1-4.17-1.4,23.50387,23.50387,0,0,1,16.44006-1.94A10.42076,10.42076,0,0,1,1726.72888,810.48Z"/>
    <path class="cls-16" d="M1484.49628,822.39929a151.73622,151.73622,0,0,1-35.89-21.83c-.43-.36-.87-.73-1.3-1.09-1.29-1.09-2.56-2.19-3.80005-3.32q-3.15-2.865-6.08-5.88c1.09-.32,2.23-.64,3.43-.97a161.782,161.782,0,0,1,20.56-4.15c4.43-.61005,8.66-1.01,12.59-1.28-.17.07-.34.13-.52.21a11.53227,11.53227,0,0,0-5.22,3.91,8.71164,8.71164,0,0,0-1.27,3.15c-1.38,6.71,3.84,15.48,5.18994,17.74A47.87429,47.87429,0,0,0,1484.49628,822.39929Z"/>
    <path class="cls-16" d="M1663.35627,796.16931c-.79.72-1.59,1.43-2.39,2.12994q-.61486.52506-1.23,1.05a151.73881,151.73881,0,0,1-39.21,23.92c-.82007.35-1.65015.69-2.48,1.03a46.80916,46.80916,0,0,0,8.32-10.19c1.56994-2.63995,8.43-14.13995,3.92-20.88995a11.48212,11.48212,0,0,0-5.22009-3.91c-.18006-.07995-.34-.13995-.5199-.21a169.90724,169.90724,0,0,1,33.1499,5.43C1659.75629,795.08929,1661.62616,795.63928,1663.35627,796.16931Z"/>
    <path class="cls-16" d="M1577.89618,834.8493q-4.91985.67493-9.96,1.08c-4.72.37-9.51.57-14.36.57a177.39449,177.39449,0,0,1-43.73-5.42,51.99279,51.99279,0,0,0,17.1-3.42,38.381,38.381,0,0,0,19.64-16.16c.63-1.07,1.19006-2.13,1.69006-3.2a37.49632,37.49632,0,0,0,3.69995,8.42C1558.71625,828.0393,1569.53632,832.82928,1577.89618,834.8493Z"/>
    <path d="M1705.98627,824.54925c-.37.31-3.97-4.69-11-10.83-1.96-1.71-4.18994-3.5-6.67993-5.3-1.32007-.94-2.71008-1.89-4.18018-2.82-1.18994-.75-2.40991-1.49-3.68994-2.22-.49-.27-.98-.54-1.48-.81-.13-.07-.25-.14-.38-.21a83.38425,83.38425,0,0,0-15.22-6.18994c-1.73011-.53-3.6-1.08-5.66-1.64a169.90724,169.90724,0,0,0-33.1499-5.43c.17993.07.33984.13.5199.21a11.48212,11.48212,0,0,1,5.22009,3.91c4.51,6.75-2.3501,18.25-3.92,20.89a46.80916,46.80916,0,0,1-8.32,10.19c-.3.28-.6001.56-.91016.83a43.242,43.242,0,0,1-27.30993,11.17,49.42285,49.42285,0,0,1-11.93006-1.45c-8.35986-2.02-19.17993-6.81-25.91992-18.13a37.49632,37.49632,0,0,1-3.69995-8.42c-.5,1.07-1.06006,2.13-1.69006,3.2a38.381,38.381,0,0,1-19.64,16.16,51.99279,51.99279,0,0,1-17.1,3.42c-.59.01-.98,0-1.12-.01a42.36064,42.36064,0,0,1-23.32-8c-.31-.22-.61-.44-.91-.67a47.87429,47.87429,0,0,1-12.31006-13.51c-1.35-2.26-6.56994-11.03-5.18994-17.74a8.71164,8.71164,0,0,1,1.27-3.15,11.53227,11.53227,0,0,1,5.22-3.91c.18-.08.35-.14.52-.21-3.93.27-8.16.67-12.59,1.28a161.782,161.782,0,0,0-20.56,4.15c-1.2.33-2.34.65-3.43.97a86.72133,86.72133,0,0,0-17.45,6.86c-17.96,9.57-26.81,22.69-27.41,22.19-.77-.65,11.61-24.48,33.85-41.98.46-.37.92-.73,1.39-1.09a107.1063,107.1063,0,0,1,19.1-11.58,129.72037,129.72037,0,0,1,45.57-11.65,36.12108,36.12108,0,0,0,3.19,6.16c11.57,17.81,35.53,20.61,54.3,20.91a43.2238,43.2238,0,0,1,20.28-20.81,171.9926,171.9926,0,0,1,41.26-.53c18.88989,2.16,40.24,8.26,59.24,22.72q1.99494,1.51492,3.88989,3.11a127.93109,127.93109,0,0,1,16.34009,16.5c1.48,1.78,2.85,3.53,4.12,5.22.24.32.47.63.71008.95,1.67993,2.28,3.17993,4.45,4.46,6.42C1704.31623,819.92926,1706.30634,824.27929,1705.98627,824.54925Z"/>
    <path d="M1531.20624,652.61926c-16.62,11.06-28.02,29.25-29.01,30.87a90.11552,90.11552,0,0,0-6.41,12.64c-11.89-.03-23.88-4.26-30.98-12.85-10.31-12.48-6.48-29.49-5.26-34.92,3.49-15.52,16.31-38.86,35.5-38.8,19.98.06,32.12994,25.45,35.50006,40.09C1530.73627,650.49927,1530.96625,651.49927,1531.20624,652.61926Z"/>
    <path class="cls-11" d="M1520.07123,635.21509c-3.61767-6.1009-6.851-11.42341-13.54913-14.95777a26.64107,26.64107,0,0,0-18.06543-2.493c28.23926,34.55835,37.00055,41.30817,39.15619,39.86408C1530.08271,655.97363,1524.69587,643.01428,1520.07123,635.21509Z"/>
    <path d="M1528.61628,597.80926a48.5875,48.5875,0,0,0-7.97-9.03c-.27-.24-.55-.49-.84-.73-5.82-4.93-14.34-9.74-25.15-9.26-11.9.53-20.66,7.21-26.3,13.44-.23.25-.45.5-.67.74a52.01962,52.01962,0,0,0-6.93994,10.06c.65-3.16,1.3-6.31,1.94995-9.47.05005-.22.09-.45.14-.67q.57-2.76,1.14-5.52c2.25-2.63,13.32-15.02,30.68-15.11,17.31-.09,28.44,12.1,30.71991,14.71.09009.28.17017.56.26.84.07007.26.15015.52.23011.77Q1527.23133,593.19931,1528.61628,597.80926Z"/>
    <path class="cls-18" d="M1611.50629,758.75927a171.9926,171.9926,0,0,0-41.26.53,43.2238,43.2238,0,0,0-20.28,20.81c-18.77-.3-42.73-3.1-54.3-20.91a36.12108,36.12108,0,0,1-3.19-6.16c-3.39-8.39-3.37-17.1-3.33-25.16a83.39589,83.39589,0,0,1,3.97-24.36c.74-2.37,1.63-4.84,2.67-7.38a90.11552,90.11552,0,0,1,6.41-12.64c.99-1.62,12.39-19.81,29.01-30.87a59.17632,59.17632,0,0,1,8.1001-4.56,39.10131,39.10131,0,0,1,20.31982-3.73c1.21009.13,2.31006.31,3.30005.5-2.74,9.34-7.76,27.8,2,41.7a33.50728,33.50728,0,0,0,9.53,8.93l7.36,44.15a23.29329,23.29329,0,0,1,14.35-3.91c5.9.43,14.54,3.46,16.97,10.44C1614.71625,750.64929,1613.4162,755.13928,1611.50629,758.75927Z"/>
    <path d="M1628.579,634.85c-3.62011-6.1-6.85009-11.42-13.55005-14.96a26.58972,26.58972,0,0,0-18.06005-2.49c22.32006,27.31995,32.48,37.27,36.81005,39.51,1.14991.6,1.89.65,2.34.35.4801-.32.66-1.07.61-2.13C1636.51892,650.76,1632.29894,641.14,1628.579,634.85Z"/>
    <path d="M1640.79894,652.68c-.26-1.3-.53-2.44-.75-3.4-3.37011-14.63-15.51-40.03-35.5-40.09-16.9-.05-28.87011,18.06-33.85009,32.98a58.91042,58.91042,0,0,0-1.6399,5.82,58.00864,58.00864,0,0,0-1.65,16.07,31.81127,31.81127,0,0,0,6.9,18.85,30.76159,30.76159,0,0,0,6.59,5.92c16.36,11.02,43.68,8.8,55.21008-5.92C1643.829,673.05,1642.339,660.29,1640.79894,652.68Zm-4.68,4.58c-.44995.3-1.19006.25-2.34-.35-4.33007-2.24-14.49-12.19-36.81005-39.51a26.58972,26.58972,0,0,1,18.06005,2.49c6.7,3.54,9.92994,8.86,13.55005,14.96,3.72,6.29,7.93995,15.91,8.14991,20.28C1636.77892,656.19,1636.599,656.94,1636.11889,657.26Z"/>
    <path class="cls-11" d="M1636.72626,655.12927c.05005,1.06-.13,1.81-.61,2.13-.45008.3-1.19007.25-2.34-.35-4.33008-2.24-14.49-12.19-36.81006-39.51a26.5897,26.5897,0,0,1,18.06006,2.49c6.69995,3.54,9.92993,8.86,13.54993,14.96C1632.29633,641.13928,1636.5163,650.75927,1636.72626,655.12927Z"/>
    <path d="M1638.11628,597.43927a44.77886,44.77886,0,0,0-3.63-4.68c-.24-.27-.49-.54-.74-.82-5.42-5.88-15.58008-14.14-29.58008-13.52-9.3999.42-16.82995,4.67-22.32995,9.51-.28992.25-.55994.51-.84.76a54.30722,54.30722,0,0,0-8.04,9.44,47.16711,47.16711,0,0,0-2.71,4.53c.31995-1.52.62988-3.05005.94995-4.58q.99006-4.83,1.99-9.65c.05005-.27.11011-.53.16-.8.04992-.21.09-.42.13-.63,2.25-2.63,13.32007-15.01,30.68994-15.11,17.30005-.09,28.43006,12.1,30.72,14.71.56006,1.89,1.13013,3.78,1.69007,5.67.07995.26.15.51.2301.76C1637.23627,594.49927,1637.67621,595.9693,1638.11628,597.43927Z"/>
  </g>
</svg>
