<svg id="Layer_1" data-name="Layer 1" xmlns="http://www.w3.org/2000/svg" viewBox="0 0 305.88063 163.79533">
  <defs>
    <style>
      .cls-1 {
        fill: #f2f2f2;
      }
    </style>
  </defs>
  <path class="cls-1" d="M305.88063,119.09789c0,24.684-19.52237,44.69744-43.62349,44.69744-.37138,0-.75283,0-1.1242-.01058H56.721C25.39036,163.78475,0,137.7694,0,105.66758S25.39036,47.55041,56.721,47.55041a55.12385,55.12385,0,0,1,10.29225.96155C75.60394,20.39383,101.23135,0,131.48949,0c27.649,0,51.43044,17.03361,61.86709,41.4217a42.364,42.364,0,0,1,25.38-8.44289c22.92568,0,41.68479,18.30163,43.11817,41.42171h.40235C286.35826,74.40052,305.88063,94.414,305.88063,119.09789Z"/>
</svg>
