<svg id="Layer_1" data-name="Layer 1" xmlns="http://www.w3.org/2000/svg" viewBox="0 0 138 138">
  <defs>
    <style>
      .cls-1 {
        fill: #eca442;
        stroke: #a67c52;
        stroke-miterlimit: 10;
        stroke-width: 10px;
      }

      .cls-2 {
        fill: #597718;
      }
    </style>
  </defs>
  <circle class="cls-1" cx="69" cy="69" r="64"/>
  <g>
    <g>
      <g>
        <g>
          <path class="cls-2" d="M54.53455,57.39769a2.95522,2.95522,0,0,1-1.85351-.65235,2.15829,2.15829,0,0,1-.27344-.23047L32.35291,36.46019a2.99761,2.99761,0,0,1,4.23926-4.23926L56.65174,52.2805a2.81671,2.81671,0,0,1,.53516.74023.87931.87931,0,0,1,.06542.11914,3.00941,3.00941,0,0,1-.60058,3.375A2.97761,2.97761,0,0,1,54.53455,57.39769Z"/>
          <path class="cls-2" d="M34.47205,32.34275a1.99116,1.99116,0,0,1,1.41248.58509l20.06006,20.06a1.81189,1.81189,0,0,1,.39.57h.01a2.003,2.003,0,0,1-1.81006,2.84,1.93983,1.93983,0,0,1-1.25-.45,1.14942,1.14942,0,0,1-.16992-.14l-2.59009-2.59-17.465-17.465a1.99756,1.99756,0,0,1,1.41247-3.4101m.00012-2h-.00012a3.99758,3.99758,0,0,0-2.82666,6.82434l17.465,17.465,2.59008,2.59a3.1788,3.1788,0,0,0,.37745.32214,3.97151,3.97151,0,0,0,5.28088-.3222,4.016,4.016,0,0,0,.80322-4.49909,1.99519,1.99519,0,0,0-.10547-.19934,3.83727,3.83727,0,0,0-.69775-.95l-20.06006-20.06a3.971,3.971,0,0,0-2.82654-1.17084Z"/>
        </g>
        <g>
          <path class="cls-2" d="M55.14393,58.2014a3.00328,3.00328,0,0,1-3-3v-12.374a3,3,0,0,1,6,0v12.374A3.00329,3.00329,0,0,1,55.14393,58.2014Z"/>
          <path class="cls-2" d="M55.14393,40.82731a2,2,0,0,1,2,2v12.374a2,2,0,0,1-4,0v-12.374a2,2,0,0,1,2-2m0-2a4.00454,4.00454,0,0,0-4,4v12.374a4,4,0,0,0,8,0v-12.374a4.00455,4.00455,0,0,0-4-4Z"/>
        </g>
        <g>
          <path class="cls-2" d="M42.83729,58.21409a3,3,0,1,1,0-6h12.374a3,3,0,0,1,0,6Z"/>
          <path class="cls-2" d="M55.21155,53.2136a2,2,0,0,1,0,4h-12.374a2,2,0,0,1,0-4h12.374m0-2h-12.374a4,4,0,0,0,0,8h12.374a4,4,0,0,0,0-8Z"/>
        </g>
      </g>
      <g>
        <g>
          <path class="cls-2" d="M103.18982,106.19261a2.97834,2.97834,0,0,1-2.12011-.87793L81.0199,85.26487a2.10831,2.10831,0,0,1-.23535-.27832A2.99219,2.99219,0,0,1,85.225,80.99339c.00977.00879,20.084,20.083,20.084,20.083a2.99707,2.99707,0,0,1-2.11915,5.11621Z"/>
          <path class="cls-2" d="M83.13685,81.14183a1.987,1.987,0,0,1,1.4.57623.0098.0098,0,0,1,.01.01l20.055,20.055a1.9976,1.9976,0,0,1-2.82507,2.825l-20.04993-20.05a1.15057,1.15057,0,0,1-.14-.17,1.99428,1.99428,0,0,1,1.54993-3.24627m.00012-2h-.00012a3.99453,3.99453,0,0,0-3.15064,6.4469,3.1828,3.1828,0,0,0,.32739.3844l20.04908,20.04913a3.99756,3.99756,0,1,0,5.65344-5.65338L85.96106,80.31382l-.01916-.019.00012-.00006a3.97,3.97,0,0,0-2.805-1.153Z"/>
        </g>
        <g>
          <path class="cls-2" d="M82.85877,98.17991a3.00328,3.00328,0,0,1-3-3v-12.374a3,3,0,0,1,6,0v12.374A3.00328,3.00328,0,0,1,82.85877,98.17991Z"/>
          <path class="cls-2" d="M82.859,80.80577a2,2,0,0,1,2,2v12.374a2,2,0,0,1-4,0v-12.374a2.00006,2.00006,0,0,1,2-2m0-2a4.00455,4.00455,0,0,0-4,4v12.374a4,4,0,0,0,8,0v-12.374a4.00454,4.00454,0,0,0-4-4Z"/>
        </g>
        <g>
          <path class="cls-2" d="M82.79139,85.79319a3,3,0,0,1,0-6h12.374a3,3,0,0,1,0,6Z"/>
          <path class="cls-2" d="M95.16541,80.7935a2,2,0,1,1,0,4h-12.374a2,2,0,0,1,0-4h12.374m0-2h-12.374a4,4,0,0,0,0,8h12.374a4,4,0,1,0,0-8Z"/>
        </g>
      </g>
    </g>
    <g>
      <g>
        <g>
          <path class="cls-2" d="M83.50525,57.41624a2.99377,2.99377,0,0,1-2.71289-4.26855,1.11627,1.11627,0,0,1,.06153-.11133,2.83708,2.83708,0,0,1,.53418-.73731l19.8457-19.8457a3.00071,3.00071,0,0,1,4.24316,4.24414L85.62244,56.54319a2.13986,2.13986,0,0,1-.3291.27246A2.8519,2.8519,0,0,1,83.50525,57.41624Z"/>
          <path class="cls-2" d="M103.35547,32.57481a2.00086,2.00086,0,0,1,1.41443,3.416L87.51539,53.236l-2.6,2.6a1.18419,1.18419,0,0,1-.18.15,1.94115,1.94115,0,0,1-1.23.43006,1.99431,1.99431,0,0,1-1.80994-2.84h.01a1.80922,1.80922,0,0,1,.39-.57l19.84522-19.84521a1.9948,1.9948,0,0,1,1.41479-.586m.00013-2h-.00013a3.97463,3.97463,0,0,0-2.829,1.17181L80.68128,51.59184a3.82816,3.82816,0,0,0-.69934.95312,1.95781,1.95781,0,0,0-.09448.176,3.99428,3.99428,0,0,0,3.61792,5.69513,3.91729,3.91729,0,0,0,2.42187-.823,3.2307,3.2307,0,0,0,.40308-.34351l2.59924-2.59936,17.25415-17.24475a4.00089,4.00089,0,0,0-2.82812-6.83063Z"/>
        </g>
        <g>
          <path class="cls-2" d="M82.88807,58.22776a3.00328,3.00328,0,0,1-3-3v-12.374a3,3,0,0,1,6,0v12.374A3.00328,3.00328,0,0,1,82.88807,58.22776Z"/>
          <path class="cls-2" d="M82.88831,40.85344a2.00006,2.00006,0,0,1,2,2v12.374a2,2,0,0,1-4,0v-12.374a2,2,0,0,1,2-2m0-2a4.00454,4.00454,0,0,0-4,4v12.374a4,4,0,0,0,8,0v-12.374a4.00454,4.00454,0,0,0-4-4Z"/>
        </g>
        <g>
          <path class="cls-2" d="M82.82068,58.23948a3,3,0,0,1,0-6h12.374a3,3,0,0,1,0,6Z"/>
          <path class="cls-2" d="M95.19471,53.23979a2,2,0,1,1,0,4h-12.374a2,2,0,0,1,0-4h12.374m0-2h-12.374a4,4,0,0,0,0,8h12.374a4,4,0,1,0,0-8Z"/>
        </g>
      </g>
      <g>
        <g>
          <path class="cls-2" d="M34.6449,106.425a3.001,3.001,0,0,1-2.12207-5.12305L52.78748,81.03733a2.99791,2.99791,0,0,1,4.46973,3.9795,2.18352,2.18352,0,0,1-.22949.26855L36.767,105.54612A2.98208,2.98208,0,0,1,34.6449,106.425Z"/>
          <path class="cls-2" d="M54.89612,81.16777a2.01373,2.01373,0,0,1,1.4187.5863,1.99,1.99,0,0,1,.16,2.64,1.46116,1.46116,0,0,1-.16.19l-3.14,3.13995-17.115,17.115a2.00111,2.00111,0,1,1-2.83-2.83l20.265-20.265a1.988,1.988,0,0,1,1.40124-.57629m.00013-2h-.00013a3.97137,3.97137,0,0,0-2.80639,1.15313l-20.27405,20.274a4.00108,4.00108,0,1,0,5.65832,5.65845L54.589,89.13823l3.14-3.1399a3.456,3.456,0,0,0,.34265-.39941,3.997,3.997,0,0,0-3.17541-6.43115Z"/>
        </g>
        <g>
          <path class="cls-2" d="M55.17518,98.20335a3.00328,3.00328,0,0,1-3-3v-12.374a3,3,0,0,1,6,0v12.374A3.00328,3.00328,0,0,1,55.17518,98.20335Z"/>
          <path class="cls-2" d="M55.17505,80.82975a2.00006,2.00006,0,0,1,2,2l-.00012,12.374a1.99992,1.99992,0,0,1-1.99988,2h-.00012a2,2,0,0,1-2-2l.00012-12.374a2,2,0,0,1,2-2m0-2a4.00455,4.00455,0,0,0-4,4l-.00012,12.374a4,4,0,0,0,8,0l.00012-12.374a4.00455,4.00455,0,0,0-4-4Z"/>
        </g>
        <g>
          <path class="cls-2" d="M42.86854,85.81761a3,3,0,1,1,0-6h12.374a3,3,0,0,1,0,6Z"/>
          <path class="cls-2" d="M55.24256,80.81749a2,2,0,0,1,0,4h-12.374a2,2,0,0,1,0-4h12.374m0-2h-12.374a4,4,0,0,0,0,8h12.374a4,4,0,0,0,0-8Z"/>
        </g>
      </g>
    </g>
  </g>
</svg>
