<svg xmlns="http://www.w3.org/2000/svg" xmlns:xlink="http://www.w3.org/1999/xlink" viewBox="0 0 264.11253 205.10939">
  <defs>
    <style>
      .cls-1, .cls-4, .cls-7 {
        fill: none;
      }

      .cls-2 {
        clip-path: url(#clip-path);
      }

      .cls-3 {
        fill: #ff1f1f;
      }

      .cls-4 {
        stroke: #7f2700;
      }

      .cls-4, .cls-7 {
        stroke-miterlimit: 10;
        stroke-width: 8px;
      }

      .cls-5 {
        fill: #fff;
      }

      .cls-6 {
        fill: #009245;
      }

      .cls-7 {
        stroke: #006837;
      }
    </style>
    <clipPath id="clip-path" transform="translate(0.00081 -0.0006)">
      <rect class="cls-1" width="264.11099" height="205.11"/>
    </clipPath>
  </defs>
  <g id="Layer_2" data-name="Layer 2">
    <g id="Layer_1-2" data-name="Layer 1">
      <g id="Chili">
        <g class="cls-2">
          <g class="cls-2">
            <path class="cls-3" d="M250.85629,56.09689c17.951,26.628-36.809,114.901-112.491,138.566a141.34713,141.34713,0,0,1-62.164,4.992c-41.162-6.097-73.698-30.501-72.149-36.596,1.198-4.706,30.02,9.773,72.864,5.734,14.825-1.398,55.187-5.493,83.978-33.712,35.303-34.6,25.118-78.06,54.471-87.418,12.157-3.875,28.979-1.226,35.491,8.434" transform="translate(0.00081 -0.0006)"/>
            <path class="cls-4" d="M250.85629,56.09689c17.951,26.628-36.809,114.901-112.491,138.566a141.34713,141.34713,0,0,1-62.164,4.992c-41.162-6.097-73.698-30.501-72.149-36.596,1.198-4.706,30.02,9.773,72.864,5.734,14.825-1.398,55.187-5.493,83.978-33.712,35.303-34.6,25.118-78.06,54.471-87.418C227.52229,43.7879,244.34428,46.4369,250.85629,56.09689Z" transform="translate(0.00081 -0.0006)"/>
            <path class="cls-5" d="M220.3651,92.6633c3.703,4.906,12.704,3.164,13.5,3,12.277-2.534,22.086-17.652,18.5-24-3.157-5.589-17.678-6.119-26,1-5.82,4.979-9.914,14.815-6,20" transform="translate(0.00081 -0.0006)"/>
            <path d="M227.6669,84.0988c2.409,3.191,8.264,2.058,8.781,1.951,7.987-1.648,14.366-11.482,12.034-15.611-2.053-3.635-11.499-3.98-16.912.65-3.786,3.239-6.449,9.637-3.903,13.01" transform="translate(0.00081 -0.0006)"/>
            <path class="cls-5" d="M238.2538,77.1032c1.236,1.639,4.243,1.057,4.509,1.002,4.1-.847,7.377-5.896,6.179-8.017-1.054-1.866-5.905-2.044-8.684.334-1.944,1.663-3.312,4.949-2.004,6.681" transform="translate(0.00081 -0.0006)"/>
            <path class="cls-5" d="M188.2059,87.8987c3.704,4.906,12.705,3.164,13.5,3,12.277-2.534,22.087-17.652,18.5-24-3.156-5.589-17.678-6.119-26,1-5.82,4.979-9.913,14.815-6,20" transform="translate(0.00081 -0.0006)"/>
            <path d="M195.5087,79.3342c2.409,3.191,8.264,2.058,8.781,1.951,7.986-1.648,14.366-11.482,12.033-15.611-2.053-3.635-11.499-3.98-16.912.651-3.786,3.238-6.448,9.636-3.902,13.009" transform="translate(0.00081 -0.0006)"/>
            <path class="cls-5" d="M206.0946,72.33861c1.237,1.639,4.243,1.057,4.51,1.002,4.1-.847,7.377-5.896,6.178-8.017-1.054-1.866-5.904-2.044-8.684.334-1.944,1.663-3.312,4.949-2.004,6.681" transform="translate(0.00081 -0.0006)"/>
            <path class="cls-6" d="M219.0751,72.1584c4.885,2.651,13.364-11.557,22.193-9.403,8.258,2.015,8.98,16.432,13.017,16.072,3.929-.351,8.403-14.878,4.016-27.409-2.578-7.36-5.581-6.529-6.936-12.755-2.426-11.153,6.497-17.112,2.92-27.065-1.262-3.508-4.206-7.875-6.823-7.584-5.336.591-2.314,19.768-13.097,26.649-5.835,3.723-9.398-.183-19.936,2.006-16.172,3.361-27.911,16.751-26.322,19.744,1.778,3.35,19.749-7.103,26.839,0,5.575,5.587-.225,17.382,4.129,19.745" transform="translate(0.00081 -0.0006)"/>
            <path class="cls-7" d="M219.0751,72.1584c4.885,2.651,13.364-11.557,22.193-9.403,8.258,2.015,8.98,16.432,13.017,16.072,3.929-.351,8.403-14.878,4.016-27.409-2.578-7.36-5.581-6.529-6.936-12.755-2.426-11.153,6.497-17.112,2.92-27.065-1.262-3.508-4.206-7.875-6.823-7.584-5.336.591-2.314,19.768-13.097,26.649-5.835,3.723-9.398-.183-19.936,2.006-16.172,3.361-27.911,16.751-26.322,19.744,1.778,3.35,19.749-7.103,26.839,0C220.5211,58.00041,214.7211,69.79541,219.0751,72.1584Z" transform="translate(0.00081 -0.0006)"/>
          </g>
        </g>
      </g>
    </g>
  </g>
</svg>
