<svg xmlns="http://www.w3.org/2000/svg" xmlns:xlink="http://www.w3.org/1999/xlink" viewBox="0 0 225.89018 182.27533">
  <defs>
    <style>
      .cls-1, .cls-4, .cls-7 {
        fill: none;
      }

      .cls-2 {
        clip-path: url(#clip-path);
      }

      .cls-3 {
        fill: #597718;
      }

      .cls-4 {
        stroke: #776e00;
        stroke-miterlimit: 10;
      }

      .cls-4, .cls-7 {
        stroke-width: 8px;
      }

      .cls-5 {
        fill: #fff;
      }

      .cls-6 {
        fill: #009245;
      }

      .cls-7 {
        stroke: #006837;
        stroke-linecap: round;
        stroke-linejoin: round;
      }
    </style>
    <clipPath id="clip-path" transform="translate(0.00018 0.00041)">
      <rect class="cls-1" width="225.89" height="182.27499"/>
    </clipPath>
  </defs>
  <g id="Layer_2" data-name="Layer 2">
    <g id="Layer_1-2" data-name="Layer 1">
      <g id="Olives">
        <g class="cls-2">
          <g class="cls-2">
            <path class="cls-3" d="M148.02361,137.47269c-6.788,27.621-30.986,45.418-54.048,39.75-23.062-5.667-36.255-32.653-29.467-60.273,6.788-27.622,30.986-45.418,54.048-39.75,23.062,5.667,36.255,32.652,29.467,60.273" transform="translate(0.00018 0.00041)"/>
            <path class="cls-4" d="M148.02361,137.47269c-6.788,27.621-30.986,45.418-54.048,39.75-23.062-5.667-36.255-32.653-29.467-60.273,6.788-27.622,30.986-45.418,54.048-39.75C141.61859,82.8667,154.8116,109.8517,148.02361,137.47269Z" transform="translate(0.00018 0.00041)"/>
            <path class="cls-5" d="M108.3073,111.96829c-3.975,11.033-14.021,17.519-22.439,14.486-8.419-3.033-12.021-14.435-8.046-25.468,3.974-11.034,14.021-17.519,22.439-14.486,8.419,3.032,12.021,14.435,8.046,25.468" transform="translate(0.00018 0.00041)"/>
            <path d="M103.1076,111.36279c-3.037,8.43-9.87,13.689-15.261,11.747-5.391-1.943-7.3-10.351-4.263-18.781,3.037-8.429,9.869-13.688,15.26-11.746,5.392,1.942,7.301,10.35,4.264,18.78" transform="translate(0.00018 0.00041)"/>
            <path class="cls-5" d="M100.4381,100.51129c-.491,1.364-1.733,2.165-2.773,1.791-1.041-.375-1.486-1.785-.995-3.148.492-1.364,1.733-2.165,2.773-1.791,1.041.375,1.486,1.784.995,3.148" transform="translate(0.00018 0.00041)"/>
            <path class="cls-5" d="M102.3698,103.74319c-.491,1.364-1.733,2.165-2.773,1.791-1.041-.375-1.486-1.785-.995-3.148.492-1.364,1.733-2.165,2.773-1.791,1.041.375,1.486,1.784.995,3.148" transform="translate(0.00018 0.00041)"/>
            <path class="cls-5" d="M132.62421,124.646c-2.001,6.914-7.9,11.281-13.176,9.754s-7.929-8.371-5.928-15.285,7.9-11.281,13.176-9.753c5.276,1.527,7.929,8.37,5.928,15.284" transform="translate(0.00018 0.00041)"/>
            <path d="M129.4157,124.479c-1.529,5.283-5.508,8.772-8.887,7.794s-4.878-6.053-3.348-11.336c1.529-5.282,5.507-8.772,8.886-7.794s4.878,6.054,3.349,11.336" transform="translate(0.00018 0.00041)"/>
            <path class="cls-5" d="M127.3546,117.937a1.2742,1.2742,0,1,1-.733-1.889,1.46159,1.46159,0,0,1,.733,1.889" transform="translate(0.00018 0.00041)"/>
            <path class="cls-5" d="M128.6647,119.84089a1.2742,1.2742,0,1,1-.733-1.889,1.46158,1.46158,0,0,1,.733,1.889" transform="translate(0.00018 0.00041)"/>
            <path class="cls-6" d="M55.2663,81.711c8.122-8.507,23.62-25.142,20-41-1.106-4.847-4.3-10.941-8-18a170.58558,170.58558,0,0,0-9.778-16.365c6.427,2.22,24.186,9.318,35.714,27.838,3.087,4.961,9.189,14.763,9.064,27.527-.304,31.23-37.584,49.867-42,52-25.709,12.415-54.933,10.112-56.223,4.752-1.263-5.249,25.204-9.498,51.223-36.752" transform="translate(0.00018 0.00041)"/>
            <path class="cls-7" d="M55.2663,81.711c8.122-8.507,23.62-25.142,20-41-1.106-4.847-4.3-10.941-8-18a170.58558,170.58558,0,0,0-9.778-16.365c6.427,2.22,24.186,9.318,35.714,27.838,3.087,4.961,9.189,14.763,9.064,27.527-.304,31.23-37.584,49.867-42,52-25.709,12.415-54.933,10.112-56.223,4.752C2.7803,113.214,29.2473,108.965,55.2663,81.711Z" transform="translate(0.00018 0.00041)"/>
            <path class="cls-6" d="M145.2663,31.711a81.8158,81.8158,0,0,1,30,7c4.692,2.104,34.828,16.178,44,48,11.696,40.581-19.036,81.107-27,79-9.823-2.599,15.917-69.809-20-113a82.76031,82.76031,0,0,0-27-21" transform="translate(0.00018 0.00041)"/>
            <path class="cls-7" d="M145.2663,31.711a81.8158,81.8158,0,0,1,30,7c4.692,2.104,34.828,16.178,44,48,11.696,40.581-19.036,81.107-27,79-9.823-2.599,15.917-69.809-20-113A82.76031,82.76031,0,0,0,145.2663,31.711Z" transform="translate(0.00018 0.00041)"/>
            <path class="cls-3" d="M204.90829,83.7178c11.795,20.431,6.678,45.469-11.43,55.923-18.109,10.455-42.351,2.369-54.147-18.063-11.796-20.43-6.678-45.468,11.431-55.923,18.108-10.455,42.35-2.368,54.146,18.063" transform="translate(0.00018 0.00041)"/>
            <path class="cls-4" d="M204.90829,83.7178c11.795,20.431,6.678,45.469-11.43,55.923-18.109,10.455-42.351,2.369-54.147-18.063-11.796-20.43-6.678-45.468,11.431-55.923C168.87029,55.1998,193.11229,63.2868,204.90829,83.7178Z" transform="translate(0.00018 0.00041)"/>
            <path class="cls-5" d="M164.1452,89.54739c3.336,7.681,1.29,15.972-4.571,18.517-5.861,2.546-13.317-1.617-16.653-9.298s-1.29-15.972,4.571-18.518c5.861-2.545,13.317,1.618,16.653,9.299" transform="translate(0.00018 0.00041)"/>
            <path d="M161.1456,91.77879c2.549,5.869,1.573,11.948-2.181,13.578-3.753,1.63-8.862-1.805-11.412-7.674-2.549-5.869-1.573-11.948,2.181-13.578,3.754-1.631,8.863,1.805,11.412,7.674" transform="translate(0.00018 0.00041)"/>
            <path class="cls-5" d="M154.4445,87.4453a1.48238,1.48238,0,1,1-2.058-1.149,1.69734,1.69734,0,0,1,2.058,1.149" transform="translate(0.00018 0.00041)"/>
            <path class="cls-5" d="M157.0309,88.17919a1.48238,1.48238,0,1,1-2.058-1.149,1.69734,1.69734,0,0,1,2.058,1.149" transform="translate(0.00018 0.00041)"/>
            <path class="cls-5" d="M188.37511,82.6636c2.105,4.848.814,10.081-2.885,11.688-3.699,1.606-8.405-1.021-10.511-5.869-2.105-4.848-.814-10.081,2.885-11.688s8.405,1.021,10.511,5.869" transform="translate(0.00018 0.00041)"/>
            <path d="M186.4821,84.0723c1.609,3.704.993,7.541-1.376,8.57-2.37,1.029-5.594-1.139-7.203-4.843-1.609-3.705-.993-7.542,1.376-8.571s5.594,1.14,7.203,4.844" transform="translate(0.00018 0.00041)"/>
            <path class="cls-5" d="M182.25259,81.337a.93595.93595,0,1,1-1.299-.726,1.07117,1.07117,0,0,1,1.299.726" transform="translate(0.00018 0.00041)"/>
            <path class="cls-5" d="M183.8849,81.80029a.93595.93595,0,1,1-1.299-.726,1.07117,1.07117,0,0,1,1.299.726" transform="translate(0.00018 0.00041)"/>
            <path class="cls-7" d="M121.2663,73.711a55.48386,55.48386,0,0,0,8-23c2.06-18.543-6.11-32.514-9-37" transform="translate(0.00018 0.00041)"/>
            <path class="cls-7" d="M160.2663,56.711a72.97765,72.97765,0,0,0-10-19c-10.432-14.21-23.275-20.7-30-24-25.69-12.609-50.447-9.883-62.778-8.365a130.39128,130.39128,0,0,0-24.222,5.365" transform="translate(0.00018 0.00041)"/>
          </g>
        </g>
      </g>
    </g>
  </g>
</svg>
