<svg xmlns="http://www.w3.org/2000/svg" xmlns:xlink="http://www.w3.org/1999/xlink" viewBox="0 0 171.18582 246.57114">
  <defs>
    <style>
      .cls-1, .cls-4, .cls-6 {
        fill: none;
      }

      .cls-2 {
        clip-path: url(#clip-path);
      }

      .cls-3 {
        fill: #9e005d;
      }

      .cls-4 {
        stroke: #d4145a;
      }

      .cls-4, .cls-6 {
        stroke-miterlimit: 10;
        stroke-width: 8px;
      }

      .cls-5 {
        fill: #009245;
      }

      .cls-6 {
        stroke: #006837;
      }

      .cls-7 {
        fill: #fff;
      }
    </style>
    <clipPath id="clip-path" transform="translate(0.00002 0.00006)">
      <rect class="cls-1" width="171.186" height="246.571"/>
    </clipPath>
  </defs>
  <g id="Layer_2" data-name="Layer 2">
    <g id="Layer_1-2" data-name="Layer 1">
      <g id="Onion">
        <g class="cls-2">
          <g class="cls-2">
            <path class="cls-3" d="M149.1433,216.4934c-24.022,27.326-60.26,26.258-69,26-12.602-.372-38.697-1.141-58-22-1.541-1.665-23.306-25.978-17-58,.853-4.33,4.542-21.817,19-34,9.893-8.336,14.042-5.1,29-14,22.146-13.177,22.908-26.136,34-26,11.238.138,11.754,13.458,33,27,16.424,10.468,21.991,6.252,32,16,14.118,13.751,14.836,33.633,15,38,.934,24.932-13.788,42.209-18,47" transform="translate(0.00002 0.00006)"/>
            <path class="cls-4" d="M149.1433,216.4934c-24.022,27.326-60.26,26.258-69,26-12.602-.372-38.697-1.141-58-22-1.541-1.665-23.306-25.978-17-58,.853-4.33,4.542-21.817,19-34,9.893-8.336,14.042-5.1,29-14,22.146-13.177,22.908-26.136,34-26,11.238.138,11.754,13.458,33,27,16.424,10.468,21.991,6.252,32,16,14.118,13.751,14.836,33.633,15,38C168.07729,194.4254,153.35529,211.7024,149.1433,216.4934Z" transform="translate(0.00002 0.00006)"/>
            <path class="cls-5" d="M86.2458,87.10809c-7.113.456-13.52-18.596-15-23-7.021-20.882-5.229-42.586-2-43,4.522-.58,11.183,40.697,17,40,2.836-.34,2.688-10.325,8-32,2.684-10.95,6.213-25.353,8.226-25.105,2.594.319,2.61,24.994-2.226,49.105-2.591,12.917-6.727,33.534-14,34" transform="translate(0.00002 0.00006)"/>
            <path class="cls-6" d="M86.2458,87.10809c-7.113.456-13.52-18.596-15-23-7.021-20.882-5.229-42.586-2-43,4.522-.58,11.183,40.697,17,40,2.836-.34,2.688-10.325,8-32,2.684-10.95,6.213-25.353,8.226-25.105,2.594.319,2.61,24.994-2.226,49.105C97.65479,66.0251,93.51879,86.64211,86.2458,87.10809Z" transform="translate(0.00002 0.00006)"/>
            <path class="cls-4" d="M85.1433,92.49339a145.48869,145.48869,0,0,1-8,33c-5.581,15.029-8.768,15.86-13,27-2.29,6.027-12.116,34.715,1,63a69.45356,69.45356,0,0,0,20,25" transform="translate(0.00002 0.00006)"/>
            <path class="cls-4" d="M87.196,91.198c2.781,7.38,6.689,18.136,10.947,31.295,6.554,20.259,9.83,30.388,11,41,1.022,9.274,2.657,25.739-4,45a92.19628,92.19628,0,0,1-17.947,30.705" transform="translate(0.00002 0.00006)"/>
            <path class="cls-4" d="M85.4909,92.198a99.53957,99.53957,0,0,1-19.348,28.295c-13.347,13.59-20.421,12.594-28,22-13.386,16.613-13.358,47.077,1,69,15.679,23.94,42.053,28.1,46.348,28.705" transform="translate(0.00002 0.00006)"/>
            <path class="cls-4" d="M87.8591,91.41229a99.53917,99.53917,0,0,0,19.348,28.295c13.347,13.591,20.421,12.594,28,22,13.386,16.614,13.358,47.078-1,69-15.679,23.94-42.053,28.1-46.348,28.705" transform="translate(0.00002 0.00006)"/>
            <path class="cls-7" d="M78.1433,152.4934c-.241.599-6.268,14.884-20,16-10.932.888-23.333-6.846-24-17-.456-6.939,4.604-14.47,11-17,8.452-3.343,15.582,3.491,22-1,4.657-3.259,3.917-8.969,6-9,3.384-.05,10.257,14.951,5,28" transform="translate(0.00002 0.00006)"/>
            <path d="M68.1433,151.4026c0,6.678-6.268,12.091-14,12.091s-14-5.413-14-12.091,6.268-12.091,14-12.091,14,5.413,14,12.091" transform="translate(0.00002 0.00006)"/>
            <path class="cls-7" d="M42.1433,146.4934a6,6,0,1,1,6,6,6.00091,6.00091,0,0,1-6-6" transform="translate(0.00002 0.00006)"/>
            <path class="cls-7" d="M89.8552,152.655c.241.599,6.268,14.884,20,16,10.931.888,23.333-6.846,24-17,.455-6.939-4.604-14.47-11-17-8.452-3.343-15.583,3.491-22-1-4.657-3.259-3.918-8.969-6-9-3.385-.05-10.258,14.951-5,28" transform="translate(0.00002 0.00006)"/>
            <path d="M99.8552,151.5642c0,6.678,6.268,12.091,14,12.091,7.731,0,14-5.413,14-12.091s-6.269-12.091-14-12.091c-7.732,0-14,5.413-14,12.091" transform="translate(0.00002 0.00006)"/>
            <path class="cls-7" d="M113.1433,147.4934a6,6,0,1,0-6,6,6.00091,6.00091,0,0,0,6-6" transform="translate(0.00002 0.00006)"/>
          </g>
        </g>
      </g>
    </g>
  </g>
</svg>
