<svg xmlns="http://www.w3.org/2000/svg" xmlns:xlink="http://www.w3.org/1999/xlink" viewBox="0 0 173.53608 267.24332">
  <defs>
    <style>
      .cls-1, .cls-4, .cls-9 {
        fill: none;
      }

      .cls-2 {
        clip-path: url(#clip-path);
      }

      .cls-3 {
        fill: #eca442;
      }

      .cls-4 {
        stroke: #a67c52;
        stroke-width: 7.94777px;
      }

      .cls-4, .cls-9 {
        stroke-miterlimit: 10;
      }

      .cls-5 {
        fill: #006837;
      }

      .cls-6 {
        fill: #009245;
      }

      .cls-7 {
        fill: #22b573;
      }

      .cls-8 {
        fill: #fff;
      }

      .cls-9 {
        stroke: #000;
        stroke-width: 2.98042px;
      }
    </style>
    <clipPath id="clip-path" transform="translate(0.0002 -0.00021)">
      <rect class="cls-1" width="173.53569" height="267.24393"/>
    </clipPath>
  </defs>
  <g id="Layer_2" data-name="Layer 2">
    <g id="Layer_1-2" data-name="Layer 1">
      <g id="Pineapple">
        <g class="cls-2">
          <g class="cls-2">
            <path class="cls-3" d="M138.1962,177.02755l21.46793-27.47347c-2.588-17.69572-8.96708-33.68068-18.02258-46.51832l-30.6327,39.20041Z" transform="translate(0.0002 -0.00021)"/>
            <path class="cls-4" d="M138.1962,177.02755l21.46793-27.47347c-2.588-17.69572-8.96708-33.68068-18.02258-46.51832l-30.6327,39.20041Z" transform="translate(0.0002 -0.00021)"/>
            <path class="cls-3" d="M111.00916,142.23616l30.63171-39.20041A78.5439,78.5439,0,0,0,114.844,78.73146L88.11558,112.93769Z" transform="translate(0.0002 -0.00021)"/>
            <path class="cls-4" d="M111.00916,142.23616l30.63171-39.20041A78.5439,78.5439,0,0,0,114.844,78.73146L88.11558,112.93769Z" transform="translate(0.0002 -0.00021)"/>
            <polygon class="cls-3" points="87.167 172.748 114.353 207.539 138.196 177.028 111.01 142.236 87.167 172.748"/>
            <polygon class="cls-4" points="87.167 172.748 114.353 207.539 138.196 177.028 111.01 142.236 87.167 172.748"/>
            <polygon class="cls-3" points="58.831 209.01 86.018 243.801 114.353 207.539 87.167 172.748 58.831 209.01"/>
            <polygon class="cls-4" points="58.831 209.01 86.018 243.801 114.353 207.539 87.167 172.748 58.831 209.01"/>
            <path class="cls-3" d="M156.39692,200.3188a120.043,120.043,0,0,0,4.55407-33.00711,122.73865,122.73865,0,0,0-1.28656-17.75731l-21.46792,27.47347Z" transform="translate(0.0002 -0.00021)"/>
            <path class="cls-4" d="M156.39692,200.3188a120.043,120.043,0,0,0,4.55407-33.00711,122.73865,122.73865,0,0,0-1.28656-17.75731l-21.46792,27.47347Z" transform="translate(0.0002 -0.00021)"/>
            <polygon class="cls-3" points="111.009 142.236 88.116 112.937 64.272 143.45 87.166 172.747 111.009 142.236"/>
            <polygon class="cls-4" points="111.009 142.236 88.116 112.937 64.272 143.45 87.166 172.747 111.009 142.236"/>
            <path class="cls-3" d="M114.84425,78.73155a60.10263,60.10263,0,0,0-54.67075-1.5508l27.94139,35.757Z" transform="translate(0.0002 -0.00021)"/>
            <path class="cls-4" d="M114.84425,78.73155a60.10263,60.10263,0,0,0-54.67075-1.5508l27.94139,35.757Z" transform="translate(0.0002 -0.00021)"/>
            <polygon class="cls-3" points="64.272 143.45 35.937 179.711 58.831 209.01 87.167 172.748 64.272 143.45"/>
            <polygon class="cls-4" points="64.272 143.45 35.937 179.711 58.831 209.01 87.167 172.748 64.272 143.45"/>
            <path class="cls-3" d="M58.83052,209.00979,35.74025,238.55863c10.03208,11.58885,22.523,19.7532,36.35014,23.06444l13.92748-17.82189Z" transform="translate(0.0002 -0.00021)"/>
            <path class="cls-4" d="M58.83052,209.00979,35.74025,238.55863c10.03208,11.58885,22.523,19.7532,36.35014,23.06444l13.92748-17.82189Z" transform="translate(0.0002 -0.00021)"/>
            <path class="cls-3" d="M86.01758,243.80117l13.9096,17.801c14.37354-3.46324,27.29761-12.172,37.51249-24.51789l-23.08729-29.54486Z" transform="translate(0.0002 -0.00021)"/>
            <path class="cls-4" d="M86.01758,243.80117l13.9096,17.801c14.37354-3.46324,27.29761-12.172,37.51249-24.51789l-23.08729-29.54486Z" transform="translate(0.0002 -0.00021)"/>
            <path class="cls-3" d="M88.11509,112.93748,60.1737,77.18045C49.15411,82.3465,39.34754,90.73141,31.44448,101.44l32.82729,42.01Z" transform="translate(0.0002 -0.00021)"/>
            <path class="cls-4" d="M88.11509,112.93748,60.1737,77.18045C49.15411,82.3465,39.34754,90.73141,31.44448,101.44l32.82729,42.01Z" transform="translate(0.0002 -0.00021)"/>
            <path class="cls-3" d="M138.1962,177.02755l-23.84332,30.51151,23.08729,29.54486A101.429,101.429,0,0,0,156.3966,200.3185Z" transform="translate(0.0002 -0.00021)"/>
            <path class="cls-4" d="M138.1962,177.02755l-23.84332,30.51151,23.08729,29.54486A101.429,101.429,0,0,0,156.3966,200.3185Z" transform="translate(0.0002 -0.00021)"/>
            <path class="cls-3" d="M72.09059,261.62346a59.29909,59.29909,0,0,0,27.83708-.02086l-13.9096-17.801Z" transform="translate(0.0002 -0.00021)"/>
            <path class="cls-4" d="M72.09059,261.62346a59.29909,59.29909,0,0,0,27.83708-.02086l-13.9096-17.801Z" transform="translate(0.0002 -0.00021)"/>
            <path class="cls-3" d="M64.27177,143.44979,31.44448,101.43985c-9.64661,13.07209-16.45289,29.61241-19.15911,48.00555L35.937,179.71151Z" transform="translate(0.0002 -0.00021)"/>
            <path class="cls-4" d="M64.27177,143.44979,31.44448,101.43985c-9.64661,13.07209-16.45289,29.61241-19.15911,48.00555L35.937,179.71151Z" transform="translate(0.0002 -0.00021)"/>
            <path class="cls-3" d="M12.28527,149.44509a122.78575,122.78575,0,0,0-1.30244,17.8666,119.22194,119.22194,0,0,0,5.76611,36.95517l19.18791-24.55564Z" transform="translate(0.0002 -0.00021)"/>
            <path class="cls-4" d="M12.28527,149.44509a122.78575,122.78575,0,0,0-1.30244,17.8666,119.22194,119.22194,0,0,0,5.76611,36.95517l19.18791-24.55564Z" transform="translate(0.0002 -0.00021)"/>
            <path class="cls-3" d="M35.93656,179.71151,16.74864,204.26616a99.54875,99.54875,0,0,0,18.9922,34.29267L58.83012,209.01Z" transform="translate(0.0002 -0.00021)"/>
            <path class="cls-4" d="M35.93656,179.71151,16.74864,204.26616a99.54875,99.54875,0,0,0,18.9922,34.29267L58.83012,209.01Z" transform="translate(0.0002 -0.00021)"/>
            <polygon class="cls-5" points="33.245 99.668 140.567 99.668 173.536 41.176 33.245 99.668"/>
            <polyline class="cls-6" points="0 41.176 140.291 99.668 32.969 99.668"/>
            <polyline class="cls-7" points="86.768 77.353 50.756 62.337 86.768 0 117.326 64.611"/>
            <path class="cls-8" d="M41.63541,114.5179a27.26558,27.26558,0,1,0,38.648,26.99164Z" transform="translate(0.0002 -0.00021)"/>
            <path class="cls-9" d="M41.63541,114.5179a27.26558,27.26558,0,1,0,38.648,26.99164Z" transform="translate(0.0002 -0.00021)"/>
            <path d="M73.56719,148.07907c0,8.7346-4.54018,15.81508-10.14137,15.81508-5.6002,0-10.14036-7.08048-10.14036-15.81508S57.82562,132.264,63.42582,132.264c5.60119,0,10.14137,7.08047,10.14137,15.81508" transform="translate(0.0002 -0.00021)"/>
            <path class="cls-8" d="M133.71347,114.5179a27.2654,27.2654,0,1,1-38.64705,26.99164Z" transform="translate(0.0002 -0.00021)"/>
            <path class="cls-9" d="M133.71347,114.5179a27.2654,27.2654,0,1,1-38.64705,26.99164Z" transform="translate(0.0002 -0.00021)"/>
            <path d="M126.95169,143.88443c0,8.73461,4.54017,15.81509,10.14036,15.81509s10.14037-7.08048,10.14037-15.81509-4.54017-15.81507-10.14037-15.81507-10.14036,7.08047-10.14036,15.81507" transform="translate(0.0002 -0.00021)"/>
          </g>
        </g>
      </g>
    </g>
  </g>
</svg>
