<svg xmlns="http://www.w3.org/2000/svg" xmlns:xlink="http://www.w3.org/1999/xlink" viewBox="0 0 266 292.34674">
  <defs>
    <style>
      .cls-1, .cls-4, .cls-6 {
        fill: none;
      }

      .cls-2 {
        clip-path: url(#clip-path);
      }

      .cls-3 {
        fill: #ff1f1f;
      }

      .cls-4 {
        stroke: #7f2700;
      }

      .cls-4, .cls-6 {
        stroke-miterlimit: 10;
        stroke-width: 8px;
      }

      .cls-5 {
        fill: #009245;
      }

      .cls-6 {
        stroke: #006837;
      }

      .cls-7 {
        fill: #fff;
      }
    </style>
    <clipPath id="clip-path" transform="translate(0 -0.00024)">
      <rect class="cls-1" width="266" height="292.34698"/>
    </clipPath>
  </defs>
  <g id="Layer_2" data-name="Layer 2">
    <g id="Layer_1-2" data-name="Layer 1">
      <g id="Tomato">
        <g class="cls-2">
          <g class="cls-2">
            <path class="cls-3" d="M262,173.347c0,63.513-57.755,115-129,115S4,236.86,4,173.347s57.755-115,129-115,129,51.487,129,115" transform="translate(0 -0.00024)"/>
            <ellipse class="cls-4" cx="133" cy="173.34674" rx="129" ry="115"/>
            <path class="cls-5" d="M133,95.347c-5.115,1.044-8.253-15.999-19-18-9.307-1.733-16.64,9.245-22,6-4.136-2.503-.989-9.778-5-13-7.535-6.053-29.254,11.084-30,10-.705-1.025,15.14-21.525,40.355-25.5,12.334-1.944,19.821,1.181,24.258-4.25,5.66-6.928-3.211-16.02,1.548-28.591,4.768-12.593,20.572-20.603,25.807-17.234,2.963,1.907,3.018,7.762,2.032,11.575-2.117,8.187-9.434,8.509-12,16-2.159,6.302.026,14.809,5,19,6.369,5.366,13.035.055,25,3,15.625,3.846,25.329,18.089,24,20-1.653,2.377-22.125-11.838-28-6-2.776,2.758-.002,7.719-3,10-4.404,3.351-12.497-5.753-19-3-7.54,3.192-5.088,18.998-10,20" transform="translate(0 -0.00024)"/>
            <path class="cls-6" d="M133,95.347c-5.115,1.044-8.253-15.999-19-18-9.307-1.733-16.64,9.245-22,6-4.136-2.503-.989-9.778-5-13-7.535-6.053-29.254,11.084-30,10-.705-1.025,15.14-21.525,40.355-25.5,12.334-1.944,19.821,1.181,24.258-4.25,5.66-6.928-3.211-16.02,1.548-28.591,4.768-12.593,20.572-20.603,25.807-17.234,2.963,1.907,3.018,7.762,2.032,11.575-2.117,8.187-9.434,8.509-12,16-2.159,6.302.026,14.809,5,19,6.369,5.366,13.035.055,25,3,15.625,3.846,25.329,18.089,24,20-1.653,2.377-22.125-11.838-28-6-2.776,2.758-.002,7.719-3,10-4.404,3.351-12.497-5.753-19-3C135.46,78.539,137.912,94.345,133,95.347Z" transform="translate(0 -0.00024)"/>
            <path class="cls-7" d="M131,150.847a44.5,44.5,0,1,1-44.5-44.5,44.49957,44.49957,0,0,1,44.5,44.5" transform="translate(0 -0.00024)"/>
            <path d="M117,153.347c0,18.778-12.76,34-28.5,34s-28.5-15.222-28.5-34,12.76-34,28.5-34,28.5,15.222,28.5,34" transform="translate(0 -0.00024)"/>
            <path class="cls-7" d="M100,133.847a5.5,5.5,0,1,1-5.5-5.5,5.49944,5.49944,0,0,1,5.5,5.5" transform="translate(0 -0.00024)"/>
            <path class="cls-7" d="M108,138.847a5.5,5.5,0,1,1-5.5-5.5,5.49944,5.49944,0,0,1,5.5,5.5" transform="translate(0 -0.00024)"/>
            <path class="cls-7" d="M229,150.847a44.5,44.5,0,1,1-44.5-44.5,44.49957,44.49957,0,0,1,44.5,44.5" transform="translate(0 -0.00024)"/>
            <path d="M215,153.347c0,18.778-12.76,34-28.5,34s-28.5-15.222-28.5-34,12.76-34,28.5-34,28.5,15.222,28.5,34" transform="translate(0 -0.00024)"/>
            <path class="cls-7" d="M198,133.847a5.5,5.5,0,1,1-5.5-5.5,5.49944,5.49944,0,0,1,5.5,5.5" transform="translate(0 -0.00024)"/>
            <path class="cls-7" d="M206,138.847a5.5,5.5,0,1,1-5.5-5.5,5.49944,5.49944,0,0,1,5.5,5.5" transform="translate(0 -0.00024)"/>
          </g>
        </g>
      </g>
    </g>
  </g>
</svg>
