<svg id="Layer_1" data-name="Layer 1" xmlns="http://www.w3.org/2000/svg" viewBox="0 0 1920.00001 1080.12903">
  <defs>
    <style>
      .cls-1 {
        fill: #ffecce;
      }

      .cls-15, .cls-2 {
        fill: #c69c6d;
      }

      .cls-3 {
        fill: #7f2700;
      }

      .cls-4 {
        opacity: 0.51;
      }

      .cls-5 {
        fill: #ffc28a;
      }

      .cls-6, .cls-7 {
        fill: #af3500;
      }

      .cls-7 {
        stroke: #af3500;
        stroke-linejoin: round;
        stroke-width: 4px;
      }

      .cls-8 {
        fill: #a67c52;
      }

      .cls-9 {
        fill: #ff1f1f;
      }

      .cls-10 {
        opacity: 0.35;
      }

      .cls-11 {
        fill: #333;
      }

      .cls-12, .cls-17 {
        fill: #eca442;
      }

      .cls-13 {
        fill: #999;
      }

      .cls-14 {
        fill: #b3b3b3;
      }

      .cls-15 {
        stroke: #c69c6d;
        stroke-width: 7px;
      }

      .cls-15, .cls-17 {
        stroke-miterlimit: 10;
      }

      .cls-16 {
        opacity: 0.65;
      }

      .cls-17 {
        stroke: #a67c52;
        stroke-width: 10px;
      }

      .cls-18 {
        fill: none;
      }

      .cls-19 {
        fill: #fff;
      }

      .cls-20 {
        fill: #ffae71;
      }
    </style>
  </defs>
  <rect class="cls-1" x="0.00001" width="1920" height="1080"/>
  <g>
    <rect class="cls-2" x="0.00001" width="1920" height="23.94459"/>
    <rect class="cls-2" x="0.00001" y="163.79296" width="1920" height="23.94459"/>
    <g>
      <polygon class="cls-2" points="334.205 1.536 52.451 165.237 57.582 187.738 339.336 24.036 334.205 1.536"/>
      <polygon class="cls-2" points="57.582 0.97 339.383 164.698 334.252 187.199 52.451 23.47 57.582 0.97"/>
      <rect class="cls-2" x="263.6916" y="86.58439" width="146.68239" height="15" transform="translate(242.94841 431.11718) rotate(-90)"/>
      <rect class="cls-2" x="-20.88996" y="86.58439" width="146.68239" height="15" transform="translate(-41.63314 146.53563) rotate(-90)"/>
    </g>
    <polygon class="cls-2" points="618.787 1.819 337.033 165.52 342.163 188.02 623.917 24.319 618.787 1.819"/>
    <polygon class="cls-2" points="342.163 1.253 623.964 164.981 618.834 187.482 337.033 23.753 342.163 1.253"/>
    <rect class="cls-2" x="548.27315" y="86.86732" width="146.68239" height="15" transform="translate(527.24704 715.98166) rotate(-90)"/>
    <rect class="cls-2" x="263.6916" y="86.86732" width="146.68239" height="15" transform="translate(242.66548 431.40011) rotate(-90)"/>
    <polygon class="cls-2" points="903.368 1.266 621.614 164.968 626.745 187.468 908.499 23.767 903.368 1.266"/>
    <polygon class="cls-2" points="626.745 0.7 908.546 164.429 903.416 186.93 621.614 23.201 626.745 0.7"/>
    <rect class="cls-2" x="832.85471" y="86.31514" width="146.68239" height="15" transform="translate(812.38077 1000.01104) rotate(-90)"/>
    <rect class="cls-2" x="548.27315" y="86.31514" width="146.68239" height="15" transform="translate(527.79922 715.42948) rotate(-90)"/>
    <polygon class="cls-2" points="1187.95 0.997 906.196 164.698 911.326 187.199 1193.08 23.498 1187.95 0.997"/>
    <polygon class="cls-2" points="911.326 0.431 1193.127 164.16 1187.997 186.661 906.196 22.932 911.326 0.431"/>
    <rect class="cls-2" x="1117.43626" y="86.04588" width="146.68239" height="15" transform="translate(1097.23158 1284.32334) rotate(-90)"/>
    <rect class="cls-2" x="832.85471" y="86.04588" width="146.68239" height="15" transform="translate(812.65003 999.74179) rotate(-90)"/>
    <polygon class="cls-2" points="1472.532 0.728 1190.777 164.429 1195.908 186.93 1477.662 23.228 1472.532 0.728"/>
    <polygon class="cls-2" points="1195.908 0.162 1477.709 163.891 1472.579 186.391 1190.777 22.663 1195.908 0.162"/>
    <rect class="cls-2" x="1402.01782" y="85.77663" width="146.68239" height="15" transform="translate(1382.08239 1568.63564) rotate(-90)"/>
    <rect class="cls-2" x="1117.43626" y="85.77663" width="146.68239" height="15" transform="translate(1097.50083 1284.05409) rotate(-90)"/>
    <polygon class="cls-2" points="1757.113 1.549 1475.359 165.251 1480.489 187.751 1762.243 24.05 1757.113 1.549"/>
    <polygon class="cls-2" points="1480.489 0.983 1762.29 164.712 1757.16 187.213 1475.359 23.484 1480.489 0.983"/>
    <rect class="cls-2" x="1686.59937" y="86.59806" width="146.68239" height="15" transform="translate(1665.84251 1854.03863) rotate(-90)"/>
    <rect class="cls-2" x="1402.01782" y="86.59806" width="146.68239" height="15" transform="translate(1381.26096 1569.45708) rotate(-90)"/>
    <polygon class="cls-2" points="1920 71.69 1920 97.183 1903.87 106.553 1805.35 163.797 1765.07 187.199 1761.12 169.847 1760.57 167.437 1760.44 166.894 1759.94 164.691 1761.1 164.02 1761.48 163.797 1767.44 160.333 1881.93 93.815 1903.86 81.076 1920 71.69"/>
    <polygon class="cls-2" points="1920 90.447 1920 115.924 1903.87 106.553 1881.93 93.815 1767.44 27.297 1763.35 24.918 1762.05 24.168 1759.94 22.939 1760.44 20.752 1760.56 20.209 1760.96 18.453 1764.95 0.974 1765.07 0.431 1766 0.974 1807.21 24.918 1903.86 81.076 1920 90.447"/>
    <rect class="cls-2" x="1686.59937" y="86.04588" width="146.68239" height="15" transform="translate(1666.39469 1853.48645) rotate(-90)"/>
    <polygon class="cls-2" points="54.75 24.599 54.58 24.695 54.57 24.695 54.2 24.918 44.95 30.298 0 56.413 0 30.936 10.36 24.918 49.62 2.107 53.47 18.996 53.87 20.736 54 21.311 54.75 24.599"/>
    <polygon class="cls-2" points="54.8 165.266 54.31 167.421 54.18 167.995 53.63 170.406 49.67 187.742 49.67 187.758 49.64 187.742 8.43 163.797 0 158.896 0 133.419 44.95 159.535 52.27 163.797 53.6 164.563 54.8 165.266"/>
    <rect class="cls-2" x="-20.88996" y="87.15024" width="146.68239" height="15" transform="translate(-42.199 147.10148) rotate(-90)"/>
  </g>
  <g>
    <g>
      <g>
        <rect class="cls-3" x="1529.6836" y="704.30664" width="360.26758" height="340.6123" rx="2.5"/>
        <path class="cls-3" d="M1887.45166,706.80646v335.61285H1532.18359V706.80646h355.26807m0-5H1532.18359a5,5,0,0,0-5,5v335.61285a4.99993,4.99993,0,0,0,5,5h355.26807a4.99993,4.99993,0,0,0,5-5V706.80646a5,5,0,0,0-5-5Z" transform="translate(0.00001)"/>
      </g>
      <g>
        <rect class="cls-3" x="1643.40333" y="614.88672" width="162.93555" height="94.41992" rx="2.5"/>
        <path class="cls-3" d="M1803.83875,617.38708v89.41938H1645.9032V617.38708h157.93555m0-5H1645.9032a5,5,0,0,0-5,5v89.41938a5,5,0,0,0,5,5h157.93555a5,5,0,0,0,5-5V617.38708a5,5,0,0,0-5-5Z" transform="translate(0.00001)"/>
      </g>
      <rect class="cls-3" x="1688.29033" width="73.16129" height="617.3871"/>
      <g>
        <rect class="cls-3" x="1529.6836" y="801.55176" width="360.26758" height="276.07715"/>
        <path class="cls-3" d="M1887.45166,804.05194V1075.129H1532.18359V804.05194h355.26807m5-5H1527.18359V1080.129h365.26807V799.05194Z" transform="translate(0.00001)"/>
      </g>
    </g>
    <g>
      <g class="cls-4">
        <path d="M1563.07031,928.82031a2.49981,2.49981,0,0,1-2.5-2.5v-153.29a2.49981,2.49981,0,0,1,2.5-2.5h259.5293a2.49981,2.49981,0,0,1,2.5,2.5v65.13965a2.49981,2.49981,0,0,1-2.5,2.5h-10.44922v18.00977h10.44922a2.49981,2.49981,0,0,1,2.5,2.5v65.14062a2.49981,2.49981,0,0,1-2.5,2.5Z" transform="translate(0.00001)"/>
        <path d="M1822.6,773.03v65.14h-12.95v23.01h12.95v65.14H1563.07007V773.03H1822.6m0-5H1563.07007a5,5,0,0,0-5,5V926.32a5,5,0,0,0,5,5H1822.6a5.00006,5.00006,0,0,0,5-5V861.18a5.00006,5.00006,0,0,0-5-5h-7.95V843.17h7.95a5,5,0,0,0,5-5V773.03a5,5,0,0,0-5-5Z" transform="translate(0.00001)"/>
      </g>
      <g>
        <rect class="cls-5" x="1545.38673" y="917.54492" width="285.80664" height="17.54883" rx="2"/>
        <path class="cls-5" d="M1829.1936,919.54523v13.5484H1547.38708v-13.5484H1829.1936m0-4H1547.38708a4,4,0,0,0-4,4v13.5484a4,4,0,0,0,4,4H1829.1936a4,4,0,0,0,4-4v-13.5484a4,4,0,0,0-4-4Z" transform="translate(0.00001)"/>
      </g>
      <g>
        <rect class="cls-6" x="1526.58009" y="717.19043" width="42.73047" height="27.01953" rx="2"/>
        <path class="cls-6" d="M1567.31006,719.19v23.02h-38.73V719.19h38.73m0-4h-38.73a4,4,0,0,0-4,4v23.02a4,4,0,0,0,4,4h38.73a4,4,0,0,0,4-4V719.19a4,4,0,0,0-4-4Z" transform="translate(0.00001)"/>
      </g>
      <polyline class="cls-7" points="1891.33 824.07 1847.32 824.07 1847.32 801.06 1891.33 801.06"/>
      <g>
        <rect class="cls-6" x="1809.37757" y="832.55702" width="59.14063" height="27.00977" rx="2"/>
        <path class="cls-6" d="M1866.51794,834.55708v23.01h-55.14v-23.01h55.14m0-4h-55.14a4,4,0,0,0-4,4v23.01a4,4,0,0,0,4,4h55.14a4,4,0,0,0,4-4v-23.01a4,4,0,0,0-4-4Z" transform="translate(0.00001)"/>
      </g>
      <g>
        <rect class="cls-6" x="1579.53419" y="958.35059" width="72.08789" height="27.01563" rx="2"/>
        <path class="cls-6" d="M1649.62207,960.3501v23.0166h-68.08813V960.3501h68.08813m0-4h-68.08813a4,4,0,0,0-4,4v23.0166a4,4,0,0,0,4,4h68.08813a4,4,0,0,0,4-4V960.3501a4,4,0,0,0-4-4Z" transform="translate(0.00001)"/>
      </g>
      <g>
        <rect class="cls-6" x="1662.88673" y="958.35059" width="72.08789" height="27.01563" rx="2"/>
        <path class="cls-6" d="M1732.975,960.3501v23.0166h-68.08814V960.3501H1732.975m0-4h-68.08814a4,4,0,0,0-4,4v23.0166a4,4,0,0,0,4,4H1732.975a4,4,0,0,0,4-4V960.3501a4,4,0,0,0-4-4Z" transform="translate(0.00001)"/>
      </g>
      <g>
        <rect class="cls-6" x="1604.84669" y="995.51855" width="72.08789" height="27.0166" rx="2"/>
        <path class="cls-6" d="M1674.93457,997.51825v23.0166h-68.08813v-23.0166h68.08813m0-4h-68.08813a4,4,0,0,0-4,4v23.0166a4,4,0,0,0,4,4.00006h68.08813a4,4,0,0,0,4-4.00006v-23.0166a4,4,0,0,0-4-4Z" transform="translate(0.00001)"/>
      </g>
      <g>
        <rect class="cls-6" x="1753.54786" y="1033.57129" width="72.08789" height="27.0166" rx="2"/>
        <path class="cls-6" d="M1823.63574,1035.57141v23.01648h-68.08813v-23.01648h68.08813m0-4h-68.08813a4,4,0,0,0-4,4v23.01648a4,4,0,0,0,4,4h68.08813a4,4,0,0,0,4-4v-23.01648a4,4,0,0,0-4-4Z" transform="translate(0.00001)"/>
      </g>
      <g>
        <rect class="cls-6" x="1796.4297" y="995.51855" width="72.08789" height="27.0166" rx="2"/>
        <path class="cls-6" d="M1866.51794,997.51825v23.0166h-68.08813v-23.0166h68.08813m0-4h-68.08813a4,4,0,0,0-4,4v23.0166a4,4,0,0,0,4,4.00006h68.08813a4,4,0,0,0,4-4.00006v-23.0166a4,4,0,0,0-4-4Z" transform="translate(0.00001)"/>
      </g>
      <g>
        <rect class="cls-6" x="1638.88966" y="669.84961" width="53.25" height="27.02051" rx="2"/>
        <path class="cls-6" d="M1690.14,671.85v23.02h-49.25V671.85h49.25m0-4h-49.25a4,4,0,0,0-4,4v23.02a4,4,0,0,0,4,4h49.25a4,4,0,0,0,4-4V671.85a4,4,0,0,0-4-4Z" transform="translate(0.00001)"/>
      </g>
      <g>
        <rect class="cls-6" x="1711.7422" y="631.80176" width="72.08789" height="27.0166" rx="2"/>
        <path class="cls-6" d="M1781.83044,633.80145V656.818h-68.08813V633.80145h68.08813m0-4h-68.08813a4,4,0,0,0-4,4V656.818a4,4,0,0,0,4,4h68.08813a4,4,0,0,0,4-4V633.80145a4,4,0,0,0-4-4Z" transform="translate(0.00001)"/>
      </g>
      <g>
        <rect class="cls-6" x="1686.29005" y="538" width="45.00977" height="27.01953" rx="2"/>
        <path class="cls-6" d="M1729.30005,540v23.02h-41.01V540h41.01m0-4h-41.01a4,4,0,0,0-4,4v23.02a4,4,0,0,0,4,4h41.01a4,4,0,0,0,4-4V540a4,4,0,0,0-4-4Z" transform="translate(0.00001)"/>
      </g>
      <g>
        <rect class="cls-6" x="1712.11036" y="501.70996" width="51.33984" height="27.02002" rx="2"/>
        <path class="cls-6" d="M1761.45,503.71v23.02h-47.34V503.71h47.34m0-4h-47.34a4,4,0,0,0-4,4v23.02a4,4,0,0,0,4,4h47.34a4,4,0,0,0,4-4V503.71a4,4,0,0,0-4-4Z" transform="translate(0.00001)"/>
      </g>
      <g>
        <rect class="cls-6" x="1686.29005" y="422.9502" width="56.72949" height="27.01953" rx="2"/>
        <path class="cls-6" d="M1741.02,424.95v23.02h-52.73V424.95h52.73m0-4h-52.73a4,4,0,0,0-4,4v23.02a4,4,0,0,0,4,4h52.73a4,4,0,0,0,4-4V424.95a4,4,0,0,0-4-4Z" transform="translate(0.00001)"/>
      </g>
      <g>
        <rect class="cls-6" x="1750.2002" y="331.7998" width="13.25" height="27.02002" rx="2"/>
        <path class="cls-6" d="M1761.45,333.8v23.02h-9.25V333.8h9.25m0-4h-9.25a4,4,0,0,0-4,4v23.02a4,4,0,0,0,4,4h9.25a4,4,0,0,0,4-4V333.8a4,4,0,0,0-4-4Z" transform="translate(0.00001)"/>
      </g>
      <g>
        <rect class="cls-6" x="1686.29005" y="331.7998" width="53.22949" height="27.02002" rx="2"/>
        <path class="cls-6" d="M1737.52,333.8v23.02h-49.23V333.8h49.23m0-4h-49.23a4,4,0,0,0-4,4v23.02a4,4,0,0,0,4,4h49.23a4,4,0,0,0,4-4V333.8a4,4,0,0,0-4-4Z" transform="translate(0.00001)"/>
      </g>
      <g>
        <rect class="cls-6" x="1716.91993" y="252.16016" width="46.53027" height="27.00977" rx="2"/>
        <path class="cls-6" d="M1761.45,254.16v23.01h-42.53V254.16h42.53m0-4h-42.53a4,4,0,0,0-4,4v23.01a4,4,0,0,0,4,4h42.53a4,4,0,0,0,4-4V254.16a4,4,0,0,0-4-4Z" transform="translate(0.00001)"/>
      </g>
      <g>
        <rect class="cls-6" x="1686.29005" y="186.02002" width="19.79004" height="27.02002" rx="2"/>
        <path class="cls-6" d="M1704.08008,188.02v23.02h-15.79V188.02h15.79m0-4h-15.79a4,4,0,0,0-4,4v23.02a4,4,0,0,0,4,4h15.79a4,4,0,0,0,4-4V188.02a4,4,0,0,0-4-4Z" transform="translate(0.00001)"/>
      </g>
      <g>
        <rect class="cls-6" x="1706.31056" y="102.27002" width="57.13965" height="27.02002" rx="2"/>
        <path class="cls-6" d="M1761.45,104.27v23.02h-53.13989V104.27H1761.45m0-4h-53.13989a4,4,0,0,0-4,4v23.02a4,4,0,0,0,4,4H1761.45a4,4,0,0,0,4-4V104.27a4,4,0,0,0-4-4Z" transform="translate(0.00001)"/>
      </g>
      <g>
        <rect class="cls-6" x="1686.29005" y="22.8501" width="48.67969" height="27.02002" rx="2"/>
        <path class="cls-6" d="M1732.97,24.85V47.87H1688.29V24.85H1732.97m0-4H1688.29a4,4,0,0,0-4,4V47.87a4,4,0,0,0,4,4H1732.97a4,4,0,0,0,4-4V24.85a4,4,0,0,0-4-4Z" transform="translate(0.00001)"/>
      </g>
    </g>
  </g>
  <g>
    <g>
      <rect class="cls-8" x="2.50001" y="721.69043" width="434.41992" height="355.80957"/>
      <path class="cls-8" d="M434.42,724.18994V1075H5V724.18994H434.42m5-5H0V1080H439.42V719.18994Z" transform="translate(0.00001)"/>
    </g>
    <g>
      <g>
        <rect class="cls-9" x="41.94939" y="630.90832" width="33.12939" height="77.77441" rx="2.5"/>
        <path class="cls-9" d="M72.579,633.40838v72.77423H44.44929V633.40838H72.579m0-5H44.44929a5,5,0,0,0-5,5v72.77423a5,5,0,0,0,5,5H72.579a5,5,0,0,0,5-5V633.40838a5,5,0,0,0-5-5Z" transform="translate(0.00001)"/>
      </g>
      <g>
        <rect class="cls-9" x="47.91716" y="620.84387" width="21.19385" height="15.06445" rx="2.5"/>
        <path class="cls-9" d="M66.61105,623.34387v10.06451H50.4172V623.34387H66.61105m0-5H50.4172a5,5,0,0,0-5,5v10.06451a5,5,0,0,0,5,5H66.61105a5,5,0,0,0,5-5V623.34387a5,5,0,0,0-5-5Z" transform="translate(0.00001)"/>
      </g>
      <g>
        <path class="cls-9" d="M55.52165,620.22375a2.49987,2.49987,0,0,1-2.147-3.78027l2.99267-5.01758a2.49905,2.49905,0,0,1,2.147-1.21973h0a2.49788,2.49788,0,0,1,2.147,1.21973l2.99218,5.01758a2.49987,2.49987,0,0,1-2.147,3.78027Z" transform="translate(0.00001)"/>
        <path class="cls-9" d="M58.51413,612.70605l1.49625,2.50879,1.49625,2.50885h-5.985l1.49625-2.50885,1.49626-2.50879m0-5a4.99993,4.99993,0,0,0-4.29427,2.43891l-1.49625,2.50879-1.49628,2.50891a5,5,0,0,0,4.29429,7.561h5.985a5,5,0,0,0,4.2943-7.561l-1.49626-2.50891L62.80839,610.145a4.99991,4.99991,0,0,0-4.29426-2.43891Z" transform="translate(0.00001)"/>
      </g>
      <g class="cls-10">
        <rect class="cls-11" x="41.08562" y="664.15051" width="34.90332" height="20.58008" rx="1"/>
        <path class="cls-9" d="M74.98878,665.15033V683.731H42.08556V665.15033H74.98878m0-2H42.08556a2,2,0,0,0-2,2V683.731a2,2,0,0,0,2,2H74.98878a2,2,0,0,0,2-2V665.15033a2,2,0,0,0-2-2Z" transform="translate(0.00001)"/>
      </g>
    </g>
    <g>
      <g>
        <rect class="cls-12" x="96.94011" y="630.90832" width="33.12988" height="77.77441" rx="2.5"/>
        <path class="cls-12" d="M127.56976,633.40838v72.77423H99.44009V633.40838h28.12967m0-5H99.44009a5,5,0,0,0-5,5v72.77423a5,5,0,0,0,5,5h28.12967a5,5,0,0,0,5-5V633.40838a5,5,0,0,0-5-5Z" transform="translate(0.00001)"/>
      </g>
      <g>
        <rect class="cls-12" x="102.90789" y="620.84387" width="21.19385" height="15.06445" rx="2.5"/>
        <path class="cls-12" d="M121.60186,623.34387v10.06451H105.408V623.34387h16.19387m0-5H105.408a5,5,0,0,0-5,5v10.06451a5,5,0,0,0,5,5h16.19387a5,5,0,0,0,5-5V623.34387a5,5,0,0,0-5-5Z" transform="translate(0.00001)"/>
      </g>
      <g>
        <path class="cls-12" d="M110.51237,620.22375a2.49987,2.49987,0,0,1-2.147-3.78027l2.99267-5.01758a2.49908,2.49908,0,0,1,2.147-1.21973h0a2.49785,2.49785,0,0,1,2.147,1.21973l2.99219,5.01758a2.49988,2.49988,0,0,1-2.147,3.78027Z" transform="translate(0.00001)"/>
        <path class="cls-12" d="M113.50491,612.70605l1.49625,2.50879,1.49627,2.50885h-5.985l1.49625-2.50885,1.49624-2.50879m0-5a5,5,0,0,0-4.29426,2.43891l-1.49624,2.50879-1.49627,2.50891a5,5,0,0,0,4.29429,7.561h5.985a5,5,0,0,0,4.29428-7.56109l-1.49627-2.50885-1.49627-2.50879a4.99993,4.99993,0,0,0-4.29427-2.43891Z" transform="translate(0.00001)"/>
      </g>
      <g class="cls-10">
        <rect class="cls-11" x="97.07637" y="665.15034" width="32.90323" height="18.58065"/>
      </g>
    </g>
    <g>
      <rect class="cls-8" x="163.99558" y="445.46975" width="214.24854" height="27.55762" rx="2.5"/>
      <path class="cls-8" d="M375.74435,447.97v22.55734H166.49557V447.97H375.74435m0-5H166.49557a5,5,0,0,0-5,5v22.55734a5,5,0,0,0,5,5H375.74435a5,5,0,0,0,5-5V447.97a5,5,0,0,0-5-5Z" transform="translate(0.00001)"/>
    </g>
    <g>
      <rect class="cls-13" x="216.06452" y="511.76615" width="3.67742" height="26.90322"/>
      <g>
        <rect class="cls-3" x="213.22559" y="479.7417" width="9.35498" height="39.93555" rx="1"/>
        <path class="cls-3" d="M221.58064,480.74194v37.93549H214.2258V480.74194h7.35484m0-2H214.2258a2,2,0,0,0-2,2v37.93549a2,2,0,0,0,2,2h7.35484a2,2,0,0,0,2-2V480.74194a2,2,0,0,0-2-2Z" transform="translate(0.00001)"/>
      </g>
      <g>
        <path class="cls-14" d="M217.90332,564.22622a.99968.99968,0,0,1-.94775-.68067l-10.70019-31.74219a1.00144,1.00144,0,0,1,.03808-.73486,11.67822,11.67822,0,0,1,10.689-6.85107c.38964,0,.709.01953.94043.03857.147-.00635.32519-.01172.53076-.01172a12.21483,12.21483,0,0,1,11.04394,6.793.99924.99924,0,0,1,.05323.76611l-10.69971,31.74219A.99968.99968,0,0,1,217.90332,564.22622Z" transform="translate(0.00001)"/>
        <path class="cls-14" d="M216.98256,525.21773c.392,0,.70629.02143.92067.04035.14588-.00714.33155-.01355.55091-.01355a11.44228,11.44228,0,0,1,6.41684,1.949,11.32431,11.32431,0,0,1,3.73211,4.29029q-2.675,7.93551-5.34993,15.871l-5.34993,15.871-5.34993-15.871-5.34994-15.871a10.67661,10.67661,0,0,1,9.7792-6.26612m0-2a12.67643,12.67643,0,0,0-11.59874,7.43592,1.99994,1.99994,0,0,0-.07568,1.46905l5.34995,15.871,5.34993,15.871a2,2,0,0,0,3.79043,0l5.34993-15.871,2.675-7.93548,2.675-7.93549a2.00011,2.00011,0,0,0-.10606-1.53271,13.21428,13.21428,0,0,0-11.93795-7.34546c-.19424,0-.366.00427-.51225.00995-.31891-.02466-.63414-.03675-.95949-.03675Z" transform="translate(0.00001)"/>
      </g>
    </g>
    <g>
      <g>
        <path class="cls-14" d="M255.50628,564.22579a16.87085,16.87085,0,1,1,16.87109-16.8711A16.89023,16.89023,0,0,1,255.50628,564.22579Z" transform="translate(0.00001)"/>
        <path class="cls-14" d="M255.50632,531.48385a15.871,15.871,0,1,1-15.871,15.871,15.87094,15.87094,0,0,1,15.871-15.871m0-2a17.871,17.871,0,1,0,17.871,17.871,17.89122,17.89122,0,0,0-17.871-17.871Z" transform="translate(0.00001)"/>
      </g>
      <rect class="cls-13" x="253.66762" y="511.76615" width="3.67742" height="38.16933" rx="1.83871"/>
      <g>
        <rect class="cls-3" x="250.82878" y="479.7417" width="9.35498" height="39.93555" rx="1"/>
        <path class="cls-3" d="M259.18374,480.74194v37.93549h-7.35483V480.74194h7.35483m0-2h-7.35483a2,2,0,0,0-2,2v37.93549a2,2,0,0,0,2,2h7.35483a2,2,0,0,0,2-2V480.74194a2,2,0,0,0-2-2Z" transform="translate(0.00001)"/>
      </g>
    </g>
    <g>
      <rect class="cls-5" x="114.49757" y="713.96973" width="335.47217" height="22.90039" rx="2"/>
      <path class="cls-5" d="M447.96994,715.97v18.9H116.49741v-18.9H447.96994m0-4H116.49741a4,4,0,0,0-4,4v18.9a4,4,0,0,0,4,4H447.96994a4,4,0,0,0,4-4v-18.9a4,4,0,0,0-4-4Z" transform="translate(0.00001)"/>
    </g>
    <g>
      <rect class="cls-5" x="2.22485" y="713.96973" width="361.80859" height="22.90039"/>
      <path class="cls-5" d="M362.03338,715.97v18.9H4.2247v-18.9H362.03338m4-4H.2247v26.9H366.03338v-26.9Z" transform="translate(0.00001)"/>
    </g>
  </g>
  <g>
    <g id="Brick">
      <rect class="cls-15" x="406.25659" y="314.79999" width="109" height="38" rx="7.33871"/>
    </g>
    <g id="Brick-2" data-name="Brick">
      <rect class="cls-15" x="460.75659" y="366.90763" width="109" height="38" rx="7.33871"/>
    </g>
    <g id="Brick-3" data-name="Brick">
      <rect class="cls-15" x="677.08065" y="827.06208" width="109" height="38" rx="7.33871"/>
    </g>
    <g id="Brick-4" data-name="Brick">
      <rect class="cls-15" x="804.69591" y="827.06208" width="109" height="38" rx="7.33871"/>
    </g>
    <g id="Brick-5" data-name="Brick">
      <rect class="cls-15" x="731.58065" y="880.595" width="109" height="38" rx="7.33871"/>
    </g>
    <g id="Brick-6" data-name="Brick">
      <rect class="cls-15" x="1172.31299" y="654.39394" width="109" height="38" rx="7.33871"/>
    </g>
    <g id="Brick-7" data-name="Brick">
      <rect class="cls-15" x="1117.81299" y="602.71618" width="109" height="38" rx="7.33871"/>
    </g>
    <g id="Brick-8" data-name="Brick">
      <rect class="cls-15" x="875.29939" y="356.82001" width="109" height="38" rx="7.33871"/>
    </g>
    <g id="Brick-9" data-name="Brick">
      <rect class="cls-15" x="1437.40791" y="289.69355" width="109" height="38" rx="7.33871"/>
    </g>
    <g id="Brick-10" data-name="Brick">
      <rect class="cls-15" x="1275.61291" y="941.35012" width="109" height="38" rx="7.33871"/>
    </g>
    <g id="Brick-11" data-name="Brick">
      <rect class="cls-15" x="940.6381" y="305.06452" width="109" height="38" rx="7.33871"/>
    </g>
    <g id="Brick-12" data-name="Brick">
      <rect class="cls-15" x="28.82079" y="258.16998" width="109" height="38" rx="7.33871"/>
    </g>
  </g>
  <rect class="cls-16" x="0.00001" width="1920" height="1080"/>
  <rect class="cls-17" x="505.7201" y="175.64353" width="908.55983" height="728.71294" rx="105.09677"/>
  <g>
    <path class="cls-5" d="M1521.71054,644.40852a58.00723,58.00723,0,0,0-1.65014,16.07q-3.92982.465-8.2.93-9.405,1.05-20.47,2.08c-3.47.31-7.06005.64-10.77.96a74.97132,74.97132,0,0,1-10.36-3.98c-7.96-3.78-13.02-8.3-12.64-12.02.47-4.63,9.45-9.09,23.19995-10.33a89.67225,89.67225,0,0,1,9.46-.31q3.42-.075,6.84009-.1c6.52-.08,13.04-.05005,19.56.05q3.46491.42,6.66993.83A58.90015,58.90015,0,0,0,1521.71054,644.40852Z" transform="translate(0.00001)"/>
    <path class="cls-5" d="M1379.07047,773.76857c-14.12-19.04-22.28-41.47-22.28-65.49a108.12879,108.12879,0,0,1,17.51-58.59l31.32-9.24,92-5q-14.00007,63-28,126Q1424.34544,767.60859,1379.07047,773.76857Z" transform="translate(0.00001)"/>
    <path class="cls-18" d="M1450.31259,482.98958l-.01074.03588Z" transform="translate(0.00001)"/>
    <path class="cls-5" d="M1586.43051,653.32856c.98-.59,1.97-1.18,2.95-1.78.05,1.06-.13,1.81-.61,2.13C1588.32041,653.97853,1587.58042,653.92854,1586.43051,653.32856Z" transform="translate(0.00001)"/>
    <path class="cls-5" d="M1655.25046,708.40852c0,27.08-10.37,52.15-27.96008,72.6q-33.33-11.77506-66.66992-23.56-2.055-1.47006-4.11-2.94-11.94012-8.535-23.89-17.06-5.5049-22.5-11-45c1.12-.68,2.25-1.36,3.37-2.03q4.275-2.595,8.55994-5.17c16.3601,11.02,43.68,8.8,55.21008-5.92,7.72-9.86,6.23-22.62,4.69006-30.23q4.01989-2.43,8.04993-4.86,17.35493,2.355,34.73,5.57v-2.28C1648.34043,665.52852,1655.25046,686.29854,1655.25046,708.40852Z" transform="translate(0.00001)"/>
    <path class="cls-18" d="M1638.54038,604.04854l-.15992.59c0-.06.01-.11.01-.17Q1638.46555,604.25858,1638.54038,604.04854Z" transform="translate(0.00001)"/>
    <path class="cls-18" d="M1447.3118,493.03517l.12744-.4267Z" transform="translate(0.00001)"/>
    <path class="cls-18" d="M1618.61045,489.03853c-.09-.01-.18995-.01-.28-.02a.96805.96805,0,0,1,.23-.48C1618.58042,488.70857,1618.60044,488.86854,1618.61045,489.03853Z" transform="translate(0.00001)"/>
    <path class="cls-18" d="M1640.96054,804.83857c-2.79.3-5.41015.45-7.76.5a13.954,13.954,0,0,0-.32007-2.8c1.36-.24,2.65992-.41,3.89991-.52C1638.25046,802.94856,1639.64047,803.89857,1640.96054,804.83857Z" transform="translate(0.00001)"/>
    <path class="cls-18" d="M1633.09043,799.79854c-.32.12-.6399.24-.93995.36q-.25506-.59994-.54-1.17C1632.11045,799.25856,1632.60044,799.52852,1633.09043,799.79854Z" transform="translate(0.00001)"/>
    <path class="cls-18" d="M1616.95053,819.72853h-1.81006c.29-.3.58-.61.86-.91A6.70835,6.70835,0,0,0,1616.95053,819.72853Z" transform="translate(0.00001)"/>
    <path class="cls-18" d="M1649.86045,803.36854c-.47.11-.93995.21-1.39991.31-.24011-.32-.47009-.63-.71008-.95C1648.49045,802.91853,1649.19052,803.12855,1649.86045,803.36854Z" transform="translate(0.00001)"/>
    <path class="cls-18" d="M1684.57041,803.55855a10.42026,10.42026,0,0,1-5.18995,3.34,14.378,14.378,0,0,1-7.08007,0,16.661,16.661,0,0,1-4.16993-1.4A23.50357,23.50357,0,0,1,1684.57041,803.55855Z" transform="translate(0.00001)"/>
    <path class="cls-18" d="M1449.31406,486.33223c-.42285,1.41565-.77863,2.60681-1.07752,3.60724C1448.59482,488.74012,1448.97647,487.46235,1449.31406,486.33223Z" transform="translate(0.00001)"/>
    <path class="cls-18" d="M1449.682,485.10042l-.04.13391Z" transform="translate(0.00001)"/>
    <path class="cls-18" d="M1449.93759,484.245l-.0476.15942Z" transform="translate(0.00001)"/>
    <path class="cls-18" d="M1448.08383,490.45064c-.20538.68756-.37915,1.2694-.52533,1.75878C1447.71671,491.67976,1447.89524,491.082,1448.08383,490.45064Z" transform="translate(0.00001)"/>
    <path class="cls-18" d="M1447.22043,493.34114l-.10071.33716Z" transform="translate(0.00001)"/>
    <path class="cls-18" d="M1446.94736,494.25526c-.03235.10822-.03034.10169,0,0Z" transform="translate(0.00001)"/>
    <path class="cls-18" d="M1450.14237,483.55934l-.09839.32953Z" transform="translate(0.00001)"/>
    <path class="cls-19" d="M1717.42993,900.43c-4.62988-10.22-17.06994-36.75-45.67993-57.83a135.634,135.634,0,0,0-47.87-22.44c-1.55993.71-4.42,1.55-6.93005-.43H1615.14c-6.92,7.41-16.09,13.95-26.93005,19.39l-.11987.06c-1.04.52-2.1001,1.03-3.17017,1.53-.51.24-1.0199.48-1.53992.71q-.54.255-1.08.48c-.64014.29-1.28.57-1.93005.84-1.39.59-2.79993,1.17-4.23,1.72-.66.26-1.30993.51-1.97009.75-.71.27-1.41992.52-2.12988.78-.05005.02-.09009.03-.14.05-4.20007,1.49-8.56994,2.84-13.06994,4.04-.20008.06-.39014.11-.59009.16-1.33008.35-2.66992.69-4.02,1.01l-.48.12q-4.485,1.05-9.12,1.91c-.30994.06-.62.12-.93006.17-1.21.22-2.42993.43-3.6499.62-.39.07-.78.13-1.17.19-1.28992.2-2.6.38995-3.91.57-.24.03-.48.07-.72.1-.68994.09-1.37.17-2.06006.26-.86987.1-1.74.21-2.61987.3-.33008.04-.65015.07-.98.1-1.2301.13-2.46008.24-3.69007.35q-.75.06-1.5.12c-1.12.09-2.26.17-3.39.24-.47.03-.94995.06-1.41992.09-1.58008.09-3.16016.17-4.75.22A218.09778,218.09778,0,0,1,1491.2,856.2q-4.455-.33-8.85-.82c-2.92-.33-5.82-.72-8.68006-1.17a188.62279,188.62279,0,0,1-28.62988-6.72c-1.28-.42-2.55005-.84-3.81006-1.28a130.44682,130.44682,0,0,1-30.13-14.77c-.96-.64-1.89-1.3-2.80994-1.97-1.09009-.8-2.14-1.62-3.17-2.44a78.77618,78.77618,0,0,1-6.79993-6.09c-.20007-.21-.39014-.42-.59009-.63-.26-.26-.51-.53-.76-.8h-1.91992a283.43173,283.43173,0,0,0-40.46,28.47c-21.7301,18.31-43.8,36.91-56.13013,65.89-12.30994,28.94-14.96,68.36-1.3,98.17,10.84009,23.65,31.1001,39.4,55.67017,49.92.12988-.29.26-.56995.38989-.83l2.17.43006,40.37,7.99,49.59,9.81995,3.18.63H1565.1l52.31994-4.87,21.6001-2.01c24.98-6.04993,47.90991-15.62,64.86-30.70008a84.02228,84.02228,0,0,0,21.39-29.02991C1746.25,965.82,1719.5,904.97,1717.42993,900.43Zm-223.24,57.59a11.745,11.745,0,1,1,11.74,11.74A11.747,11.747,0,0,1,1494.18994,958.02Zm16.96008,54.81a11.745,11.745,0,1,1,11.75-11.74A11.74489,11.74489,0,0,1,1511.15,1012.83Zm1.30994-91.36a11.745,11.745,0,1,1,11.75-11.75A11.74918,11.74918,0,0,1,1512.46,921.47Z" transform="translate(0.00001)"/>
    <path class="cls-19" d="M1653.92993,546.95h-.01c12.75-16.45,14.41016-36.89,5.2301-49.6-6.92-9.57-18.55993-12.78-19.58-13.05a36.62625,36.62625,0,0,0-21.95007,1.15,32.81328,32.81328,0,0,0-5.46009-14.21c-8.56982-12.28-24.55993-15.8-36.54992-14.35-22.03992,2.67-31.93006,22.06-32.63,23.49-1.06006-3.36-6.76-20.13-24.15991-28.71-22.23-10.97-43.67,1.25-45.98,2.61-2.62012,1.54-17.04,10.34-22.53,28.71-22.45007-9.4-47.1001-5.02-61.34009,10.44-1.48,1.61-17,19.09-11.75,41.77-2.34-.39-11.04-1.54-18.27,3.91a25.66,25.66,0,0,0-7.83,11.75c-4.18006,12.66,4.79992,32.54,22.53,51.52v47.43c.22-.05.43006-.08.65-.12q15.44989-2.85,30.8999-5.02-.36,1.32-.72,2.79c-2.47,9.98-4.40991,24.46,3.59009,35.86005,7.61987,10.85,22.49,16.41,37.69995,16.61.74-2.37,1.63-4.84,2.66992-7.38-11.88989-.03-23.87988-4.26-30.98-12.85-10.30994-12.48-6.48-29.49-5.26-34.92.34009-1.52.77-3.12,1.29-4.76.15-.46.30005-.93.47-1.41.08008-.25.17-.5.26-.75.18-.53.38-1.07.59009-1.61.16992-.45.34985-.91.53992-1.37.03-.08.06994-.17.1-.25.16-.37.31006-.74.47-1.11.2301-.53.46008-1.06.71008-1.59.15-.34.30994-.68.47-1.01.58-1.21,1.21008-2.43,1.88-3.63.14-.27.29-.53.44995-.8.47009-.82.96008-1.64,1.47009-2.44.32-.5.64-1,.97-1.49a52.09256,52.09256,0,0,1,4.20007-5.44c.18994-.22.37988-.43.58-.65.12-.13.24-.26.36-.38.29-.31.58008-.61.88-.91.41-.41.81995-.81,1.24-1.2.21009-.19.43006-.39.64-.59.38-.33.77-.66,1.16992-.98.23-.19.46008-.38.69006-.55a29.40266,29.40266,0,0,1,7.5-4.29c.26-.1.53992-.2.80994-.29a21.948,21.948,0,0,1,3.11011-.84c.09-.02.18994-.04.29-.06.53991-.1,1.07983-.19,1.63989-.25.41-.05.82007-.08,1.23-.1a.87019.87019,0,0,1,.23-.01c.39014-.03.79-.04,1.19006-.04H1447.7c.28,0,.55005.01.82007.02.15991,0,.31006.01.47.02.38.02.76.05005,1.13.1.21008.02.41.04.61.07.15.02.31006.04.46.07.19006.02.38013.06.57007.09.23.04.47.09.69995.14.51.11,1.02.23,1.51.37.26.07.51.15.76.23.32007.1.63.21.92993.32.28.1.56006.21.83008.32s.54.22.81006.34.54.24.80994.38a28.15846,28.15846,0,0,1,3.66,2.14c.31006.21.61.43.90991.65a36.70882,36.70882,0,0,1,4.14014,3.59c.22.22.43994.44.6499.67.22.22.43.45.64.68.29.31.56994.62.84.94.23.26.46.52.68005.8.42.5.83,1.02,1.23,1.55.28.36.54992.72.81994,1.09.86011,1.18,1.67,2.4,2.44007,3.64.48.77.94006,1.54,1.38,2.33.22.39.43994.78.65,1.17.22.4.43006.79.63,1.19.21.39.40991.78.6,1.18.20008.4.39.79.56995,1.18a.03493.03493,0,0,1,.01.02c.19006.4.38013.79.55005,1.18005.18994.4.36.79.53,1.19.25.56.48,1.11.69995,1.66.15.37.30005.73.43994,1.1.22009.58.44007,1.15.64014,1.72a69.50456,69.50456,0,0,1,2.37988,7.95c.19006.85.42,1.85.66,2.97a59.168,59.168,0,0,1,8.1-4.56c-.16992-.8-.33-1.53-.48-2.16-.33-1.42005-.73-2.94-1.2-4.51q3.42-.075,6.84-.1c6.52-.08,13.03991-.05,19.55993.05-.48,1.41-.76,2.34-.84985,2.63995-.08008.27-.16016.56-.25.85-.17017.56-.34009,1.16-.52,1.78-.49,1.75-1.03,3.75-1.51,5.91-.06006.27-.12012.54-.18005.82-.13.55-.24,1.11-.34,1.68-.08008.37-.15.74-.22,1.12-.11011.64-.22,1.3-.31006,1.96-.06006.36-.11.73-.15991,1.09-.06006.47-.12012.95-.17017,1.42q-.07488.6-.11987,1.2c-.05005.5-.09009,1.01-.12012,1.52v.06c-.02991.51-.05993,1.03-.06994,1.55a.04457.04457,0,0,0,0,.05,42.27374,42.27374,0,0,0,.65,9.21c.08008.43.15991.85.26,1.28.08.35.16992.71.26,1.06.08.32.16992.64.26.96a.88143.88143,0,0,0,.05.15c.02991.13.06982.26.10986.38.03.11.07007.22.11011.34q.13494.45.29993.9a29.71494,29.71494,0,0,0,3.72009,7.26c.30993.44.62988.88.97,1.3.26.34.54.67.81995,1l.42.48c.28.31.55994.62.85.91a.12054.12054,0,0,0,.04993.05c.28.3.58008.59.88013.88a1.09138,1.09138,0,0,0,.10986.1c.09009.08.18006.17.27.25.13013.12.25.23.38013.34.37988.34.76.67,1.15991.99a3.893,3.893,0,0,0,.33008.27c.35986.30005.73.58,1.10986.85a.26521.26521,0,0,0,.06006.05,1.09609,1.09609,0,0,0,.16992.13c.29.2.57007.41.87012.61q.525.375,1.08.72c20.02,12.75,54.89,9.74,69.14-9.6,9.6-13.02,7.06006-29.63,5.25-38.04q17.35511,2.355,34.73,5.57V610.77q1.08-3.15,2.16-6.3.07489-.21.15-.42l-.16.59c21.58-17.72,30.91-38.3,24.68006-49.86C1661.80005,552.44,1659.32007,549.38,1653.92993,546.95ZM1473.30005,585.2c-.27-.24-.55005-.49-.84009-.73-5.81995-4.93-14.34-9.74-25.1499-9.26-11.90015.53-20.66,7.21-26.30005,13.44-.23.25-.44995.5-.66992.74A52.02049,52.02049,0,0,0,1413.4,599.45c.65-3.16,1.29993-6.31,1.95-9.47.05-.22.09-.45.14-.67q.57-2.76,1.14-5.52c2.25-2.63,13.31995-15.02,30.68006-15.11,17.30994-.09,28.43994,12.1,30.72,14.71.09.28.16992.56.26.84.06995.26.1499.52.23.77.90991,3.08,1.83,6.15,2.75,9.23A48.59679,48.59679,0,0,0,1473.30005,585.2Zm50.54993,9.3q.99-4.83,1.99011-9.65c.04992-.27.10986-.53.15991-.8.05005-.21.09009-.42.13-.63,2.25-2.63,13.31995-15.01,30.69007-15.11,17.29993-.09,28.42993,12.1,30.72,14.71.55994,1.89,1.12988,3.78,1.68994,5.67.08008.26.15.51.23.76.43005,1.47.87012,2.94,1.31006,4.41a44.81526,44.81526,0,0,0-3.63-4.68c-.24-.27-.49-.54-.74-.82-5.42-5.88-15.58-14.14-29.58-13.52-9.40015.42-16.83008,4.67-22.33008,9.51-.29.25-.56006.51-.84.76a54.30416,54.30416,0,0,0-8.04,9.44,47.17632,47.17632,0,0,0-2.71,4.53C1523.22,597.56,1523.53,596.03,1523.85,594.5Zm64.91,84.83c-11.53,14.72-38.8501,16.94-55.21,5.92a30.76762,30.76762,0,0,1-6.59009-5.92,31.811,31.811,0,0,1-6.8999-18.85,58.00936,58.00936,0,0,1,1.6499-16.07,58.9074,58.9074,0,0,1,1.64-5.82c4.9801-14.92,16.95007-33.03,33.85-32.98,19.99.06,32.13013,25.46,35.5,40.09.22.96.49,2.1.75,3.4C1594.99,656.71,1596.48,669.47,1588.76,679.33Z" transform="translate(0.00001)"/>
    <path d="M1646.09009,1080H1565.1l52.31994-4.87,21.6001-2.01,2.6499-.25c.56006.72,1.12012,1.48,1.66016,2.26A30.23551,30.23551,0,0,1,1646.09009,1080Z" transform="translate(0.00001)"/>
    <path d="M1524.21054,909.71852a11.75,11.75,0,1,1-11.75-11.74A11.74914,11.74914,0,0,1,1524.21054,909.71852Z" transform="translate(0.00001)"/>
    <path d="M1517.68051,958.01857a11.745,11.745,0,1,1-11.75-11.75A11.747,11.747,0,0,1,1517.68051,958.01857Z" transform="translate(0.00001)"/>
    <path d="M1448.53,1080h-97.94995c-2.28-6.39.16992-13.56006,2.25-18.04.12988-.29.26-.56995.38989-.83l2.17.43006,40.37,7.99,49.59,9.81995Z" transform="translate(0.00001)"/>
    <path d="M1522.90048,1001.08857a11.745,11.745,0,1,1-11.75-11.75A11.747,11.747,0,0,1,1522.90048,1001.08857Z" transform="translate(0.00001)"/>
    <path class="cls-9" d="M1647.64047,810.13856a80.77,80.77,0,0,1-14.62-2.11,16.015,16.015,0,0,1-8.28,11.7c-.20007.11-.5.26-.86.43-1.56005.71-4.41992,1.55005-6.92993-.43a6.70835,6.70835,0,0,1-.95007-.91c-.28.3-.57.61-.86.91-6.92,7.41-16.09008,13.95-26.92993,19.39l-.12011.06c-1.04.52-2.1,1.03-3.16993,1.53-.51.24-1.02.48-1.54.71q-.54.25506-1.08007.48c-.6399.29-1.27991.57-1.92993.84-1.39.59-2.80005,1.17-4.23,1.72-.66.26-1.31005.51-1.97.75-.71.27-1.42.52-2.13012.78-.04993.02-.08985.03-.1399.05-4.19995,1.49-8.57006,2.84-13.07006,4.04-.2.06-.3899.11-.59.16-1.33.35-2.67.69-4.02,1.01l-.48.12q-4.485,1.05-9.12,1.91c-.31006.06005-.62.12-.92994.17-1.21008.22-2.43005.43-3.65014.62-.3899.07-.77991.13-1.16992.19-1.29.2-2.6.39-3.90992.57-.24011.03-.4801.07-.72009.1-1.54993.2-3.11.39-4.68.56-.33.04-.64991.07-.98.1-1.23.13-2.46.24-3.68995.35q-.75.06-1.5.12-1.68.135-3.39.24c-.47009.03-.95007.06-1.42.09-1.58.09-3.15992.17-4.75.22a218.09379,218.09379,0,0,1-22.62989-.41q-4.45514-.33-8.85009-.82c-2.91993-.33-5.82007-.72-8.68-1.17a188.62268,188.62268,0,0,1-28.63-6.72c-1.28-.42-2.55-.84-3.81-1.28a130.45171,130.45171,0,0,1-30.13-14.77c-.96-.64-1.89-1.3-2.81-1.97-1.09-.8-2.14-1.62-3.17-2.44a78.79559,78.79559,0,0,1-6.8-6.09c-.2-.21-.39-.42-.59-.63-.26-.26-.51-.53-.76-.8-.27-.28-.55-.56-.81-.85v-26.08c1.24005,1.13,2.51,2.23,3.80005,3.32.43.36.87.73,1.3,1.09a151.73675,151.73675,0,0,0,35.89,21.83c.3.23.6.45.91.67a42.36069,42.36069,0,0,0,23.32,8c.14.01.53.02,1.12.01a177.39455,177.39455,0,0,0,43.73,5.42c4.85,0,9.64-.2,14.36-.57q5.04015-.40494,9.96-1.08a49.42275,49.42275,0,0,0,11.93,1.45,43.242,43.242,0,0,0,27.30994-11.17c.31006-.27.6101-.55.91015-.83.82984-.34,1.65992-.68,2.48-1.03a151.73875,151.73875,0,0,0,39.21-23.92q.61488-.52506,1.23-1.05c.8-.7,1.6-1.41,2.39-2.13a83.38419,83.38419,0,0,1,15.22,6.18995c.13.07.25.14.38.21q.28491.57.54,1.17c.30005-.12.62-.24.93995-.36,1.28.73,2.5,1.47,3.68994,2.22-1.24.11-2.53992.28-3.89991.52a13.954,13.954,0,0,1,.32007,2.8c2.34986-.05,4.97-.2,7.76-.5C1643.45053,806.63856,1645.68051,808.42854,1647.64047,810.13856Z" transform="translate(0.00001)"/>
    <path class="cls-9" d="M1667.41992,796.1a44.91448,44.91448,0,0,1-8.15991,4.32,41.95066,41.95066,0,0,0-11.34009-2.8,28.13991,28.13991,0,0,0-4.28992-.11c1.48,1.78,2.85,3.53,4.12,5.22.74.19,1.43994.4,2.11.64-.47.11-.94007.21-1.4.31.09009.12.18005.25.27.37,1.57007,2.15,2.98,4.19,4.18994,6.05a37.33078,37.33078,0,0,0,6.30005-.87c4.72,4.34,8.05,9.08,13.81006,9.13,5,.04,9.12-3.47,11.86-6.51.20008-2.6.42-5.2.62-7.8.01-.09.01-.17.02-.26.32.08.62988.17.92993.26a36.5975,36.5975,0,0,1,11.86011,6.14V797.24S1685.47,783.88,1667.41992,796.1Zm16.28,8.37c-.1499.15-.30994.29-.49.44-.1499.12-.31995.25-.49.37-.15991.12-.32.23-.48.34-.23.14-.46.28-.72.42-.18994.1-.38.2-.59009.29-.05993.03-.12988.06-.19995.09-.17993.08-.36.15-.55005.22-.26.1-.52.18-.79993.26a14.376,14.376,0,0,1-7.08,0,16.65974,16.65974,0,0,1-4.17-1.4c.23-.12.46009-.24.68006-.34.23-.11.44995-.22.66992-.31.23-.11.44995-.2.67993-.29.18018-.08.3501-.14.53-.21.27-.1.55005-.2.82007-.29.01,0,.01,0,.02-.01h.02c.29993-.1.59-.19.88989-.28.02-.01.03-.01.05005-.02.03-.01.06006-.01.09009-.02.17993-.05.37988-.1.55993-.15.02991-.01.04993-.01.08-.02.68-.17,1.3501-.3,2.03-.41.03,0,.06006-.01.09009-.01.25-.04.50989-.07.75989-.1.3-.03.59-.06.89-.08.30005-.03.59009-.04.89-.05a26.03806,26.03806,0,0,1,6.69007.65c-.13013.16-.28.32-.44007.49C1684,804.19,1683.85,804.33,1683.7,804.47Z" transform="translate(0.00001)"/>
    <path class="cls-5" d="M1437.15048,818.81856a151.73675,151.73675,0,0,1-35.89-21.83c-.43-.36-.87-.73-1.3-1.09-1.29-1.09-2.56-2.19-3.80005-3.32q-3.15-2.865-6.07995-5.88c1.09-.32,2.23-.64,3.43-.97a161.78435,161.78435,0,0,1,20.56-4.15c4.43-.61,8.66-1.01,12.59-1.28-.17.07-.34.13-.52.21a11.53222,11.53222,0,0,0-5.22,3.91,8.71186,8.71186,0,0,0-1.27,3.15c-1.38,6.71,3.84,15.48,5.18995,17.74A47.87424,47.87424,0,0,0,1437.15048,818.81856Z" transform="translate(0.00001)"/>
    <path class="cls-5" d="M1616.01047,792.58857c-.79.72-1.59,1.43-2.39,2.13q-.61488.52506-1.23,1.05a151.73875,151.73875,0,0,1-39.21,23.92c-.82006.35-1.65014.69-2.48,1.03a46.8088,46.8088,0,0,0,8.31995-10.19c1.57-2.64,8.43005-14.14,3.92-20.89a11.482,11.482,0,0,0-5.22009-3.91c-.18005-.08-.34-.14-.5199-.21a169.9067,169.9067,0,0,1,33.14991,5.43C1612.41049,791.50856,1614.28037,792.05855,1616.01047,792.58857Z" transform="translate(0.00001)"/>
    <path class="cls-5" d="M1530.55039,831.26857q-4.91987.67493-9.96,1.08c-4.72.37-9.51.57-14.36.57a177.39455,177.39455,0,0,1-43.73-5.42,51.99265,51.99265,0,0,0,17.1-3.42,38.38088,38.38088,0,0,0,19.64-16.16c.63-1.07,1.19006-2.13,1.69006-3.2a37.496,37.496,0,0,0,3.7,8.42C1511.37046,824.45857,1522.19052,829.24855,1530.55039,831.26857Z" transform="translate(0.00001)"/>
    <path d="M1658.64047,820.96852c-.37.31-3.97-4.69-11-10.83-1.96-1.71-4.18994-3.5-6.67993-5.3-1.32007-.94-2.71008-1.89-4.18017-2.82-1.18994-.75-2.40991-1.49-3.68994-2.22-.49-.27-.98-.54-1.48-.81-.13-.07-.25-.14-.38-.21a83.38419,83.38419,0,0,0-15.22-6.18995c-1.7301-.53-3.6-1.08-5.66-1.64a169.9067,169.9067,0,0,0-33.14991-5.43c.17993.07.33985.13.5199.21a11.482,11.482,0,0,1,5.22009,3.91c4.51,6.75-2.35009,18.25-3.92,20.89a46.8088,46.8088,0,0,1-8.31995,10.19c-.30005.28-.60009.56-.91015.83a43.242,43.242,0,0,1-27.30994,11.17,49.42275,49.42275,0,0,1-11.93-1.45c-8.35987-2.02-19.17993-6.81-25.91993-18.13a37.496,37.496,0,0,1-3.7-8.42c-.5,1.07-1.06,2.13-1.69006,3.2a38.38088,38.38088,0,0,1-19.64,16.16,51.99265,51.99265,0,0,1-17.1,3.42c-.59.01-.98,0-1.12-.01a42.36069,42.36069,0,0,1-23.32-8c-.31-.22-.61-.44-.91-.67a47.87424,47.87424,0,0,1-12.31005-13.51c-1.35-2.26-6.57-11.03-5.18995-17.74a8.71186,8.71186,0,0,1,1.27-3.15,11.53222,11.53222,0,0,1,5.22-3.91c.18-.08.35-.14.52-.21-3.93.27-8.16.67-12.59,1.28a161.78435,161.78435,0,0,0-20.56,4.15c-1.2.33-2.34.65-3.43.97a86.72086,86.72086,0,0,0-17.45,6.86c-17.96,9.57-26.81,22.69-27.41,22.19-.77-.65,11.61005-24.48,33.85-41.98.46-.37.92-.73,1.39-1.09a107.107,107.107,0,0,1,19.1-11.58,129.72045,129.72045,0,0,1,45.57-11.65,36.12034,36.12034,0,0,0,3.19,6.16c11.57,17.81,35.53,20.61,54.3,20.91a43.22375,43.22375,0,0,1,20.28-20.81,171.99261,171.99261,0,0,1,41.26-.53c18.8899,2.16,40.24,8.26,59.24,22.72q1.99494,1.51493,3.8899,3.11a127.931,127.931,0,0,1,16.34008,16.5c1.48,1.78,2.85,3.53,4.12,5.22.24.32.47.63.71008.95,1.67993,2.28,3.17993,4.45,4.46,6.42C1656.97043,816.34852,1658.96054,820.69856,1658.64047,820.96852Z" transform="translate(0.00001)"/>
    <path d="M1483.86045,649.03853c-16.62,11.06-28.02,29.25-29.01,30.87a90.11626,90.11626,0,0,0-6.41,12.64c-11.89-.03-23.88-4.26-30.98-12.85-10.31-12.48-6.48-29.49-5.26-34.92,3.49-15.52,16.31-38.86,35.5-38.8,19.98.06,32.13,25.45,35.50006,40.09C1483.39047,646.91853,1483.62046,647.91853,1483.86045,649.03853Z" transform="translate(0.00001)"/>
    <path class="cls-19" d="M1472.72544,631.63435c-3.61768-6.10089-6.851-11.4234-13.54914-14.95776a26.641,26.641,0,0,0-18.06543-2.493c28.23926,34.55835,37.00055,41.30816,39.15619,39.86407C1482.73691,652.3929,1477.35007,639.43355,1472.72544,631.63435Z" transform="translate(0.00001)"/>
    <path d="M1481.27048,594.22853a48.587,48.587,0,0,0-7.97-9.03c-.27-.24-.55-.49-.84-.73-5.82-4.93-14.34-9.74-25.15-9.26-11.9.53-20.66,7.21-26.3,13.44-.23.25-.45.5-.67.74a52.02015,52.02015,0,0,0-6.93995,10.06c.65-3.16,1.3-6.31,1.95-9.47.05-.22.09-.45.14-.67q.57-2.76,1.14-5.52c2.25-2.63,13.32-15.02,30.68-15.11,17.31-.09,28.44,12.1,30.71991,14.71.09009.28.17016.56.26.84.07007.26.15014.52.2301.77Q1479.88553,589.61857,1481.27048,594.22853Z" transform="translate(0.00001)"/>
    <path class="cls-20" d="M1564.16049,755.17854a171.99261,171.99261,0,0,0-41.26.53,43.22375,43.22375,0,0,0-20.28,20.81c-18.77-.3-42.73-3.1-54.3-20.91a36.12034,36.12034,0,0,1-3.19-6.16c-3.39-8.39-3.37-17.1-3.33-25.16a83.3957,83.3957,0,0,1,3.97-24.36c.74-2.37,1.63-4.84,2.67-7.38a90.11626,90.11626,0,0,1,6.41-12.64c.99-1.62,12.39-19.81,29.01-30.87a59.17561,59.17561,0,0,1,8.10009-4.56,39.10125,39.10125,0,0,1,20.31983-3.73c1.21008.13,2.31006.31,3.30005.5-2.74,9.34-7.76,27.8,2,41.7a33.5071,33.5071,0,0,0,9.53,8.93l7.36,44.15a23.29329,23.29329,0,0,1,14.35-3.91c5.9.43,14.54,3.46,16.97,10.44C1567.37046,747.06856,1566.07041,751.55855,1564.16049,755.17854Z" transform="translate(0.00001)"/>
    <path d="M1581.23,631.27c-3.62-6.1-6.85-11.42-13.55005-14.96a26.58924,26.58924,0,0,0-18.05993-2.49c22.31994,27.32,32.48,37.27,36.80993,39.51,1.15015.6,1.89014.65,2.34009.35.48-.32.65991-1.07.61-2.13C1589.16992,647.18,1584.95,637.56,1581.23,631.27Z" transform="translate(0.00001)"/>
    <path d="M1593.45,649.1c-.26-1.3-.53-2.44-.75-3.4-3.36987-14.63-15.51-40.03-35.5-40.09-16.8999-.05-28.86987,18.06-33.85,32.98a58.9074,58.9074,0,0,0-1.64,5.82,58.00936,58.00936,0,0,0-1.6499,16.07,31.811,31.811,0,0,0,6.8999,18.85,30.76762,30.76762,0,0,0,6.59009,5.92c16.35986,11.02,43.67993,8.8,55.21-5.92C1596.48,669.47,1594.99,656.71,1593.45,649.1Zm-4.67993,4.58c-.44995.3-1.18994.25-2.34009-.35-4.33-2.24-14.49-12.19-36.80993-39.51a26.58924,26.58924,0,0,1,18.05993,2.49c6.70007,3.54,9.93006,8.86,13.55005,14.96,3.72,6.29,7.93994,15.91,8.15,20.28C1589.42993,652.61,1589.25,653.36,1588.77,653.68Z" transform="translate(0.00001)"/>
    <path class="cls-19" d="M1589.38046,651.54854c.05,1.06-.13,1.81-.61,2.13-.45007.3-1.19006.25-2.34-.35-4.33007-2.24-14.49-12.19-36.81-39.51a26.58967,26.58967,0,0,1,18.06,2.49c6.7,3.54,9.92994,8.86,13.54993,14.96C1584.95053,637.55855,1589.1705,647.17854,1589.38046,651.54854Z" transform="translate(0.00001)"/>
    <path d="M1590.77048,593.85853a44.78033,44.78033,0,0,0-3.63-4.68c-.24-.27-.49-.54-.74-.82-5.42-5.88-15.58007-14.14-29.58007-13.52-9.39991.42-16.83,4.67-22.33,9.51-.28992.25-.55994.51-.84.76a54.30676,54.30676,0,0,0-8.04,9.44,47.16736,47.16736,0,0,0-2.71,4.53c.32-1.52.62989-3.05.95-4.58q.99-4.83,1.99-9.65c.05-.27.1101-.53.16-.8.04993-.21.09-.42.13-.63,2.25-2.63,13.32007-15.01,30.68995-15.11,17.30005-.09,28.43,12.1,30.72,14.71.56006,1.88995,1.13012,3.78,1.69006,5.67.08.26.15.51.2301.76C1589.89047,590.91853,1590.33042,592.38856,1590.77048,593.85853Z" transform="translate(0.00001)"/>
  </g>
</svg>
