<svg id="Layer_1" data-name="Layer 1" xmlns="http://www.w3.org/2000/svg" width="399.45574" height="147.61765" viewBox="0 0 399.45574 147.61765"><defs><style>.cls-1{fill:#eca442;}.cls-2{fill:#a67c52;}.cls-3{fill:#597718;}</style></defs><path class="cls-1" d="M382.8585,144.61792a3.09946,3.09946,0,0,1-.34179-.01953L5.65831,101.37573a2.9995,2.9995,0,0,1-2.63867-3.32226L13.61632,5.65894a2.99921,2.99921,0,0,1,2.98046-2.65821,3.093,3.093,0,0,1,.3418.01953L393.797,46.24292a2.99952,2.99952,0,0,1,2.63867,3.32227L385.839,141.95972a2.99833,2.99833,0,0,1-2.98047,2.6582Z" transform="translate(-0.00001 -0.00003)"/><path class="cls-2" d="M16.597,6.00061,393.45518,49.2233l-10.59686,92.39431L6,98.39493,16.597,6.00061M16.58957,0A6.00081,6.00081,0,0,0,10.636,5.31693L.03911,97.71124a6.0001,6.0001,0,0,0,5.27725,6.64463L382.1746,147.57855a6.0001,6.0001,0,0,0,6.64466-5.27728L399.41612,49.907a6.00006,6.00006,0,0,0-5.27728-6.64462L17.28068.03967A6.069,6.069,0,0,0,16.58957,0Z" transform="translate(-0.00001 -0.00003)"/><path class="cls-3" d="M91.07042,32.78589a3.83574,3.83574,0,0,1,.67822,2.542c-.0415.36035-.09912.73535-.17334,1.12109a9.47454,9.47454,0,0,1-.24854,1.02149,4.37878,4.37878,0,0,1-1.34716,1.76269,4.83493,4.83493,0,0,1-2.00684.59082,8.58745,8.58745,0,0,1-1.248.13086,13.07651,13.07651,0,0,0-1.33642.12012,8.26427,8.26427,0,0,1-1.22608-.04883q-.61083-.0703-1.30566-.14941L78.422,39.36792q-1.5769-.08935-3.09766-.26367-1.522-.17578-3-.34473-.23364,2.80371-.60107,6.001-.36694,3.19922-.89453,7.42773-.531,4.23194-1.21436,9.81153-.68628,5.581-1.53076,12.96875L67.298,81.81616a7.69025,7.69025,0,0,0-.06787,1.36133q-.04176.36034-.07764.67578a4.26169,4.26169,0,0,1-.17481.75488,14.57725,14.57725,0,0,0-.47851,1.86231,4.15551,4.15551,0,0,1-.18408.84668,6.14478,6.14478,0,0,1-.35889.82617c-.26123.21387-.397.37988-.41065.5l-.32275.51074a4.58493,4.58493,0,0,1-1.84863,1.52149,6.0682,6.0682,0,0,1-4.3125-.03711,4.43816,4.43816,0,0,1-2.168-1.07031,5.51768,5.51768,0,0,1-.94482-1.752,5.1431,5.1431,0,0,1-.39112-1.96094,5.54018,5.54018,0,0,1-.06445-1.74218l5.31152-46.30957q-.52294-.06006-2.17383-.249-1.65381-.19043-3.51757-.44922-1.86549-.25928-3.50586-.53906-1.64356-.27831-2.24024-.43945-.51268-.14794-1.57812-.45508-1.06788-.30468-1.74073-.56445a6.05365,6.05365,0,0,1-2.67382-2.041,4.04892,4.04892,0,0,1-.65674-2.72265q.06225-.54054.124-1.08106a2.75063,2.75063,0,0,1,.28662-.97168,2.98166,2.98166,0,0,1,1.59912-1.6416,8.50384,8.50384,0,0,1,1.16455-.55078,6.29015,6.29015,0,0,1,1.502-.42188,12.77434,12.77434,0,0,1,2.67138-.24121,10.99716,10.99716,0,0,1,1.40088.06934c.46289.05273.957.10937,1.47852.16992q3.04248.34863,5.7832.66309,2.7378.31347,5.79248.57324,5.05225.48926,10.04932,1.10742,4.99365.61964,9.93017,1.36719,1.11915.21972,2.14356.51855a9.36641,9.36641,0,0,1,2.01465.8711,8.40229,8.40229,0,0,1,1.40136.84472A3.52561,3.52561,0,0,1,91.07042,32.78589Z" transform="translate(-0.00001 -0.00003)"/><path class="cls-3" d="M144.71153,40.58081a8.71875,8.71875,0,0,1-.04736,1.18164q-.06227.54052-.124,1.08106l-.42382,3.69433-5.88477,46.69922-.103.90137a7.766,7.766,0,0,1-.44677,1.59179,6.77867,6.77867,0,0,1-.37012.917c-.1543.3164-.30908.64843-.4668.99609a3.51043,3.51043,0,0,1-1.40283,1.48145,4.06394,4.06394,0,0,1-2.37549.73242,6.57311,6.57311,0,0,1-4.38281-.96,3.84538,3.84538,0,0,1-1.3584-1.98145,2.04762,2.04762,0,0,1-.28613-.58008,1.43057,1.43057,0,0,0-.11182-.56054,4.93412,4.93412,0,0,1-.15185-.97657c-.021-.33593-.04-.68847-.05518-1.05566.03467-.2998.05322-.60156.05957-.90625.00391-.30371-.00439-.6084-.02686-.916a2.19309,2.19309,0,0,1-.08691-.78515c.02441-.21.05322-.46485.08789-.76563a3.56128,3.56128,0,0,0,.33008-1.332l.90234-7.10742,1.38965-11.3418-4.69629-.53906L107.01719,68.115,104.4044,89.35718l-.103.90136a7.70288,7.70288,0,0,1-.44677,1.5918,6.77726,6.77726,0,0,1-.37012.917q-.23291.47462-.4668.9961a3.50464,3.50464,0,0,1-1.40283,1.48144,4.06386,4.06386,0,0,1-2.37549.73242,6.57305,6.57305,0,0,1-4.38281-.96,5.46372,5.46372,0,0,1-1.44531-1.99121,1.41853,1.41853,0,0,1-.11231-.56054l-.19873-.57032a4.87536,4.87536,0,0,1-.15185-.97558c-.021-.33692-.04-.68946-.05518-1.05664a4.80424,4.80424,0,0,0,.01563-.91114c-.02344-.30664-.04737-.61328-.06983-.92089a6.7409,6.7409,0,0,1,.17578-1.53125L93.17,85.14819l.90234-7.10742,1.69385-13.22461q.41527-2.87256.76758-5.93652.35156-3.06153.72363-6.30664.28565-3.25342.61914-5.77051.33031-2.51659.86816-5.65137l.041-.36035c.12549-.59375.22656-1.207.29883-1.83691.07226-.63184.1748-1.27246.30908-1.92774A11.71208,11.71208,0,0,1,99.9,35.30444a9.161,9.161,0,0,1,.854-1.68164,3.75236,3.75236,0,0,1,.83447-1.13672,6.82785,6.82785,0,0,1,1.15186-.82714,6.0526,6.0526,0,0,1,2.86572-.4004c.46289.05274.86719.11524,1.21143.18458.34521.07031.68652.15527,1.02832.25488a3.21062,3.21062,0,0,1,1.876,1.31054,3.3189,3.3189,0,0,1,.791,1.55079,8.4934,8.4934,0,0,1,.28467,2.13183,8.87926,8.87926,0,0,1-.04737,1.18164q-.06225.54053-.124,1.08106l-.42383,3.69336-1.8789,14.84668q.69433.0791,1.6084.18359.91259.10547,2.14111.15527,4.5205.51856,8.98974,1.12207,4.46778.60352,9.42432,1.17188l.08789.01074q.46509-4.05468.93164-7.74316t1.10645-7.72364c.06885-.59961.15332-1.21484.25586-1.84179.10058-.62793.21777-1.26758.352-1.92285a11.5479,11.5479,0,0,1,.50635-1.72071,9.2303,9.2303,0,0,1,.853-1.68359,2.60768,2.60768,0,0,1,.79151-1.14063,6.76663,6.76663,0,0,1,1.28271-.8125,5.23976,5.23976,0,0,1,2.77881-.41015q.69433.0791,1.25537.18945a8.23712,8.23712,0,0,1,.98438.25,3.20588,3.20588,0,0,1,1.876,1.31055,2.36237,2.36237,0,0,1,.792,1.55078c.07374.373.13672.73144.18458,1.07129C144.57481,39.85034,144.63585,40.20776,144.71153,40.58081Z" transform="translate(-0.00001 -0.00003)"/><path class="cls-3" d="M162.93467,49.1521l-1.79687,14.125,3.47754.39941q3.57714.32081,6.35889.6377,2.78173.31933,6.16357.79883l.43457.0498q1.04443.11865,2.03955.2793.99243.16113,1.95117.26855a14.43059,14.43059,0,0,1,1.96338.54493q.93091.3369,1.85645.71582a5.909,5.909,0,0,1,2.24853,1.90136,4.30706,4.30706,0,0,1,.57031,2.71192c-.03417.30175-.07373.64648-.11865,1.03613a2.86959,2.86959,0,0,1-.29345,1.01562,3.08739,3.08739,0,0,1-1.33692,1.67286,2.62327,2.62327,0,0,1-1.75537.71191,10.10026,10.10026,0,0,1-2.3125.19043,11.30821,11.30821,0,0,1-2.46582-.00879l-4.08691-.46875L159.734,73.97925l-2.19922,17.63867L174.819,93.783l4.08789.46875c.46192.05273.89746.10351,1.30371.14941a6.84962,6.84962,0,0,1,1.11963.21973,7.4075,7.4075,0,0,0,1.23584.37012,4.47952,4.47952,0,0,1,1.06006.34961,5.02553,5.02553,0,0,1,1.62647,1.19043,4.3694,4.3694,0,0,1,.91308,2.02246,9.53323,9.53323,0,0,1,.022.96093,6.84949,6.84949,0,0,1-1.33154,3.544,4.67126,4.67126,0,0,1-2.6206,1.3418,9.807,9.807,0,0,1-4.09278.35254q-.96827-.02052-2.01123-.13965-1.043-.12012-2.01025-.13867l-.52149-.06055q-6.80493-.59766-14.08691-1.61524c-1.16113-.13281-2.08545-.25488-2.77832-.36425-.69141-.11133-1.314-.19629-1.86377-.25977q-.82764-.09522-1.69629-.19434-.87012-.0996-2.26074-.25976a4.90352,4.90352,0,0,1-3.22119-1.09961A4.202,4.202,0,0,1,146.40928,98.74a.80077.80077,0,0,1-.19873-.57129,1.09489,1.09489,0,0,0-.14257-.29.96318.96318,0,0,1-.14209-.29,4.8651,4.8651,0,0,1-.15332-.97558,5.60248,5.60248,0,0,1,.02148-.95606c-.02393-.30664-.03223-.61133-.02637-.916.0044-.30371-.00537-.6084-.02734-.916l.165-1.44141a6.03937,6.03937,0,0,1,.126-.71582,6.23607,6.23607,0,0,0,.12647-.71582l.80615-7.02734,1.66162-12.9541L150.0001,58.988q.37208-3.24316.70557-5.76172.33033-2.51514.76025-5.48047l.05127-.4502q.1985-.98144.34278-1.833c.09375-.56641.17676-1.15039.2456-1.751a8.629,8.629,0,0,1,1.35889-3.4043,8.43043,8.43043,0,0,1,.8833-1.17675,3.03921,3.03921,0,0,1,1.19092-.7754,5.06638,5.06638,0,0,1,2.78857-.502,4.49773,4.49773,0,0,1,1.03369.21l.01026-.09082q1.56446.18018,2.52148.28906.95655.10987,1.86914.21485c.60938.06933,1.26319.13086,1.96192.17871q1.0481.07617,2.87549.28418,3.48631.31054,6.61962.668,3.13038.36035,6.42334.82812l.34864.04q.94629.20068,1.98974.31934c.69532.08008,1.35645.1875,1.98975.32031a8.37621,8.37621,0,0,1,1.88721.44434,15.90383,15.90383,0,0,1,1.84472.80468,5.24638,5.24638,0,0,1,2.25977,1.81153,4.77779,4.77779,0,0,1,.49414,2.6123c-.0415.36035-.08106.707-.11914,1.03613a2.595,2.595,0,0,1-.2832.92579,3.32248,3.32248,0,0,1-1.25977,1.77246,7.01988,7.01988,0,0,0-.791.36523,3.76959,3.76959,0,0,1-.96484.34668,4.39793,4.39793,0,0,1-1.11279.09961c-.38135-.01172-.74805-.00781-1.10254.01074a5.09915,5.09915,0,0,1-1.28125.03614q-.56689-.06593-1.26074-.14454l-3.91309-.44921-17.40186-1.90528Z" transform="translate(-0.00001 -0.00003)"/><path class="cls-3" d="M246.3878,105.82593q-.2124,1.06933-.52051,2.22265a8.537,8.537,0,0,1-.85547,2.0918,3.82386,3.82386,0,0,1-1.31738,1.49219,3.59638,3.59638,0,0,1-2.374.73144,4.63954,4.63954,0,0,1-2.37891.001,7.805,7.805,0,0,1-2.01465-.87012,5.05991,5.05991,0,0,1-1.55957-2.1416,9.5944,9.5944,0,0,1-.55371-2.48242,13.0356,13.0356,0,0,1,.03906-2.64258q.15528-1.35059.28907-2.52246l.80566-7.02734,1.49512-13.79493q.16553-1.43994.25879-2.25195.09375-.81151.17089-1.48633c.05176-.45117.09375-.96289.13184-1.53711q.05274-.85986.24024-2.48339c.0205-.17969.07031-.49317.15234-.94043q.12012-.67091.28711-3.66407-4.06349,5.46974-6.68848,8.77246a65.04346,65.04346,0,0,1-4.36914,5.06641,10.97471,10.97471,0,0,1-2.95215,2.30859,5.31615,5.31615,0,0,1-2.43652.4961,2.31714,2.31714,0,0,1-1.35938-.42969,7.55648,7.55648,0,0,1-1.24462-1.05566,14.61926,14.61926,0,0,1-1.08838-1.26563,7.32781,7.32781,0,0,1-.78418-1.23144q-1.77686-2.93994-3.95118-7.02442a84.55977,84.55977,0,0,1-4.3374-9.80859q-.01025.09083-.38525,2.96875-.37573,2.87841-.86524,7.15723-.49071,4.28027-1.09716,9.18457-.60718,4.90575-1.13575,9.13476-.531,4.23046-.94189,7.05762a17.82956,17.82956,0,0,1-.49951,2.81836,6.04748,6.04748,0,0,1-3.13379,4.66113,5.29608,5.29608,0,0,1-2.8418.58691,6.437,6.437,0,0,1-3.28808-1.29,4.40731,4.40731,0,0,1-1.4585-2.26758,10.70626,10.70626,0,0,1-.4502-2.60645q.05713-1.27148.14942-2.44824.08862-1.1748.23486-2.4375l.894-7.0166,1.67725-13.86524,1.38477-12.07324q.89942-7.83837,2.28857-15.34668a7.51992,7.51992,0,0,1,.42969-1.82226,11.207,11.207,0,0,1,.75683-1.60157,5.148,5.148,0,0,1,2.07422-1.95312,5.21273,5.21273,0,0,1,2.875-.49121c.40625.0459.79492.10644,1.16846.17969q.56031.11132,1.07275.25976a4.96115,4.96115,0,0,1,2.75684,2.46094,35.90894,35.90894,0,0,0,2.04541,3.293,21.16426,21.16426,0,0,1,1.25049,2.15136q.64746,1.2627,1.28613,2.61231.63867,1.35206,1.20068,2.60254c.37208.834.7002,1.57226.978,2.21094q1.82667,4.043,3.24805,7.40136,1.41944,3.35889,2.729,5.79a6.55668,6.55668,0,0,0,.6958-.69629q.40284-.4541.86328-.99609c.30567-.36035.57911-.709.8252-1.0459.24414-.33789.4375-.61914.58105-.84668q1.03419-1.34033,2.06543-2.63867,1.02686-1.29639,2.21094-2.75879Q232.295,61.217,233.60167,59.448q1.30224-1.76661,3.06054-4.03028.73244-1.01073,1.86524-2.43359a26.00276,26.00276,0,0,1,2.51465-2.72363,16.85212,16.85212,0,0,1,2.84961-2.18262,4.50252,4.50252,0,0,1,2.85937-.72266q.69433.08058,1.21094.18555.51709.10547,1.02832.25391a3.36859,3.36859,0,0,1,1.88574,1.2207,5.13417,5.13417,0,0,1,.86817,1.65137,11.75926,11.75926,0,0,1,.208,2.03222q.01319.64161-.0039,1.18555-.019.54639-.08106,1.08692-.57861,5.04637-1.05957,10.01074-.48193,4.96581-1.05957,10.01074-.70312,6.12744-1.4043,12.61816-.70019,6.49073-1.40332,12.61817-.145,1.26269-.22168,2.71289A24.63678,24.63678,0,0,1,246.3878,105.82593Z" transform="translate(-0.00001 -0.00003)"/><path class="cls-3" d="M270.67589,61.5105,268.88,75.6355l3.47754.39844q3.57568.32079,6.35839.63867,2.78175.31786,6.16407.79785l.43457.0498q1.04444.12012,2.03906.2793.99317.16113,1.9502.26953a14.25669,14.25669,0,0,1,1.96484.54492c.62109.22364,1.2373.46094,1.85644.71485a5.93025,5.93025,0,0,1,2.249,1.90136,4.31825,4.31825,0,0,1,.57031,2.7129c-.03516.30078-.07422.6455-.11914,1.03515a2.86956,2.86956,0,0,1-.294,1.01563,3.08412,3.08412,0,0,1-1.33593,1.67285,2.62794,2.62794,0,0,1-1.75586.71191,10.04287,10.04287,0,0,1-2.3125.19043,11.31592,11.31592,0,0,1-2.4668-.00879l-4.08594-.46875-16.09765-1.75488-2.19922,17.63867,17.2832,2.165,4.08692.46875q.69434.08057,1.30371.14941a6.7637,6.7637,0,0,1,1.12109.22071,7.43763,7.43763,0,0,0,1.23438.36914,4.48362,4.48362,0,0,1,1.06152.34961,5.05191,5.05191,0,0,1,1.626,1.19043,4.36392,4.36392,0,0,1,.91308,2.02246q.03369.46143.02246.96094a6.86088,6.86088,0,0,1-1.33105,3.54394,4.68431,4.68431,0,0,1-2.62207,1.34277,9.81927,9.81927,0,0,1-4.09278.35157q-.9668-.0205-2.01074-.13965-1.04444-.11865-2.00976-.13867l-.52149-.05957q-6.8042-.59913-14.08789-1.61621-1.74024-.19923-2.77734-.36426c-.69141-.11035-1.31446-.19629-1.86524-.25977q-.82764-.09521-1.69531-.19433-.87012-.09961-2.26074-.25879a4.91149,4.91149,0,0,1-3.22168-1.10059,4.19866,4.19866,0,0,1-1.28223-1.88086.78919.78919,0,0,1-.19824-.57031,1.09262,1.09262,0,0,0-.14356-.29.99419.99419,0,0,1-.14257-.291,4.88882,4.88882,0,0,1-.15235-.97558,5.49208,5.49208,0,0,1,.02149-.95508c-.02442-.30762-.03321-.6123-.02735-.917.00489-.30274-.00488-.6084-.02734-.916l.165-1.4414a5.84739,5.84739,0,0,1,.12695-.71582,6.37089,6.37089,0,0,0,.127-.71485l.80566-7.02832,1.66211-12.9541,1.374-11.98242q.37207-3.24317.7041-5.76074.33252-2.51661.76075-5.48145l.05175-.45019q.19923-.98.34375-1.832.13917-.85107.24414-1.752a8.64671,8.64671,0,0,1,1.36036-3.4043A8.35339,8.35339,0,0,1,262.09,51.488a3.04465,3.04465,0,0,1,1.1914-.77539,5.06211,5.06211,0,0,1,2.78711-.502,4.475,4.475,0,0,1,1.03321.21l.01074-.09082q1.56445.18018,2.52246.28907.95508.10986,1.86914.21484.91407.10547,1.96191.17871,1.04883.07617,2.876.28418,3.48486.31055,6.61817.669,3.13037.35887,6.4248.82714l.34766.04q.94482.20069,1.98925.32032c.69629.0791,1.35743.18652,1.99024.31933a8.45207,8.45207,0,0,1,1.88769.44434,16.14692,16.14692,0,0,1,1.84473.80469,5.24342,5.24342,0,0,1,2.25977,1.81152,4.78664,4.78664,0,0,1,.49414,2.6123c-.041.36036-.08106.707-.11914,1.03614a2.61464,2.61464,0,0,1-.28321.92578,3.33312,3.33312,0,0,1-1.25976,1.77246,6.99767,6.99767,0,0,0-.791.36621,3.83373,3.83373,0,0,1-.96484.3457,4.4418,4.4418,0,0,1-1.11231.10059c-.38183-.0127-.748-.00879-1.10351.01074a5.13443,5.13443,0,0,1-1.28028.03516q-.56835-.06445-1.26171-.14453l-3.91211-.44922L270.70714,61.24Z" transform="translate(-0.00001 -0.00003)"/><path class="cls-3" d="M348.47764,97.5437a15.30648,15.30648,0,0,1,.32715,2.91309,23.79478,23.79478,0,0,1-.7334,6.39648,19.06395,19.06395,0,0,1-.88086,2.6836,16.23414,16.23414,0,0,1-6.53125,7.78613,26.75618,26.75618,0,0,1-10.08593,3.81738,31.14376,31.14376,0,0,1-11.168-.18555,24.20624,24.20624,0,0,1-9.79-4.13476,18.501,18.501,0,0,1-4.32715-4.5127,24.26719,24.26719,0,0,1-2.792-5.61425,6.25008,6.25008,0,0,1-.38867-2.373,6.694,6.694,0,0,1,.50683-2.49707,5.94793,5.94793,0,0,1,1.37793-2.03321,4.065,4.065,0,0,1,2.32422-1.05664,9.82305,9.82305,0,0,1,1.97754.044,7.369,7.369,0,0,1,2.09375.55957,5.91689,5.91689,0,0,1,1.80078,1.21094,4.76228,4.76228,0,0,1,1.17871,2.00586,11.727,11.727,0,0,0,2.34082,3.7832,17.32969,17.32969,0,0,0,3.48828,3.002,14.83119,14.83119,0,0,0,5.69043,1.47364,13.94255,13.94255,0,0,0,5.459-.74317,10.35824,10.35824,0,0,0,4.23633-2.75488,7.71607,7.71607,0,0,0,2.01074-4.46973,9.024,9.024,0,0,0-.2002-3.62793,6.56638,6.56638,0,0,0-1.42676-2.53808,9.5992,9.5992,0,0,0-2.42871-1.876,23.93516,23.93516,0,0,0-3.22363-1.46484,33.87706,33.87706,0,0,0-4.14551-1.11426q-2.1123-.42334-4.25293-.94434-2.14307-.51855-4.17871-1.209a20.51536,20.51536,0,0,1-3.93066-1.82031,12.71338,12.71338,0,0,1-5.48828-5.92383,18.1703,18.1703,0,0,1-1.61133-7.85254,19.83417,19.83417,0,0,1,1.83789-7.958,17.26169,17.26169,0,0,1,4.96582-6.415,16.28158,16.28158,0,0,1,7.08105-2.97558,35.75007,35.75007,0,0,1,8.71485-.32325,39.03816,39.03816,0,0,1,5.24121.78321,35.68007,35.68007,0,0,1,5.02637,1.48925,26.51092,26.51092,0,0,1,4.42285,2.1504A15.966,15.966,0,0,1,346.42393,63.99a13.63762,13.63762,0,0,1,1.98633,2.64746,12.08217,12.08217,0,0,1,1.37793,3.35352,6.62254,6.62254,0,0,1,.02441,3.24316,3.806,3.806,0,0,1-2.168,2.39844,4.10336,4.10336,0,0,1-2.74122.46094,5.852,5.852,0,0,1-2.29882-1.085,15.57632,15.57632,0,0,1-1.99317-1.82617q-.94042-1.01952-1.72656-1.84082A13.42285,13.42285,0,0,0,333.337,68.24a22.23294,22.23294,0,0,0-6.49024-1.01758,16.63828,16.63828,0,0,0-3.66894.49121,8.76335,8.76335,0,0,0-3.02246,1.3877,7.39569,7.39569,0,0,0-3.01758,5.95312,4.43268,4.43268,0,0,0,.54785,2.52735,5.99074,5.99074,0,0,0,1.63965,1.83105,10.11633,10.11633,0,0,0,2.27734,1.26563,20.27746,20.27746,0,0,0,2.54688.83984q3.8496.98877,7.7334,1.708a24.71673,24.71673,0,0,1,7.44629,2.67969,19.98787,19.98787,0,0,1,6.04589,4.89257A14.69017,14.69017,0,0,1,348.47764,97.5437Z" transform="translate(-0.00001 -0.00003)"/></svg>