<svg xmlns="http://www.w3.org/2000/svg" xmlns:xlink="http://www.w3.org/1999/xlink" width="463.60007" height="155.86403" viewBox="0 0 463.60007 155.86403"><defs><style>.cls-1{fill:none;}.cls-2{clip-path:url(#clip-path);}.cls-3{fill:#eca442;}.cls-4{fill:#a67c52;}.cls-5{fill:#597718;}</style><clipPath id="clip-path" transform="translate(-1.05888 -0.6561)"><rect class="cls-1" x="178.41653" y="-147.5866" width="108.481" height="455.806" transform="translate(125.88927 302.08353) rotate(-83.33731)"/></clipPath></defs><g id="Layer_2" data-name="Layer 2"><g id="Layer_1-2" data-name="Layer 1"><g id="Tutorial"><g class="cls-2"><g class="cls-2"><rect class="cls-3" x="183.35931" y="-146.3148" width="99" height="449.806" rx="3" transform="translate(126.72572 300.10066) rotate(-83.33731)"/><path class="cls-4" d="M447.86816,150.52017,7.05944,99.028,17.84967,6.65612,458.65839,58.14826Zm11.48637-98.33139L18.54582.69664A5.99878,5.99878,0,0,0,11.89019,5.96L1.1,98.3319a6.00027,6.00027,0,0,0,5.26333,6.65562L447.172,156.47965a6.00225,6.00225,0,0,0,6.65562-5.26333L464.61787,58.8444a6.00028,6.00028,0,0,0-5.26334-6.65562" transform="translate(-1.05888 -0.6561)"/><path class="cls-5" d="M91.70459,34.55273a3.86758,3.86758,0,0,1,.66016,2.543q-.063.54052-.17432,1.12012a9.60278,9.60278,0,0,1-.25,1.02051,4.37161,4.37161,0,0,1-1.3374,1.76172,4.73369,4.73369,0,0,1-1.98389.58984,8.5306,8.5306,0,0,1-1.23437.12988,12.77027,12.77027,0,0,0-1.32032.11914,8.08106,8.08106,0,0,1-1.2124-.0498q-.60132-.07032-1.28857-.15039L79.18359,41.125q-1.55785-.09082-3.06-.26562-1.50368-.17579-2.9629-.34668-.24169,2.80224-.61376,6-.37355,3.19775-.91163,7.42578-.53758,4.23046-1.23242,9.80859-.69581,5.5796-1.55762,12.96582l-.7998,6.8457a7.83782,7.83782,0,0,0-.07227,1.36133q-.04174.36036-.07861.67578a4.35651,4.35651,0,0,1-.17529.75489,14.77858,14.77858,0,0,0-.479,1.8623,4.15373,4.15373,0,0,1-.186.84473,5.89679,5.89679,0,0,1-.35742.82617c-.25782.21387-.39258.37988-.40625.5l-.3208.51074a4.57157,4.57157,0,0,1-1.832,1.52051,5.9355,5.9355,0,0,1-4.26124-.041,4.34157,4.34157,0,0,1-2.13818-1.07226,5.49748,5.49748,0,0,1-.92724-1.751,5.20335,5.20335,0,0,1-.38038-1.96191,5.64,5.64,0,0,1-.05761-1.74121l5.4082-46.29883q-.51562-.06006-2.14746-.251-1.63183-.19042-3.47266-.45117-1.8435-.26075-3.46338-.542-1.62157-.27833-2.21191-.44043-.50537-.14941-1.55713-.45606-1.054-.30468-1.71875-.56543a5.97746,5.97746,0,0,1-2.63428-2.043,4.07585,4.07585,0,0,1-.63964-2.72265q.063-.54053.12646-1.08106a2.75969,2.75969,0,0,1,.28711-.9707,2.97656,2.97656,0,0,1,1.585-1.64062,8.51419,8.51419,0,0,1,1.15186-.55079,6.27476,6.27476,0,0,1,1.48632-.41992,12.50033,12.50033,0,0,1,2.63965-.23926,10.91214,10.91214,0,0,1,1.38477.07032q.68555.08057,1.46.1709,3.00587.35156,5.71191.667,2.70557.31641,5.72168.57715,4.99073.49365,9.92578,1.11425,4.9314.624,9.80762,1.374,1.10449.22119,2.11524.52051a9.1552,9.1552,0,0,1,1.98828.87109,8.33114,8.33114,0,0,1,1.38086.84668A3.49669,3.49669,0,0,1,91.70459,34.55273Z" transform="translate(-1.05888 -0.6561)"/><path class="cls-5" d="M146.16211,43.10547a99.3698,99.3698,0,0,1-.57227,10.11328q-.583,5.73193-1.47558,11.51465-.89429,5.78466-2.09961,10.89355a59.17928,59.17928,0,0,1-2.43311,8.16211q-.82324,1.82081-1.875,3.752a28.53165,28.53165,0,0,1-2.187,3.44336,17.94519,17.94519,0,0,1-3.84912,3.88671,21.87429,21.87429,0,0,1-4.70605,2.64649A23.18494,23.18494,0,0,1,116.45557,99.166a21.49607,21.49607,0,0,1-8.46924-2.40528,21.83011,21.83011,0,0,1-6.93067-5.876,23.37082,23.37082,0,0,1-3.4707-6.06739,30.0061,30.0061,0,0,1-1.67334-6.541,35.51617,35.51617,0,0,1-.2793-6.92578q.19557-3.5376.62647-7.23047.19995-1.71095.457-4.28418.25562-2.57227.57813-5.31934.32153-2.74657.62646-5.35937.3047-2.61181.60059-4.4043.13695-1.169.30029-2.56641.1626-1.396.45557-2.77734a16.65407,16.65407,0,0,1,.78759-2.64746,8.40776,8.40776,0,0,1,1.30957-2.26563,4.48175,4.48175,0,0,1,2.34717-1.46093,7.82657,7.82657,0,0,1,2.94043-.20508,6.89684,6.89684,0,0,1,2.80371.9668,5.68224,5.68224,0,0,1,2.02246,2.0625,5.24257,5.24257,0,0,1,.43262,1.51171,12.14054,12.14054,0,0,1,.06836,1.65137q-.17652,2.99268-.57422,6.78027-.3999,3.78809-.85742,7.34082-.4607,3.55518-.89209,6.51563-.43359,2.96339-.60108,4.4043a84.31487,84.31487,0,0,0-.626,9.833,16.72835,16.72835,0,0,0,1.55713,7.53223,7.67741,7.67741,0,0,0,3.64795,3.80371,11.178,11.178,0,0,0,4.585.99219,10.58087,10.58087,0,0,0,4.53222-1.16016,9.66788,9.66788,0,0,0,3.957-3.6914,11.35744,11.35744,0,0,0,1.12158-2.15137,22.74637,22.74637,0,0,0,.78906-2.28223q.74194-3.38085,1.53271-7.90136.7881-4.51613,1.51856-9.27247.728-4.75194,1.26611-9.34765.53613-4.59375.88184-8.29688a7.56174,7.56174,0,0,1,1.292-2.8623,6.72823,6.72823,0,0,1,2.21777-1.84082,6.10207,6.10207,0,0,1,3.626-.48926,5.149,5.149,0,0,1,2.81006,1.28711,8.45122,8.45122,0,0,1,1.58789,2.05664A8.14346,8.14346,0,0,1,146.16211,43.10547Z" transform="translate(-1.05888 -0.6561)"/><path class="cls-5" d="M201.38184,47.36426a3.86815,3.86815,0,0,1,.66064,2.543c-.042.36035-.10107.73437-.17432,1.12011a9.42219,9.42219,0,0,1-.25048,1.02051,4.36582,4.36582,0,0,1-1.33692,1.76172,4.73588,4.73588,0,0,1-1.98437.58984,8.52542,8.52542,0,0,1-1.23389.12989,12.76757,12.76757,0,0,0-1.32031.11914,8.081,8.081,0,0,1-1.2124-.04981q-.60205-.0703-1.28858-.15039l-4.37988-.51172q-1.55787-.08935-3.06006-.26562-1.50366-.17579-2.96338-.34668-.241,2.80371-.61377,6-.37353,3.19922-.91113,7.42578-.53834,4.23047-1.23242,9.80859-.69654,5.58107-1.55762,12.9668l-.79981,6.84473a7.7958,7.7958,0,0,0-.07226,1.36133q-.04248.36035-.0791.67578a4.306,4.306,0,0,1-.17481.75488,14.737,14.737,0,0,0-.479,1.8623,4.1541,4.1541,0,0,1-.186.84473,5.95275,5.95275,0,0,1-.35742.82617c-.25781.21387-.39258.38086-.40625.501l-.32129.50976a4.56615,4.56615,0,0,1-1.83154,1.52051,5.93552,5.93552,0,0,1-4.26123-.041,4.347,4.347,0,0,1-2.13818-1.07129,5.52373,5.52373,0,0,1-.92774-1.752,5.21193,5.21193,0,0,1-.37988-1.96191,5.63979,5.63979,0,0,1-.05811-1.74121l5.40821-46.29883q-.5149-.06006-2.147-.251-1.63257-.19044-3.47265-.45118-1.84351-.26073-3.46338-.542-1.62231-.27833-2.21192-.44043-.50536-.14942-1.55761-.45508-1.05323-.30615-1.71826-.5664a5.97058,5.97058,0,0,1-2.63428-2.043,4.07632,4.07632,0,0,1-.64014-2.72266q.06372-.54052.12647-1.081a2.75479,2.75479,0,0,1,.28759-.96973,2.97351,2.97351,0,0,1,1.585-1.6416,8.53558,8.53558,0,0,1,1.15186-.54981,6.23674,6.23674,0,0,1,1.48584-.42089,12.50538,12.50538,0,0,1,2.63965-.23926,10.91507,10.91507,0,0,1,1.38525.07031q.68554.08056,1.46.1709,3.00587.35156,5.71094.667,2.70557.31641,5.72266.57715,4.99072.49365,9.92578,1.11426,4.9314.624,9.80762,1.374c.73584.14746,1.44238.32129,2.11523.52051a9.16534,9.16534,0,0,1,1.98828.87109,8.39706,8.39706,0,0,1,1.38086.84668A3.50076,3.50076,0,0,1,201.38184,47.36426Z" transform="translate(-1.05888 -0.6561)"/><path class="cls-5" d="M219.40527,48.83105a25.09962,25.09962,0,0,1,10.667-.76269,18.21663,18.21663,0,0,1,8.08447,3.45508,20.91778,20.91778,0,0,1,5.62353,6.63769,34.01052,34.01052,0,0,1,3.28321,8.78321,41.824,41.824,0,0,1,1.13427,7.43652A52.51705,52.51705,0,0,1,247.02,89.30859a41.17825,41.17825,0,0,1-2.02441,6.52051,28.98693,28.98693,0,0,1-1.64454,3.64258,31.29085,31.29085,0,0,1-2.03125,3.23144,19.04018,19.04018,0,0,1-6.27636,5.65918,21.55079,21.55079,0,0,1-7.82959,2.55469,21.05172,21.05172,0,0,1-5.74756.0127,23.49633,23.49633,0,0,1-10.85059-4.3711,20.72153,20.72153,0,0,1-4.33008-4.29589,23.33339,23.33339,0,0,1-3.64892-6.77149,37.38431,37.38431,0,0,1-1.78906-7.78711,46.58511,46.58511,0,0,1-.28174-8.02148,55.97018,55.97018,0,0,1,.88379-7.56641,40.88711,40.88711,0,0,1,2.07666-6.9707,33.07206,33.07206,0,0,1,3.72949-6.96,29.34379,29.34379,0,0,1,5.33643-5.81348A17.8315,17.8315,0,0,1,219.40527,48.83105Zm15.59424,40.89942a35.80482,35.80482,0,0,0,1.97412-9.44824,37.80537,37.80537,0,0,0-.46386-10.1875,22.34138,22.34138,0,0,0-1.76709-5.36621A10.54643,10.54643,0,0,0,231.7876,60.959,8.59467,8.59467,0,0,0,227.415,59.2627a12.9549,12.9549,0,0,0-5.94385.94824,9.91057,9.91057,0,0,0-3.53711,2.32617,14.84586,14.84586,0,0,0-2.59912,3.62305,28.99774,28.99774,0,0,0-1.81445,4.35254,28.64921,28.64921,0,0,0-1.08447,4.43847,46.05878,46.05878,0,0,0-.65918,4.89942,34.837,34.837,0,0,0-.04151,5.19921,28.80594,28.80594,0,0,0,.76319,5.02051,14.58521,14.58521,0,0,0,1.84033,4.36817,11.79366,11.79366,0,0,0,4.75927,4.34472,10.17423,10.17423,0,0,0,5.8462,1.00293q4.85008-.52881,7.98291-5.73242A17.25573,17.25573,0,0,0,234.99951,89.73047Z" transform="translate(-1.05888 -0.6561)"/><path class="cls-5" d="M296.15479,116.23047a4.30275,4.30275,0,0,1-.37208,1.69141,2.65749,2.65749,0,0,1-.57714.8457,5.9163,5.9163,0,0,1-.81446.63574,9.64235,9.64235,0,0,1-2.00586.76953q-.709.09962-1.36767.16016a2.88269,2.88269,0,0,1-1.32617-.20117,3.75754,3.75754,0,0,1-2.27832-1.36133,12.06074,12.06074,0,0,1-2.07911-3.07324q-.34643-.77052-.75537-1.73145a18.88282,18.88282,0,0,1-.72314-2.00293L276.541,91.84375q-.68775-.07909-1.37891-.11523-.6936-.0337-1.39014-.0254a21.72027,21.72027,0,0,1-3.40283-.30664,31.04634,31.04634,0,0,0-3.30664-.38574l-1.63184-.19043L263.52588,107.124q-.08422.72217-.20068,1.34571c-.07862.417-.14454.86621-.20069,1.34668q-.05273.45117-.18017,1.165-.12744.71777-.28663,1.33593a6.19353,6.19353,0,0,1-1.00927,1.93653,5.53565,5.53565,0,0,1-1.8374,1.5664,5.68178,5.68178,0,0,1-4.45362.11914,7.49071,7.49071,0,0,1-2.042-1.15234,2.67273,2.67273,0,0,1-.52246-.74609,4.68793,4.68793,0,0,1-.32959-.90528,8.95673,8.95673,0,0,1-.18994-.98047,9.26319,9.26319,0,0,0-.19043-.98144,6.29178,6.29178,0,0,1-.05762-1.74121L258.002,58.26953c.04248-.36035.09912-.73242.17432-1.12109a9.10433,9.10433,0,0,1,.24951-1.02051,5.2876,5.2876,0,0,1,.8335-1.91113,2.59491,2.59491,0,0,1,1.0376-1.43067,4.26915,4.26915,0,0,1,1.69921-.76074,8.35468,8.35468,0,0,1,3.17139.05078q3.85473.542,7.63379.9834,3.77856.44093,7.5376,1.0625,2.469.47314,5.21338,1.20313a21.98768,21.98768,0,0,1,5.0332,2.00292q1.47216.81153,2.687,1.5918a15.44042,15.44042,0,0,1,2.355,2.19336,18.82811,18.82811,0,0,1,3.74268,7.4668A22.9914,22.9914,0,0,1,299.958,76.958a18.57415,18.57415,0,0,1-3.23145,8.66113,13.51216,13.51216,0,0,1-7.70508,5.21777.79152.79152,0,0,1-.49853.16993,1.55085,1.55085,0,0,0-.48779.08007l5.95556,17.58692.60449,1.53125q.12817.38085.33448.86035a6.71733,6.71733,0,0,1,.32422.95117,7.94684,7.94684,0,0,1,.35644,1.0459,7.58088,7.58088,0,0,0,.35694,1.0459C296.04053,114.9707,296.10205,115.67676,296.15479,116.23047ZM278.42822,81.65625a7.73593,7.73593,0,0,0,3.03125-.23926,9.591,9.591,0,0,0,2.76123-1.27637,9.15016,9.15016,0,0,0,2.20118-2.07031,6.21027,6.21027,0,0,0,1.18945-2.7373q.86939-4.46338-1.44873-6.97168a10.90437,10.90437,0,0,0-6.50684-3.17969q-2.47119-.47022-5.43262-.81641-2.96264-.34716-5.62548-.65722-.34717,3.70313-.83545,7.52539-.49219,3.8247-1.10059,9.04785Z" transform="translate(-1.05888 -0.6561)"/><path class="cls-5" d="M306.42529,111.76953l.917-7.10644,1.63232-13.23047q.42114-2.87256.78027-5.93457.35742-3.06153.73633-6.30567.37866-3.24316.67334-5.76465.29443-2.521.835-5.65429l.042-.36035q.18971-.88917.34473-1.832.15307-.94043.26856-1.93164a9.893,9.893,0,0,1,1.35546-3.40234,5.84206,5.84206,0,0,1,2.05664-1.95117,5.75817,5.75817,0,0,1,2.7461-.40918c.458.05273.87109.11719,1.24023.19043q.553.11133,1.05811.26074a3.47839,3.47839,0,0,1,1.84912,1.31152,4.06442,4.06442,0,0,1,.77637,1.55176c.07226.373.13232.73145.17968,1.07031q.07106.51123.09375,1.06055.01026.64161-.00781,1.18652-.0205.54639-.083,1.08594-.074.63135-.1748,1.1211-.1018.49071-.16406,1.03027l-.17871,1.53125-5.97657,46.68945-.105.90039c-.02148.18067-.062.40332-.12158.66993q-.09228.40135-.23975.93164a8.83506,8.83506,0,0,0-.41113.91113q-.18676.48046-.42139,1a8.47665,8.47665,0,0,1-.65869.79,4.60922,4.60922,0,0,1-.81884.68164,3.99416,3.99416,0,0,1-2.34864.72949,6.49758,6.49758,0,0,1-4.32812-.96191,3.98657,3.98657,0,0,1-1.25-1.97266.79856.79856,0,0,1-.19385-.57031,1.14586,1.14586,0,0,0-.14062-.29,1.03477,1.03477,0,0,1-.14063-.291,4.95982,4.95982,0,0,1-.147-.97461,6.08251,6.08251,0,0,1,.03515-1.04687c-.02246-.30664-.03027-.61133-.02343-.916q.00805-.45409-.02344-.915a6.85581,6.85581,0,0,1,.17871-1.53125Z" transform="translate(-1.05888 -0.6561)"/><path class="cls-5" d="M380.4043,123.88086q.02124.55079.00732,1.05078-.01538.501-.08789,1.13086a3.532,3.532,0,0,1-.833,1.91211,3.76112,3.76112,0,0,1-1.897,1.33008,6.82176,6.82176,0,0,1-4.65723.36914,5.87494,5.87494,0,0,1-2.01025-1.42188,1.40512,1.40512,0,0,0-.231-.25586.46588.46588,0,0,1-.146-.24414,1.38754,1.38754,0,0,1-.14551-.24609.67273.67273,0,0,0-.23145-.25488,5.579,5.579,0,0,1-.58691-.93653q-.21021-.43506-.415-.915a8.10207,8.10207,0,0,0-.28711-.90136q-.16773-.43067-.37207-.91016-.1311-.3794-.26465-.7168a2.64288,2.64288,0,0,1-.1792-.70507,5.79294,5.79294,0,0,1-.26123-1.49122l-1.28808-4.625q-5.926-.69139-11.81446-1.334-5.88941-.64014-11.80468-1.4248l-2.31934,4.20312a2.32826,2.32826,0,0,0-.29883.69531,2.311,2.311,0,0,1-.29883.69532q-.21459.3413-.3789.64062c-.11084.20117-.23828.415-.37989.64063-.207.28125-.39892.54687-.57275.80078q-.2622.38085-.57178.80078a4.81015,4.81015,0,0,1-.52929.80469,5.74931,5.74931,0,0,1-.7876.77636.65582.65582,0,0,0-.28369.19434,1.55478,1.55478,0,0,1-.19824.20605.48689.48689,0,0,1-.19776.2041,1.29934,1.29934,0,0,0-.28418.19532,5.89433,5.89433,0,0,1-2.28418.91992,6.81824,6.81824,0,0,1-4.44678-1.43164,3.76264,3.76264,0,0,1-1.53906-1.73242,3.51122,3.51122,0,0,1-.36914-2.05176c.04883-.41992.106-.794.17383-1.12109q.10034-.48927.25049-1.02051a16.80242,16.80242,0,0,1,.61865-1.57227l.35254-.78027,23.252-44.03125.68311-1.38086a5.05709,5.05709,0,0,1,.54541-.94043,4.70186,4.70186,0,0,0,.55566-1.03027,13.7014,13.7014,0,0,1,1.187-1.96192,5.63082,5.63082,0,0,1,.71729-.9209c.26221-.27343.52685-.54589.792-.82031a3.73906,3.73906,0,0,1,1.59668-1.001,8.93776,8.93776,0,0,1,5.58252.65235,3.74821,3.74821,0,0,1,1.32373,1.34179q.50536.88038,1.06787,2.042a13.943,13.943,0,0,1,.70264,2.18261,4.61255,4.61255,0,0,0,.30273,1.13086,5.24207,5.24207,0,0,1,.314,1.041l.34668,1.501,12.478,48.20507.1626.84082Q380.32666,123.05128,380.4043,123.88086ZM362.62646,99.43457q-.81225-2.74218-1.645-5.6709-.83351-2.92529-1.78467-5.96c-.16651-.56738-.33106-1.14844-.49268-1.74707q-.2439-.895-.49267-1.74609-.35157.78075-.79541,1.5957c-.29639.54492-.59082,1.07227-.88184,1.58691q-1.62525,2.73193-3.11084,5.3877-1.48534,2.65869-2.90723,5.13965l-2.00879,3.78222,15.20215,1.77637Z" transform="translate(-1.05888 -0.6561)"/><path class="cls-5" d="M427.21094,128.61816a3.90206,3.90206,0,0,1,.01953,1.32618c-.06738.57128-.12109,1.03613-.16406,1.39648a3.58108,3.58108,0,0,1-.41407,1.32031,4.88459,4.88459,0,0,1-.82519,1.09082,4.64837,4.64837,0,0,1-2.42285,1.36035,11.80757,11.80757,0,0,1-3.94922.26954q-.95508-.022-1.98535-.14063a12.03543,12.03543,0,0,0-2.083-.06152l-.34375-.04q-6.624-.68262-13.65625-1.59473a33.976,33.976,0,0,0-3.86914-.40625,24.68631,24.68631,0,0,1-4.19824-.582,10.74887,10.74887,0,0,1-3.60938-1.51758,4.80844,4.80844,0,0,1-2.0415-3.02246,5.5792,5.5792,0,0,1-.15772-.88672,4.09442,4.09442,0,0,1,.01367-.86523,43.26921,43.26921,0,0,1,.44776-6.06543q.4314-2.96192.77-5.84375l1.69677-13.041,1.41016-12.07031q.37866-3.24316.7168-5.75976.33618-2.51661.78076-5.56934l.05273-.45117q.18971-.88917.33936-1.78614.14721-.895.25342-1.79687a9.01166,9.01166,0,0,1,1.355-3.40234,4.36772,4.36772,0,0,1,2.05664-1.95118,4.4407,4.4407,0,0,1,2.75635-.499q.60058.07032,1.15429.18066.55371.11133,1.0586.25977a3.0979,3.0979,0,0,1,.94531.47559,6.44347,6.44347,0,0,1,.9043.83593,7.74864,7.74864,0,0,1,.76562,1.64161,8.34828,8.34828,0,0,1,.19727,2.03222q.01172.64014.03515,1.19141a6.99514,6.99514,0,0,1-.041,1.09082,3.54731,3.54731,0,0,0-.29688,1.06055c-.043.36035-.08105.6914-.11621.99121l-.18945,1.62109L399.27734,121.794l16.98438,2.167,4.03711.47168c.34375.04.71484.09961,1.1123.17578.39551.07715.792.16894,1.18653.27539q.67528.17139,1.18164.32031a6.70845,6.70845,0,0,1,.999.39063,3.39766,3.39766,0,0,1,1.44043,1.08105A4.19032,4.19032,0,0,1,427.21094,128.61816Z" transform="translate(-1.05888 -0.6561)"/></g></g></g></g></g></svg>