<svg id="Layer_1" data-name="Layer 1" xmlns="http://www.w3.org/2000/svg" width="399.45574" height="147.61765" viewBox="0 0 399.45574 147.61765"><defs><style>.cls-1{fill:#eca442;}.cls-2{fill:#a67c52;}.cls-3{fill:#597718;}</style></defs><path class="cls-1" d="M382.8585,144.61792a3.09946,3.09946,0,0,1-.34179-.01953L5.65831,101.37573a2.9995,2.9995,0,0,1-2.63867-3.32226L13.61632,5.65894a2.99921,2.99921,0,0,1,2.98046-2.65821,3.093,3.093,0,0,1,.3418.01953L393.797,46.24292a2.99952,2.99952,0,0,1,2.63867,3.32227L385.839,141.95972a2.99833,2.99833,0,0,1-2.98047,2.6582Z" transform="translate(-0.00001 -0.00003)"/><path class="cls-2" d="M16.597,6.00061,393.45518,49.2233l-10.59686,92.39431L6,98.39493,16.597,6.00061M16.58957,0A6.00081,6.00081,0,0,0,10.636,5.31693L.03911,97.71124a6.0001,6.0001,0,0,0,5.27725,6.64463L382.1746,147.57855a6.0001,6.0001,0,0,0,6.64466-5.27728L399.41612,49.907a6.00006,6.00006,0,0,0-5.27728-6.64462L17.28068.03967A6.069,6.069,0,0,0,16.58957,0Z" transform="translate(-0.00001 -0.00003)"/><path class="cls-3" d="M81.66905,78.40894a6.31056,6.31056,0,0,1-.498,5.10058,13.13028,13.13028,0,0,1-3.80713,4.17285A24.44467,24.44467,0,0,1,71.80626,90.696,23.99827,23.99827,0,0,1,66.068,92.22827a26.27657,26.27657,0,0,1-6.07715-.10351,28.75585,28.75585,0,0,1-6.21826-1.53418,29.21977,29.21977,0,0,1-5.88038-2.957,26.59092,26.59092,0,0,1-5.07275-4.27832,18.4706,18.4706,0,0,1-3.99365-6.80273A33.19947,33.19947,0,0,1,37.256,68.47632a47.98687,47.98687,0,0,1,.1333-8.42774q.43653-4.19383,1.1211-7.85839a35.156,35.156,0,0,1,2.09277-6.78907,36.24925,36.24925,0,0,1,3.7085-6.74023,33.7087,33.7087,0,0,1,5.23388-5.92578,25.34334,25.34334,0,0,1,6.76124-4.33594,17.38141,17.38141,0,0,1,6.26318-1.51855,25.47419,25.47419,0,0,1,6.77392.5039,23.48118,23.48118,0,0,1,6.31006,2.27539,16.08531,16.08531,0,0,1,4.854,3.8877,19.76285,19.76285,0,0,1,2.49267,3.8457A16.96579,16.96579,0,0,1,84.67882,42.241a7.35169,7.35169,0,0,1-.4585,4.375q-.87965,1.95263-3.81592,2.34668a4.21278,4.21278,0,0,1-2.17773-.11231,4.59365,4.59365,0,0,1-1.63575-1.00976,9.14268,9.14268,0,0,1-1.30957-1.56543q-.6013-.89062-1.11181-1.77051a10.58815,10.58815,0,0,0-4.4336-4.11426,10.85516,10.85516,0,0,0-5.43847-1.08008,11.7341,11.7341,0,0,0-5.37012,1.75782,12.29921,12.29921,0,0,0-4.21728,4.30859,35.09219,35.09219,0,0,0-2.9751,6.459,37.58981,37.58981,0,0,0-1.75537,7.28418A31.89838,31.89838,0,0,0,49.796,66.446a17.5252,17.5252,0,0,0,1.83789,6.50977,11.8488,11.8488,0,0,0,3.0127,3.90527A13.27514,13.27514,0,0,0,58.796,79.25366a12.528,12.528,0,0,0,4.69092.72168,13.63764,13.63764,0,0,0,4.812-1.0918,9.07425,9.07425,0,0,0,1.63282-.8623q.89794-.58155,1.84667-1.20312.94557-.62256,1.92627-1.14844a6.14085,6.14085,0,0,1,2.04981-.67774,5.18951,5.18951,0,0,1,3.40478.48243A4.81426,4.81426,0,0,1,81.66905,78.40894Z" transform="translate(-0.00001 -0.00003)"/><path class="cls-3" d="M132.5255,95.56128a4.29211,4.29211,0,0,1-.36915,1.69238,2.64852,2.64852,0,0,1-.5791.84571,5.9794,5.9794,0,0,1-.81689.63671,9.72025,9.72025,0,0,1-2.01611.77246q-.71338.10108-1.376.16114a2.92047,2.92047,0,0,1-1.33594-.19824,3.79371,3.79371,0,0,1-2.29687-1.3584,12.12957,12.12957,0,0,1-2.10059-3.07032q-.35084-.77051-.76514-1.73144a18.77141,18.77141,0,0,1-.73388-2.001L112.71934,71.199c-.46289-.05273-.92431-.08984-1.38867-.11328-.46631-.02246-.93164-.03027-1.39941-.02441a21.911,21.911,0,0,1-3.4253-.30078,31.21823,31.21823,0,0,0-3.33007-.38184l-1.64258-.18847L99.6627,86.4978q-.08276.72217-.19678,1.34668c-.07861.417-.144.86621-.19921,1.34668-.03467.30078-.09375.68848-.17725,1.166-.08447.47851-.18018.92285-.28467,1.33594a6.17725,6.17725,0,0,1-1.01074,1.93847A5.55646,5.55646,0,0,1,95.94884,95.2a5.74334,5.74334,0,0,1-4.48145.124,7.56225,7.56225,0,0,1-2.05811-1.14843,2.67378,2.67378,0,0,1-.52685-.74512,4.578,4.578,0,0,1-.33447-.90527,8.41255,8.41255,0,0,1-.19434-.98047,9.11584,9.11584,0,0,0-.19434-.98047,6.23654,6.23654,0,0,1-.063-1.74219l5.86962-51.1748q.06153-.54052.17188-1.1211a9.35173,9.35173,0,0,1,.249-1.02148,5.26413,5.26413,0,0,1,.83252-1.91211,2.59736,2.59736,0,0,1,1.04-1.43262,4.3196,4.3196,0,0,1,1.709-.76269,8.44269,8.44269,0,0,1,3.1914.04687q3.88038.53613,7.68506.97168,3.80419.43653,7.58887,1.05371,2.48364.46875,5.25,1.19531a22.25768,22.25768,0,0,1,5.07031,1.99708q1.48462.80859,2.709,1.58789a15.725,15.725,0,0,1,2.37646,2.18945,18.81348,18.81348,0,0,1,3.78662,7.46387,22.85359,22.85359,0,0,1,.61621,8.37695,18.4887,18.4887,0,0,1-3.227,8.667,13.57607,13.57607,0,0,1-7.73926,5.22754.79464.79464,0,0,1-.50244.1709,1.63269,1.63269,0,0,0-.49023.08008l6.04248,17.58105.61279,1.53028q.13183.38085.33984.86035a6.72238,6.72238,0,0,1,.32911.95019,7.94272,7.94272,0,0,1,.36181,1.0459,7.64459,7.64459,0,0,0,.36182,1.0459Q132.44615,94.7312,132.5255,95.56128ZM114.589,61.00757a7.811,7.811,0,0,0,3.04981-.24317,9.64688,9.64688,0,0,0,2.77441-1.28027,9.1277,9.1277,0,0,0,2.209-2.07422,6.17178,6.17178,0,0,0,1.19043-2.73828q.86133-4.46484-1.478-6.9707a11.01837,11.01837,0,0,0-6.55616-3.1709q-2.48876-.46582-5.4707-.80957-2.98242-.34131-5.66406-.64942-.33765,3.70459-.81885,7.52833-.48486,3.8247-1.08252,9.0498Z" transform="translate(-0.00001 -0.00003)"/><path class="cls-3" d="M156.99473,48.71069l-1.79541,14.125,3.459.39649q3.55371.31787,6.32178.63476,2.76563.31641,6.12939.793l.43262.04981q1.03564.11865,2.02588.27832.988.15966,1.94043.26855a14.18218,14.18218,0,0,1,1.95312.543q.92284.33545,1.84424.71387a5.88415,5.88415,0,0,1,2.23584,1.90039,4.32969,4.32969,0,0,1,.56494,2.71094q-.052.45117-.11914,1.03613a2.92241,2.92241,0,0,1-.2915,1.0166,3.094,3.094,0,0,1-1.33057,1.67285,2.60513,2.60513,0,0,1-1.74609.71192,9.94733,9.94733,0,0,1-2.29981.19336,11.18786,11.18786,0,0,1-2.45264-.00782l-4.06347-.46582L153.798,73.53687l-2.19971,17.63964,17.18555,2.15332,4.06445.4668q.69141.07911,1.29687.14844a6.69671,6.69671,0,0,1,1.11377.21875,7.24245,7.24245,0,0,0,1.227.36914,4.48414,4.48414,0,0,1,1.05518.34863,5.01874,5.01874,0,0,1,1.61572,1.18945,4.37714,4.37714,0,0,1,.90723,2.02149c.022.30859.02881.62793.02148.96094a4.27776,4.27776,0,0,1-.16308,1.03125,4.32626,4.32626,0,0,1-1.16358,2.51367,4.64959,4.64959,0,0,1-2.60693,1.34375,9.72,9.72,0,0,1-4.0708.35449c-.6416-.01367-1.30615-.05859-1.99854-.13769-.6914-.07911-1.35888-.126-1.99853-.1377l-.51953-.05957q-6.76466-.59472-14.00684-1.60645-1.73-.19922-2.76172-.36328-1.0327-.16405-1.854-.25781-.82178-.09375-1.68555-.19336-.86572-.0996-2.248-.25781a4.86812,4.86812,0,0,1-3.20362-1.09766,4.192,4.192,0,0,1-1.27344-1.87988.80163.80163,0,0,1-.19775-.57129,1.12987,1.12987,0,0,0-.14062-.29.95178.95178,0,0,1-.14209-.29,4.972,4.972,0,0,1-.15235-.97558,5.53506,5.53506,0,0,1,.023-.95508c-.02441-.30762-.03174-.61231-.02685-.917.00537-.30274-.0044-.60743-.02539-.915l.16552-1.44239a6.1712,6.1712,0,0,1,.12451-.71582,5.91975,5.91975,0,0,0,.12647-.71484L141.0919,83.49l1.66113-12.9541,1.374-11.98242q.37206-3.24316.70556-5.76075.3318-2.5166.75928-5.48144l.05176-.4502q.19848-.98.3418-1.832.14063-.85107.24511-1.75293a8.66034,8.66034,0,0,1,1.35352-3.40429,8.3825,8.3825,0,0,1,.87891-1.17676,3.02284,3.02284,0,0,1,1.18457-.77637,5.009,5.009,0,0,1,2.77343-.50391,4.50209,4.50209,0,0,1,1.02784.209l.01025-.09082q1.55566.17871,2.50683.28808.95068.1084,1.85938.2129c.60547.06933,1.25439.12988,1.95068.17871q1.04224.07323,2.8584.28222,3.4673.30762,6.58154.66407,3.1128.35595,6.38819.82324l.3457.04q.94043.19922,1.978.31738,1.03711.12012,1.979.31836a8.41622,8.41622,0,0,1,1.87647.44336,15.88229,15.88229,0,0,1,1.834.80371,5.22181,5.22181,0,0,1,2.24658,1.81055,4.81536,4.81536,0,0,1,.48877,2.61132q-.06225.54054-.11865,1.03614a2.64868,2.64868,0,0,1-.28174.92578,3.33877,3.33877,0,0,1-1.25488,1.77344,6.9487,6.9487,0,0,0-.78613.36621,3.81093,3.81093,0,0,1-.96.34668,4.35738,4.35738,0,0,1-1.10694.10156c-.37939-.0127-.74365-.00879-1.09619.01074a5.04224,5.04224,0,0,1-1.27392.03613q-.564-.06444-1.25489-.14453l-3.89062-.44531L157.0255,48.44019Z" transform="translate(-0.00001 -0.00003)"/><path class="cls-3" d="M236.17589,74.77026a49.27012,49.27012,0,0,1-.7461,6.12207q-.57861,3.12891-1.35156,6.05176a37.63806,37.63806,0,0,1-4.34668,9.63379,22.79039,22.79039,0,0,1-7.78027,7.50586,26.57853,26.57853,0,0,1-11.19922,3.69043,70.92947,70.92947,0,0,1-12.02539.21777,36.43323,36.43323,0,0,1-4.03614-.32617,19.10988,19.10988,0,0,1-3.87744-.94629,4.54,4.54,0,0,1-2.2207-1.25879,2.0357,2.0357,0,0,1-.60938-.80078,6.39007,6.39007,0,0,1-.32959-.95019,3.82892,3.82892,0,0,1-.27978-.99121c-.04932-.33887-.11133-.69727-.18408-1.07032-.02442-.30664-.03321-.59765-.03174-.87109a7.04019,7.04019,0,0,1,.04492-.77051l5.90039-51.44531c.04834-.41895.09326-.81055.13428-1.1709a3.52515,3.52515,0,0,1,.29687-1.06055,8.19253,8.19253,0,0,1,.75635-2.01269,2.98911,2.98911,0,0,1,1.127-1.42383,4.162,4.162,0,0,1,1.11474-.55664c.36377-.10938.6958-.208.99854-.2959a1.90287,1.90287,0,0,1,1.08545.0791,1.79885,1.79885,0,0,0,1.27929-.082l14.39844,2.0166a21.77751,21.77751,0,0,1,9.8877,3.919,27.22079,27.22079,0,0,1,6.94628,7.41406,31.57025,31.57025,0,0,1,3.99707,9.4502A35.49945,35.49945,0,0,1,236.17589,74.77026ZM218.1295,90.04468a20.52918,20.52918,0,0,0,3.13428-5.93946,30.07834,30.07834,0,0,0,1.51367-7.083,32.84444,32.84444,0,0,0-.13574-7.22657,24.03026,24.03026,0,0,0-1.71289-6.44921,10.33238,10.33238,0,0,0-2.74024-3.60059,15.43513,15.43513,0,0,0-4.01465-2.42383,28.43475,28.43475,0,0,0-4.86279-1.51562,50.50021,50.50021,0,0,0-5.11377-.86036q-.21606,2.62355-.49268,5.05567-.279,2.43163-.58886,5.13476-.4585,3.23438-.80957,6.29688-.35157,3.06445-.68213,5.94629l-2.10791,18.37988q2.68945.21827,5.18066.27442a19.573,19.573,0,0,0,4.874-.49024,14.637,14.637,0,0,0,8.55859-5.499Z" transform="translate(-0.00001 -0.00003)"/><path class="cls-3" d="M242.88487,102.55933l.9043-7.10743,1.60449-13.23437q.416-2.87256.76855-5.93652.35157-3.06153.72364-6.30664.37061-3.24317.66113-5.76563.28857-2.52246.82324-5.65625l.042-.36035q.189-.89062.3418-1.832.15089-.94189.26465-1.93262a9.83359,9.83359,0,0,1,1.35547-3.4043,4.68976,4.68976,0,0,1,4.82715-2.36718c.459.05273.876.11621,1.24707.18847q.55811.10986,1.06543.25879a3.51552,3.51552,0,0,1,1.86523,1.30957,4.07222,4.07222,0,0,1,.78516,1.55078c.07422.373.13574.73145.18359,1.07032.04883.34082.08106.69335.09863,1.06152q.01026.64014-.00488,1.18555c-.01269.36425-.041.72656-.082,1.08593q-.07178.63282-.1709,1.1211c-.06836.32812-.12207.6709-.16308,1.03125l-.17579,1.53222-5.88183,46.7002-.10254.90039q-.03224.271-.12109.6709-.0923.40137-.23829.93164a8.823,8.823,0,0,0-.41113.91113c-.125.32129-.26465.6543-.42187,1.002a8.86853,8.86853,0,0,1-.65918.791,4.59965,4.59965,0,0,1-.82422.68164,4.02921,4.02921,0,0,1-2.36133.7334,6.58319,6.58319,0,0,1-4.3584-.95606,4.00057,4.00057,0,0,1-1.26269-1.9707.7965.7965,0,0,1-.19727-.57031,1.11156,1.11156,0,0,0-.1416-.29,1.019,1.019,0,0,1-.14258-.291,4.88876,4.88876,0,0,1-.15039-.97558,5.92217,5.92217,0,0,1,.03223-1.0459c-.02344-.30566-.03321-.61133-.02735-.916q.00879-.45409-.02636-.916a7.03472,7.03472,0,0,1,.17578-1.53125Z" transform="translate(-0.00001 -0.00003)"/><path class="cls-3" d="M314.58507,58.66187a3.84687,3.84687,0,0,1,.67187,2.542q-.06153.54053-.17187,1.12109a9.27417,9.27417,0,0,1-.249,1.02051,4.35183,4.35183,0,0,1-1.34082,1.76367,4.78594,4.78594,0,0,1-1.99414.5918,8.38726,8.38726,0,0,1-1.24219.13183,12.95772,12.95772,0,0,0-1.32812.12207,8.32021,8.32021,0,0,1-1.2207-.04882q-.60645-.07032-1.29688-.14844l-4.40918-.50586q-1.56738-.08789-3.08105-.26172-1.51318-.17432-2.9834-.34277-.23292,2.80371-.59961,6.001-.36768,3.19923-.89551,7.42774-.53174,4.23194-1.21289,9.81152-.68555,5.581-1.53223,12.96875l-.78515,6.84668a7.8614,7.8614,0,0,0-.06836,1.36231c-.02832.24023-.05371.46484-.07813.6748a4.19474,4.19474,0,0,1-.17383.75586,14.58677,14.58677,0,0,0-.47558,1.86328,4.14548,4.14548,0,0,1-.18555.8457,5.728,5.728,0,0,1-.35742.82618q-.38672.32079-.4082.5l-.32129.51074a4.571,4.571,0,0,1-1.83887,1.52344,6.00669,6.00669,0,0,1-4.28809-.03516,4.38319,4.38319,0,0,1-2.15527-1.06836,5.52181,5.52181,0,0,1-.9375-1.751,5.15816,5.15816,0,0,1-.38867-1.96093,5.59831,5.59831,0,0,1-.06348-1.74219l5.31153-46.3086q-.51856-.06-2.16114-.248-1.64355-.189-3.49707-.44727-1.85449-.25781-3.48535-.53711-1.63476-.27538-2.22754-.4375-.50976-.14794-1.56933-.4541-1.062-.30323-1.73145-.56348a6.02388,6.02388,0,0,1-2.65723-2.03906,4.06892,4.06892,0,0,1-.65039-2.72168q.063-.54052.124-1.081a2.73065,2.73065,0,0,1,.28711-.97168,2.97411,2.97411,0,0,1,1.58886-1.64258,8.58806,8.58806,0,0,1,1.15918-.55176,6.24622,6.24622,0,0,1,1.49414-.42285,12.61824,12.61824,0,0,1,2.65528-.24316,11.06116,11.06116,0,0,1,1.39453.06933q.69141.07911,1.46973.169,3.0249.3457,5.749.65918,2.72462.312,5.76074.56933,5.02295.48633,9.99121,1.09961,4.96582.61817,9.874,1.36133,1.11327.21974,2.13085.51856a9.27793,9.27793,0,0,1,2.00293.86816,8.42882,8.42882,0,0,1,1.39258.84375A3.52251,3.52251,0,0,1,314.58507,58.66187Z" transform="translate(-0.00001 -0.00003)"/><path class="cls-3" d="M360.65928,99.18042a15.32457,15.32457,0,0,1,.32227,2.91309,23.80682,23.80682,0,0,1-.7334,6.39648,19.13587,19.13587,0,0,1-.877,2.68359,16.25229,16.25229,0,0,1-6.5,7.79A26.598,26.598,0,0,1,342.84,122.78784a30.81916,30.81916,0,0,1-11.10547-.17969,23.952,23.952,0,0,1-9.73145-4.12793,18.39416,18.39416,0,0,1-4.30078-4.50976,24.2554,24.2554,0,0,1-2.77246-5.61231,6.26465,6.26465,0,0,1-.38574-2.37207,6.77614,6.77614,0,0,1,.50586-2.498,5.9354,5.9354,0,0,1,1.373-2.03321,4.03217,4.03217,0,0,1,2.31054-1.05859,9.775,9.775,0,0,1,1.96582.043,7.323,7.323,0,0,1,2.082.55859,5.84466,5.84466,0,0,1,1.78907,1.21,4.76261,4.76261,0,0,1,1.17187,2.00489,11.72,11.72,0,0,0,2.32617,3.78125,17.19962,17.19962,0,0,0,3.46582,2.999,14.66861,14.66861,0,0,0,5.65723,1.4707,13.81576,13.81576,0,0,0,5.42871-.74707,10.31241,10.31241,0,0,0,4.21387-2.75683A7.74878,7.74878,0,0,0,348.837,104.488a9.08587,9.08587,0,0,0-.19629-3.62793,6.57944,6.57944,0,0,0-1.418-2.53614,9.48838,9.48838,0,0,0-2.41406-1.874,23.47511,23.47511,0,0,0-3.2041-1.46289,33.49648,33.49648,0,0,0-4.1211-1.11133q-2.09911-.42333-4.22851-.94238-2.13135-.51709-4.1543-1.20606a20.25669,20.25669,0,0,1-3.9082-1.81738,12.66509,12.66509,0,0,1-5.4541-5.91992,18.24647,18.24647,0,0,1-1.59473-7.85059,19.92032,19.92032,0,0,1,1.83105-7.96,17.284,17.284,0,0,1,4.94239-6.416,16.14165,16.14165,0,0,1,7.043-2.98047,35.39823,35.39823,0,0,1,8.667-.3291,38.73659,38.73659,0,0,1,5.21.78027,35.37775,35.37775,0,0,1,4.999,1.48535,26.36036,26.36036,0,0,1,4.39551,2.14746,15.93668,15.93668,0,0,1,3.40625,2.76368,13.5503,13.5503,0,0,1,1.97363,2.64648,12.1182,12.1182,0,0,1,1.36817,3.35156,6.66467,6.66467,0,0,1,.02246,3.24219,3.80478,3.80478,0,0,1-2.15918,2.40039,4.05252,4.05252,0,0,1-2.72461.46289,5.78787,5.78787,0,0,1-2.28516-1.084,15.33236,15.33236,0,0,1-1.98047-1.82422q-.936-1.01806-1.71582-1.83985a13.291,13.291,0,0,0-5.51465-3.09668,21.9455,21.9455,0,0,0-6.45312-1.01464,16.44927,16.44927,0,0,0-3.64844.49414,8.70954,8.70954,0,0,0-3.00781,1.38964,7.453,7.453,0,0,0-2.11914,2.4502,7.551,7.551,0,0,0-.88379,3.50391,4.45268,4.45268,0,0,0,.541,2.52734,6.00526,6.00526,0,0,0,1.63086,1.8291,9.9762,9.9762,0,0,0,2.26367,1.26465,19.90661,19.90661,0,0,0,2.53222.83789q3.82911.9873,7.68848,1.70313a24.46449,24.46449,0,0,1,7.40137,2.6748,19.86829,19.86829,0,0,1,6.00976,4.8877A14.697,14.697,0,0,1,360.65928,99.18042Z" transform="translate(-0.00001 -0.00003)"/></svg>