<svg xmlns="http://www.w3.org/2000/svg" xmlns:xlink="http://www.w3.org/1999/xlink" width="486.85582" height="128.40601" viewBox="0 0 486.85582 128.40601"><defs><style>.cls-1{fill:none;}.cls-2{clip-path:url(#clip-path);}.cls-3{fill:#eca442;}.cls-4{fill:#a67c52;}.cls-5{fill:#597718;}</style><clipPath id="clip-path" transform="translate(0.00041 -0.00011)"><rect class="cls-1" width="486.85501" height="130.62801"/></clipPath></defs><g id="Layer_2" data-name="Layer 2"><g id="Layer_1-2" data-name="Layer 1"><g id="Standard"><g class="cls-2"><g class="cls-2"><path class="cls-3" d="M476.059,125.40241,5.851,101.88041a3.00068,3.00068,0,0,1-2.847-3.146l4.647-92.884a2.99834,2.99834,0,0,1,2.996-2.85c.05,0,.1.001.149.004l470.208,23.522a2.99943,2.99943,0,0,1,2.847,3.146l-4.646,92.883a3,3,0,0,1-2.997,2.851c-.049,0-.099-.001-.149-.004" transform="translate(0.00041 -0.00011)"/><path class="cls-4" d="M10.647,6.00011l470.208,23.522-4.647,92.884L6,98.88411l4.647-92.884m-.005-6a6.00043,6.00043,0,0,0-5.988,5.7L.007,98.58411a5.99932,5.99932,0,0,0,5.694,6.292l470.209,23.522c.101.005.203.008.304.008a6.0018,6.0018,0,0,0,5.988-5.7l4.646-92.884a6.00118,6.00118,0,0,0-5.692-6.293L10.947.00812c-.103-.006-.204-.008-.305-.008" transform="translate(0.00041 -0.00011)"/><path class="cls-5" d="M81.459,63.73486a15.39685,15.39685,0,0,1,.50489,2.88575,24.05821,24.05821,0,0,1-.32178,6.43017,19.2861,19.2861,0,0,1-.69922,2.73486A16.25937,16.25937,0,0,1,74.9917,83.978a26.32659,26.32659,0,0,1-9.7041,4.46289,30.41685,30.41685,0,0,1-11.02246.53808A23.69441,23.69441,0,0,1,44.353,85.48682a18.341,18.341,0,0,1-4.5503-4.22315,24.2843,24.2843,0,0,1-3.105-5.42138A6.30959,6.30959,0,0,1,36.16455,73.5a6.80736,6.80736,0,0,1,.34326-2.5249,5.9437,5.9437,0,0,1,1.23145-2.11817,4.01558,4.01558,0,0,1,2.2251-1.20507,9.5404,9.5404,0,0,1,1.95166-.084,7.23913,7.23913,0,0,1,2.10058.42285,5.81588,5.81588,0,0,1,1.8501,1.0918,4.74964,4.74964,0,0,1,1.28906,1.92529,11.68458,11.68458,0,0,0,2.5459,3.62354,17.127,17.127,0,0,0,3.62793,2.76953,14.49457,14.49457,0,0,0,5.70215,1.10254,13.66506,13.66506,0,0,0,5.33594-1.09522,10.28,10.28,0,0,0,4.00439-3.02343,7.78831,7.78831,0,0,0,1.70166-4.59131,9.13806,9.13806,0,0,0-.42578-3.60791,6.553,6.553,0,0,0-1.56641-2.439,9.42114,9.42114,0,0,0-2.51123-1.71484,23.36309,23.36309,0,0,0-3.271-1.25293,33.06154,33.06154,0,0,0-4.15674-.84375q-2.10864-.28564-4.25293-.66651-2.14527-.37939-4.19483-.936a20.04976,20.04976,0,0,1-3.9917-1.562,12.60266,12.60266,0,0,1-5.78222-5.55518,18.297,18.297,0,0,1-2.08057-7.73144,20.04837,20.04837,0,0,1,1.312-8.06153,17.282,17.282,0,0,1,4.49219-6.72119A16.0225,16.0225,0,0,1,50.439,25.27246a34.9652,34.9652,0,0,1,8.57276-.88721,38.042,38.042,0,0,1,5.21582.44239,34.82845,34.82845,0,0,1,5.05029,1.16064,25.98111,25.98111,0,0,1,4.49561,1.85938,15.74067,15.74067,0,0,1,3.55273,2.53857,13.49769,13.49769,0,0,1,2.12549,2.5127,12.15225,12.15225,0,0,1,1.56885,3.25634,6.69917,6.69917,0,0,1,.228,3.23438,3.80038,3.80038,0,0,1-1.98877,2.53467,4.01646,4.01646,0,0,1-2.67237.63769,5.74631,5.74631,0,0,1-2.33447-.93408,15.31661,15.31661,0,0,1-2.07959-1.69336q-.991-.95653-1.81836-1.72559a13.15209,13.15209,0,0,0-5.66455-2.73437,21.667,21.667,0,0,0-6.46338-.5957,16.1506,16.1506,0,0,0-3.58643.72851A8.6255,8.6255,0,0,0,51.74756,37.188a7.4713,7.4713,0,0,0-1.94727,2.581,7.6111,7.6111,0,0,0-.65381,3.55371,4.46588,4.46588,0,0,0,.69825,2.48633,5.96864,5.96864,0,0,0,1.73193,1.72168,9.9364,9.9364,0,0,0,2.3252,1.11475,19.67855,19.67855,0,0,0,2.56445.67334q3.85839.73755,7.73144,1.20361a24.17439,24.17439,0,0,1,7.50928,2.1919,19.74079,19.74079,0,0,1,6.26953,4.49023A14.71636,14.71636,0,0,1,81.459,63.73486Z" transform="translate(0.00041 -0.00011)"/><path class="cls-5" d="M135.28418,31.37891a3.86285,3.86285,0,0,1,.82715,2.49267q-.02711.5442-.09961,1.13037a9.70658,9.70658,0,0,1-.18115,1.03516,4.36834,4.36834,0,0,1-1.21827,1.8457,4.74206,4.74206,0,0,1-1.94091.72022,8.43946,8.43946,0,0,1-1.22315.21093,12.41024,12.41024,0,0,0-1.3081.20752,8.21932,8.21932,0,0,1-1.21436.02979q-.605-.03077-1.29541-.06494l-4.40478-.22022q-1.5586.01319-3.07032-.063t-2.979-.14941q-.05566,2.81323-.21484,6.02783-.16114,3.21607-.41748,7.47022-.25709,4.2561-.58008,9.86816-.32594,5.61548-.69532,13.04053l-.34472,6.8833a7.81239,7.81239,0,0,0,.01855,1.36328q-.0183.36255-.03369.6792a4.31037,4.31037,0,0,1-.125.76563,14.65175,14.65175,0,0,0-.35449,1.88916,4.22968,4.22968,0,0,1-.1294.85595,5.987,5.987,0,0,1-.30224.84766q-.364.3457-.37256.52588l-.28662.53076a4.57059,4.57059,0,0,1-1.72705,1.63867,5.93662,5.93662,0,0,1-4.2544.24121,4.34536,4.34536,0,0,1-2.20459-.92773,5.51124,5.51124,0,0,1-1.041-1.686,5.21881,5.21881,0,0,1-.50977-1.93261,5.66742,5.66742,0,0,1-.17285-1.73389l2.3291-46.55518q-.51782-.02564-2.15869-.10791-1.64209-.082-3.4956-.22021-1.856-.1377-3.49122-.31055-1.637-.17139-2.23632-.29394-.51417-.115-1.58448-.35108-1.07152-.23511-1.75195-.45117a5.97594,5.97594,0,0,1-2.76416-1.86377,4.07766,4.07766,0,0,1-.81836-2.67383q.02784-.54345.05469-1.08642a2.7679,2.7679,0,0,1,.22217-.9878,2.9764,2.9764,0,0,1,1.47216-1.74267,8.58967,8.58967,0,0,1,1.11377-.625,6.19314,6.19314,0,0,1,1.45411-.51758,12.4655,12.4655,0,0,1,2.61865-.41406,10.85764,10.85764,0,0,1,1.38623-.021c.46.023.95019.04736,1.46777.07324q3.022.15162,5.74365.2876,2.72022.1355,5.74805.19629,5.012.16113,9.97656.45361,4.96363.29517,9.87793.72119,1.11695.14722,2.14551.37989a9.1219,9.1219,0,0,1,2.04053.73779,8.27354,8.27354,0,0,1,1.43457.75244A3.50994,3.50994,0,0,1,135.28418,31.37891Z" transform="translate(0.00041 -0.00011)"/><path class="cls-5" d="M182.52881,89.03955c.03808.36524.064.71582.07715,1.04834.01172.3335.00732.7124-.01367,1.13428a3.52366,3.52366,0,0,1-.70362,1.9624A3.75509,3.75509,0,0,1,180.084,94.6377a6.819,6.819,0,0,1-4.62255.67675,5.8719,5.8719,0,0,1-2.10059-1.28515,1.353,1.353,0,0,0-.24756-.23975.47113.47113,0,0,1-.16162-.23437,1.38184,1.38184,0,0,1-.16113-.23584.67149.67149,0,0,0-.24756-.23926,5.61635,5.61635,0,0,1-.648-.895c-.15869-.28027-.31787-.5752-.4751-.88623a8.11867,8.11867,0,0,0-.3457-.87988c-.13086-.2793-.2749-.57276-.43213-.88428q-.156-.36987-.311-.69678a2.64657,2.64657,0,0,1-.22558-.69238,5.74258,5.74258,0,0,1-.35938-1.47022l-1.5913-4.52929q-5.959-.2981-11.877-.54883-5.91944-.249-11.873-.63916l-2.03565,4.34765a2.277,2.277,0,0,0-.25244.71387,2.35224,2.35224,0,0,1-.252.71338q-.19189.35523-.33643.66406c-.09668.2085-.20947.42969-.33643.66455-.1875.29395-.36132.57178-.51806.83643q-.23658.397-.51758.83691a4.78419,4.78419,0,0,1-.4751.83838,5.74984,5.74984,0,0,1-.7334.82617.66171.66171,0,0,0-.27148.21338,1.51339,1.51339,0,0,1-.18359.21826.488.488,0,0,1-.18409.21729,1.28734,1.28734,0,0,0-.27.21387,5.90074,5.90074,0,0,1-2.21875,1.06933,6.81777,6.81777,0,0,1-4.53173-1.13476,3.75568,3.75568,0,0,1-1.65039-1.626,3.512,3.512,0,0,1-.5044-2.023c.021-.42187.05322-.79931.09961-1.13037.04492-.32959.10547-.67529.18213-1.03467a16.72481,16.72481,0,0,1,.51269-1.60888l.3003-.80225,20.2832-45.4751.59082-1.42334a5.14665,5.14665,0,0,1,.48145-.97461,4.6309,4.6309,0,0,0,.48632-1.06543,13.79814,13.79814,0,0,1,1.05469-2.03564,5.62763,5.62763,0,0,1,.6543-.96631q.36695-.43506.73584-.87109a3.7401,3.7401,0,0,1,1.52734-1.10352,8.92453,8.92453,0,0,1,5.61328.28076,3.75548,3.75548,0,0,1,1.41016,1.25049q.56177.846,1.19971,1.9668a13.80384,13.80384,0,0,1,.8457,2.13135,4.64253,4.64253,0,0,0,.37793,1.10839,5.235,5.235,0,0,1,.38184,1.01758l.44531,1.4751,15.64355,47.27295.21924.82764Q182.39624,88.21606,182.52881,89.03955Zm-19.3584-23.21484q-.99243-2.68066-2.0166-5.54834-1.0254-2.86524-2.17578-5.8291-.30615-.83277-.60742-1.71045-.30322-.87672-.60694-1.71045c-.20019.53467-.43017,1.08447-.689,1.64551q-.38892.84447-.77442,1.64111-1.44067,2.83519-2.74707,5.583-1.3059,2.7495-2.56054,5.31982l-1.75342,3.90723,15.28613.76513Z" transform="translate(0.00041 -0.00011)"/><path class="cls-5" d="M236.62793,91.01953a28.04055,28.04055,0,0,1-.55176,3.2417,5.00191,5.00191,0,0,1-4.21094,3.69336,6.59041,6.59041,0,0,1-2.54052-.26318,8.67115,8.67115,0,0,1-2.3252-1.11475,5.84943,5.84943,0,0,1-1.73-1.7666,87.15634,87.15634,0,0,1-5.00586-8.105q-2.25952-4.1521-4.56006-8.35449l-6.6792-11.86621q-1.34764-2.5188-2.835-5.63526-1.49048-3.115-3.085-5.8291l-1.99023,34.58643-.041.81494a8.87649,8.87649,0,0,1-.61767,2.82959,5.53205,5.53205,0,0,1-1.71778,2.31982,4.89749,4.89749,0,0,1-2.29492.88379,5.37927,5.37927,0,0,1-3.5708-.45068,5.66488,5.66488,0,0,1-2.14551-2.105,7.90476,7.90476,0,0,1-.9751-2.99952,11.5492,11.5492,0,0,1,.03516-3.3125l.07715-1.53955.52637-7.05664.74316-13.1289q.22925-2.89306.38281-5.92823.15162-3.03369.31055-6.2041.10767-3.89794.45557-8.23974.34716-4.34181.71-8.13672a9.002,9.002,0,0,1,1.12695-3.48487,3.77685,3.77685,0,0,1,1.92236-2.083,5.61533,5.61533,0,0,1,2.50245-.6919,7.48182,7.48182,0,0,1,2.6289.22217c.28223.13574.5625.28662.84326.45019.28028.16651.55957.3462.83887.542q.41382.38379.78467.76562a6.61625,6.61625,0,0,1,.69336.85156,8.14181,8.14181,0,0,1,.72949.99024c.2124.34375.42773.67236.64307.98535q.2329.55663.46875,1.02246a8.02328,8.02328,0,0,0,.55908.93555l.87744,1.49756,18.30127,33.96631.29883-5.978q.145-2.89746.25342-5.93457.10692-3.0359.185-6.30127.19044-3.80419.45118-8.14942.26-4.34619.62353-8.14062a9.06806,9.06806,0,0,1,1.04053-3.48926A3.9243,3.9243,0,0,1,230.32812,33.5a6.39982,6.39982,0,0,1,4.97266-.74951,4.95216,4.95216,0,0,1,2.19092,1.19873,6.06988,6.06988,0,0,1,.48682.66016,3.688,3.688,0,0,1,.39062.83642,8.54826,8.54826,0,0,1,.41406,2.10938,11.47479,11.47479,0,0,1,.146,2.27734q-.5669,11.32324-1.11182,23.09814-.54711,11.77807-1.02685,23.103-.063,1.27-.03809,2.49512A18.37788,18.37788,0,0,1,236.62793,91.01953Z" transform="translate(0.00041 -0.00011)"/><path class="cls-5" d="M290.52832,64.11523a49.33387,49.33387,0,0,1-.35156,6.15674q-.37574,3.16113-.95557,6.127a37.83024,37.83024,0,0,1-3.69873,9.89355,22.75184,22.75184,0,0,1-7.23975,7.99121A26.31592,26.31592,0,0,1,267.4126,98.689a70.09823,70.09823,0,0,1-11.91065.99317,35.758,35.758,0,0,1-4.02295-.06543,18.81772,18.81772,0,0,1-3.90429-.69434,4.502,4.502,0,0,1-2.28223-1.11279,2.02389,2.02389,0,0,1-.6543-.75928,6.31767,6.31767,0,0,1-.38672-.92724,3.86656,3.86656,0,0,1-.34082-.97071c-.06982-.33545-.15429-.689-.25048-1.05664-.043-.30468-.07178-.59424-.08643-.8667a7.07222,7.07222,0,0,1-.00488-.77246l2.5874-51.71777q.0315-.63282.05908-1.17725a3.5422,3.5422,0,0,1,.22705-1.07812,8.24028,8.24028,0,0,1,.62256-2.05762,2.98722,2.98722,0,0,1,1.02686-1.49219,4.09026,4.09026,0,0,1,1.07031-.62744q.52881-.19921.9707-.35986a1.87488,1.87488,0,0,1,1.08106.0083,1.7818,1.7818,0,0,0,1.26416-.16309l14.40429,1.0835a21.52207,21.52207,0,0,1,10.05274,3.27246,27.05744,27.05744,0,0,1,7.3584,6.95117,31.62273,31.62273,0,0,1,4.5625,9.17188A35.6745,35.6745,0,0,1,290.52832,64.11523ZM273.60352,80.521a20.61516,20.61516,0,0,0,2.731-6.12891,30.19961,30.19961,0,0,0,1.05078-7.1665,33.012,33.012,0,0,0-.59228-7.20215,24.15879,24.15879,0,0,0-2.10693-6.32569,10.335,10.335,0,0,0-2.94629-3.4165,15.319,15.319,0,0,0-4.13477-2.15869,28.12116,28.12116,0,0,0-4.918-1.19971,50.30746,50.30746,0,0,0-5.125-.52832q-.04687,2.6316-.16748,5.07617-.12231,2.44555-.2583,5.1626-.25048,3.25635-.40381,6.33643-.15381,3.07983-.29883,5.97754l-.92431,18.477q2.68066.04394,5.15429-.06006a19.37174,19.37174,0,0,0,4.80225-.8042,14.56589,14.56589,0,0,0,8.1377-6.03906Z" transform="translate(0.00041 -0.00011)"/><path class="cls-5" d="M345.1499,97.17529c.03809.36475.06446.71533.07764,1.04785q.01758.501-.01367,1.13428a3.523,3.523,0,0,1-.7041,1.9624,3.74329,3.74329,0,0,1-1.8042,1.45313,6.82077,6.82077,0,0,1-4.62305.67676,5.85894,5.85894,0,0,1-2.1001-1.28516,1.34213,1.34213,0,0,0-.248-.23926.47591.47591,0,0,1-.16114-.23486,1.35569,1.35569,0,0,1-.16162-.23584.663.663,0,0,0-.24756-.23877,5.58292,5.58292,0,0,1-.64746-.89551c-.15918-.28027-.31787-.5747-.47558-.88623a8.05894,8.05894,0,0,0-.34571-.87988c-.13037-.2793-.27441-.57275-.43213-.88428-.10351-.24658-.207-.478-.311-.69678a2.66341,2.66341,0,0,1-.2251-.69238,5.72164,5.72164,0,0,1-.35937-1.47021l-1.59131-4.5293q-5.959-.29809-11.87744-.54834-5.91944-.249-11.87305-.63965l-2.03565,4.34766a2.27584,2.27584,0,0,0-.252.71387,2.34058,2.34058,0,0,1-.25244.71337q-.19116.35523-.33594.66407c-.09717.20849-.21.42968-.33642.66455-.188.29394-.36133.57177-.51807.83642-.1582.26514-.33008.544-.51807.83692a4.72372,4.72372,0,0,1-.47509.83838,5.72286,5.72286,0,0,1-.7334.82666.65518.65518,0,0,0-.271.21289,1.51391,1.51391,0,0,1-.18408.21826.4928.4928,0,0,1-.18359.21777,1.27479,1.27479,0,0,0-.27051.21338,5.88786,5.88786,0,0,1-2.21826,1.06934,6.81716,6.81716,0,0,1-4.53174-1.13477,3.749,3.749,0,0,1-1.65039-1.626,3.51576,3.51576,0,0,1-.5044-2.02294c.021-.42188.05274-.79883.09912-1.12989q.0674-.49512.18213-1.03515a16.77022,16.77022,0,0,1,.51319-1.60889l.2998-.80176,20.2832-45.47558.59131-1.42334a5.132,5.132,0,0,1,.48145-.97461,4.67809,4.67809,0,0,0,.48633-1.06494,13.75823,13.75823,0,0,1,1.0542-2.03614,5.64966,5.64966,0,0,1,.65478-.96631q.36621-.43506.73584-.8706a3.73485,3.73485,0,0,1,1.52686-1.104,8.93534,8.93534,0,0,1,5.61377.28077,3.75061,3.75061,0,0,1,1.40966,1.251q.56178.84522,1.2002,1.96631a13.80466,13.80466,0,0,1,.84521,2.13135,4.665,4.665,0,0,0,.37793,1.1084,5.2149,5.2149,0,0,1,.38184,1.01758l.4458,1.47509,15.64355,47.273.21875.82764C344.94531,96.0752,345.06055,96.626,345.1499,97.17529ZM325.7915,73.96045q-.99243-2.6814-2.0166-5.54883-1.02538-2.86524-2.17578-5.8291c-.2041-.55518-.40674-1.124-.60742-1.71045q-.30249-.87671-.60693-1.71045-.29956.80274-.68848,1.64551-.38966.84522-.7749,1.6416-1.43994,2.83448-2.74659,5.58252-1.3059,2.75025-2.56054,5.31982l-1.75342,3.90772,15.28564.76465Z" transform="translate(0.00041 -0.00011)"/><path class="cls-5" d="M396.68652,101.93262a4.31545,4.31545,0,0,1-.25879,1.71191,2.662,2.662,0,0,1-.52148.88233,5.72775,5.72775,0,0,1-.76953.6875,9.6377,9.6377,0,0,1-1.9502.90185c-.46728.09668-.91748.18067-1.354.24951a2.88486,2.88486,0,0,1-1.33643-.1123,3.763,3.763,0,0,1-2.36425-1.20752,12.08037,12.08037,0,0,1-2.27735-2.92871q-.397-.74634-.86816-1.67823a18.72787,18.72787,0,0,1-.855-1.9497L375.501,78.89893q-.69214-.03442-1.38428-.02393-.69433.01245-1.38867.06689a21.76115,21.76115,0,0,1-3.41553-.08056,31.03368,31.03368,0,0,0-3.3252-.166l-1.64111-.082-.82031,16.394q-.03663.72583-.11133,1.35645-.0747.63209-.11035,1.35644-.02271.45484-.10254,1.17481-.0813.72437-.19727,1.35254a6.21986,6.21986,0,0,1-.87939,1.999,5.53023,5.53023,0,0,1-1.72949,1.68408,5.67716,5.67716,0,0,1-4.436.41358,7.48758,7.48758,0,0,1-2.11377-1.01367,2.67927,2.67927,0,0,1-.57031-.70948,4.67219,4.67219,0,0,1-.38867-.88183,8.83561,8.83561,0,0,1-.25537-.96631,9.18068,9.18068,0,0,0-.2544-.96582,6.26359,6.26359,0,0,1-.17285-1.73438l2.57373-51.4458c.01807-.3623.04981-.73828.09961-1.13037a9.03861,9.03861,0,0,1,.18164-1.03515,5.28245,5.28245,0,0,1,.70459-1.96241,2.59878,2.59878,0,0,1,.94043-1.49658,4.27376,4.27376,0,0,1,1.64551-.8706,8.35509,8.35509,0,0,1,3.168-.15918q3.88184.28491,7.68164.47461,3.79906.19042,7.59082.56152,2.49462.30835,5.28223.854a22.01272,22.01272,0,0,1,5.15429,1.666q1.52344.71265,2.78662,1.41015a15.482,15.482,0,0,1,2.4961,2.03174,18.866,18.866,0,0,1,4.229,7.20313,23.006,23.006,0,0,1,1.14258,8.32031,18.59237,18.59237,0,0,1-2.65234,8.85693,13.50809,13.50809,0,0,1-7.3418,5.71582.79177.79177,0,0,1-.48584.20313,1.57723,1.57723,0,0,0-.48193.11133l7.10644,17.15381.70508,1.48828q.15381.37206.39062.83691a6.53541,6.53541,0,0,1,.38672.92676,7.98936,7.98936,0,0,1,.42578,1.02051,7.73235,7.73235,0,0,0,.42481,1.02Q396.55322,101.11011,396.68652,101.93262ZM376.708,68.60791a7.71864,7.71864,0,0,0,3.00928-.43945,9.6011,9.6011,0,0,0,2.67041-1.45508,9.152,9.152,0,0,0,2.05859-2.2124,6.211,6.211,0,0,0,1.00635-2.81055q.57056-4.51026-1.90821-6.85986a10.892,10.892,0,0,0-6.70263-2.74121q-2.4961-.30617-5.47461-.45606-2.97949-.14868-5.65723-.28271-.10107,3.71924-.335,7.56494-.2373,3.84888-.499,9.10058Z" transform="translate(0.00041 -0.00011)"/><path class="cls-5" d="M450.73047,72.12988a49.709,49.709,0,0,1-.35156,6.15625q-.37647,3.16113-.957,6.127a37.78124,37.78124,0,0,1-3.69825,9.89355,22.75969,22.75969,0,0,1-7.23925,7.99121,26.32134,26.32134,0,0,1-10.87012,4.40527,70.16752,70.16752,0,0,1-11.91114.99366,35.8681,35.8681,0,0,1-4.02246-.06592,18.78534,18.78534,0,0,1-3.90429-.69434,4.49208,4.49208,0,0,1-2.28223-1.11279,2.01586,2.01586,0,0,1-.6543-.75928,6.29555,6.29555,0,0,1-.38672-.92724,3.82828,3.82828,0,0,1-.34082-.97071c-.06933-.33545-.15429-.689-.251-1.05664q-.06446-.457-.08594-.8667a6.8269,6.8269,0,0,1-.00391-.77246l2.58594-51.71777q.03224-.63282.05957-1.17725a3.57077,3.57077,0,0,1,.22656-1.07812,8.24534,8.24534,0,0,1,.623-2.05762,2.9912,2.9912,0,0,1,1.02637-1.4917,4.07889,4.07889,0,0,1,1.07031-.62744c.35352-.1333.67578-.25293.9707-.36035a1.87417,1.87417,0,0,1,1.082.00879,1.78126,1.78126,0,0,0,1.26367-.16358l14.40429,1.084a21.51283,21.51283,0,0,1,10.05274,3.27246,27.06232,27.06232,0,0,1,7.3584,6.95068,31.64116,31.64116,0,0,1,4.5625,9.17188A35.73074,35.73074,0,0,1,450.73047,72.12988ZM433.80469,88.53516a20.5567,20.5567,0,0,0,2.73047-6.12842,30.13024,30.13024,0,0,0,1.05175-7.167,33.04247,33.04247,0,0,0-.59277-7.20215,24.111,24.111,0,0,0-2.10742-6.32569,10.33052,10.33052,0,0,0-2.94531-3.416,15.30636,15.30636,0,0,0-4.13477-2.15918,28.12094,28.12094,0,0,0-4.918-1.19971,50.336,50.336,0,0,0-5.125-.52832q-.04687,2.63232-.168,5.07666-.12158,2.44556-.25781,5.1626-.25049,3.25635-.4043,6.33594-.15234,3.07983-.29882,5.97754l-.92383,18.47705q2.68066.04467,5.15429-.06006a19.33793,19.33793,0,0,0,4.80274-.8042,14.55376,14.55376,0,0,0,8.13672-6.03906Z" transform="translate(0.00041 -0.00011)"/></g></g></g></g></g></svg>