<svg id="Layer_1" data-name="Layer 1" xmlns="http://www.w3.org/2000/svg" viewBox="0 0 328.46066 134.04016">
  <defs>
    <style>
      .cls-1 {
        fill: #eca442;
      }

      .cls-2 {
        fill: #a67c52;
      }

      .cls-3 {
        fill: #597718;
      }
    </style>
  </defs>
  <g>
    <g>
      <path class="cls-1" d="M14.868,131.03992a3.00139,3.00139,0,0,1-2.98633-2.71387L3.014,35.74988a2.99983,2.99983,0,0,1,2.70019-3.27246L313.30651,3.01355c.0957-.00879.1914-.01367.28613-.01367A3.00137,3.00137,0,0,1,316.579,5.71375l8.86718,92.57617a2.99984,2.99984,0,0,1-2.70019,3.27246L15.15416,131.02625C15.05846,131.035,14.96324,131.03992,14.868,131.03992Z" transform="translate(0)"/>
      <path class="cls-2" d="M313.59252,6l8.86773,92.57623L14.86818,128.0401,6.00045,35.46387,313.59252,6m.00018-6q-.28546,0-.57233.02734L5.42833,29.49115A6.0001,6.0001,0,0,0,.02776,36.036L8.8955,128.61224a6.00006,6.00006,0,0,0,5.9725,5.42792q.28543,0,.57228-.02734l307.59206-29.46393a6,6,0,0,0,5.40057-6.54474L319.56517,5.42792A6,6,0,0,0,313.5927,0Z" transform="translate(0)"/>
    </g>
    <g>
      <path class="cls-3" d="M84.43492,82.32507a15.33891,15.33891,0,0,1,.918,2.78028,24.11141,24.11141,0,0,1,.61328,6.40918,18.98307,18.98307,0,0,1-.29589,2.80664,16.23971,16.23971,0,0,1-4.7002,8.96875,26.29257,26.29257,0,0,1-8.9541,5.82226A30.41064,30.41064,0,0,1,61.18785,111.244a23.71024,23.71024,0,0,1-10.31347-2.01856,18.35265,18.35265,0,0,1-5.11426-3.51953,24.27434,24.27434,0,0,1-3.8584-4.91406,6.29477,6.29477,0,0,1-.86719-2.24023,6.80672,6.80672,0,0,1-.02636-2.54883,5.96848,5.96848,0,0,1,.91113-2.27344,4.01223,4.01223,0,0,1,2.02734-1.51367,9.50241,9.50241,0,0,1,1.91895-.36719,7.29024,7.29024,0,0,1,2.13965.11328,5.82811,5.82811,0,0,1,1.98828.8125A4.73324,4.73324,0,0,1,51.54821,94.493a11.72209,11.72209,0,0,0,3.04394,3.21582,17.17235,17.17235,0,0,0,3.99121,2.21387,14.48722,14.48722,0,0,0,5.80274.26465A13.70841,13.70841,0,0,0,69.50719,98.33a10.28389,10.28389,0,0,0,3.52246-3.57129,7.78856,7.78856,0,0,0,1.01856-4.78907,9.13574,9.13574,0,0,0-.94434-3.50781,6.55922,6.55922,0,0,0-1.90332-2.1875,9.4243,9.4243,0,0,0-2.7334-1.332,23.27236,23.27236,0,0,0-3.418-.76562,32.8188,32.8188,0,0,0-4.23535-.23243q-2.127.02345-4.30371-.043-2.1797-.06593-4.28711-.31836a20.00256,20.00256,0,0,1-4.17578-.9668,12.60024,12.60024,0,0,1-6.52637-4.65918,18.29552,18.29552,0,0,1-3.17969-7.34668,20.05253,20.05253,0,0,1,.12989-8.167,17.28391,17.28391,0,0,1,3.46972-7.30176,16.00738,16.00738,0,0,1,6.22657-4.377,34.9621,34.9621,0,0,1,8.35351-2.1211,38.09517,38.09517,0,0,1,5.22461-.31836,34.66761,34.66761,0,0,1,5.165.416,25.98824,25.98824,0,0,1,4.71777,1.1875,15.82591,15.82591,0,0,1,3.88282,1.99707,13.48734,13.48734,0,0,1,2.46679,2.17871,12.12151,12.12151,0,0,1,2.02442,2.99414,6.70016,6.70016,0,0,1,.69531,3.168A3.80131,3.80131,0,0,1,79.097,61.0614,4.00215,4.00215,0,0,1,76.54528,62.079a5.70738,5.70738,0,0,1-2.44434-.584,15.49081,15.49081,0,0,1-2.30371-1.373q-1.11913-.80566-2.04883-1.44531a13.14774,13.14774,0,0,0-6.001-1.88282,21.68314,21.68314,0,0,0-6.48242.34571,16.2151,16.2151,0,0,0-3.44238,1.24218,8.5966,8.5966,0,0,0-2.63281,1.98243,7.44239,7.44239,0,0,0-1.55274,2.83593,7.61592,7.61592,0,0,0-.13281,3.61133A4.47045,4.47045,0,0,0,50.556,69.17078,5.97025,5.97025,0,0,0,52.51989,70.622a9.9227,9.9227,0,0,0,2.46191.7666,19.52783,19.52783,0,0,0,2.63379.294q3.92579.16992,7.82519.07031a24.18631,24.18631,0,0,1,7.748,1.08008,19.78137,19.78137,0,0,1,6.85352,3.5332A14.722,14.722,0,0,1,84.43492,82.32507Z" transform="translate(0)"/>
      <path class="cls-3" d="M132.91539,42.51453a3.86307,3.86307,0,0,1,1.18067,2.3457q.05127.542.06543,1.13281a9.47876,9.47876,0,0,1-.03028,1.05078,4.36712,4.36712,0,0,1-.9375,2.00391,4.74156,4.74156,0,0,1-1.81543.99316,8.71515,8.71515,0,0,1-1.17968.3877,12.23852,12.23852,0,0,0-1.26465.39258,8.02435,8.02435,0,0,1-1.19629.206q-.60351.05713-1.292.124l-4.38965.41992q-1.541.24022-3.04688.38379-1.50732.145-2.96972.28418.353,2.792.66113,5.99414.30615,3.20653.66992,7.45214.36329,4.24806.85645,9.84864.49072,5.60156,1.20215,13.00293l.65722,6.86133a7.8066,7.8066,0,0,0,.21582,1.34668c.02344.24023.04492.46679.06543.67578a4.32246,4.32246,0,0,1-.01367.77636,14.93536,14.93536,0,0,0-.07617,1.91993,4.19982,4.19982,0,0,1-.00391.86621,5.98413,5.98413,0,0,1-.17578.88183,1.0201,1.0201,0,0,0-.293.57324l-.20605.56836a4.58137,4.58137,0,0,1-1.47071,1.8711,5.93192,5.93192,0,0,1-4.1748.85547,4.34481,4.34481,0,0,1-2.31543-.59766,5.52428,5.52428,0,0,1-1.27539-1.51758,5.19766,5.19766,0,0,1-.78418-1.83789,5.64025,5.64025,0,0,1-.42285-1.69043l-4.44434-46.40137q-.51708.04981-2.15234.20606-1.63478.15673-3.49024.28906-1.85595.13331-3.499.19922c-1.09668.04492-1.84863.05469-2.25488.03418q-.52588-.041-1.61914-.11914-1.09278-.07764-1.79883-.19336A5.97149,5.97149,0,0,1,86.892,52.663a4.07742,4.07742,0,0,1-1.19727-2.52832q-.05274-.542-.10352-1.083a2.73478,2.73478,0,0,1,.07618-1.00782,2.98009,2.98009,0,0,1,1.20507-1.93945,8.553,8.553,0,0,1,1.01075-.7793,6.10651,6.10651,0,0,1,1.36425-.72265,12.43884,12.43884,0,0,1,2.53028-.79,10.8616,10.8616,0,0,1,1.36914-.22168q.687-.06592,1.46289-.14063,3.01172-.2871,5.72363-.54785,2.71143-.25927,5.71582-.63965,4.9834-.56542,9.93848-.99609,4.95117-.42774,9.87695-.71875,1.12647-.01758,2.17774.06445a9.23644,9.23644,0,0,1,2.12695.43457,8.2113,8.2113,0,0,1,1.52832.53614A3.52073,3.52073,0,0,1,132.91539,42.51453Z" transform="translate(0)"/>
      <path class="cls-3" d="M187.93444,92.72546c.09082.35645.167.69922.22851,1.02539.06055.32911.11133.70508.15137,1.125a3.51442,3.51442,0,0,1-.41309,2.043,3.739,3.739,0,0,1-.60547.92383,3.784,3.784,0,0,1-.96875.77735,6.82741,6.82741,0,0,1-4.47558,1.33789,5.86247,5.86247,0,0,1-2.26465-.9668,1.37213,1.37213,0,0,0-.2793-.20117.46087.46087,0,0,1-.19336-.209,1.36326,1.36326,0,0,1-.19433-.209.68306.68306,0,0,0-.28028-.20117,5.60836,5.60836,0,0,1-.7705-.792c-.19825-.2539-.39844-.52148-.59864-.80761a8.38689,8.38689,0,0,0-.46875-.82032c-.16992-.25781-.35547-.52734-.55566-.8125q-.208-.34276-.40918-.64453a2.6616,2.6616,0,0,1-.32324-.65039,5.7695,5.7695,0,0,1-.56934-1.40429l-2.23047-4.251q-5.93994.56837-11.83154,1.17871-5.89159.6123-11.83984,1.08789l-1.38379,4.59766a2.27689,2.27689,0,0,0-.14649.74316,2.34359,2.34359,0,0,1-.1455.74317c-.09278.25195-.1709.48632-.23633.70507q-.09961.32959-.23731.707c-.14258.31739-.27441.61719-.39062.90235-.11817.28418-.24805.58594-.3916.90234a4.74375,4.74375,0,0,1-.34864.89844,5.56884,5.56884,0,0,1-.60644.92383.66257.66257,0,0,0-.23633.252,1.56688,1.56688,0,0,1-.15039.24121.49634.49634,0,0,1-.15137.24219,1.26126,1.26126,0,0,0-.23535.251,5.91189,5.91189,0,0,1-2.04,1.3789,6.81829,6.81829,0,0,1-4.64844-.46484,3.752,3.752,0,0,1-1.86914-1.3711,3.51275,3.51275,0,0,1-.792-1.92773c-.04-.41992-.06348-.79883-.06543-1.13281-.00391-.332.00684-.6836.0293-1.05078.0625-.55274.15527-1.10743.27441-1.666l.18164-.83594,13.47657-47.93554.37792-1.49414a5.10117,5.10117,0,0,1,.33594-1.03516,4.70393,4.70393,0,0,0,.32617-1.124,13.738,13.738,0,0,1,.74805-2.167,5.65634,5.65634,0,0,1,.50684-1.05175q.30029-.48193.60254-.96778a3.73928,3.73928,0,0,1,1.35058-1.31347,8.93074,8.93074,0,0,1,5.59473-.53614A3.74706,3.74706,0,0,1,160.348,38.703q.6797.7544,1.47266,1.77149a13.885,13.885,0,0,1,1.14648,1.98535,4.59062,4.59062,0,0,0,.53418,1.042,5.28485,5.28485,0,0,1,.52539.95215l.6543,1.39551,22.33056,44.50488.33594.78711C187.57213,91.66687,187.76647,92.19519,187.93444,92.72546ZM165.4149,72.56335q-1.36888-2.51073-2.79931-5.19921-1.42969-2.68361-2.99805-5.45215-.42187-.77784-.84863-1.60449c-.28418-.54786-.56738-1.084-.84863-1.60352q-.18018.83788-.44239,1.72754-.2622.89209-.52832,1.73535-1.01513,3.01466-1.9082,5.92285-.895,2.91065-1.7627,5.63574l-1.16894,4.12012,15.23584-1.46Z" transform="translate(0)"/>
      <path class="cls-3" d="M239.61608,89.96179a4.31609,4.31609,0,0,1-.00782,1.73047,2.66646,2.66646,0,0,1-.38769.94922,5.77964,5.77964,0,0,1-.66211.791,9.561,9.561,0,0,1-1.79883,1.17578c-.44824.16406-.88183.3125-1.30469.44336a2.90472,2.90472,0,0,1-1.33691.083,3.75772,3.75772,0,0,1-2.51465-.85254,12.07591,12.07591,0,0,1-2.67871-2.56738q-.49952-.68115-1.10156-1.53515a18.86289,18.86289,0,0,1-1.12891-1.80469L215.3153,70.243c-.46094.044-.918.10352-1.374.17578q-.68408.1128-1.36328.26856a21.93872,21.93872,0,0,1-3.3916.415,31.95108,31.95108,0,0,0-3.31348.3164l-1.63574.15723,1.56543,16.34082c.0459.48145.07324.93359.08594,1.35742.01074.42481.041.877.08691,1.35938q.044.45117.06934,1.17773c.01562.48438.0166.94043,0,1.36524a6.21256,6.21256,0,0,1-.5791,2.10546,5.52892,5.52892,0,0,1-1.4668,1.917,5.67265,5.67265,0,0,1-4.33008,1.05175,7.42153,7.42153,0,0,1-2.23828-.69531,2.69379,2.69379,0,0,1-.668-.61914,4.762,4.762,0,0,1-.51269-.8164,8.85486,8.85486,0,0,1-.39161-.91993,9.22573,9.22573,0,0,0-.3916-.918,6.22255,6.22255,0,0,1-.42285-1.6914l-4.91113-51.27539c-.03516-.36133-.05762-.73731-.06543-1.13184a8.86447,8.86447,0,0,1,.03027-1.05176,5.267,5.267,0,0,1,.41211-2.043,2.60909,2.60909,0,0,1,.71289-1.61719,4.3169,4.3169,0,0,1,1.502-1.10156,8.38545,8.38545,0,0,1,3.11132-.61524q3.8833-.27978,7.66993-.64453,3.78661-.36329,7.59179-.544,2.51367-.05712,5.35059.07911a22.00875,22.00875,0,0,1,5.34082.90039q1.61279.48339,2.96191.99218a15.52337,15.52337,0,0,1,2.76465,1.64746,18.873,18.873,0,0,1,5.22852,6.51465,23.03668,23.03668,0,0,1,2.33593,8.06641,18.58816,18.58816,0,0,1-1.33886,9.14746,13.513,13.513,0,0,1-6.43555,6.7207.802.802,0,0,1-.45215.27051,1.60757,1.60757,0,0,0-.46094.18067L235.911,83.0282l.91308,1.37012q.20655.34569.50782.7705a6.80085,6.80085,0,0,1,.51758.86133,8.1029,8.1029,0,0,1,.56835.94922,7.6691,7.6691,0,0,0,.56934.94727Q239.3651,89.16735,239.61608,89.96179ZM215.01842,59.88562a7.74609,7.74609,0,0,0,2.91309-.87109,9.62976,9.62976,0,0,0,2.43164-1.82715,9.1848,9.1848,0,0,0,1.71582-2.48731,6.22277,6.22277,0,0,0,.58789-2.92773q-.08936-4.54541-2.88281-6.50977a10.89962,10.89962,0,0,0-7.02832-1.74121q-2.51514.06006-5.4834.34278-2.96925.28417-5.6377.54.438,3.69581.76465,7.53418.32226,3.84229.82617,9.07618Z" transform="translate(0)"/>
      <path class="cls-3" d="M283.03307,28.13464a3.86026,3.86026,0,0,1,1.18066,2.34668q.05274.542.06543,1.13282a9.75357,9.75357,0,0,1-.02929,1.05078,4.37419,4.37419,0,0,1-.9375,2.00293,4.73642,4.73642,0,0,1-1.81543.99316,8.58167,8.58167,0,0,1-1.17969.3877,12.02013,12.02013,0,0,0-1.26465.39355,7.91091,7.91091,0,0,1-1.19727.20508q-.602.05859-1.291.125l-4.38965.41992q-1.541.23877-3.04785.38281-1.50732.145-2.96973.28516.35449,2.792.66114,5.99414.3076,3.20508.67089,7.45117.36181,4.248.85645,9.84863.49073,5.603,1.20215,13.00293l.65722,6.86133a7.69416,7.69416,0,0,0,.21582,1.34668c.02247.24121.04493.4668.06446.67676a4.21346,4.21346,0,0,1-.0127.77539,14.769,14.769,0,0,0-.07617,1.91992,4.13,4.13,0,0,1-.00488.86621,5.8524,5.8524,0,0,1-.17481.88184,1.01791,1.01791,0,0,0-.293.57422l-.20605.56836A4.57637,4.57637,0,0,1,268.246,90.4989a5.93584,5.93584,0,0,1-4.17481.85547,4.36759,4.36759,0,0,1-2.31542-.59766,5.54449,5.54449,0,0,1-1.2754-1.51855,5.2263,5.2263,0,0,1-.78418-1.83789,5.66168,5.66168,0,0,1-.42187-1.69043l-4.44434-46.40039q-.51708.04833-2.15136.20508-1.63623.1582-3.49121.28906-1.85449.13476-3.499.19922c-1.09668.04492-1.84863.05469-2.25586.03418-.34961-.02637-.88867-.06739-1.61816-.11914s-1.3291-.11426-1.79981-.19239a5.98407,5.98407,0,0,1-3.0039-1.4414,4.0963,4.0963,0,0,1-1.19824-2.5293c-.03418-.36133-.06836-.7207-.10352-1.082A2.76762,2.76762,0,0,1,235.786,33.663a2.9769,2.9769,0,0,1,1.20508-1.9375,8.45619,8.45619,0,0,1,1.01074-.78027,6.21378,6.21378,0,0,1,1.36426-.72363,12.52468,12.52468,0,0,1,2.53027-.78906,10.88793,10.88793,0,0,1,1.36914-.22071q.68849-.06738,1.46289-.14062,3.01172-.28859,5.72461-.54883,2.71143-.25928,5.71484-.63867,4.98341-.56544,9.93848-.9961,4.95117-.42919,9.87695-.71972,1.125-.01613,2.17774.06543a9.16375,9.16375,0,0,1,2.126.43359,8.26992,8.26992,0,0,1,1.52929.53711A3.5147,3.5147,0,0,1,283.03307,28.13464Z" transform="translate(0)"/>
    </g>
  </g>
</svg>
