<svg xmlns="http://www.w3.org/2000/svg" xmlns:xlink="http://www.w3.org/1999/xlink" width="488.89611" height="143.798" viewBox="0 0 488.89611 143.798"><defs><style>.cls-1{fill:none;}.cls-2{clip-path:url(#clip-path);}.cls-3{fill:#eca442;}.cls-4{fill:#a67c52;}.cls-5{fill:#597718;}</style><clipPath id="clip-path" transform="translate(0.07806 -0.02229)"><rect class="cls-1" width="488.90201" height="145.161"/></clipPath></defs><g id="Layer_2" data-name="Layer 2"><g id="Layer_1-2" data-name="Layer 1"><g id="Achievements"><g class="cls-2"><g class="cls-2"><path class="cls-3" d="M13.6469,140.8202a2.99922,2.99922,0,0,1-2.986-2.751l-7.728-92.679a2.99937,2.99937,0,0,1,2.74-3.238l469.169-39.119c.083-.007.166-.011.249-.011a3.00068,3.00068,0,0,1,2.99,2.751l7.726,92.679a2.999,2.999,0,0,1-2.74,3.238l-469.168,39.119c-.085.008-.169.011-.252.011" transform="translate(0.07806 -0.02229)"/><path class="cls-4" d="M475.09109,6.02229l7.728,92.679-469.169,39.119-7.728-92.679,469.169-39.119m.007-6c-.168,0-.336.007-.506.021l-469.169,39.119a5.99838,5.99838,0,0,0-5.48,6.477l7.727,92.679a6.00134,6.00134,0,0,0,5.979,5.502c.166,0,.333-.007.499-.022l469.169-39.118a5.9973,5.9973,0,0,0,5.48-6.477l-7.727-92.679a6.00051,6.00051,0,0,0-5.972-5.502" transform="translate(0.07806 -0.02229)"/></g><path class="cls-5" d="M107.20215,55.207a4.157,4.157,0,0,1,1.04492,2.37012q.04541.542.05615,1.13281.00952.59179-.02832,1.04883a4.5152,4.5152,0,0,1-.83594,1.98144,3.99593,3.99593,0,0,1-1.61425.95313,6.90808,6.90808,0,0,1-1.04737.36035,10.06859,10.06859,0,0,0-1.125.36621,6.23235,6.23235,0,0,1-1.063.17969q-.53614.04541-1.147.0957l-3.89941.3252q-1.3689.20653-2.707.31738-1.33887.11133-2.63819.21875.30909,2.79786.57764,6.00391.26733,3.20947.583,7.459.31567,4.25244.74512,9.85742.42773,5.60742,1.04687,13.01758l.57227,6.86719a8.82413,8.82413,0,0,0,.18994,1.34961c.02.24219.03906.46679.05664.67773a4.86241,4.86241,0,0,1-.0127.77539,16.33108,16.33108,0,0,0-.0708,1.917,4.71489,4.71489,0,0,1-.00537.86425,6.385,6.385,0,0,1-.15771.87793,1.0468,1.0468,0,0,0-.26026.56739l-.18457.56152a4.39669,4.39669,0,0,1-1.30957,1.83789,4.73529,4.73529,0,0,1-3.709.76465,3.60635,3.60635,0,0,1-2.05567-.64746,5.5935,5.5935,0,0,1-1.12988-1.54395,5.66556,5.66556,0,0,1-.69336-1.85351,6.29266,6.29266,0,0,1-.373-1.69727l-3.873-46.45312c-.30567.02539-.94434.0791-1.91114.16015q-1.45458.12012-3.10107.21289-1.64868.09229-3.10791.123-1.46118.03222-2.00342-.01563-.46654-.0498-1.437-.15234-.97192-.10107-1.59814-.23144a5.2472,5.2472,0,0,1-2.66651-1.50684,4.40237,4.40237,0,0,1-1.05957-2.55078q-.04541-.542-.09033-1.084A3.0937,3.0937,0,0,1,65.229,59.707a2.96393,2.96393,0,0,1,1.07227-1.9082,7.471,7.471,0,0,1,.90039-.75781,5.1779,5.1779,0,0,1,1.21289-.69239,9.86691,9.86691,0,0,1,2.248-.7334,8.60362,8.60362,0,0,1,1.21582-.19335c.4082-.03321.84179-.07032,1.2998-.10743q2.67627-.22412,5.085-.42383,2.40967-.20214,5.07764-.51562,4.42676-.45849,8.82813-.78125,4.40112-.31934,8.77441-.50391a18.97978,18.97978,0,0,1,1.93457.11231,7.40607,7.40607,0,0,1,1.88769.47949,6.96956,6.96956,0,0,1,1.35645.56934A3.28659,3.28659,0,0,1,107.20215,55.207Z" transform="translate(0.07806 -0.02229)"/><path class="cls-5" d="M158.38623,108.544a4.83642,4.83642,0,0,1-.00928,1.72949,2.80982,2.80982,0,0,1-.34521.93945,5.63282,5.63282,0,0,1-.58985.77734,8.34822,8.34822,0,0,1-1.59912,1.13379c-.39892.1543-.78418.292-1.15869.415a2.282,2.282,0,0,1-1.18945.05371,3.18133,3.18133,0,0,1-2.23145-.90625,11.79971,11.79971,0,0,1-2.375-2.623q-.44384-.68994-.97656-1.55567a20.32166,20.32166,0,0,1-.999-1.82812L136.835,88.31836q-.613.05127-1.22021.14746-.60937.09668-1.21192.2373a17.09,17.09,0,0,1-3.01269.3418,24.4405,24.4405,0,0,0-2.94434.2461l-1.45215.12109,1.36377,16.35742q.06006.72363.07422,1.35938c.00879.42382.03516.87695.0752,1.35839q.03735.45264.05957,1.17774.02124.728-.002,1.36523a6.69234,6.69234,0,0,1-.51855,2.09082,5.34536,5.34536,0,0,1-1.30567,1.88379,4.55821,4.55821,0,0,1-3.84716.958,6.28362,6.28362,0,0,1-1.98682-.74512,2.56092,2.56092,0,0,1-.5918-.63379,5.00546,5.00546,0,0,1-.45459-.82617,9.83587,9.83587,0,0,1-.34668-.92578q-.15526-.48633-.34668-.92773a7.03018,7.03018,0,0,1-.37207-1.69727l-4.27978-51.332c-.03027-.36133-.04981-.73828-.05615-1.13281a10.18248,10.18248,0,0,1,.02783-1.04981,5.78825,5.78825,0,0,1,.36963-2.03222,2.68474,2.68474,0,0,1,.63672-1.60059,3.74661,3.74661,0,0,1,1.335-1.06641,6.61708,6.61708,0,0,1,2.76562-.5498q3.44751-.19482,6.8125-.47656,3.36329-.28125,6.74365-.38086,2.23244-.00147,4.752.19531a17.82054,17.82054,0,0,1,4.74267,1.01563q1.4297.51855,2.62891,1.05468a14.00474,14.00474,0,0,1,2.45215,1.707,19.18528,19.18528,0,0,1,4.6333,6.6211,25.58356,25.58356,0,0,1,2.062,8.1084,20.49548,20.49548,0,0,1-1.20361,9.11035,12.54715,12.54715,0,0,1-5.72754,6.57422.67919.67919,0,0,1-.40186.26172,1.25391,1.25391,0,0,0-.40918.16992l8.42871,16.13281.80909,1.38867c.12158.23242.27246.49317.45019.78125a7.043,7.043,0,0,1,.45752.87109,8.5315,8.5315,0,0,1,.50342.959,8.05451,8.05451,0,0,0,.50342.959Q158.166,107.74414,158.38623,108.544ZM136.5874,77.96484a6.19357,6.19357,0,0,0,2.58936-.80761,8.42858,8.42858,0,0,0,2.16211-1.77246,8.96165,8.96165,0,0,0,1.52783-2.44922,6.78982,6.78982,0,0,0,.52783-2.91016q-.07251-4.54248-2.5498-6.56641a9.02529,9.02529,0,0,0-6.23975-1.89062q-2.23463.00293-4.87109.22266-2.63819.21972-5.00879.418.38452,3.70167.667,7.543.282,3.84669.71973,9.08594Z" transform="translate(0.07806 -0.02229)"/><path class="cls-5" d="M173.291,49.05957a20.08916,20.08916,0,0,1,9.125-2.76269,14.87615,14.87615,0,0,1,7.66259,1.86328,19.6874,19.6874,0,0,1,6.11377,5.45117,35.84472,35.84472,0,0,1,4.47852,7.999,46.06749,46.06749,0,0,1,2.36133,7.083,59.00385,59.00385,0,0,1,1.74023,14.87109,45.83805,45.83805,0,0,1-.55078,6.7793,31.90148,31.90148,0,0,1-.75391,3.88477,33.145,33.145,0,0,1-1.167,3.55566,18.51656,18.51656,0,0,1-4.40478,6.7373,18.1828,18.1828,0,0,1-6.32764,3.98536,16.67882,16.67882,0,0,1-4.99024,1.09863,18.60425,18.60425,0,0,1-5.19042-.38672,19.55977,19.55977,0,0,1-5.04444-1.85352,18.9223,18.9223,0,0,1-4.55664-3.39648,23.58468,23.58468,0,0,1-4.42334-5.95605,40.59145,40.59145,0,0,1-2.99609-7.30372,52.16512,52.16512,0,0,1-1.73-7.81836,62.98006,62.98006,0,0,1-.63282-7.59082,45.67128,45.67128,0,0,1,.51319-7.23242,35.7015,35.7015,0,0,1,1.95117-7.53418,29.57579,29.57579,0,0,1,3.55957-6.71289A15.89922,15.89922,0,0,1,173.291,49.05957Zm21.11816,37.18848a40.213,40.213,0,0,0-.03369-9.64356,42.294,42.294,0,0,0-2.28906-9.91015,23.77538,23.77538,0,0,0-2.52881-4.93067,10.01341,10.01341,0,0,0-3.26514-3.14062,6.974,6.974,0,0,0-4.1123-.83985,10.52362,10.52362,0,0,0-4.9878,2.05274,9.14637,9.14637,0,0,0-2.6416,2.95117,15.46066,15.46066,0,0,0-1.58691,4.04492,33.24488,33.24488,0,0,0-.89063,9.17481q.04174,2.36426.334,4.93164a39.09121,39.09121,0,0,0,.92627,5.11035,31.77083,31.77083,0,0,0,1.59228,4.78125,15.16984,15.16984,0,0,0,2.40772,3.93945,10.5976,10.5976,0,0,0,4.93847,3.36524,8.07079,8.07079,0,0,0,5.26465-.1211q4.114-1.43555,5.87305-7.13281A18.77906,18.77906,0,0,0,194.40918,86.24805Z" transform="translate(0.07806 -0.02229)"/><path class="cls-5" d="M243.01611,46.7959a19.80441,19.80441,0,0,1,4.91114,7.18848,23.49348,23.49348,0,0,1,1.79785,8.63183,18.56275,18.56275,0,0,1-1.58057,7.82129,12.3424,12.3424,0,0,1-5.3706,5.77148,25.08376,25.08376,0,0,1-5.86036,2.67286,61.27017,61.27017,0,0,1-6.49267,1.542q-1.59082.31641-2.6958.45312-1.106.1377-2.5503.34864c-.20459.0166-.54834.04589-1.03271.08593a4.11385,4.11385,0,0,0-1.02441.17676l1.55957,18.707q-.0857,1.73731-.27979,3.57227a4.21758,4.21758,0,0,1-1.563,2.95117,4.36207,4.36207,0,0,1-2.0122.80469,8.89193,8.89193,0,0,1-2.2251.0957,4.44491,4.44491,0,0,1-1.853-.52832,3.50211,3.50211,0,0,1-1.33252-1.66309,18.246,18.246,0,0,1-.728-1.80566,10.48037,10.48037,0,0,1-.48193-2.55371l-4.167-49.97656a8.35235,8.35235,0,0,1-.02149-1.18067c.01953-.36523.041-.73144.062-1.09668a5.59266,5.59266,0,0,0,.147-1.01367,5.4285,5.4285,0,0,1,.146-1.01367,5.69414,5.69414,0,0,1,.27637-.8418,2.23315,2.23315,0,0,1,.44434-.67383,3.31864,3.31864,0,0,1,1.11767-.9121,6.16438,6.16438,0,0,1,2.37891-.5625l.15283-.01368q2.35327-.37645,5.24951-.75586a26.60359,26.60359,0,0,1,4.82862-.26562,16.65322,16.65322,0,0,0,2.00732.06055q.92065-.03077,1.76953-.01172.92579.01464,1.85059.02832.925.01318,1.85742.11816.77929.11719,1.4375.15235a11.916,11.916,0,0,1,1.36084.16015q.62622.13038,1.36816.25a3.80788,3.80788,0,0,1,1.39112.52051,9.38637,9.38637,0,0,1,2.78906,1.13184Q241.78614,45.89844,243.01611,46.7959Zm-3.34472,15.29394a7.86794,7.86794,0,0,0-1.043-3.73535,7.4929,7.4929,0,0,0-2.48145-2.52344,12.062,12.062,0,0,0-3.43164-1.44238,20.52483,20.52483,0,0,0-3.7456-.59863c-.30567.02539-.728.04687-1.26563.06055q-.8064.022-1.72754.05273-.92139.03369-1.72851.05371-.8064.022-1.26514.05957a4.08257,4.08257,0,0,0-.92529-.01367q-.53541.044-1.22315.10156.30836,2.79639.52442,5.3711.21533,2.57666.46338,5.55761.05933,1.63478.19531,3.25977.13549,1.62744.26367,3.16406l4.7334-.48633a33.53514,33.53514,0,0,0,4.02978-.60937,16.264,16.264,0,0,0,4.11524-1.43457,9.4395,9.4395,0,0,0,3.207-2.63379A6.72265,6.72265,0,0,0,239.67139,62.08984Z" transform="translate(0.07806 -0.02229)"/><path class="cls-5" d="M294.90674,41.19531a10.05725,10.05725,0,0,1,.1748,1.168q.04542.542.09034,1.085l.30908,3.70508,3.45166,46.94238.07519.90235a8.66382,8.66382,0,0,1-.09326,1.64648,7.51265,7.51265,0,0,1-.15088.96875q-.11206.50976-.21875,1.06445a3.49243,3.49243,0,0,1-.93506,1.71582,3.38,3.38,0,0,1-1.90527,1.16016,5.11267,5.11267,0,0,1-3.9375-.12695,3.75892,3.75892,0,0,1-1.52686-1.69238,2.10619,2.10619,0,0,1-.35107-.51758,1.60977,1.60977,0,0,0-.19824-.5293,5.47822,5.47822,0,0,1-.3086-.92969c-.07861-.32617-.15966-.66894-.23925-1.02636-.02539-.30079-.06348-.60059-.11377-.90137q-.0769-.44677-.18994-.89356a2.43935,2.43935,0,0,1-.2168-.75488c-.01758-.21094-.03906-.46582-.064-.76758a4.03949,4.03949,0,0,0,.03955-1.36914l-.519-7.14648-.87256-11.39258-4.12988.34375L267.562,75.23438l1.625,21.34082.0752.90332A8.67134,8.67134,0,0,1,269.169,99.125a7.63623,7.63623,0,0,1-.14991.96777c-.07568.34082-.148.69434-.21924,1.06543a3.49292,3.49292,0,0,1-.93554,1.71582,3.37953,3.37953,0,0,1-1.90479,1.15918,5.11258,5.11258,0,0,1-3.9375-.12695,5.23517,5.23517,0,0,1-1.60351-1.68555,1.544,1.544,0,0,1-.19776-.52929l-.27539-.52344a5.50518,5.50518,0,0,1-.3081-.92969c-.0791-.32617-.15918-.66992-.23975-1.02637a5.56,5.56,0,0,0-.15185-.89746c-.07618-.29687-.15332-.59375-.228-.89062a7.6344,7.6344,0,0,1-.12793-1.53711l-.11328-1.35547-.519-7.14648-.95507-13.29688q-.16481-2.89746-.41993-5.97168-.25633-3.0703-.52734-6.32617-.34936-3.24756-.521-5.78027-.17284-2.53125-.28369-5.71l-.03027-.36132q0-.9082-.07764-1.8584c-.05273-.63281-.08154-1.28125-.08593-1.94922a13.12221,13.12221,0,0,1,.1206-1.78516,10.19848,10.19848,0,0,1,.42676-1.81054,3.92258,3.92258,0,0,1,.51025-1.27051,6.21127,6.21127,0,0,1,.83887-1.02539,4.786,4.786,0,0,1,2.38574-.92676c.40772-.03418.7666-.04883,1.07471-.04492.3081.00586.61816.02637.92871.05859a2.73345,2.73345,0,0,1,1.84912.93945,3.38081,3.38081,0,0,1,.96191,1.375,9.50052,9.50052,0,0,1,.63184,2.041,10.05954,10.05954,0,0,1,.17481,1.168q.04467.542.09033,1.085l.30908,3.70508,1.09033,14.9248q.61085-.05127,1.41455-.11816c.53516-.04492,1.15674-.126,1.86573-.24707q3.97559-.331,7.92187-.56934,3.94482-.2373,8.30371-.60156l.07666-.00684q-.3391-4.06639-.60986-7.77441-.271-3.70752-.45655-7.78809-.07544-.90234-.11621-1.85546-.041-.95216-.04736-1.95313a13.12231,13.12231,0,0,1,.12061-1.78516,10.1276,10.1276,0,0,1,.42675-1.80957,2.71842,2.71842,0,0,1,.47168-1.26757,6.05985,6.05985,0,0,1,.95362-1.03614,4.16248,4.16248,0,0,1,2.30957-.91992q.61083-.0498,1.11279-.04687a6.96072,6.96072,0,0,1,.89063.06152,2.73139,2.73139,0,0,1,1.84863.93848,2.39139,2.39139,0,0,1,.96191,1.375q.19776.53027.35449,1.01757C294.65674,40.50391,294.77393,40.8418,294.90674,41.19531Z" transform="translate(0.07806 -0.02229)"/><path class="cls-5" d="M307.63721,90.457l-.51807-7.14648-1.03174-13.291q-.16553-2.89746-.42041-5.9707-.25635-3.07032-.52734-6.32617-.27173-3.25342-.48242-5.78321-.21095-2.52978-.32178-5.707l-.03027-.36133q-.00074-.90821-.03956-1.8623-.04174-.95068-.124-1.94629a10.87677,10.87677,0,0,1,.54736-3.59473,5.74186,5.74186,0,0,1,1.42481-2.30273,4.67877,4.67877,0,0,1,2.31006-.9209q.61156-.0498,1.11279-.04687c.333.0039.65625.02246.96729.05566a3.01332,3.01332,0,0,1,1.84863.93848,4.1252,4.1252,0,0,1,.96142,1.375q.19849.53027.355,1.01757c.104.32618.1958.666.27734,1.02344q.12818.627.21289,1.165c.05518.36035.09863.71973.12891,1.08106.03515.42187.05322.80078.05566,1.13281.00146.334.01855.68164.04834,1.043l.12842,1.53613,3.45215,46.94238.07519.90332c.01514.18067.021.40821.01807.68067q-.00587.41161-.03565.959-.11572.46728-.18847.97168c-.04883.33887-.10938.69141-.18067,1.06152a8.87941,8.87941,0,0,1-.42578.9004,4.43592,4.43592,0,0,1-.58594.82226,3.38181,3.38181,0,0,1-1.90527,1.16016,5.1693,5.1693,0,0,1-3.937-.12793,3.93229,3.93229,0,0,1-1.45117-1.69825.84389.84389,0,0,1-.27442-.52343,1.13372,1.13372,0,0,0-.17529-.25781,1.04915,1.04915,0,0,1-.17578-.25879,5.49181,5.49181,0,0,1-.30859-.92969,6.79661,6.79661,0,0,1-.1626-1.0332c-.07715-.2959-.14014-.59473-.19043-.89454q-.07691-.44677-.19043-.89355a7.77961,7.77961,0,0,1-.12793-1.53711Z" transform="translate(0.07806 -0.02229)"/><path class="cls-5" d="M333.52148,44.43555l1.03028,14.20117,3.0581-.25391q3.12744-.3501,5.57422-.55566,2.447-.20361,5.437-.36231l.38233-.03222c.61181-.05176,1.21094-.085,1.80029-.1045.58838-.01757,1.16309-.05175,1.72461-.09863a11.1447,11.1447,0,0,1,1.78564.16992c.57325.1045,1.14649.22266,1.72364.35743a5.20886,5.20886,0,0,1,2.27636,1.44824,4.73079,4.73079,0,0,1,.9834,2.55664c.02442.30176.05371.64844.08594,1.03906a3.28575,3.28575,0,0,1-.06543,1.05274,3.184,3.184,0,0,1-.84375,1.88964,2.24779,2.24779,0,0,1-1.37793,1.02442,7.84759,7.84759,0,0,1-1.95019.61816,8.69034,8.69034,0,0,1-2.11817.44922l-3.59424.29981-14.13867,1.2705,1.32422,17.72559L351.85107,86.043l3.59375-.29883q.61085-.05274,1.14649-.0957a5.17361,5.17361,0,0,1,1.00195.00683,5.74879,5.74879,0,0,0,1.12793.13379,3.51955,3.51955,0,0,1,.97461.14551,4.32686,4.32686,0,0,1,1.61231.86621,4.53243,4.53243,0,0,1,1.15234,1.81543q.11279.44678.19336.93945a4.93043,4.93043,0,0,1,.04883,1.043,4.72138,4.72138,0,0,1-.54688,2.68457,4.10336,4.10336,0,0,1-2.00488,1.80469,7.69894,7.69894,0,0,1-3.44922,1.10645,16.64116,16.64116,0,0,1-1.752.2373,16.12259,16.12259,0,0,0-1.751.23731l-.459.03808q-5.94947.67675-12.38721,1.0332-1.53076.12745-2.45068.15821c-.61377.01953-1.16407.05176-1.64795.09179q-.728.06153-1.49073.125-.76611.063-1.98828.165a3.88931,3.88931,0,0,1-2.96631-.48047,4.07794,4.07794,0,0,1-1.44238-1.60839.84563.84563,0,0,1-.27539-.52344,1.14039,1.14039,0,0,0-.17529-.25781,1.05675,1.05675,0,0,1-.17578-.25879,5.58009,5.58009,0,0,1-.3086-.92969,6.2288,6.2288,0,0,1-.15527-.94238q-.11426-.44532-.18994-.89453c-.05078-.29883-.11475-.59571-.18994-.89454l-.12061-1.44531a6.65683,6.65683,0,0,1-.02246-.72656,6.94691,6.94691,0,0,0-.02148-.72656l-.5879-7.04883-.93212-13.02637L324.209,56.49609q-.271-3.252-.44384-5.78613-.17359-2.53272-.34522-5.52246l-.0376-.45117q-.00732-1.00049-.03955-1.86328-.03442-.86133-.10888-1.76465a9.61547,9.61547,0,0,1,.54687-3.59473,8.70876,8.70876,0,0,1,.54492-1.32031,2.78214,2.78214,0,0,1,.88086-.98242,4.06012,4.06012,0,0,1,2.30225-1.01172,3.57736,3.57736,0,0,1,.92529.01367l-.00732-.08984q1.37622-.11425,2.21728-.18555.84082-.07032,1.644-.13672c.53515-.04492,1.10693-.10644,1.7163-.18945q.91481-.12012,2.51954-.25488,3.05053-.34425,5.80419-.5752,2.75317-.22851,5.66553-.38086l.30664-.02539a16.54778,16.54778,0,0,0,1.76612-.05664,17.04947,17.04947,0,0,1,1.76562-.05664,6.54187,6.54187,0,0,1,1.70166.08594,12.76378,12.76378,0,0,1,1.73145.44726,4.57319,4.57319,0,0,1,2.26855,1.35742,5.28191,5.28191,0,0,1,.89942,2.47266c.03027.3623.05859.709.08691,1.04a2.949,2.949,0,0,1-.07422.96191,3.48746,3.48746,0,0,1-.75879,1.97461,6.02244,6.02244,0,0,0-.6123.50586,3.18383,3.18383,0,0,1-.76563.51856,3.37612,3.37612,0,0,1-.93652.30566c-.33008.05859-.64356.13086-.94434.21582a3.93927,3.93927,0,0,1-1.09375.27246q-.498.04248-1.10888.09278l-3.44141.2871L333.49854,44.165Z" transform="translate(0.07806 -0.02229)"/><path class="cls-5" d="M406.87305,65.34766a17.05392,17.05392,0,0,1,.81054,2.79882,27.07635,27.07635,0,0,1,.53516,6.416,21.60324,21.60324,0,0,1-.2666,2.79883,16.56634,16.56634,0,0,1-4.18945,8.8584,22.60486,22.60486,0,0,1-7.96338,5.623,24.08644,24.08644,0,0,1-9.6211,1.89356,19.31826,19.31826,0,0,1-9.15625-2.23926,16.90092,16.90092,0,0,1-4.53711-3.626,24.90561,24.90561,0,0,1-3.41992-4.99218,6.97159,6.97159,0,0,1-.76562-2.25782,7.60545,7.60545,0,0,1-.01953-2.54492,6.23708,6.23708,0,0,1,.81347-2.252,3.5251,3.5251,0,0,1,1.80274-1.4707,7.57945,7.57945,0,0,1,1.70507-.32422,5.73147,5.73147,0,0,1,1.89942.16015,4.98288,4.98288,0,0,1,1.76562.8545,4.73277,4.73277,0,0,1,1.377,1.75,11.62841,11.62841,0,0,0,2.69922,3.27832,15.25029,15.25029,0,0,0,3.541,2.29882,11.52791,11.52791,0,0,0,5.15234.38965,11.06185,11.06185,0,0,0,4.55176-1.74512,9.48189,9.48189,0,0,0,3.13574-3.49218,8.48635,8.48635,0,0,0,.91211-4.7627,10.19237,10.19237,0,0,0-.833-3.52441,6.59,6.59,0,0,0-1.6875-2.22559,8.23979,8.23979,0,0,0-2.42579-1.38965,19.00161,19.00161,0,0,0-3.03417-.83984,26.1576,26.1576,0,0,0-3.76172-.32324q-1.88819-.02345-3.82227-.13574a38.01647,38.01647,0,0,1-3.80762-.41114,16.38654,16.38654,0,0,1-3.70605-1.05566,11.71909,11.71909,0,0,1-5.79-4.79492,19.9978,19.9978,0,0,1-2.8125-7.41016,22.44725,22.44725,0,0,1,.12891-8.15527,17.83243,17.83243,0,0,1,3.09375-7.21973,13.91389,13.91389,0,0,1,5.53613-4.23828,27.83894,27.83894,0,0,1,7.42383-1.93848,30.255,30.255,0,0,1,4.6416-.20605,27.8255,27.8255,0,0,1,4.58594.5293A21.42431,21.42431,0,0,1,395.55322,30.71a13.89837,13.89837,0,0,1,3.44629,2.0791,12.98369,12.98369,0,0,1,2.1875,2.22852,12.71145,12.71145,0,0,1,1.793,3.03515,7.50392,7.50392,0,0,1,.61182,3.17969,3.821,3.821,0,0,1-1.42627,2.75781,3.27005,3.27005,0,0,1-2.26758.96289,4.73423,4.73423,0,0,1-2.1709-.63671,13.83,13.83,0,0,1-2.043-1.42383q-.99316-.82472-1.81836-1.48633a11.03675,11.03675,0,0,0-5.32715-2.01172,17.10653,17.10653,0,0,0-5.75683.20606,13.07185,13.07185,0,0,0-3.06055,1.166,7.29931,7.29931,0,0,0-3.72461,4.72363,8.483,8.483,0,0,0-.123,3.60547,4.83826,4.83826,0,0,0,.92968,2.37891,5.57159,5.57159,0,0,0,1.74121,1.49219,8.29773,8.29773,0,0,0,2.18555.81933,15.684,15.684,0,0,0,2.33984.35059q3.48488.25635,6.94922.24023a19.46974,19.46974,0,0,1,6.87989,1.2461A17.41708,17.41708,0,0,1,402.98,59.30273,15.16222,15.16222,0,0,1,406.87305,65.34766Z" transform="translate(0.07806 -0.02229)"/></g></g></g></g></svg>