<svg xmlns="http://www.w3.org/2000/svg" xmlns:xlink="http://www.w3.org/1999/xlink" width="488.9014" height="143.843" viewBox="0 0 488.9014 143.843"><defs><style>.cls-1{fill:none;}.cls-2{clip-path:url(#clip-path);}.cls-3{fill:#eca442;}.cls-4{fill:#a67c52;}.cls-5{fill:#597718;}</style><clipPath id="clip-path" transform="translate(-0.00059 0.00011)"><rect class="cls-1" width="488.90201" height="145.161"/></clipPath></defs><g id="Layer_2" data-name="Layer 2"><g id="Layer_1-2" data-name="Layer 1"><g id="Unlimited"><g class="cls-2"><g class="cls-2"><path class="cls-3" d="M13.7368,140.8426a3.00081,3.00081,0,0,1-2.989-2.75l-7.737-92.678a3.00063,3.00063,0,0,1,2.74-3.239l469.166-39.165c.083-.007.166-.011.249-.011a3.0007,3.0007,0,0,1,2.989,2.751l7.736,92.678a2.99892,2.99892,0,0,1-2.739,3.238l-469.165,39.165c-.084.007-.167.011-.25.011" transform="translate(-0.00059 0.00011)"/><path class="cls-4" d="M475.16528,5.99989l7.736,92.678-469.165,39.165-7.736-92.678,469.165-39.165m.006-6c-.167,0-.336.007-.506.021L5.50128,39.1859a5.999,5.999,0,0,0-5.48,6.478l7.736,92.678a6.00128,6.00128,0,0,0,5.973,5.501c.168,0,.336-.007.505-.021l469.165-39.165a5.99891,5.99891,0,0,0,5.481-6.478l-7.737-92.678a5.99989,5.99989,0,0,0-5.973-5.501" transform="translate(-0.00059 0.00011)"/><path class="cls-5" d="M83.53809,60.0625a99.21048,99.21048,0,0,1,1.44384,10.02637q.56471,5.73266.83692,11.5791.26954,5.84619.10156,11.09375a59.053,59.053,0,0,1-.76758,8.48144q-.4453,1.94679-1.09326,4.04981a28.514,28.514,0,0,1-1.46094,3.80762,17.91982,17.91982,0,0,1-3.00244,4.57324,21.82679,21.82679,0,0,1-4.0874,3.52539,22.86436,22.86436,0,0,1-4.82813,2.45117,22.586,22.586,0,0,1-5.146,1.248,21.47661,21.47661,0,0,1-8.77686-.67676,21.848,21.848,0,0,1-7.95947-4.38574,23.39123,23.39123,0,0,1-4.60352-5.25782,30.04031,30.04031,0,0,1-2.937-6.08007,35.54789,35.54789,0,0,1-1.64648-6.73438q-.51049-3.50536-.81934-7.21094-.14355-1.7168-.40185-4.28906-.25856-2.57226-.4878-5.32861-.23-2.7561-.44873-5.37695-.21825-2.6206-.28369-4.43555-.09814-1.17334-.21484-2.57617-.1172-1.39966-.10449-2.812a16.632,16.632,0,0,1,.24755-2.75049,8.424,8.424,0,0,1,.834-2.48145,4.48586,4.48586,0,0,1,2.01074-1.897,7.84937,7.84937,0,0,1,2.84229-.7832,6.8873,6.8873,0,0,1,2.939.3916,5.68654,5.68654,0,0,1,2.3916,1.6206A5.2616,5.2616,0,0,1,48.83984,61.23a12.22249,12.22249,0,0,1,.39405,1.605q.4204,2.96778.78125,6.76025.35961,3.79176.61474,7.36573.25416,3.57422.41748,6.5625.1626,2.98974.28369,4.43554A84.57065,84.57065,0,0,0,52.6665,97.7207a16.73229,16.73229,0,0,0,3.02,7.07422,7.68316,7.68316,0,0,0,4.3291,3.00586,11.20267,11.20267,0,0,0,4.69141.06348A10.61785,10.61785,0,0,0,68.919,105.8291a9.67414,9.67414,0,0,0,3.14648-4.40332,11.34032,11.34032,0,0,0,.67334-2.332,22.70128,22.70128,0,0,0,.3208-2.39258q.05714-3.46289-.06445-8.04883-.12159-4.582-.34961-9.38867-.22852-4.80394-.61231-9.41357-.38451-4.60914-.78027-8.30664a7.54364,7.54364,0,0,1,.69922-3.06153,6.70293,6.70293,0,0,1,1.8081-2.24414,6.10164,6.10164,0,0,1,3.45752-1.19873,5.15065,5.15065,0,0,1,3.00879.7041,8.44607,8.44607,0,0,1,1.96485,1.70166A8.13133,8.13133,0,0,1,83.53809,60.0625Z" transform="translate(-0.00059 0.00011)"/><path class="cls-5" d="M144.24609,107.50293a28.01976,28.01976,0,0,1-.11572,3.28613,5.004,5.004,0,0,1-3.6831,4.22071,6.633,6.633,0,0,1-2.55274.07714,8.70986,8.70986,0,0,1-2.45312-.79589,5.86673,5.86673,0,0,1-1.94922-1.52149,87.00222,87.00222,0,0,1-6.03809-7.36816q-2.792-3.81592-5.62988-7.67481l-8.19629-10.873q-1.67139-2.3174-3.55908-5.208-1.89111-2.89087-3.832-5.36817l2.62256,34.544.06787.81348a8.87888,8.87888,0,0,1-.23584,2.88671,5.53655,5.53655,0,0,1-1.39453,2.52735,4.9158,4.9158,0,0,1-2.15723,1.18164,5.38449,5.38449,0,0,1-3.59863.02734,5.6602,5.6602,0,0,1-2.40625-1.80176,7.91068,7.91068,0,0,1-1.36524-2.84277,11.55159,11.55159,0,0,1-.40527-3.28906l-.12842-1.53516-.416-7.06445L95.8125,88.61328q-.15747-2.89746-.4082-5.92578-.25269-3.02783-.5166-6.19092-.41163-3.87744-.64307-8.227-.23364-4.34912-.37744-8.15967a8.99269,8.99269,0,0,1,.65381-3.603A3.776,3.776,0,0,1,96.14941,54.187a5.61417,5.61417,0,0,1,2.3877-1.01855,7.47339,7.47339,0,0,1,2.63574-.12891c.29736.09717.59522.2085.896.33447q.449.19044.90283.4253.46069.32592.87939.65478a6.53483,6.53483,0,0,1,.79981.752,8.14707,8.14707,0,0,1,.85547.88428q.38379.46875.76806.89112.30469.52147.6001.95117a8.0887,8.0887,0,0,0,.67871.85351l1.06885,1.3667,22.65137,31.23389-.49805-5.96484q-.241-2.89161-.53662-5.91553-.29736-3.02345-.65381-6.27-.31713-3.79542-.63623-8.13721-.31934-4.34179-.46289-8.15185a9.07022,9.07022,0,0,1,.56738-3.59668,3.92651,3.92651,0,0,1,1.30616-2.01954,6.40068,6.40068,0,0,1,4.8291-1.40429,4.95531,4.95531,0,0,1,2.33056.897,6.14089,6.14089,0,0,1,.57032.58984,3.67189,3.67189,0,0,1,.49853.77735,8.59364,8.59364,0,0,1,.69092,2.03564,11.47535,11.47535,0,0,1,.44678,2.2378q.94335,11.29833,1.96728,23.041,1.02246,11.74585,2.05274,23.03467.10547,1.26709.29345,2.47754A18.09927,18.09927,0,0,1,144.24609,107.50293Z" transform="translate(-0.00059 0.00011)"/><path class="cls-5" d="M192.67529,103.46094a3.86369,3.86369,0,0,1,.28174,1.2959q.07178.85986.11719,1.40136a3.54376,3.54376,0,0,1-.14551,1.376,4.84272,4.84272,0,0,1-.59082,1.2334,4.66912,4.66912,0,0,1-2.105,1.81347,11.83262,11.83262,0,0,1-3.81787,1.0459c-.62793.11328-1.28467.19922-1.97412.25684a11.876,11.876,0,0,0-2.05322.35254l-.34473.02929q-6.62915.64161-13.70117,1.14258a34.45715,34.45715,0,0,0-3.874.36914,24.65533,24.65533,0,0,1-4.23.2627,10.78173,10.78173,0,0,1-3.83886-.77149,4.811,4.811,0,0,1-2.60059-2.55859,5.642,5.642,0,0,1-.33008-.83691,4.119,4.119,0,0,1-.15722-.85157,43.13817,43.13817,0,0,1-.76416-6.0332q-.16407-2.98829-.4043-5.88086l-.92139-13.11914-1.01074-12.10986q-.27173-3.25343-.43945-5.7876-.1692-2.53272-.33887-5.61377l-.0376-.45166q.00879-.90894-.02148-1.81836-.033-.906-.1084-1.811a9.02148,9.02148,0,0,1,.65381-3.604,4.36581,4.36581,0,0,1,1.62842-2.31933,4.431,4.431,0,0,1,2.60351-1.03711q.60206-.04981,1.167-.05176.564,0,1.08887.0459a3.0596,3.0596,0,0,1,1.021.27929,6.28184,6.28184,0,0,1,1.05127.63916,7.68906,7.68906,0,0,1,1.07617,1.45752,8.32565,8.32565,0,0,1,.59717,1.95215c.0913.418.18212.80371.2705,1.16065a7.07488,7.07488,0,0,1,.17627,1.07715,3.55275,3.55275,0,0,0-.08154,1.09912q.04541.54272.083.99414l.13574,1.627,3.2085,42.59473,17.07714-1.24414,4.04981-.33789c.34521-.0293.71875-.04493,1.124-.04883.40381-.002.81055.00879,1.21826.03515q.69581.03369,1.2212.08008a6.65591,6.65591,0,0,1,1.05712.18457,3.39261,3.39261,0,0,1,1.626.77442A4.18514,4.18514,0,0,1,192.67529,103.46094Z" transform="translate(-0.00059 0.00011)"/><path class="cls-5" d="M202.186,99.93652,201.67578,92.79l-1.02246-13.292q-.15673-2.89893-.41211-5.97168-.25635-3.07177-.52783-6.32617-.27173-3.25416-.48291-5.78418-.21094-2.52906-.30274-5.70752l-.03027-.36182q.00879-.90967-.02539-1.86328-.03662-.95216-.11963-1.94678a9.90248,9.90248,0,0,1,.65381-3.604,5.84474,5.84474,0,0,1,1.62891-2.31934A5.76226,5.76226,0,0,1,203.646,44.667q.68921-.05712,1.25341-.05859c.37549-.00049.73926.01465,1.08838.0459a3.47676,3.47676,0,0,1,2.07227.91845,4.07654,4.07654,0,0,1,1.06885,1.36719c.14453.35156.2749.69092.38818,1.01367.11426.32471.21436.66455.30273,1.02149q.137.62622.22706,1.16357.08789.53907.1333,1.08154.05272.63356.05127,1.13331c-.002.33349.01367.68066.04394,1.042l.12842,1.53711,3.398,46.94629.07568.90429c.01514.17969.019.40723.01367.68067q-.011.41161-.05029.96a9.231,9.231,0,0,0-.22266.97461q-.08715.50829-.21484,1.06445a8.41979,8.41979,0,0,1-.48828.9043,4.55361,4.55361,0,0,1-.66846.83008,3.98208,3.98208,0,0,1-2.15771,1.18066,6.49392,6.49392,0,0,1-4.43164-.085,3.97609,3.97609,0,0,1-1.61621-1.68555.79791.79791,0,0,1-.30372-.52051,1.131,1.131,0,0,0-.19531-.25683,1.00579,1.00579,0,0,1-.19531-.25586,4.974,4.974,0,0,1-.3374-.92774,6.03894,6.03894,0,0,1-.17285-1.03222c-.083-.2959-.15137-.59278-.20459-.89356-.05518-.29785-.12305-.59472-.20459-.89258a6.79746,6.79746,0,0,1-.12793-1.53613Z" transform="translate(-0.00059 0.00011)"/><path class="cls-5" d="M276.37744,96.83789q.0044,1.08984-.06982,2.28125a8.63439,8.63439,0,0,1-.42188,2.21875,3.81833,3.81833,0,0,1-.98486,1.71973,3.52568,3.52568,0,0,1-2.15723,1.18066,4.53732,4.53732,0,0,1-2.30371.4668,7.66894,7.66894,0,0,1-2.1206-.46094,5.06113,5.06113,0,0,1-1.9292-1.79492,9.76263,9.76263,0,0,1-1.01856-2.32617,13.11758,13.11758,0,0,1-.47705-2.59961q-.11352-1.35645-.21142-2.53125l-.58838-7.04883L262.854,74.124q-.1201-1.44579-.18847-2.25976-.06812-.813-.12451-1.49121c-.0376-.45215-.09571-.96192-.17139-1.53272q-.11572-.854-.25049-2.48144c-.01465-.18116-.02832-.49854-.03613-.95264q-.01466-.68115-.43457-3.64941-2.87037,6.15673-4.77,9.90771a65.04856,65.04856,0,0,1-3.24463,5.82227,10.93525,10.93525,0,0,1-2.40967,2.84033,5.22063,5.22063,0,0,1-2.26269.96191,2.28239,2.28239,0,0,1-1.40137-.15527,7.45548,7.45548,0,0,1-1.41162-.79248,14.66179,14.66179,0,0,1-1.3003-1.0293,7.36893,7.36893,0,0,1-.999-1.05371q-2.29467-2.5393-5.19678-6.11865a85.13337,85.13337,0,0,1-6.1123-8.77149q.00805.09082.20605,2.98536.197,2.89746.55713,7.188.35815,4.2942.72608,9.22217.36695,4.93066.67968,9.17969.30982,4.25391.4629,7.10547a18.10629,18.10629,0,0,1,.06494,2.86133,6.03446,6.03446,0,0,1-.45166,2.90429,5.92263,5.92263,0,0,1-1.6753,2.27832,5.18172,5.18172,0,0,1-2.63916,1.12989,6.29971,6.29971,0,0,1-3.43554-.62305,4.40448,4.40448,0,0,1-1.854-1.9375,10.74207,10.74207,0,0,1-.94385-2.46973q-.19261-1.25829-.333-2.42968-.14283-1.17042-.24659-2.43653l-.50244-7.05566L222.07959,77.3457l-1.01074-12.11035q-.65625-7.86255-.773-15.49707a7.61524,7.61524,0,0,1,.06055-1.8706,11.17371,11.17371,0,0,1,.42089-1.71875,4.92864,4.92864,0,0,1,4.31787-3.36329q.60205-.05053,1.167-.05224.564,0,1.08838.0459a4.89938,4.89938,0,0,1,3.15087,1.876,35.74015,35.74015,0,0,0,2.62208,2.82911,21.36385,21.36385,0,0,1,1.63085,1.86572q.87378,1.11182,1.7544,2.311.88257,1.20117,1.66894,2.31836.78663,1.11695,1.37989,1.977,2.55689,3.60938,4.58789,6.624,2.02954,3.01758,3.77,5.146a6.47681,6.47681,0,0,0,.53955-.81885c.20117-.3496.4165-.73144.64209-1.145.22558-.41309.42285-.80958.59521-1.1875.16992-.37891.30225-.6919.39795-.94336q.74048-1.51612,1.48584-2.99073.74341-1.47216,1.60352-3.1372.85766-1.6626,1.77832-3.65137.917-1.9878,2.17969-4.55029.51123-1.13452,1.332-2.75049a25.8699,25.8699,0,0,1,1.90576-3.16211A16.6961,16.6961,0,0,1,262.71,40.69189a4.41334,4.41334,0,0,1,2.62793-1.26562q.68848-.05714,1.21-.05566.52076.00366,1.04492.04931a3.31534,3.31534,0,0,1,2.06543.82862,5.18684,5.18684,0,0,1,1.16211,1.4497,11.89386,11.89386,0,0,1,.59717,1.95264q.137.62622.22754,1.16455.08789.53834.1333,1.08008.42261,5.0625.92334,10.0249.50025,4.96362.92334,10.02393.51343,6.14647,1.09961,12.64843.58593,6.50391,1.09912,12.64942.1062,1.26563.3125,2.70312A24.42472,24.42472,0,0,1,276.37744,96.83789Z" transform="translate(-0.00059 0.00011)"/><path class="cls-5" d="M285.77148,92.959l-.50976-7.14648-1.023-13.292q-.156-2.89893-.41162-5.97168-.25635-3.07177-.52783-6.32617-.27174-3.25416-.48291-5.78418-.21095-2.52906-.30323-5.70752l-.03027-.36182q.00952-.90966-.02539-1.86328-.03661-.95215-.11914-1.94629a9.89282,9.89282,0,0,1,.65381-3.60449,5.83857,5.83857,0,0,1,1.62842-2.31934,5.76622,5.76622,0,0,1,2.61084-.94629q.68921-.05712,1.2539-.05859.56324-.00073,1.08838.0459a3.47679,3.47679,0,0,1,2.07227.91845,4.0828,4.0828,0,0,1,1.06884,1.36719c.144.35156.27442.69092.38819,1.01367q.17066.48707.30224,1.02149.1377.62622.22705,1.16357.0879.53907.13379,1.08155.05274.63354.05078,1.1333c-.00146.33349.01416.68066.04444,1.042l.12842,1.53711,3.39746,46.94629.07568.90332c.01514.18164.019.4082.01416.68164q-.011.41016-.05029.96a8.97534,8.97534,0,0,0-.22266.97363q-.08788.50978-.21484,1.06543a8.80317,8.80317,0,0,1-.48828.90527,4.63678,4.63678,0,0,1-.66846.82911,3.99019,3.99019,0,0,1-2.15772,1.18066,6.48956,6.48956,0,0,1-4.43212-.084,3.9826,3.9826,0,0,1-1.61573-1.68653.79356.79356,0,0,1-.30371-.5205,1.11418,1.11418,0,0,0-.19531-.25586,1.02016,1.02016,0,0,1-.19531-.25684,5.04212,5.04212,0,0,1-.33741-.92676,6.085,6.085,0,0,1-.17285-1.0332c-.083-.2959-.15185-.59277-.20507-.89258-.05469-.29883-.12256-.5957-.20459-.89355a6.84956,6.84956,0,0,1-.12793-1.53614Z" transform="translate(-0.00059 0.00011)"/><path class="cls-5" d="M347.12744,35.875a3.86324,3.86324,0,0,1,1.15137,2.36084q.0454.542.05127,1.1333a9.71621,9.71621,0,0,1-.04248,1.05029,4.37349,4.37349,0,0,1-.96192,1.99121,4.76068,4.76068,0,0,1-1.82763.97168,8.56083,8.56083,0,0,1-1.18409.37159,12.70833,12.70833,0,0,0-1.27.3789,8.0384,8.0384,0,0,1-1.19825.19141q-.605.05053-1.293.10791l-4.39453.36719q-1.54393.219-3.05224.34521-1.50879.126-2.97266.248.3186,2.79565.58789,6.00244.26807,3.20947.5791,7.45947.30982,4.25244.73633,9.85791.42334,5.60816,1.04346,13.01709l.57324,6.86817a7.84017,7.84017,0,0,0,.19922,1.34961c.02.24023.03906.46679.05664.67773a4.2637,4.2637,0,0,1-.022.77441,14.74319,14.74319,0,0,0-.1001,1.91993,4.23776,4.23776,0,0,1-.01465.86523,5.82727,5.82727,0,0,1-.187.88086c-.21.26074-.30908.45019-.29883.57031l-.21387.56348a4.56576,4.56576,0,0,1-1.49414,1.85449,5.9388,5.9388,0,0,1-4.18457.80371,4.34686,4.34686,0,0,1-2.30859-.626,5.535,5.535,0,0,1-1.25586-1.53321,5.212,5.212,0,0,1-.76123-1.84765,5.6448,5.6448,0,0,1-.40186-1.69532l-3.87744-46.45215q-.51708.04322-2.15429.18018-1.6377.13623-3.49415.24609-1.85742.11059-3.501.15625-1.64576.04761-2.25537.00586-.52515-.04614-1.61768-.13769-1.09276-.09009-1.79639-.21387a5.98018,5.98018,0,0,1-2.98681-1.48,4.07719,4.07719,0,0,1-1.167-2.542q-.04542-.542-.09034-1.084a2.75693,2.75693,0,0,1,.08936-1.00878,2.97474,2.97474,0,0,1,1.22754-1.92237,8.60837,8.60837,0,0,1,1.021-.76806,6.21263,6.21263,0,0,1,1.37256-.70606,12.48225,12.48225,0,0,1,2.54-.75781,10.72784,10.72784,0,0,1,1.3711-.20508c.459-.03857.94824-.0791,1.46484-.12256q3.01537-.25122,5.73047-.478,2.71435-.227,5.72314-.56933,4.99-.5061,9.94873-.876,4.95851-.36695,9.88623-.59765,1.12647-.00221,2.17676.0913a9.12995,9.12995,0,0,1,2.12061.46045,8.224,8.224,0,0,1,1.522.55518A3.50388,3.50388,0,0,1,347.12744,35.875Z" transform="translate(-0.00059 0.00011)"/><path class="cls-5" d="M367.44531,42.27783,368.457,56.481l3.44629-.2876q3.52589-.38379,6.28418-.61524,2.75536-.23,6.125-.42041l.43066-.03613q1.03419-.08643,2.0293-.124.99316-.03663,1.94238-.11719a14.06963,14.06963,0,0,1,2.00879.15088q.96534.14795,1.9375.33936A5.85621,5.85621,0,0,1,395.21,56.7959,4.34978,4.34978,0,0,1,396.29,59.34473c.02539.30224.05371.64843.08691,1.03955a2.89339,2.89339,0,0,1-.08593,1.05322,3.09388,3.09388,0,0,1-.96973,1.90137,2.5825,2.5825,0,0,1-1.56152,1.04,9.83725,9.83725,0,0,1-2.20215.63867,10.99089,10.99089,0,0,1-2.39063.47265l-4.0498.33789-15.93457,1.42139,1.30566,17.72705,17.16406-1.25,4.04981-.33789c.459-.03906.89062-.07422,1.293-.1084a6.688,6.688,0,0,1,1.127-.00293,7.23461,7.23461,0,0,0,1.26855.1211,4.36556,4.36556,0,0,1,1.09668.13672,4.951,4.951,0,0,1,1.80567.84961,4.38484,4.38484,0,0,1,1.2793,1.80468c.082.29688.15136.61035.208.93848a6.93238,6.93238,0,0,1-.59863,3.73535,4.612,4.612,0,0,1-2.27734,1.82813,9.62077,9.62077,0,0,1-3.89649,1.14453c-.62793.11133-1.28418.19824-1.97461.25586q-1.03418.085-1.97363.25586l-.51758.043q-6.70605.74123-13.959,1.165-1.72559.145-2.76172.18457-1.03857.041-1.85645.10938-.8203.07031-1.68066.14062-.8628.07325-2.24121.1875a4.80556,4.80556,0,0,1-3.334-.45019,4.17554,4.17554,0,0,1-1.60839-1.59473.7999.7999,0,0,1-.30371-.52051,1.13945,1.13945,0,0,0-.19532-.25683,1.04264,1.04264,0,0,1-.19531-.25586,4.96359,4.96359,0,0,1-.33691-.92773,5.40653,5.40653,0,0,1-.165-.94141c-.084-.29688-.15137-.59375-.20508-.89356-.05469-.29785-.12305-.59472-.20508-.89355l-.12012-1.44531a5.80594,5.80594,0,0,1-.01757-.72657,6.219,6.219,0,0,0-.01758-.72656l-.58789-7.04883-.91407-13.02832L356.833,54.44824q-.271-3.25341-.43946-5.7876-.16845-2.53271-.33105-5.52294l-.03711-.45215q0-1.0005-.02539-1.86328-.02929-.86207-.10449-1.76612a8.7414,8.7414,0,0,1,.65332-3.60351,8.36128,8.36128,0,0,1,.62793-1.32666,3.00455,3.00455,0,0,1,1.001-.99366,4.96431,4.96431,0,0,1,2.60352-1.03613,4.48668,4.48668,0,0,1,1.042.00342l-.00781-.08984q1.55127-.12965,2.499-.2085.94629-.07909,1.85254-.15479c.60254-.05029,1.249-.11816,1.93555-.207q1.02978-.13036,2.83984-.28222,3.438-.3772,6.541-.6377,3.10254-.25927,6.38476-.44141l.34473-.0288q.95361.01171,1.98926-.0752c.68945-.05762,1.35156-.082,1.99023-.07568a8.218,8.218,0,0,1,1.91407.06836,15.54809,15.54809,0,0,1,1.94531.4292,5.16676,5.16676,0,0,1,2.54,1.33447,4.82794,4.82794,0,0,1,.9873,2.46631c.03028.36084.0586.70849.08692,1.03857a2.65181,2.65181,0,0,1-.09375.96338,3.32715,3.32715,0,0,1-.876,1.98438,6.88769,6.88769,0,0,0-.69336.51269,3.70818,3.70818,0,0,1-.86816.52734,4.22447,4.22447,0,0,1-1.0586.31592q-.55663.09375-1.06445.22559a4.96119,4.96119,0,0,1-1.23535.28515q-.561.04688-1.249.1045l-3.87793.32324-17.22656,1.5293Z" transform="translate(-0.00059 0.00011)"/><path class="cls-5" d="M449.67773,52.33984a49.53027,49.53027,0,0,1,.46973,6.14942q.04688,3.18237-.13379,6.19922a37.80614,37.80614,0,0,1-2.35058,10.29687,22.75842,22.75842,0,0,1-6.11329,8.88281,26.3116,26.3116,0,0,1-10.18847,5.80957,70.03576,70.03576,0,0,1-11.67383,2.56836,35.93754,35.93754,0,0,1-3.99609.46973,18.84683,18.84683,0,0,1-3.96192-.16992,4.49652,4.49652,0,0,1-2.40918-.79981,2.02061,2.02061,0,0,1-.75-.666,6.26507,6.26507,0,0,1-.50586-.86719,3.88849,3.88849,0,0,1-.46777-.917c-.11328-.32324-.24316-.66211-.3877-1.01367q-.1245-.44385-.20117-.84864a7.0205,7.0205,0,0,1-.10742-.76367l-4.30762-51.60351q-.05273-.63135-.09765-1.17432a3.537,3.537,0,0,1,.082-1.09912,8.23637,8.23637,0,0,1,.34375-2.12207,2.98219,2.98219,0,0,1,.81933-1.61524,4.08,4.08,0,0,1,.97754-.76367q.49659-.26806.91407-.48584a1.881,1.881,0,0,1,1.07226-.13525,1.77762,1.77762,0,0,0,1.23047-.33008l14.42188-.83984a21.5219,21.5219,0,0,1,10.39843,1.90771,27.06528,27.06528,0,0,1,8.21582,5.91162,31.60651,31.60651,0,0,1,5.74121,8.48487A35.62537,35.62537,0,0,1,449.67773,52.33984ZM435.083,70.84863a20.59779,20.59779,0,0,0,1.89258-6.437,30.17676,30.17676,0,0,0,.08886-7.24219,33.01779,33.01779,0,0,0-1.54394-7.06054,24.16922,24.16922,0,0,0-2.92871-5.98828,10.32082,10.32082,0,0,0-3.375-2.99512,15.2904,15.2904,0,0,0-4.38379-1.59033,28.0741,28.0741,0,0,0-5.03418-.53565,50.481,50.481,0,0,0-5.15039.15674q.30468,2.61621.50879,5.0542.20361,2.44042.42968,5.15137.186,3.26073.44239,6.33252.25635,3.0747.498,5.96484l1.53907,18.43652q2.66161-.31274,5.10058-.74463a19.38109,19.38109,0,0,0,4.65332-1.43505,14.55613,14.55613,0,0,0,7.2627-7.06739Z" transform="translate(-0.00059 0.00011)"/></g></g></g></g></g></svg>