<svg id="Layer_1" data-name="Layer 1" xmlns="http://www.w3.org/2000/svg" viewBox="0 0 145.40206 168.24351">
  <defs>
    <style>
      .cls-1 {
        fill: #ccc;
      }

      .cls-2 {
        fill: #7f2700;
      }

      .cls-3 {
        fill: #eca442;
      }
    </style>
  </defs>
  <g>
    <g>
      <path class="cls-1" d="M138.8465,123.52978a5.60341,5.60341,0,0,0-1.56525.3555L50.48455,156.636a5.48548,5.48548,0,0,0-1.40057.76359c-9.383-26.87811-2.43809-54.61587,15.73248-67.27587a2.69695,2.69695,0,0,0-1.86753-4.94936,59.21246,59.21246,0,0,1-32.49333-9.3509,59.74635,59.74635,0,0,1-23.9-31.10534,5.60415,5.60415,0,0,0,1.56525-.3555L94.9175,11.61189a6.05983,6.05983,0,0,0,1.41929-.77065C105.87214,37.81152,98.94629,65.71307,80.7079,78.42A2.70307,2.70307,0,0,0,82.579,83.37872a58.37683,58.37683,0,0,1,56.26754,40.15106Z"/>
      <path class="cls-2" d="M98.413,3.88a5.9442,5.9442,0,0,1-.14984,4.58832,6.01626,6.01626,0,0,1-3.34564,3.14353L8.1208,44.36261a5.60415,5.60415,0,0,1-1.56525.3555,5.99085,5.99085,0,0,1-6.01677-8.4393,5.89073,5.89073,0,0,1,2.4851-2.73331,5.893,5.893,0,0,1,.86054-.41023L90.68112.38455A6.01838,6.01838,0,0,1,98.413,3.88Z"/>
      <path class="cls-2" d="M145.01311,127.38076a5.99812,5.99812,0,0,1-2.59166,7.29459,5.551,5.551,0,0,1-.90383.43726l-86.7967,32.75072a5.36174,5.36174,0,0,1-.958.26527,5.98963,5.98963,0,0,1-6.624-8.34907,5.84481,5.84481,0,0,1,1.94508-2.38,5.48548,5.48548,0,0,1,1.40057-.76359l86.7967-32.75071a5.60341,5.60341,0,0,1,1.56525-.3555A5.9934,5.9934,0,0,1,145.01311,127.38076Z"/>
    </g>
    <path class="cls-3" d="M111.636,131.12394l-60,23c-4.08931-10.65326-3.36154-18.16574-2-23,1.29987-4.61528,2.56615-4.61915,13-24,0-.00008,1.33156-2.47337,5-15,.654-2.23332,1.44132-5.0669,0-7-1.27521-1.7103-3.67624-1.886-5-2-.0001,0-4.21729-.39414-17-3a40.16279,40.16279,0,0,1-14-6,46.359,46.359,0,0,1-14-14,7.19689,7.19689,0,0,1,5-2c2.50708.18142,3.1824,2.13875,6,3,2.64988.81,5.03948.00157,8-1,5.54257-1.87509,6.0408-4.23168,9-4,3.2773.25659,3.53153,3.21482,7,4,4.1459.93854,5.69194-2.85585,11-4,7.76136-1.67295,11.40651,5.69342,17.849,3.30919,3.043-1.12615,4.17622-3.56987,7.151-3.30919a7.804,7.804,0,0,1,5,3,25.25345,25.25345,0,0,1-3,6,44.21775,44.21775,0,0,1-11,11,7.56557,7.56557,0,0,0-3.3539,3.78246,5.763,5.763,0,0,0-.03684,3.24476c4.14561,18.08409,9.39068,23.97271,9.39074,23.97278a50.17994,50.17994,0,0,0,13,10c2.9419,1.53046,5.41087,2.39,8,5A20.12273,20.12273,0,0,1,111.636,131.12394Z"/>
  </g>
</svg>
