<svg id="Layer_1" data-name="Layer 1" xmlns="http://www.w3.org/2000/svg" viewBox="0 0 351.7839 408.14038">
  <defs>
    <style>
      .cls-1 {
        fill: none;
      }

      .cls-2 {
        fill: #fff;
      }

      .cls-3 {
        fill: #ff1f1f;
      }

      .cls-4 {
        fill: #c1272d;
      }

      .cls-5 {
        fill: #ffc28a;
      }

      .cls-6 {
        fill: #ffae71;
      }
    </style>
  </defs>
  <g>
    <path class="cls-1" d="M105.12613,36.02206l-.01074.03589Z" transform="translate(0)"/>
    <path class="cls-1" d="M293.3539,157.08575l-.16.59c0-.06.01-.11.01-.17Z" transform="translate(0)"/>
    <path class="cls-1" d="M102.12533,46.06765l.12745-.4267Z" transform="translate(0)"/>
    <path class="cls-1" d="M273.42391,42.07574a2.82205,2.82205,0,0,0-.29-.02,1.05353,1.05353,0,0,1,.24-.48C273.39388,41.74573,273.4139,41.90576,273.42391,42.07574Z" transform="translate(0)"/>
    <path class="cls-1" d="M295.77389,357.87573c-2.78.3-5.41.45-7.76.5a13.86641,13.86641,0,0,0-.32-2.8c.08-.01.17-.03.25-.04,1.27-.22,2.49-.39,3.65-.49.73.46,1.44.93,2.13,1.4C294.42391,356.91577,295.1039,357.39575,295.77389,357.87573Z" transform="translate(0)"/>
    <path class="cls-1" d="M287.90389,352.83575c-.32.12-.63995.23-.94.36-.17-.41-.35-.8-.54-1.18C286.92391,352.28576,287.4139,352.55572,287.90389,352.83575Z" transform="translate(0)"/>
    <path class="cls-1" d="M240.98391,367.61572a.13863.13863,0,0,1-.04.03v-.01C240.95394,367.62573,240.9739,367.62573,240.98391,367.61572Z" transform="translate(0)"/>
    <path class="cls-1" d="M304.67391,356.39575c-.47.11-.94.21-1.4.31-.24-.31-.47-.63-.71-.95C303.30391,355.94574,304.00393,356.16577,304.67391,356.39575Z" transform="translate(0)"/>
    <path class="cls-1" d="M338.02909,354.81781a10.49422,10.49422,0,0,1-5.19,3.35,14.4978,14.4978,0,0,1-7.08,0,16.64454,16.64454,0,0,1-4.17-1.41A23.50361,23.50361,0,0,1,338.02909,354.81781Z" transform="translate(0)"/>
    <path class="cls-1" d="M104.49557,38.1329l-.04.13391Z" transform="translate(0)"/>
    <path class="cls-1" d="M104.75113,37.27749l-.04761.15942Z" transform="translate(0)"/>
    <path class="cls-1" d="M102.89737,43.48312c-.20539.68756-.37915,1.26941-.52533,1.75879C102.53024,44.71224,102.70877,44.11446,102.89737,43.48312Z" transform="translate(0)"/>
    <path class="cls-1" d="M102.034,46.37362l-.1007.33716Z" transform="translate(0)"/>
    <path class="cls-1" d="M101.76089,47.28774c-.03235.10822-.03033.10169,0,0Z" transform="translate(0)"/>
    <path class="cls-1" d="M104.9559,36.59182l-.09839.32953Z" transform="translate(0)"/>
    <path class="cls-2" d="M317.87392,107.80572c-1.26-2.48-3.91-6.09-10.08-9,12.99-15.82,14.99-35.9,6.17-48.43-6.85-9.74-18.77-12.85-19.58-13.05a35.28749,35.28749,0,0,0-20.89,1.31,35.94938,35.94938,0,0,0-6.52-14.36c-12.71-16.59-35.53-14.47-36.55-14.36-22.3,2.43-32.97,22.14-33.83,23.8-.92-3.28-6.01-20.23-22.96-29.02-21.75-11.27-43.39,1.09-45.98,2.61-2.62,1.54-17.04,10.35-22.53,28.72-22.45-9.41-47.1-5.02-61.34,10.44-1.48,1.6-17,19.09-11.75,41.76-2.34-.38-11.04-1.53-18.27,3.92a25.66038,25.66038,0,0,0-7.83,11.75c-4.18,12.65,4.8,32.53,22.53,51.52v47.42c.22-.04.43-.08.65-.12q15.45-2.835,30.9-5.01c-.24.88-.48,1.81-.72,2.78-1.93,7.82-3.54,18.37005-.31,28.06005a29.83,29.83,0,0,0,3.9,7.8,31.19684,31.19684,0,0,0,5.29,5.79c8.2,7.05,20.19,10.67,32.41,10.83.74005-2.37,1.63-4.85,2.67005-7.39-11.89-.02-23.88-4.26-30.98-12.85-10.31-12.47-6.48-29.48-5.25995-34.92005,3.49-15.51,16.31-38.86,35.5-38.8,19.98.06,32.12994,25.46,35.5,40.1.19.84.42,1.84.66,2.96a57.61525,57.61525,0,0,1,8.11-4.55c-.18-.8-.34-1.53-.49-2.17-.33-1.42-.73-2.93-1.2-4.5q13.2-.27,26.4-.05c-.48,1.4-.76,2.34-.85,2.63-.08.28-.16.57-.25.86-2.74,9.34-7.76,27.8,2,41.7a33.3369,33.3369,0,0,0,9.53,8.92c20.02,12.76,54.89,9.75,69.14-9.59,9.6-13.03,7.06-29.63,5.25-38.05q17.355,2.37,34.73,5.57v-39.03q1.08006-3.15,2.16-6.3C314.88393,140.76575,324.07393,120.00574,317.87392,107.80572Zm-189.76,30.43c-.27-.25-.55-.49-.84-.74-5.81995-4.92-14.34-9.74-25.15-9.26-11.9.53-20.66,7.21-26.3,13.44-.23.25-.45.5-.67.75a51.70313,51.70313,0,0,0-6.94,10.06q.975-4.74,1.95-9.48c.05-.22.09-.44.14-.66q.57-2.76,1.14-5.53c2.25-2.63,13.32-15.01,30.68-15.1,17.31-.09,28.44,12.09,30.72,14.7.09.29.17005.56995.26.85.07.26.15.51.23.77q1.36506,4.605,2.75,9.23A47.91908,47.91908,0,0,0,128.11391,138.23572Zm50.55,9.29q.99-4.815,1.99-9.65c.05-.26.11005-.53.16-.79.05-.21.09-.42.13-.63,2.25-2.63,13.32-15.02,30.69-15.11,17.3-.09,28.43,12.09,30.72,14.71.56,1.89,1.13,3.78,1.69,5.67005.08.25.15.5.23.75995.43,1.47.87,2.94,1.31,4.41a42.6366,42.6366,0,0,0-3.62994-4.68c-.24-.27-.49-.55-.74-.83-5.42-5.88-15.58-14.14-29.58-13.51-9.4.41-16.83,4.67-22.33,9.51-.29.25-.56.5-.84.76a53.93843,53.93843,0,0,0-8.04,9.44,44.64593,44.64593,0,0,0-2.71,4.53C178.0339,150.58575,178.34389,149.05572,178.6639,147.52576Zm64.91,84.83c-13.27,16.95-47.47,17.34-61.8,0-10.3-12.47-6.48-29.48-5.25-34.91,3.48-15.52,16.3-38.86,35.49-38.8,19.99.06,32.12994,25.45,35.5,40.09C249.0339,205.31573,252.6039,220.82574,243.57393,232.35577Z" transform="translate(0)"/>
    <path class="cls-3" d="M240.98391,367.61572a.13863.13863,0,0,1-.04.03v-.01C240.95394,367.62573,240.9739,367.62573,240.98391,367.61572Z" transform="translate(0)"/>
    <path class="cls-4" d="M240.98391,367.61572a.13863.13863,0,0,1-.04.03v-.01C240.95394,367.62573,240.9739,367.62573,240.98391,367.61572Z" transform="translate(0)"/>
    <path class="cls-3" d="M295.77389,357.87573c-2.78.3-5.41.45-7.76.5a13.86641,13.86641,0,0,0-.32-2.8c.08-.01.17-.03.25-.04a13.20976,13.20976,0,0,0-.25-1.59q.855-.15,1.68-.27-.72006-.42-1.47-.84c-.32.12-.63995.23-.94.36-.17-.41-.35-.8-.54-1.18-.13-.07-.25-.14-.38-.2a82.67942,82.67942,0,0,0-15.22-6.19c-.79.71-1.59,1.42-2.39,2.12-.41.36-.82.7-1.23,1.05a151.49242,151.49242,0,0,1-39.21,23.93c-.82.34-1.65.69-2.48,1.02-.3.28-.6.56-.91.84a43.23609,43.23609,0,0,1-27.31,11.16,48.84643,48.84643,0,0,1-11.93-1.45c-3.28.45-6.6.82-9.96,1.08q-7.08.57-14.36.58a176.92137,176.92137,0,0,1-43.73-5.43c-.59.01-.98,0-1.12,0a42.36728,42.36728,0,0,1-23.32-8.01c-.31-.22-.61-.44-.91-.66a152.09912,152.09912,0,0,1-35.89-21.84c-.43-.36-.87-.72-1.3-1.09-1.29-1.08-2.56-2.19-3.8-3.31v24.44c.26.29.54.57.81.86005.25.26.5.53.76.8.2.2.39.42.59.62a78.79691,78.79691,0,0,0,6.8,6.09c1.03.83,2.08,1.64,3.17,2.44.92.67,1.85,1.33,2.81,1.98a130.43574,130.43574,0,0,0,30.13,14.76c1.26.44,2.53.87,3.81,1.28a188.61491,188.61491,0,0,0,28.63,6.73c2.86.45,5.76.84,8.68,1.17q4.395.49494,8.85.81a215.32892,215.32892,0,0,0,22.62994.42c1.59-.06,3.17-.13,4.75-.22.47-.03.95-.06,1.42-.09q1.71-.105,3.39-.24.75-.06006,1.5-.12c1.23-.11,2.47-.23,3.68994-.36.33-.03.65-.06.98-.09q2.355-.255,4.68-.57c.24-.03.48-.06.72-.1,1.31-.17005,2.62-.36005,3.91-.56.39-.06.78-.13,1.17-.19,1.22-.2,2.44-.41,3.65-.62.31-.06.62-.11.93-.17q4.635-.855,9.12-1.92l.48-.12c1.35-.32,2.69-.65,4.02-1,.2-.05.39-.11.59-.16,4.5-1.2,8.87006-2.55,13.07-4.04.05-.02.09-.04.14-.06.56-.2,1.12-.4,1.68-.61.55-.2,1.1-.41,1.65-.62s1.1-.42,1.64-.64c.72-.28,1.43-.56,2.13-.86.9-.37,1.79-.75,2.68-1.14.4-.17.8-.35,1.19-.53.65-.28,1.29-.58,1.92-.88.51-.23,1.01-.48,1.52-.72.52-.25,1.04-.5,1.55-.76,10.93-5.46,20.18-12.04,27.14-19.49.29-.31.58-.61.86-.92a6.80847,6.80847,0,0,0,.95.92c2.51,1.98,5.37,1.13,6.93.42.36-.16.66-.32.86-.43a16.01509,16.01509,0,0,0,8.28-11.7,83.73763,83.73763,0,0,0,12.55,2C298.96389,360.25574,297.42391,359.06573,295.77389,357.87573Zm-54.83,9.77v-.01c.01-.01.03-.01.04-.02A.13863.13863,0,0,1,240.94393,367.64575Z" transform="translate(0)"/>
    <path class="cls-3" d="M240.98391,367.61572a.13863.13863,0,0,1-.04.03v-.01C240.95394,367.62573,240.9739,367.62573,240.98391,367.61572Z" transform="translate(0)"/>
    <path class="cls-3" d="M287.90389,352.83575c-.32.12-.63995.23-.94.36-.17-.41-.35-.8-.54-1.18C286.92391,352.28576,287.4139,352.55572,287.90389,352.83575Z" transform="translate(0)"/>
    <path class="cls-3" d="M295.77389,357.87573c-2.78.3-5.41.45-7.76.5a13.86641,13.86641,0,0,0-.32-2.8c.08-.01.17-.03.25-.04a11.92852,11.92852,0,0,1,.07,1.21c1.76-.04,3.68-.13,5.71-.3C294.42391,356.91577,295.1039,357.39575,295.77389,357.87573Z" transform="translate(0)"/>
    <path class="cls-3" d="M320.88393,347.36572a45.54848,45.54848,0,0,1-8.16,4.32,41.57461,41.57461,0,0,0-11.34-2.8,29.51558,29.51558,0,0,0-4.29-.12q2.22006,2.685,4.12,5.22c.74.19,1.44.41,2.11.64-.46.11-.93.21-1.38.31.21.28.42.55.62.82.24.32.47.64.71.95,1.19,1.62,2.29,3.18,3.28,4.65a38.67814,38.67814,0,0,0,6.13-.87c4.72,4.34,8.05,9.09,13.81,9.13,5,.04,9.12-3.46,11.86-6.5.21-2.69.43-5.38.64-8.06a36.24832,36.24832,0,0,1,12.79,6.4v-12.95S338.93392,335.13574,320.88393,347.36572Zm11.96,10.8a14.49871,14.49871,0,0,1-7.07995,0,16.64872,16.64872,0,0,1-4.17005-1.41,23.50376,23.50376,0,0,1,16.44-1.94A10.49439,10.49439,0,0,1,332.84389,358.16577Z" transform="translate(0)"/>
    <path class="cls-5" d="M91.96389,371.85577a152.09912,152.09912,0,0,1-35.89-21.84c-.43-.36-.87-.72-1.3-1.09-1.29-1.08-2.56-2.19-3.8-3.31q-3.15-2.865-6.08-5.88995c1.09-.31,2.23-.64,3.43-.97a161.69963,161.69963,0,0,1,20.56-4.14c4.43-.61,8.66-1.02,12.59-1.28-.17.06-.34.13-.52.2a11.49224,11.49224,0,0,0-5.22,3.92,8.59511,8.59511,0,0,0-1.27,3.14c-1.38,6.71,3.84,15.48,5.19,17.74.43.72.9,1.45,1.41,2.2.1.15.2.3.32.46.23.34.48.68.74,1.02.25.34.51.69.79,1.03.43.54.87,1.08,1.34,1.62.2.24.4.47.62.7.76.85,1.57,1.7,2.43,2.53.24.24.49.47.75.71.2.19.41.37.62.56.18.16.36.32.55.49.24.2.48.41.72.61.32.27.65.54.99.8C91.27389,371.33575,91.61391,371.59576,91.96389,371.85577Z" transform="translate(0)"/>
    <path class="cls-5" d="M99.94393,302.47577c-14.19,1.11-30.11,4.32-45.57,11.66a107.63486,107.63486,0,0,0-19.1,11.57c-.47.36-.93.73-1.39,1.09-14.12-19.03-22.28-41.46-22.28-65.49a108.15409,108.15409,0,0,1,17.51-58.59q15.45-2.835,30.9-5.01c-.24.88-.48,1.81-.72,2.78-2.47,9.99005-4.41,24.46,3.59,35.86,7.62,10.86,22.49,16.42,37.69995,16.62a83.34463,83.34463,0,0,0-3.97,24.35C96.57393,285.38574,96.55391,294.09576,99.94393,302.47577Z" transform="translate(0)"/>
    <path class="cls-5" d="M270.82393,345.62573c-.79.71-1.59,1.42-2.39,2.12-.41.36-.82.7-1.23,1.05a151.49242,151.49242,0,0,1-39.21,23.93c-.82.34-1.65.69-2.48,1.02.4-.37.79-.75,1.17-1.13.21-.2.42-.42.62-.62a.17713.17713,0,0,1,.04-.05l.06-.06a1.89614,1.89614,0,0,0,.14-.15c.26-.27.52-.54.76-.81.05-.05.09-.1.13-.14.05-.06.1-.11.15-.17.25-.26.48-.52.7-.79.3-.35.6-.7.89-1.06.15-.17.29-.35.42-.53.14-.18.27-.36.41-.53.28-.35.54-.71.79-1.06.26-.35.5-.7.73-1.04.24-.35.46-.69.68-1.04.22-.34.43-.67.62994-1.01,1.57-2.63,8.43006-14.13,3.92005-20.88a11.51514,11.51514,0,0,0-5.22-3.92c-.18-.07-.34-.13-.52-.2a170.59359,170.59359,0,0,1,33.15,5.42005c.52.13995,1.02.28,1.51.42q.915.255,1.77.51l1.02.3C269.92391,345.34576,270.38393,345.48572,270.82393,345.62573Z" transform="translate(0)"/>
    <path class="cls-5" d="M171.49392,190.79577c-.48,1.4-.76,2.34-.85,2.63-.08.28-.16.57-.25.86a33.08459,33.08459,0,0,0-3.3-.5,38.8476,38.8476,0,0,0-20.31,3.73c-.18-.8-.34-1.53-.49-2.17-.33-1.42-.73-2.93-1.2-4.5Q158.29388,190.57578,171.49392,190.79577Z" transform="translate(0)"/>
    <path class="cls-5" d="M310.06392,261.43573c0,27.09-10.37,52.16-27.96,72.6q-1.89-1.57506-3.89-3.11c-19-14.44995-40.35-20.55-59.24-22.71,1.91-3.62,3.21-8.11,1.63-12.63-2.43-6.97-11.07-10.01-16.97-10.44a23.21473,23.21473,0,0,0-14.35,3.92l-7.36-44.16c20.02,12.76,54.89,9.75,69.14-9.59,9.6-13.03,7.06-29.63,5.25-38.05q17.355,2.37,34.73,5.57v-2.27C303.15389,218.56573,310.06392,239.32574,310.06392,261.43573Z" transform="translate(0)"/>
    <path class="cls-5" d="M185.36391,384.29577c-3.28.45-6.6.82-9.96,1.08q-7.08.57-14.36.58a176.92137,176.92137,0,0,1-43.73-5.43,46.68734,46.68734,0,0,0,5.16-.41,51.80372,51.80372,0,0,0,11.94-3,38.40346,38.40346,0,0,0,19.64-16.17c.63-1.06,1.19-2.13,1.69-3.19a37.628,37.628,0,0,0,3.7,8.41c5.71,9.6,14.34,14.5,21.93,17C182.74392,383.61572,184.08388,383.98572,185.36391,384.29577Z" transform="translate(0)"/>
    <path d="M138.67391,202.06573c-16.62,11.07-28.02,29.25-29.01,30.87a91.2187,91.2187,0,0,0-6.41,12.64c-11.89-.02-23.88-4.26-30.98-12.85-10.31-12.47-6.48-29.48-5.25995-34.92005,3.49-15.51,16.31-38.86,35.5-38.8,19.98.06,32.12994,25.46,35.5,40.1C138.20394,199.94574,138.43392,200.94574,138.67391,202.06573Z" transform="translate(0)"/>
    <path class="cls-2" d="M125.4422,183.6277c-3.61768-6.10089-6.851-11.4234-13.54914-14.95776a26.641,26.641,0,0,0-18.06543-2.493c28.23926,34.55835,37.00055,41.30817,39.15619,39.86407C135.45367,204.38625,130.06683,191.4269,125.4422,183.6277Z" transform="translate(0)"/>
    <path d="M136.08388,147.26575a47.91908,47.91908,0,0,0-7.97-9.03c-.27-.25-.55-.49-.84-.74-5.81995-4.92-14.34-9.74-25.15-9.26-11.9.53-20.66,7.21-26.3,13.44-.23.25-.45.5-.67.75a51.70313,51.70313,0,0,0-6.94,10.06q.975-4.74,1.95-9.48c.05-.22.09-.44.14-.66q.57-2.76,1.14-5.53c2.25-2.63,13.32-15.01,30.68-15.1,17.31-.09,28.44,12.09,30.72,14.7.09.29.17005.56995.26.85.07.26.15.51.23.77Q134.69894,142.64078,136.08388,147.26575Z" transform="translate(0)"/>
    <path class="cls-6" d="M218.9739,308.21576a172.087,172.087,0,0,0-41.26.52,43.2762,43.2762,0,0,0-20.28,20.81c-18.77-.3-42.73-3.1-54.3-20.9a36.58155,36.58155,0,0,1-3.19-6.17c-3.39-8.38-3.37-17.09-3.33-25.16a83.34463,83.34463,0,0,1,3.97-24.35c.74005-2.37,1.63-4.85,2.67005-7.39a91.2187,91.2187,0,0,1,6.41-12.64c.99-1.62,12.39-19.8,29.01-30.87a57.61525,57.61525,0,0,1,8.11-4.55,38.8476,38.8476,0,0,1,20.31-3.73,33.08459,33.08459,0,0,1,3.3.5c-2.74,9.34-7.76,27.8,2,41.7a33.3369,33.3369,0,0,0,9.53,8.92l7.36,44.16a23.21473,23.21473,0,0,1,14.35-3.92c5.9.43,14.54,3.47,16.97,10.44C222.18392,300.10577,220.88393,304.59576,218.9739,308.21576Z" transform="translate(0)"/>
    <path d="M243.57393,232.35577c-13.27,16.95-47.47,17.34-61.8,0-10.3-12.47-6.48-29.48-5.25-34.91,3.48-15.52,16.3-38.86,35.49-38.8,19.99.06,32.12994,25.45,35.5,40.09C249.0339,205.31573,252.6039,220.82574,243.57393,232.35577Z" transform="translate(0)"/>
    <path class="cls-2" d="M221.4105,167.43847a26.6418,26.6418,0,0,0-18.06543-2.493c28.23926,34.55835,37.00074,41.30823,39.15625,39.86408,2.47-1.65473-2.917-14.61408-7.5415-22.41333C231.34214,176.29541,228.10875,170.97284,221.4105,167.43847Z" transform="translate(0)"/>
    <path d="M245.58388,146.89575a42.6366,42.6366,0,0,0-3.62994-4.68c-.24-.27-.49-.55-.74-.83-5.42-5.88-15.58-14.14-29.58-13.51-9.4.41-16.83,4.67-22.33,9.51-.29.25-.56.5-.84.76a53.93843,53.93843,0,0,0-8.04,9.44,44.64593,44.64593,0,0,0-2.71,4.53c.32-1.53.63-3.06.95-4.59q.99-4.815,1.99-9.65c.05-.26.11005-.53.16-.79.05-.21.09-.42.13-.63,2.25-2.63,13.32-15.02,30.69-15.11,17.3-.09,28.43,12.09,30.72,14.71.56,1.89,1.13,3.78,1.69,5.67005.08.25.15.5.23.75995C244.70394,143.95575,245.14388,145.42572,245.58388,146.89575Z" transform="translate(0)"/>
    <path d="M313.45394,373.99573c-.37006.32-3.97-4.69-11-10.82-.66-.57-1.35-1.16-2.07-1.75-1.42-1.17-2.96-2.36-4.61-3.55-.67-.48-1.35-.96-2.05-1.43-.69-.47-1.4-.94-2.13-1.4s-1.46-.91-2.22-1.37q-.72006-.42-1.47-.84c-.49-.28-.98-.55-1.48-.82-.13-.07-.25-.14-.38-.2a82.67942,82.67942,0,0,0-15.22-6.19c-.44-.14-.9-.28-1.36-.42l-1.02-.3q-.855-.25506-1.77-.51c-.49-.14-.99-.28-1.51-.42a170.59359,170.59359,0,0,0-33.15-5.42005c.18.07.34.13.52.2a11.51514,11.51514,0,0,1,5.22,3.92c4.51,6.75-2.35,18.25-3.92005,20.88-.2.34-.41.67005-.62994,1.01-.22.35-.44.69-.68,1.04-.23.34-.48.69-.73,1.04s-.51.71-.79,1.06c-.14.17-.27.35-.41.53-.13.18-.27.36-.42.53-.29.36-.59.71-.89,1.06-.23.26-.46.53-.7.79-.05.06-.1.11005-.15.17-.04.04-.08.09-.13.14-.24.27-.5.54-.76.81a1.89614,1.89614,0,0,1-.14.15l-.06.06a.17713.17713,0,0,0-.04.05c-.2.2-.41.42-.62.62-.38.38-.77.76-1.17,1.13-.3.28-.6.56-.91.84a43.23609,43.23609,0,0,1-27.31,11.16,48.84643,48.84643,0,0,1-11.93-1.45c-1.28-.31-2.62-.68-3.99-1.13-7.59-2.5-16.22-7.4-21.93-17a37.628,37.628,0,0,1-3.7-8.41c-.5,1.06-1.06,2.13-1.69,3.19a38.40346,38.40346,0,0,1-19.64,16.17,51.80372,51.80372,0,0,1-11.94,3,46.68734,46.68734,0,0,1-5.16.41c-.59.01-.98,0-1.12,0a42.36728,42.36728,0,0,1-23.32-8.01c-.31-.22-.61-.44-.91-.66-.35-.26-.69-.52-1.03-.79-.34-.26-.67-.53-.99-.8-.24-.2-.48-.41-.72-.61-.19-.17-.37-.33-.55-.49-.21-.19-.42-.37-.62-.56-.26-.24-.51-.47-.75-.71-.86-.83-1.67-1.68-2.43-2.53-.21-.23-.42-.47-.62-.7-.47-.54-.91-1.08-1.34-1.62-.27-.35-.53-.69-.79-1.03-.25-.34-.5-.68-.74-1.02-.11-.15-.22-.31-.32-.46-.51-.75-.98-1.48-1.41-2.2-1.35-2.26-6.57-11.03-5.19-17.74a8.59511,8.59511,0,0,1,1.27-3.14,11.49224,11.49224,0,0,1,5.22-3.92c.18-.07.35-.14.52-.2-3.93.26-8.16.67-12.59,1.28a161.69963,161.69963,0,0,0-20.56,4.14c-1.2.33-2.34.66-3.43.97a87.325,87.325,0,0,0-17.44995,6.86c-17.96,9.58-26.81,22.69-27.41,22.19-.77-.64,11.61-24.47,33.85-41.98.46-.36.92-.73,1.39-1.09a107.63486,107.63486,0,0,1,19.1-11.57c15.46-7.34,31.38-10.55,45.57-11.66a36.58155,36.58155,0,0,0,3.19,6.17c11.57,17.8,35.53,20.6,54.3,20.9a43.2762,43.2762,0,0,1,20.28-20.81,172.087,172.087,0,0,1,41.26-.52c18.89,2.16,40.24,8.26,59.24,22.71q1.995,1.53,3.89,3.11a127.9343,127.9343,0,0,1,16.34,16.5q1.455,1.755,2.77,3.45c.25.32.49.64.73.95.21.28.42.55.62.82.24.32.47.64.71.95,1.19,1.62,2.29,3.18,3.28,4.65.41.61.81,1.2,1.18,1.78C311.7839,369.38574,313.77389,373.72577,313.45394,373.99573Z" transform="translate(0)"/>
  </g>
</svg>
