<svg xmlns="http://www.w3.org/2000/svg" xmlns:xlink="http://www.w3.org/1999/xlink" viewBox="0 0 140.77854 177.79299">
  <defs>
    <style>
      .cls-1, .cls-4 {
        fill: none;
      }

      .cls-2 {
        clip-path: url(#clip-path);
      }

      .cls-3 {
        fill: #eca442;
      }

      .cls-4 {
        stroke: #a67c52;
        stroke-miterlimit: 10;
        stroke-width: 8px;
      }

      .cls-5 {
        fill: #006837;
      }

      .cls-6 {
        fill: #009245;
      }

      .cls-7 {
        fill: #22b573;
      }
    </style>
    <clipPath id="clip-path" transform="translate(-0.0001 0.00029)">
      <rect class="cls-1" width="140.77901" height="177.79201"/>
    </clipPath>
  </defs>
  <g id="Layer_2" data-name="Layer 2">
    <g id="Layer_1-2" data-name="Layer 1">
      <g id="Score">
        <g class="cls-2">
          <g class="cls-2">
            <path class="cls-3" d="M119.5065,103.82451l7.951-22.548a73.996,73.996,0,0,0-21.879-26.297l-11.344,32.172Z" transform="translate(-0.0001 0.00029)"/>
            <path class="cls-4" d="M119.5065,103.82451l7.951-22.548a73.996,73.996,0,0,0-21.879-26.297l-11.344,32.172Z" transform="translate(-0.0001 0.00029)"/>
            <path class="cls-3" d="M94.234,87.15171l11.344-32.172a53.86445,53.86445,0,0,0-22.727-9.942l-9.899,28.073Z" transform="translate(-0.0001 0.00029)"/>
            <path class="cls-4" d="M94.234,87.15171l11.344-32.172a53.86445,53.86445,0,0,0-22.727-9.942l-9.899,28.073Z" transform="translate(-0.0001 0.00029)"/>
            <polygon class="cls-3" points="85.404 112.193 110.676 128.866 119.507 103.825 94.234 87.151 85.404 112.193"/>
            <polygon class="cls-4" points="85.404 112.193 110.676 128.866 119.507 103.825 94.234 87.151 85.404 112.193"/>
            <polygon class="cls-3" points="74.91 141.954 100.182 158.627 110.677 128.867 85.404 112.194 74.91 141.954"/>
            <polygon class="cls-4" points="74.91 141.954 100.182 158.627 110.677 128.867 85.404 112.194 74.91 141.954"/>
            <path class="cls-3" d="M136.4254,114.98621a82.32212,82.32212,0,0,0-4.252-22.449,84.24038,84.24038,0,0,0-4.716-11.26l-7.951,22.547Z" transform="translate(-0.0001 0.00029)"/>
            <path class="cls-4" d="M136.4254,114.98621a82.32212,82.32212,0,0,0-4.252-22.449,84.24038,84.24038,0,0,0-4.716-11.26l-7.951,22.547Z" transform="translate(-0.0001 0.00029)"/>
            <polygon class="cls-3" points="94.234 87.152 72.952 73.111 64.122 98.153 85.404 112.194 94.234 87.152"/>
            <polygon class="cls-4" points="94.234 87.152 72.952 73.111 64.122 98.153 85.404 112.194 94.234 87.152"/>
            <path class="cls-3" d="M82.8507,45.0379a41.21092,41.21092,0,0,0-35.873,10.938l25.974,17.135Z" transform="translate(-0.0001 0.00029)"/>
            <path class="cls-4" d="M82.8507,45.0379a41.21092,41.21092,0,0,0-35.873,10.938l25.974,17.135Z" transform="translate(-0.0001 0.00029)"/>
            <polygon class="cls-3" points="64.122 98.153 53.628 127.913 74.91 141.954 85.404 112.194 64.122 98.153"/>
            <polygon class="cls-4" points="64.122 98.153 53.628 127.913 74.91 141.954 85.404 112.194 64.122 98.153"/>
            <path class="cls-3" d="M74.9098,141.95351l-8.551,24.251c9.052,5.34,18.955,7.918,28.666,7.049l5.157-14.627Z" transform="translate(-0.0001 0.00029)"/>
            <path class="cls-4" d="M74.9098,141.95351l-8.551,24.251c9.052,5.34,18.955,7.918,28.666,7.049l5.157-14.627Z" transform="translate(-0.0001 0.00029)"/>
            <path class="cls-3" d="M100.1822,158.62631l12.931,8.531c8.585-5.392,15.082-13.877,19.024-24.133l-21.461-14.158Z" transform="translate(-0.0001 0.00029)"/>
            <path class="cls-4" d="M100.1822,158.62631l12.931,8.531c8.585-5.392,15.082-13.877,19.024-24.133l-21.461-14.158Z" transform="translate(-0.0001 0.00029)"/>
            <path class="cls-3" d="M72.9518,73.11121l-25.974-17.136a52.519,52.519,0,0,0-13.372,22.045l30.516,20.133Z" transform="translate(-0.0001 0.00029)"/>
            <path class="cls-4" d="M72.9518,73.11121l-25.974-17.136a52.519,52.519,0,0,0-13.372,22.045l30.516,20.133Z" transform="translate(-0.0001 0.00029)"/>
            <path class="cls-3" d="M119.5065,103.82451l-8.83,25.042,21.461,14.158a69.57107,69.57107,0,0,0,4.288-28.038Z" transform="translate(-0.0001 0.00029)"/>
            <path class="cls-4" d="M119.5065,103.82451l-8.83,25.042,21.461,14.158a69.57107,69.57107,0,0,0,4.288-28.038Z" transform="translate(-0.0001 0.00029)"/>
            <path class="cls-3" d="M95.0245,173.25331a40.65352,40.65352,0,0,0,18.088-6.096l-12.93-8.531Z" transform="translate(-0.0001 0.00029)"/>
            <path class="cls-4" d="M95.0245,173.25331a40.65352,40.65352,0,0,0,18.088-6.096l-12.93-8.531Z" transform="translate(-0.0001 0.00029)"/>
            <path class="cls-3" d="M64.1217,98.15271l-30.516-20.132a73.5314,73.5314,0,0,0-1.963,35.388l21.985,14.504Z" transform="translate(-0.0001 0.00029)"/>
            <path class="cls-4" d="M64.1217,98.15271l-30.516-20.132a73.5314,73.5314,0,0,0-1.963,35.388l21.985,14.504Z" transform="translate(-0.0001 0.00029)"/>
            <path class="cls-3" d="M31.6422,113.40851a84.14825,84.14825,0,0,0,3.057,11.897,81.73856,81.73856,0,0,0,11.822,22.76l7.106-20.153Z" transform="translate(-0.0001 0.00029)"/>
            <path class="cls-4" d="M31.6422,113.40851a84.14825,84.14825,0,0,0,3.057,11.897,81.73856,81.73856,0,0,0,11.822,22.76l7.106-20.153Z" transform="translate(-0.0001 0.00029)"/>
            <path class="cls-3" d="M53.6275,127.91291l-7.106,20.152a68.25372,68.25372,0,0,0,19.837,18.14l8.551-24.251Z" transform="translate(-0.0001 0.00029)"/>
            <path class="cls-4" d="M53.6275,127.91291l-7.106,20.152a68.25372,68.25372,0,0,0,19.837,18.14l8.551-24.251Z" transform="translate(-0.0001 0.00029)"/>
            <polygon class="cls-5" points="34.388 76.476 104.144 53.026 112.792 7.804 34.388 76.476"/>
            <polyline class="cls-6" points="0 45.722 103.965 53.086 34.209 76.536"/>
            <polyline class="cls-7" points="64.301 50.277 37.614 48.386 47.399 0 81.379 35.319"/>
            <rect x="37.7685" y="98.4973" width="44.22559" height="2.51703" transform="translate(-44.5841 150.98103) rotate(-85.14568)"/>
            <rect x="58.50955" y="77.87055" width="2.5172" height="44.22582" transform="translate(-51.56295 65.71522) rotate(-42.02108)"/>
            <rect x="95.31219" y="63.22247" width="2.51683" height="44.22616" transform="translate(-32.29562 86.58493) rotate(-42.02108)"/>
            <rect x="76.50845" y="85.66352" width="44.22609" height="2.51707" transform="translate(3.66553 177.83454) rotate(-85.14568)"/>
          </g>
        </g>
      </g>
    </g>
  </g>
</svg>
